<?xml version="1.0" encoding="utf-8"?>
<!-- Generator: Adobe Illustrator 15.0.0, SVG Export Plug-In . SVG Version: 6.00 Build 0)  -->
<!DOCTYPE svg PUBLIC "-//W3C//DTD SVG 1.1//EN" "http://www.w3.org/Graphics/SVG/1.1/DTD/svg11.dtd">
<svg version="1.1" id="Слой_1" xmlns="http://www.w3.org/2000/svg" xmlns:xlink="http://www.w3.org/1999/xlink" x="0px" y="0px"
	 width="354.33px" height="566.93px" viewBox="0 0 354.33 566.93" enable-background="new 0 0 354.33 566.93" xml:space="preserve">
<g>
	<path fill="#FFFFFF" d="M107.241,277.172c0,6.833-0.528,13.373-1.582,19.623c-1.054,6.252-2.744,12.065-5.068,17.443
		c-2.328,5.379-5.342,10.267-9.049,14.662c-3.706,4.398-8.25,8.16-13.627,11.284c-5.379,3.126-11.629,5.543-18.751,7.25
		c-7.124,1.708-15.228,2.562-24.311,2.562H4.328V207.51h36.738c22.24,0,38.827,5.723,49.768,17.17
		C101.771,236.128,107.241,253.625,107.241,277.172z M86.854,278.59c0-10.102-0.946-18.642-2.834-25.619
		c-1.892-6.977-4.762-12.608-8.613-16.898c-3.853-4.288-8.686-7.394-14.499-9.321c-5.815-1.925-12.646-2.889-20.496-2.889H23.733
		v109.344h14.499C70.646,333.207,86.854,315.001,86.854,278.59z"/>
	<path fill="#FFFFFF" d="M231.956,277.827c0,12.792-1.509,23.839-4.524,33.14c-3.018,9.306-7.087,16.991-12.21,23.058
		c-5.124,6.07-11.119,10.575-17.987,13.519c-6.868,2.944-14.118,4.415-21.75,4.415c-9.156,0-17.133-1.653-23.929-4.96
		c-6.797-3.307-12.427-8.085-16.897-14.336c-4.47-6.249-7.795-13.862-9.976-22.839c-2.18-8.976-3.271-19.095-3.271-30.361
		c0-12.646,1.489-23.619,4.47-32.923c2.98-9.303,7.031-16.989,12.156-23.058c5.124-6.067,11.101-10.574,17.933-13.518
		c6.831-2.943,14.063-4.416,21.695-4.416c9.156,0,17.132,1.673,23.929,5.015c6.795,3.344,12.445,8.122,16.952,14.336
		c4.505,6.213,7.866,13.791,10.084,22.73C230.848,256.568,231.956,266.636,231.956,277.827z M211.788,279.244
		c0-8.357-0.638-16.007-1.908-22.948c-1.271-6.939-3.324-12.918-6.159-17.933c-2.834-5.015-6.486-8.902-10.956-11.666
		c-4.47-2.761-9.866-4.143-16.189-4.143c-6.105,0-11.355,1.472-15.753,4.415c-4.398,2.944-8.013,6.941-10.847,11.993
		c-2.835,5.052-4.943,10.974-6.323,17.77c-1.382,6.796-2.072,14.009-2.072,21.64c0,8.431,0.654,16.117,1.964,23.056
		c1.307,6.942,3.359,12.902,6.158,17.88c2.798,4.979,6.414,8.85,10.847,11.609c4.434,2.764,9.774,4.144,16.026,4.144
		c6.105,0,11.374-1.472,15.808-4.415c4.432-2.944,8.084-6.939,10.957-11.992c2.87-5.051,4.995-10.956,6.377-17.715
		C211.097,294.179,211.788,286.948,211.788,279.244z"/>
	<path fill="#FFFFFF" d="M351.33,224.081h-42.189v125.915h-19.623V224.081h-42.189V207.51H351.33V224.081z"/>
</g>
<g>
	<path fill="#FFFFFF" d="M101.335,556.479H76.043L34.508,467.63l-11.993-28.563v71.843v45.568H4.419V413.994h24.964l39.573,84.161
		l14.281,32.595v-76.312v-40.444h18.098V556.479z"/>
	<path fill="#FFFFFF" d="M217.11,556.479h-81V413.994h81v16.353h-61.595v44.151h59.196v16.353h-59.196v49.058h61.595V556.479z"/>
	<path fill="#FFFFFF" d="M350.33,430.563h-42.189v125.915h-19.623V430.563h-42.189v-16.569H350.33V430.563z"/>
</g>
<g>
	<path fill="#FFFFFF" d="M100.047,48.174c0,5.838-1.109,11.62-3.328,17.346c-2.218,5.729-5.657,10.854-10.317,15.376
		c-4.66,4.525-10.614,8.191-17.861,10.999c-7.25,2.81-15.903,4.213-25.96,4.213H24.607v51.328H4.859V4.397h40.827
		c7.173,0,14.051,0.785,20.634,2.353c6.583,1.57,12.371,4.104,17.363,7.606c4.992,3.502,8.967,8.027,11.926,13.57
		C98.567,33.473,100.047,40.222,100.047,48.174z M79.523,49.049c0-9.193-3.051-16.233-9.153-21.123
		c-6.102-4.887-14.627-7.333-25.572-7.333H24.607v58.88h18.416c11.686,0,20.691-2.518,27.015-7.552S79.523,59.265,79.523,49.049z"/>
	<path fill="#FFFFFF" d="M224.081,147.437h-25.739l-42.269-89.195l-12.204-28.674v72.122v45.747h-18.416V4.397h25.406l40.271,84.489
		l14.533,32.723V45V4.397h18.417V147.437z"/>
	<path fill="#FFFFFF" d="M348.225,19.719L274.227,129.27h75.44v18.167h-100.18v-14.556l74.441-110.755h-72.445V4.397h96.741V19.719z
		"/>
</g>
</svg>
