<svg width="1036px" height="349.6px" enable-background="new 0 0 1036 349.6" version="1.1" viewBox="0 0 1036 349.6" xmlns="http://www.w3.org/2000/svg">
  <path d="m758.37 48.813c-4.695-0.024-7.527 0.359-12.473 1.378-17.633 3.649-28.465 8.985-62.691 31.008-0.07 0.043 0.316 3.969 0.867 8.707 2.277 19.68 3.555 40.922 3.602 59.907 0.055 20.847-0.297 25.96-5.148 74.113-1.43 14.199-2.426 26.246-2.223 26.772 17.418-3.804 35.516-7.69 56.953-8.948 12.313-0.642 32.531 1.297 52.426 4.434 21.223 3.343 29.336 2.683 40.066 0.746 23.93-4.317 35.492-14.942 35.492-14.942s-2.871-0.66-4.605-0.944c-11.523-1.922-21.836-5.422-27.66-9.41-4.297-2.942-11.465-9.57-11.465-10.603 0-0.437 1.559-0.547 3.93-0.258 4.758 0.586 29.164-0.531 35.336-1.847 21.965-4.685 36.664-16.367 36.664-16.367s-2.449-1.11-3.246-1.536c-2.332-1.246-18.563-5.003-25.977-6.011-9.195-1.254-28.648-0.657-33.16 1.027-1.813 0.676-3.383 1.137-3.484 1.03-0.492-0.507 5.781-8.944 9.922-13.34 6.117-6.496 10.219-8.394 27.168-12.613 10.344-2.574 15.059-4.25 18.746-6.203 21.66-11.461 25.555-21.035 25.555-21.035s-3.746 0.113-9.992 1.965c-24.723 7.316-40.027 7.992-54.48 2.41-9.211-3.559-17.402-7.836-17.059-8.895 0.16-0.496 3.426-3.671 7.277-7.066 8.066-7.109 15.145-10.922 30.75-16.613 6.02-2.196 10.086-4.09 10.086-4.684 0-1.504-26.117-2.609-35.969-1.519-4.129 0.457-8.172 1.074-8.984 1.378-1.238 0.469-1.352-0.042 0.605-2.011 2.633-2.645 4.824-5.086 6.652-7.324 10.145-12.454 8.969-18.676 8.969-18.676s-2.754 0.937-8.34 3.511c-13.484 6.215-32.762 8.383-47.906 5.383-8.371-1.66-23.785-5.746-25.391-6.738-1.504-0.934 1.637-6.902 5.5-10.461 4.883-4.504 12.09-8.555 17.543-9.23 2.422-0.301 4.461-0.567 4.461-0.567s-8.121-4.793-32.84-5.789c-2.125-0.085-3.91-0.132-5.477-0.139z" fill="none"/>
  <path d="m534.57 136.48s32.289 0.96 70.266-23.911 86.141-55.168 102.35-63.308c16.207-8.141 38.902-20.801 75.949-17.184 37.051 3.617 40.832 6.113 51.59 7.125 11.711 1.102 23.902 0.563 23.902 0.563s-8.652 13.441-32.422 18.086c-15.574 3.047-36.121 9.949-36.121 9.949s33.773 3.894 57.426-2.977c25.746-7.48 42.941-16.89 48.168-19.633 8.613-4.523 18.961-10.984 18.961-10.984s-8.695 17.356-16.59 26.336c-9.129 10.379-32.941 28.965-32.941 28.965s26.875-13.859 43.695-16.172c13.727-1.887 22.445-2.687 29.391-3.594 6.949-0.902 17.688-5.558 17.688-5.558s-23.676 35.535-41.219 43.41c-18.125 8.137-52.332 15.375-52.332 15.375s14.359 3.168 33.809 0c19.453-3.164 43.184-9.465 66.227-4.07 25.781 6.035 30.555 7.542 40.43 10.027 7.617 1.918 19.098-0.235 19.098-0.235s-14.234 36.254-57.473 41.551c-40.297 4.934-52.223-3.301-75.035-2.691-15.617 0.414-23.543 9.23-23.543 9.23s18.012-2.234 43.727 4.974c23.57 6.604 31.109 8.297 38.984 8.297 7.871 0 24.465-6.488 24.465-6.488s-6.945 23.515-42.145 26.679c-35.195 3.168-49.258 10.771-49.258 10.771s6.188 10.937 20.543 10.483c14.359-0.448 21.305-7.687 21.305-7.687s-10.188 32.109-59.742 40.699c-17.879 3.101-36.125 3.164-87.531-8.142-51.406-11.304-118.41 7.259-139.4 12.211-15.539 3.668-44.313 7.235-61.133 6.781-11.582-0.308-29.176-3.164-29.176-3.164s19.398 2.114 34.914 1.418c10.781-0.483 27.203-2 37.113-4.312 13.301-3.103 49.898-12.267 60.461-14.567 13.238-2.886 38.004-8.918 72.496-8.3 29.805 0.535 45.941 6.574 69.379 10.422 21.316 3.496 34.012-1.379 46.098-3.672 11.789-2.239 34.25-14.547 34.25-14.547s-15.461-0.469-22.797-5.039c-9.793-6.098-24.617-17.696-24.617-17.696s13.426 0.293 23.664-3.246c14.957-5.164 23.559-9.496 32.125-10.168 8.188-0.636 37.004-5.004 37.004-5.004s-15.773-1.187-24.941-4.382c-9.168-3.2-17.355-7.153-28.816-9.071-10.828-1.812-37.164-3.711-37.164-3.711s4.023-13.523 29.73-19.351c26.984-6.117 38.703 2.613 72.031-1.227 21.441-2.468 33.652-18.777 33.652-18.777s-22.672-13.824-56.559-14.059c-21.547-0.148-32.109 3.532-48.555 3.532-22.27 0-34.535-8.114-34.535-8.114s12.664-5.504 24.875-9.437c13.855-4.461 30.52-11.973 36.094-14.199 7.203-2.879 19.688-18.125 19.688-18.125s-7.105-1.247-23.48 1.953c-7.18 1.402-18.895 4.597-26.82 7.191-8.031 2.625-27.547 5.817-27.547 5.817s14.207-16.028 18.137-20.504c3.93-4.477 11.563-16.36 11.563-16.36s-27.91 11.176-41.441 13.074c-15.363 2.157-23.543 2.395-36.508 2.301-15.523-0.109-21.738-5.824-21.738-5.824s5.633-5.648 12.844-8.465c15.824-6.18 22.293-12.094 22.293-12.094s-29.496-8.128-52.359-7.308c-40.766 1.469-67.695 22.887-87.063 33.461-15.379 8.394-44.133 26.074-59.547 36.492-28.43 19.219-54.078 24.25-61.754 25.527-9.508 1.586-24.083 0.657-24.083 0.657z" fill="#fff"/>
  <path d="m592.45 128.12c-1.18 8e-3 -2.301 0.195-3.301 0.375-5.898 1.055-9.281 1.684-14.23 3.488-3.16 1.153-3.391 0.324-11.57 2.516-6.516 1.75-25.465 1.844-26.234 1.941-0.77 0.094-1.695-0.121-2.09-0.125l0.695 136.19c2.125-0.11 4.621-0.168 7.293-0.09 10.918 0.309 24.332 2.312 29.563 2.102 5.234-0.211 7.059-1.684 7.059-1.684s-8.625-0.642-13.336-3.177c-4.707-2.538-5.758-5.28-5.758-5.28s21.035 5.065 32.949 2.965c14.391-2.535 23.551-11.637 29.305-15.864 5.758-4.226 14.668-6.125 14.668-6.125s-13.613-0.851-22.508 1.262-18.84 5.285-28.781 4.442c-8.582-0.731-19.027-6.575-18.313-11.614 1.047-7.397 8.324-8.858 18.051-8.457 16.363 0.672 21.969 3.599 37.402 2.547 21.715-1.479 34.539-10.362 41.34-18.18 6.801-7.82 10.211-13.108 10.211-13.108s-20.156 13.944-39.516 14.37c-19.359 0.423-32.422-5.926-39.227-8.25-6.801-2.323-13.336-3.995-13.336-3.995s9.926-0.645 15.16-2.337c5.23-1.69 15.191-6.53 20.16-9.276 4.973-2.746 10.086-5.414 13.367-6.379 4.695-1.383 10.703-1.474 10.703-1.474 0.016-4e-3 -11.977-3.5-21.727-2.312-5.457 0.664-21.684 5.019-41.598 4.019-16.508-0.828-30.691-9.229-30.691-9.229s15.516 0.565 24.934-0.91c9.418-1.481 15.68-4.055 19.527-6.778 4.039-2.855 6.621-4.996 11.949-7.992 4.563-2.566 8.938-3.879 8.938-3.879s-10.906-0.797-17.125 2.36c-4.18 2.125-16.887 7.156-26.699 7.199-5.035 0.019-9.145-3.606-9.637-7.082-0.57-4.067 2.359-7.473 6.512-8.762 4.816-1.496 9.922-2.195 9.922-2.195s-5.496-1.5-11.254-0.867c-5.754 0.636-9.539 2.863-15.766 2.269-4.973-0.476-9.043-2.457-9.082-5.984-0.055-4.649 7.375-3.34 14.98-3.469 7.426-0.125 14.93 0.758 23.781-2.77 8-3.187 9.371-5.511 13.086-7.175 5.145-2.305 7.539-2.407 7.539-2.407s-3.776-0.837-7.315-0.817z" fill="#e95f34"/>
  <path d="m187.35 110.99c59.855-52.144 159.11-32.656 159.11-32.656l189.31 58.141 0.105 136.09-464.49 50.219 210.51-36.19 1.606-9.531c14.992-3.532 27.09-17.239 27.09-17.239l48.293-0.854v-5.142h-51.504c-15.313 17.238-32.231 20.56-32.231 20.56l-3.316 8.996-125.49 0.641-115.75 7.175 115.96-11.03 0.32-6.531 16.598-1.392c-40.903 0-50.754-34.476-50.754-34.476 9.851 19.914 35.976 14.988 35.976 14.988-48.289 0-34.051-42.293-34.051-42.293 16.493-50.859 72.813-99.688 72.813-99.688z" fill="#e95f34"/>
  <g fill="#fff">
    <path d="m326.34 289.48c-5.141 0-9.316-5.89-9.316-13.171 0-7.282 4.175-13.168 9.316-13.168h0.32c-0.855-0.321-1.605-0.536-2.57-0.536-5.352 0-9.637 6.103-9.637 13.598 0 7.496 4.285 13.599 9.637 13.599 0.855 0 1.715-0.215 2.57-0.535h-0.32z"/>
    <path d="m330.94 276.31c0-1.821-1.071-3.317-2.356-3.317-1.281 0-2.355 1.496-2.355 3.317 0 1.82 1.074 3.32 2.355 3.32 1.285 0 2.356-1.5 2.356-3.32z"/>
    <path d="m268.84 138.18c54.609-46.469 109.22-28.481 109.22-28.481v-4.816c-65.957-16.168-109.11 33.297-109.11 33.297z"/>
    <path d="m116.68 228.98s0.109 5.353 3.32 8.672c0 0 61.351 5.996 100.11-6.961 67.887-29.55 126.24-30.94 126.03-30.94-5.141-0.859-50.54-6.531-86.516 7.707 0 0-53.324 22.164-83.625 23.233 0 0-52.68 0.431-59.426-1.711h0.106z"/>
    <path d="m178.36 271.71c80.735-3.32 90.262-35.441 165.75-41.332-86.945 3.21-82.875 32.335-165.75 41.332z"/>
    <polygon points="201.16 181.23 216.91 180.48 194.31 202.96 175.25 204.14 194.96 205.43 224.72 178.77 198.38 178.77 173 203.72 173 203.82"/>
  </g>
  <path d="m134.35 178.77 4.07 0.109z" fill="#e95f34"/>
  <g fill="#fff">
    <polygon points="143.88 178.88 131.57 178.88 121.82 202.43 132.85 202.75 124.82 200.82 133.71 180.37 140.56 180.59 135.64 202.96"/>
    <path d="m500.76 198.68c0 12.203 0 24.41-0.106 36.511v36.617c3.746-0.32 7.496-0.75 11.243-1.07v-21.733c0-3.642 0-7.067-0.106-10.603-0.109-5.676-0.43-11.351-0.75-17.022 0.961 5.781 1.926 11.668 2.996 17.453 0.965 5.137 2.035 10.062 3.106 15.098l3.21 16.058c4.07-0.426 8.031-0.75 11.887-1.176v-70.027h-10.602v24.09c0 3.965 0.215 7.926 0.324 11.78 0.105 3.853 0.211 7.817 0.426 11.668-0.535-3.641-1.176-7.172-1.711-10.812-0.535-3.641-1.18-7.176-1.82-10.817-0.75-4.387-1.714-8.776-2.57-13.062-0.859-4.282-1.82-8.672-2.785-12.953h-12.742z"/>
    <path d="m480.63 198.68c0 12.527 0 25.054-0.106 37.582 0 12.527 0 25.16-0.109 37.687l12.527-1.284v-37.047c0-12.313 0-24.625 0.11-37.048h-12.528z"/>
    <path d="m350.75 198.25c0 5.565 0 11.137-0.109 16.703 4.07-0.105 8.031-0.105 11.992-0.216 0 11.778-0.106 23.664-0.106 35.552l-0.109 35.547 16.598-1.606c0-11.672 0.105-23.233 0.105-34.8 0-11.563 0.109-23.235 0.109-34.797 3.747-0.11 7.387-0.11 11.137-0.215v-15.953c-12.851 0-26.129 0-39.726-0.11z"/>
    <path d="m508.47 131.44c0 10.922 0.105 21.739 0.105 32.551 0 10.817 0.11 21.524 0.11 32.231h9.527v-26.446c1.93 0.211 3.855 0.426 5.781 0.747v25.914h8.352v-58.25c-2.676-0.75-5.566-1.497-8.352-2.356v22.379c-1.926-0.32-3.852-0.641-5.887-1.07v-23.129c-3.105-0.856-6.316-1.711-9.637-2.676v0.105z"/>
    <path d="m382.34 96.32c0.105 6.317 0.215 12.742 0.32 18.95 5.356 1.179 10.602 2.464 15.739 3.535 0.214 12.957 0.429 25.91 0.644 38.761 0.215 12.848 0.426 25.59 0.641 38.438 6.961 0 13.597 0.108 20.023 0.108-0.215-11.991-0.32-24.093-0.535-36.191-0.215-12.102-0.32-24.305-0.535-36.512 4.281 0.961 8.566 1.926 12.637 2.891-0.11-5.461-0.11-10.922-0.215-16.383-14.778-4.07-31.051-8.672-48.934-13.598h0.215z"/>
    <path d="m503.86 154.57c0-4.711 0-8.031-0.215-10.812-0.214-2.785-0.64-4.926-1.496-7.176-3.32-8.566-10.066-10.707-11.886-11.137-5.782-1.605-11.778-0.746-14.457 7.282-1.176 3.535-1.391 8.351-1.391 9.425-0.105 3.426-0.105 6.743-0.105 10.172v10.063c0 5.14 0.105 10.281 0.32 15.312 0.215 4.392 0.64 6.317 1.176 8.353 1.285 4.496 5.355 11.672 14.027 11.672 1.18 0 2.57 0 4.926-0.856 2.035-0.75 3-1.394 3.855-2.144 1.391-1.176 2.356-2.892 2.676-3.532 1.82-3.425 2.355-6.96 2.465-11.136 0.105-3.106 0-6.426 0-9.531-3.426-0.426-6.961-0.747-10.602-1.176 0 1.715-0.105 3.32-0.105 5.031 0 1.605 0.105 3.215 0.105 4.82 0 4.603-1.39 6.317-2.89 6.211-0.965 0-1.715-0.644-2.036-0.965-1.39-1.5-1.285-3.854-1.285-6.531 0-5.354-0.105-10.815-0.105-16.167 0-5.461-0.11-10.816-0.11-16.277 0-4.176 0.215-5.996 1.395-6.957 0.32-0.215 0.961-0.645 1.926-0.43 1.285 0.32 2.25 1.82 2.676 3.746 0.324 1.606 0.214 4.285 0.214 4.5 0 2.141 0.11 4.496 0.11 6.852 3.64 0.64 7.172 1.285 10.597 1.926z"/>
    <path d="m434.8 111.31c0.215 14.347 0.32 28.589 0.535 42.722s0.32 28.27 0.535 42.188c12.313 0 23.664 0.104 34.266 0.104 0-4.815-0.11-9.741-0.11-14.558-5.781-0.325-11.882-0.645-18.203-1.075-0.105-6.101-0.105-12.203-0.211-18.308 5.352 0.644 10.492 1.285 15.418 1.82 0-4.926-0.109-9.742-0.109-14.668-4.926-0.855-10.063-1.715-15.418-2.676 0-5.246-0.106-10.601-0.106-15.847 6.102 1.39 11.993 2.675 17.668 3.961 0-4.817-0.109-9.532-0.109-14.348-10.492-2.891-21.734-5.996-34.051-9.422z"/>
    <path d="m310.81 92.25c-96.368-32.977-156.75 60.816-156.75 60.816 38.547 7.926 100.33-7.386 100.33-7.386 19.914-27.516 56.535-53.43 56.535-53.43z"/>
    <path d="m712.83 222.52c-4.012-0.05-9.273 3.267-8.773 6.762 0.566 3.978 7.117 4.087 11.184 0.188 2.469-2.364 2.703-3.711 0.938-5.664-0.798-0.879-2.009-1.269-3.349-1.286z"/>
    <path d="m785.57 189.41-5.617 0.47-0.422 24.242-2.293 1.918c-1.746 1.473-3.098 1.922-5.805 1.922-1.945 0-3.949-0.396-4.445-0.892-0.629-0.629-0.891-4.69-0.891-13.479v-12.591h-5.988l-0.188 9.176c-0.355 18.172 8e-3 19.793 4.914 21.926 2.98 1.296 3.645 1.313 8.914 0.07 5.102-1.199 9.324-4.203 10.766-7.652 0.738-1.762 1.055-5.836 1.055-13.809v-11.301z"/>
    <path d="m769.84 144.41v2.297c0 2.289 8e-3 2.281 4.68 2.504l4.68 0.231 0.188 13.058c0.207 13.027 0.457 14.219 2.926 14.254 0.48 4e-3 1.406-0.195 2.059-0.445 1.02-0.391 1.195-2.278 1.195-13.528v-13.105l4.305 0.258c4.164 0.25 4.305 0.195 4.305-1.614 0-1.699-0.363-1.929-3.93-2.363-2.16-0.265-7.637-0.711-12.168-1.008z"/>
    <path d="m739.89 142.91 0.422 17.082c0.23 9.395 0.539 17.281 0.676 17.504 0.293 0.477 12.465 0.191 18.184-0.419 3.797-0.405 3.934-0.495 3.934-2.714v-2.293l-8.285 0.395-8.262 0.375 0.211-5.336 0.234-5.336h14.977l0.211-1.965c0.203-1.738-0.09-1.992-2.621-2.41-1.566-0.258-5.105-0.484-7.887-0.492h-5.055v-9.547l8.238 0.375 8.238 0.398v-1.941c0-1.066-0.254-2.066-0.563-2.25-0.309-0.18-5.535-0.59-11.609-0.887z"/>
    <path d="m702.07 141.51v39.008h1.895c1.055 0 2.559-0.45 3.32-1.004 1.258-0.918 1.391-2.289 1.453-14.489l0.07-13.476 2.879 5.312c1.59 2.918 4.84 9.016 7.23 13.547l4.352 8.239 3.184-0.165c5.566-0.269 5.23 0.954 5.008-18.347l-0.188-17.434-3.207-0.234-3.18-0.235 0.348 13.528c0.199 7.437 0.227 13.527 0.07 13.527-0.152 0-2.613-4.465-5.473-9.922-2.863-5.457-6.203-11.609-7.418-13.668-2.184-3.695-2.281-3.738-6.297-3.957z"/>
    <path d="m769.75 98.984c-0.516 0.086-0.656 0.668-0.656 2.012 0 2.414-0.09 2.375 6.813 3.559l2.691 0.445 0.488 6.809c0.266 3.734 0.492 9.73 0.492 13.339 0 6.852 0.199 7.254 3.559 7.372l1.684 0.07v-26.328l2.059 0.398c1.133 0.219 3.156 0.606 4.496 0.867 2.285 0.446 2.434 0.336 2.434-1.66v-2.133l-11.047-2.175c-6.074-1.196-11.637-2.317-12.355-2.504-0.259-0.067-0.486-0.098-0.658-0.071z"/>
  </g>
  <path d="m758.37 48.813c-4.695-0.024-7.527 0.359-12.473 1.378-17.633 3.649-28.465 8.985-62.691 31.008-0.07 0.043 0.316 3.969 0.867 8.707 2.277 19.68 3.555 40.922 3.602 59.907 0.055 20.847-0.297 25.96-5.148 74.113-1.43 14.199-2.426 26.246-2.223 26.772 17.418-3.804 35.516-7.69 56.953-8.948 12.313-0.642 32.531 1.297 52.426 4.434 21.223 3.343 29.336 2.683 40.066 0.746 23.93-4.317 35.492-14.942 35.492-14.942s-2.871-0.66-4.605-0.944c-11.523-1.922-21.836-5.422-27.66-9.41-4.297-2.942-11.465-9.57-11.465-10.603 0-0.437 1.559-0.547 3.93-0.258 4.758 0.586 29.164-0.531 35.336-1.847 21.965-4.685 36.664-16.367 36.664-16.367s-2.449-1.11-3.246-1.536c-2.332-1.246-18.563-5.003-25.977-6.011-9.195-1.254-28.648-0.657-33.16 1.027-1.813 0.676-3.383 1.137-3.484 1.03-0.492-0.507 5.781-8.944 9.922-13.34 6.117-6.496 10.219-8.394 27.168-12.613 10.344-2.574 15.059-4.25 18.746-6.203 21.66-11.461 25.555-21.035 25.555-21.035s-3.746 0.113-9.992 1.965c-24.723 7.316-40.027 7.992-54.48 2.41-9.211-3.559-17.402-7.836-17.059-8.895 0.16-0.496 3.426-3.671 7.277-7.066 8.066-7.109 15.145-10.922 30.75-16.613 6.02-2.196 10.086-4.684 10.086-4.684s-26.117-2.609-35.969-1.519c-4.129 0.457-8.172 1.074-8.984 1.378-1.238 0.469-1.352-0.042 0.605-2.011 2.633-2.645 4.824-5.086 6.652-7.324 10.144-12.453 11.148-18.169 11.148-18.169s-6.115 1.499-12.216 3.752c-13.928 5.145-31.065 7.636-46.21 4.636-8.371-1.66-23.785-5.746-25.391-6.738-1.504-0.934 1.637-6.902 5.5-10.461 4.883-4.504 12.09-8.555 17.543-9.23 2.422-0.301 4.461-0.567 4.461-0.567s-8.121-4.793-32.84-5.789c-2.124-0.086-3.909-0.133-5.476-0.14z" fill="none" stroke="#fff" stroke-width="3"/>
  <path d="m470.35 236.69c-1.926-12.632-3.746-25.375-5.672-38.117h-17.348c-1.926 13.063-3.961 26.235-5.887 39.513-1.929 13.276-3.964 26.66-5.996 40.151 4.711-0.429 9.313-0.965 13.918-1.394 0.43-4.817 0.965-9.528 1.391-14.348 3.535-0.32 6.961-0.535 10.387-0.855 0.535 4.605 0.964 9.316 1.5 13.921 4.496-0.429 8.886-0.859 13.277-1.285-1.82-12.527-3.75-25.058-5.57-37.586zm-17.989 11.993v-0.106c4e-3 0 7e-3 -1e-3 0.011-1e-3 0.641-6.171 1.279-12.347 2.025-18.521 0.644-6.426 1.285-12.957 1.82-19.489 0.43 5.356 0.965 10.922 1.394 16.383 0.321 3.535 0.746 7.067 1.071 10.603 0.32 3.531 0.75 7.065 1.07 10.492-2.461 0.215-4.918 0.429-7.38 0.533-4e-3 0.035-7e-3 0.07-0.011 0.106z" fill="#fff"/>
  <path d="m431.16 269.99c0-5.461 0.11-11.026 0-16.487-0.105-5.781-0.32-11.138-3.961-14.457-0.855-0.746-1.605-1.176-3.535-2.142 2.891-2.14 3.965-3.211 4.926-5.03 1.605-2.785 2.57-5.996 2.57-13.173 0-10.706-2.57-17.663-10.922-19.594-1.5-0.319-1.925-0.425-4.496-0.425-7.281-0.11-14.562 0-22.058 0v-0.215c0 14.027-0.106 28.051-0.106 42.078 0 14.026-0.109 28.055-0.109 42.187 5.14-0.535 10.172-0.964 15.097-1.5v-36.401c4.711-0.431 6.856 0.211 7.711 3.211 0.75 2.25 0.641 6.211 0.641 6.637v16.812c0 4.177 0.109 5.031 0.965 8.992 4.926-0.535 9.746-0.961 14.457-1.39-1.07-3.857-1.18-4.927-1.18-9.103zm-13.812-48.609c0 3.315-0.106 7.065-2.571 8.776-1.175 0.86-3.211 1.07-6.211 1.285 0-6.422 0-12.742 0.11-19.164 4.711-0.108 6.637 0 7.816 2.892 0.965 2.246 0.856 5.461 0.856 6.211z" fill="#fff"/>
  <g fill="#fff">
    <path d="m712.83 222.52c-4.012-0.05-9.273 3.267-8.773 6.762 0.566 3.978 7.117 4.087 11.184 0.188 2.469-2.364 2.703-3.711 0.938-5.664-0.798-0.879-2.009-1.269-3.349-1.286z"/>
    <path d="m785.58 189.41-5.617 0.47s0.652 19.16-0.422 24.242c-0.286 1.354-1.162 1.721-1.777 2.146-1.88 1.298-3.613 1.694-6.32 1.694-1.945 0-3.434-0.782-3.93-1.278-0.629-0.629-1.406-4.304-1.406-13.093v-12.591h-5.988l-0.188 9.176c-0.355 18.172 0.73 21.021 5.914 22.346 2.722 0.695 4.404 0.709 8.834 0 5.763-0.922 8.404-4.553 9.846-8.002 0.738-1.762 1.055-5.836 1.055-13.809v-11.301z"/>
    <path d="m769.84 144.41v2.297c0 2.289 8e-3 2.281 4.68 2.504l4.68 0.231 0.188 13.058c0.207 13.027 0.457 14.219 2.926 14.254 0.48 4e-3 1.406-0.195 2.059-0.445 1.02-0.391 1.195-2.278 1.195-13.528v-13.105l4.305 0.258c4.164 0.25 4.305 0.195 4.305-1.614 0-1.699-0.363-1.929-3.93-2.363-2.16-0.265-7.637-0.711-12.168-1.008z"/>
    <path d="m739.89 142.91 0.422 17.082c0.23 9.395 0.539 17.281 0.676 17.504 0.293 0.477 12.465 0.191 18.184-0.419 3.797-0.405 3.934-0.495 3.934-2.714v-2.293l-8.285 0.395-8.262 0.375 0.211-5.336 0.234-5.336h14.977l0.211-1.965c0.203-1.738-0.09-1.992-2.621-2.41-1.566-0.258-5.105-0.484-7.887-0.492h-5.055v-9.547l8.238 0.375 8.238 0.398v-1.941c0-1.066-0.254-2.066-0.563-2.25-0.309-0.18-5.535-0.59-11.609-0.887z"/>
    <path d="m702.07 141.51v39.008h1.895c1.055 0 2.559-0.45 3.32-1.004 1.258-0.918 1.391-2.289 1.453-14.489l0.07-13.476 2.879 5.312c1.59 2.918 4.84 9.016 7.23 13.547l4.352 8.239 3.184-0.165c5.566-0.269 5.23 0.954 5.008-18.347l-0.188-17.434-3.207-0.234-3.18-0.235 0.348 13.528c0.199 7.437 0.227 13.527 0.07 13.527-0.152 0-2.613-4.465-5.473-9.922-2.863-5.457-6.203-11.609-7.418-13.668-2.184-3.695-2.281-3.738-6.297-3.957z"/>
    <path d="m769.75 98.984c-0.516 0.086-0.656 0.668-0.656 2.012 0 2.414-0.09 2.375 6.813 3.559l2.691 0.445 0.488 6.809c0.266 3.734 0.492 9.73 0.492 13.339 0 6.852 0.199 7.254 3.559 7.372l1.684 0.07v-26.328l2.059 0.398c1.133 0.219 3.156 0.606 4.496 0.867 2.285 0.446 2.434 0.336 2.434-1.66v-2.133l-11.047-2.175c-6.074-1.196-11.637-2.317-12.355-2.504-0.259-0.067-0.486-0.098-0.658-0.071z"/>
    <path d="m765.84 114.18c-0.465-7.301-2.148-11.324-6.273-14.953-3.574-3.144-8.098-4.547-12.309-4.398-5.414 0.191-10.305 2.964-11.938 7.91-1.246 3.781-0.43 12.929 1.5 16.918 1.984 4.101 5.84 7.828 9.523 9.199 3.719 1.383 10.688 0.898 13.926-0.961 1.355-0.777 3.219-2.887 4.188-4.75 1.504-2.895 1.688-4.117 1.383-8.965zm-8.215 8.659c-1.867 2.145-5.902 2.946-8.754 1.754-3.164-1.32-5.227-3.793-6.387-7.699-1.84-6.187-1.098-12.066 1.918-15.305 0.977-1.05 2.699-1.593 4.586-1.636s3.922 0.414 5.547 1.402c5.629 3.435 7.5 16.411 3.09 21.484z"/>
    <path d="m718.13 90.115c-4.047-1.777-19.379-5.582-21.832-5.5-0.164 4e-3 -0.262 0.028-0.305 0.071-0.344 0.344 5.047 39.41 5.523 40.039 0.391 0.519 12.563 1.269 16.004 0.984 1.855-0.152 4.891-1.008 6.742-1.894 4.23-2.032 6.48-5.407 7.137-10.649 1.247-9.984-3.906-18.941-13.269-23.051zm3.019 28.153c-2.184 1.836-3.047 2.058-7.934 2.058-3.699 0-5.594-0.304-5.828-0.937-0.332-0.902-4.094-26.227-4.094-27.567 0-0.265 0.395-0.386 1.078-0.375 2.961 0.067 11.117 2.481 13.969 4.403 3.273 2.203 4.949 5.23 5.781 10.531 0.923 5.875 0.056 9.34-2.972 11.887z"/>
    <path d="m744.68 211.66c-1.383-0.97-1.316-1.091 1.238-2.668 6.949-4.294 6.293-14.134-1.027-15.634-0.559-0.112-1.93-0.147-3.723-0.14-5.375 0.023-14.313 0.507-14.742 0.937-0.125 0.125-0.582 6.449-1.031 14.063-0.445 7.617-1.008 15.625-1.238 17.785-0.41 3.812-0.367 3.933 1.449 3.933 1.031 0 2.734-0.324 3.793-0.726 1.734-0.66 1.941-1.133 1.941-4.774 0-2.218 0.188-5.569 0.445-7.44 0.426-3.103 0.672-3.431 2.809-3.771 3.402-0.539 5.195 0.973 8.703 7.329 1.715 3.101 3.559 5.636 4.098 5.636 2.301 0 5.66-1 5.66-1.683 0-1.274-6.852-11.782-8.375-12.847zm-9.782-3.091-2.809 0.47v-5.195c0-5.896 0.191-6.106 5.895-6.106 5.418 0 7.449 2.317 5.688 6.505-1 2.381-2.934 3.346-8.774 4.326z"/>
  </g>
</svg>
