<?xml version="1.0" encoding="utf-8"?>
<!-- Generator: Adobe Illustrator 15.0.0, SVG Export Plug-In . SVG Version: 6.00 Build 0)  -->
<!DOCTYPE svg PUBLIC "-//W3C//DTD SVG 1.1//EN" "http://www.w3.org/Graphics/SVG/1.1/DTD/svg11.dtd">
<svg version="1.1" id="Слой_1" xmlns="http://www.w3.org/2000/svg" xmlns:xlink="http://www.w3.org/1999/xlink" x="0px" y="0px"
	 width="354.33px" height="566.93px" viewBox="0 0 354.33 566.93" enable-background="new 0 0 354.33 566.93" xml:space="preserve">
<g>
	<path fill="#FFFFFF" d="M107.672,280.517c0,6.834-0.528,13.374-1.582,19.624c-1.054,6.252-2.744,12.064-5.068,17.443
		c-2.328,5.379-5.342,10.266-9.049,14.662c-3.706,4.398-8.25,8.16-13.627,11.283c-5.379,3.127-11.629,5.543-18.751,7.25
		c-7.124,1.709-15.228,2.563-24.311,2.563H4.759V210.855h36.738c22.24,0,38.827,5.724,49.768,17.171
		C102.203,239.473,107.672,256.97,107.672,280.517z M87.286,281.935c0-10.102-0.946-18.643-2.834-25.619
		c-1.892-6.977-4.762-12.608-8.613-16.898c-3.853-4.287-8.686-7.394-14.499-9.32c-5.815-1.925-12.646-2.889-20.496-2.889H24.165
		v109.344h14.499C71.078,336.553,87.286,318.346,87.286,281.935z"/>
	<path fill="#FFFFFF" d="M232.387,281.171c0,12.793-1.508,23.84-4.523,33.141c-3.018,9.305-7.088,16.99-12.211,23.057
		c-5.123,6.07-11.119,10.576-17.986,13.52c-6.869,2.943-14.119,4.414-21.75,4.414c-9.156,0-17.133-1.652-23.929-4.959
		c-6.797-3.307-12.427-8.086-16.897-14.336c-4.47-6.25-7.795-13.863-9.976-22.84c-2.18-8.975-3.271-19.094-3.271-30.361
		c0-12.646,1.489-23.619,4.47-32.923c2.98-9.303,7.031-16.988,12.156-23.058c5.124-6.067,11.101-10.574,17.933-13.519
		c6.831-2.943,14.063-4.415,21.696-4.415c9.156,0,17.131,1.673,23.928,5.015c6.795,3.344,12.445,8.122,16.953,14.336
		c4.504,6.214,7.865,13.791,10.084,22.73C231.279,259.914,232.387,269.981,232.387,281.171z M212.219,282.589
		c0-8.357-0.637-16.007-1.908-22.948c-1.271-6.939-3.324-12.919-6.158-17.933c-2.834-5.016-6.486-8.902-10.957-11.666
		c-4.469-2.761-9.865-4.143-16.189-4.143c-6.105,0-11.355,1.472-15.752,4.415c-4.398,2.944-8.013,6.941-10.847,11.993
		c-2.835,5.052-4.943,10.974-6.323,17.77c-1.382,6.795-2.072,14.008-2.072,21.639c0,8.432,0.654,16.118,1.964,23.057
		c1.307,6.941,3.359,12.902,6.158,17.879c2.798,4.979,6.414,8.85,10.847,11.609c4.434,2.764,9.774,4.145,16.026,4.145
		c6.105,0,11.375-1.473,15.809-4.416c4.432-2.943,8.084-6.939,10.957-11.992c2.869-5.051,4.994-10.955,6.377-17.715
		C211.527,297.523,212.219,290.293,212.219,282.589z"/>
	<path fill="#FFFFFF" d="M351.762,227.426h-42.189v125.916h-19.623V227.426H247.76v-16.571h104.002V227.426z"/>
</g>
<g>
	<path fill="#FFFFFF" d="M102.766,558.824H77.474l-41.535-88.85l-11.993-28.563v71.844v45.568H5.85V416.34h24.964l39.573,84.16
		l14.281,32.596v-76.313V416.34h18.098V558.824z"/>
	<path fill="#FFFFFF" d="M218.541,558.824h-81V416.34h81v16.352h-61.594v44.152h59.196v16.352h-59.196v49.059h61.594V558.824z"/>
	<path fill="#FFFFFF" d="M351.762,432.908h-42.189v125.916h-19.623V432.908H247.76V416.34h104.002V432.908z"/>
</g>
<g>
	<path fill="#FFFFFF" d="M39.055,24.243H5.641V7.946h86.81v16.296H59.037v109.186h33.414v16.514H5.641v-16.514h33.415V24.243z"/>
	<path fill="#FFFFFF" d="M222.668,23.156l-74.045,108.751h75.487v18.035H123.868v-14.449l74.488-109.946h-72.49v-17.6h96.802V23.156
		z"/>
	<path fill="#FFFFFF" d="M349.33,149.942h-19.76V84.756h-60.945v65.186h-19.76V7.946h19.76v60.079h60.945V7.946h19.76V149.942z"/>
</g>
</svg>
