<?xml version="1.0" encoding="utf-8"?>
<!-- Generator: Adobe Illustrator 15.0.0, SVG Export Plug-In . SVG Version: 6.00 Build 0)  -->
<!DOCTYPE svg PUBLIC "-//W3C//DTD SVG 1.1//EN" "http://www.w3.org/Graphics/SVG/1.1/DTD/svg11.dtd">
<svg version="1.1" id="Слой_1" xmlns="http://www.w3.org/2000/svg" xmlns:xlink="http://www.w3.org/1999/xlink" x="0px" y="0px"
	 width="354.33px" height="566.93px" viewBox="0 0 354.33 566.93" enable-background="new 0 0 354.33 566.93" xml:space="preserve">
<g>
	<path fill="#FFFFFF" d="M106.932,74.695c0,6.834-0.527,13.373-1.582,19.623c-1.053,6.252-2.744,12.065-5.068,17.443
		c-2.328,5.379-5.342,10.267-9.049,14.662c-3.705,4.398-8.25,8.16-13.627,11.284c-5.379,3.126-11.629,5.543-18.75,7.25
		c-7.125,1.708-15.229,2.562-24.311,2.562H4.02V5.033h36.738c22.24,0,38.826,5.723,49.768,17.17
		C101.463,33.651,106.932,51.147,106.932,74.695z M86.545,76.113c0-10.102-0.945-18.642-2.834-25.619
		c-1.891-6.977-4.762-12.608-8.613-16.898c-3.852-4.288-8.686-7.394-14.498-9.321c-5.816-1.925-12.646-2.889-20.496-2.889h-16.68
		V130.73h14.5C70.338,130.73,86.545,112.524,86.545,76.113z"/>
	<path fill="#FFFFFF" d="M231.646,75.349c0,12.793-1.508,23.84-4.523,33.141c-3.018,9.306-7.088,16.991-12.211,23.058
		c-5.123,6.07-11.119,10.575-17.986,13.519c-6.869,2.944-14.119,4.415-21.75,4.415c-9.156,0-17.133-1.653-23.93-4.96
		s-12.426-8.085-16.896-14.336c-4.471-6.249-7.795-13.862-9.977-22.839c-2.18-8.976-3.27-19.095-3.27-30.361
		c0-12.646,1.488-23.619,4.469-32.923c2.98-9.303,7.031-16.989,12.156-23.058c5.125-6.067,11.102-10.574,17.934-13.518
		c6.83-2.943,14.063-4.416,21.695-4.416c9.156,0,17.131,1.673,23.928,5.015c6.795,3.344,12.445,8.122,16.953,14.336
		c4.504,6.213,7.865,13.791,10.084,22.73C230.539,54.091,231.646,64.159,231.646,75.349z M211.479,76.767
		c0-8.357-0.637-16.007-1.908-22.948c-1.271-6.939-3.324-12.918-6.158-17.933c-2.834-5.015-6.486-8.902-10.957-11.666
		c-4.469-2.761-9.865-4.143-16.189-4.143c-6.105,0-11.355,1.472-15.752,4.415c-4.398,2.944-8.014,6.941-10.848,11.993
		c-2.834,5.052-4.943,10.974-6.322,17.77c-1.383,6.796-2.072,14.008-2.072,21.639c0,8.432,0.654,16.117,1.963,23.057
		c1.307,6.942,3.359,12.902,6.158,17.88c2.799,4.979,6.414,8.85,10.848,11.609c4.434,2.764,9.773,4.144,16.025,4.144
		c6.105,0,11.375-1.472,15.809-4.415c4.432-2.944,8.084-6.939,10.957-11.992c2.869-5.051,4.994-10.956,6.377-17.715
		C210.787,91.702,211.479,84.471,211.479,76.767z"/>
	<path fill="#FFFFFF" d="M351.021,21.604h-42.189v125.915h-19.623V21.604H247.02V5.033h104.002V21.604z"/>
</g>
<g>
	<path fill="#FFFFFF" d="M102.336,354.961H77.043l-41.535-88.849l-11.992-28.563v71.843v45.568H5.42V212.475h24.963l39.574,84.162
		l14.281,32.596V252.92v-40.445h18.098V354.961z"/>
	<path fill="#FFFFFF" d="M218.111,354.961h-81V212.475h81v16.354h-61.596v44.15h59.197v16.353h-59.197v49.059h61.596V354.961z"/>
	<path fill="#FFFFFF" d="M351.33,229.045h-42.189v125.916h-19.623V229.045h-42.189v-16.57H351.33V229.045z"/>
</g>
<g>
	<g>
		<path fill="#FFFFFF" d="M185.276,562.961h-22.012l-21.354-45.746c-1.607-3.504-3.25-6.402-4.929-8.701
			c-1.68-2.299-3.486-4.121-5.42-5.473c-1.936-1.35-4.052-2.314-6.352-2.9c-2.3-0.582-4.873-0.875-7.721-0.875h-9.198v63.695H88.799
			V419.92h38.328c8.323,0,15.477,0.914,21.464,2.736c5.985,1.824,10.896,4.379,14.729,7.662c3.833,3.283,6.643,7.24,8.433,11.873
			c1.788,4.635,2.683,9.76,2.683,15.377c0,4.451-0.657,8.664-1.971,12.641c-1.314,3.977-3.269,7.59-5.859,10.834
			c-2.592,3.248-5.804,6.057-9.637,8.428c-3.832,2.371-8.231,4.141-13.195,5.309c4.014,1.387,7.428,3.813,10.239,7.277
			c2.81,3.467,5.676,8.082,8.596,13.844L185.276,562.961z M154.066,459.211c0-7.662-2.393-13.389-7.173-17.184
			c-4.782-3.793-11.518-5.691-20.204-5.691h-18.397v47.279h15.769c4.6,0,8.742-0.527,12.43-1.586
			c3.686-1.057,6.825-2.627,9.418-4.707c2.59-2.08,4.599-4.633,6.022-7.66S154.066,463.15,154.066,459.211z"/>
		<path fill="#FFFFFF" d="M308.781,513.164c0,7.881-1.113,15.014-3.34,21.396c-2.228,6.385-5.494,11.82-9.801,16.307
			c-4.309,4.486-9.582,7.953-15.824,10.396s-13.415,3.666-21.519,3.666c-8.907,0-16.464-1.168-22.668-3.502
			c-6.206-2.334-11.263-5.635-15.167-9.904c-3.906-4.268-6.754-9.393-8.542-15.377c-1.789-5.98-2.683-12.656-2.683-20.027V419.92
			h19.492v94.668c0,5.619,0.529,10.543,1.588,14.773c1.058,4.232,2.793,7.771,5.202,10.617c2.409,2.844,5.53,4.998,9.362,6.457
			c3.833,1.459,8.523,2.188,14.072,2.188c10.365,0,18.015-2.99,22.942-8.973s7.392-14.41,7.392-25.281V419.92h19.492V513.164z"/>
	</g>
	<circle fill="#FFFFFF" cx="44.976" cy="544.023" r="17.5"/>
</g>
</svg>
