<?xml version="1.0" encoding="utf-8"?>
<!-- Generator: Adobe Illustrator 15.0.0, SVG Export Plug-In . SVG Version: 6.00 Build 0)  -->
<!DOCTYPE svg PUBLIC "-//W3C//DTD SVG 1.1//EN" "http://www.w3.org/Graphics/SVG/1.1/DTD/svg11.dtd">
<svg version="1.1" id="Слой_1" xmlns="http://www.w3.org/2000/svg" xmlns:xlink="http://www.w3.org/1999/xlink" x="0px" y="0px"
	 width="354.33px" height="566.93px" viewBox="0 0 354.33 566.93" enable-background="new 0 0 354.33 566.93" xml:space="preserve">
<g>
	<path fill="#FFFFFF" d="M107.672,280.517c0,6.834-0.528,13.374-1.582,19.624c-1.054,6.252-2.744,12.064-5.068,17.443
		c-2.328,5.379-5.342,10.266-9.049,14.662c-3.706,4.398-8.25,8.16-13.627,11.283c-5.379,3.127-11.629,5.543-18.751,7.25
		c-7.124,1.709-15.228,2.563-24.311,2.563H4.759V210.855h36.738c22.24,0,38.827,5.724,49.768,17.171
		C102.203,239.473,107.672,256.97,107.672,280.517z M87.286,281.935c0-10.102-0.946-18.643-2.834-25.619
		c-1.892-6.977-4.762-12.608-8.613-16.898c-3.853-4.287-8.686-7.394-14.499-9.32c-5.815-1.925-12.646-2.889-20.496-2.889H24.165
		v109.344h14.499C71.078,336.553,87.286,318.346,87.286,281.935z"/>
	<path fill="#FFFFFF" d="M232.387,281.171c0,12.793-1.508,23.84-4.523,33.141c-3.018,9.305-7.088,16.99-12.211,23.057
		c-5.123,6.07-11.119,10.576-17.986,13.52c-6.869,2.943-14.119,4.414-21.75,4.414c-9.156,0-17.133-1.652-23.929-4.959
		c-6.797-3.307-12.427-8.086-16.897-14.336c-4.47-6.25-7.795-13.863-9.976-22.84c-2.18-8.975-3.271-19.094-3.271-30.361
		c0-12.646,1.489-23.619,4.47-32.923c2.98-9.303,7.031-16.988,12.156-23.058c5.124-6.067,11.101-10.574,17.933-13.519
		c6.831-2.943,14.063-4.415,21.696-4.415c9.156,0,17.131,1.673,23.928,5.015c6.795,3.344,12.445,8.122,16.953,14.336
		c4.504,6.214,7.865,13.791,10.084,22.73C231.279,259.914,232.387,269.981,232.387,281.171z M212.219,282.589
		c0-8.357-0.637-16.007-1.908-22.948c-1.271-6.939-3.324-12.919-6.158-17.933c-2.834-5.016-6.486-8.902-10.957-11.666
		c-4.469-2.761-9.865-4.143-16.189-4.143c-6.105,0-11.355,1.472-15.752,4.415c-4.398,2.944-8.013,6.941-10.847,11.993
		c-2.835,5.052-4.943,10.974-6.323,17.77c-1.382,6.795-2.072,14.008-2.072,21.639c0,8.432,0.654,16.118,1.964,23.057
		c1.307,6.941,3.359,12.902,6.158,17.879c2.798,4.979,6.414,8.85,10.847,11.609c4.434,2.764,9.774,4.145,16.026,4.145
		c6.105,0,11.375-1.473,15.809-4.416c4.432-2.943,8.084-6.939,10.957-11.992c2.869-5.051,4.994-10.955,6.377-17.715
		C211.527,297.523,212.219,290.293,212.219,282.589z"/>
	<path fill="#FFFFFF" d="M351.762,227.426h-42.189v125.916h-19.623V227.426H247.76v-16.571h104.002V227.426z"/>
</g>
<g>
	<path fill="#FFFFFF" d="M102.766,558.824H77.474l-41.535-88.85l-11.993-28.563v71.844v45.568H5.85V416.34h24.964l39.573,84.16
		l14.281,32.596v-76.313V416.34h18.098V558.824z"/>
	<path fill="#FFFFFF" d="M218.541,558.824h-81V416.34h81v16.352h-61.594v44.152h59.196v16.352h-59.196v49.059h61.594V558.824z"/>
	<path fill="#FFFFFF" d="M351.762,432.908h-42.189v125.916h-19.623V432.908H247.76V416.34h104.002V432.908z"/>
</g>
<g>
	<path fill="#FFFFFF" d="M99.541,112.157c0,6.673-1.363,12.523-4.09,17.544c-2.728,5.023-6.531,9.203-11.41,12.541
		c-4.88,3.336-10.747,5.83-17.599,7.48c-6.854,1.65-14.407,2.477-22.658,2.477c-3.732,0-7.445-0.146-11.141-0.432
		c-3.697-0.287-7.249-0.646-10.656-1.076c-3.409-0.43-6.62-0.932-9.634-1.508c-3.014-0.572-5.742-1.184-8.181-1.828V128.84
		c5.382,2.01,11.426,3.59,18.137,4.736c6.709,1.148,14.333,1.723,22.874,1.723c6.171,0,11.427-0.484,15.769-1.453
		c4.341-0.969,7.893-2.404,10.655-4.305s4.772-4.215,6.028-6.943c1.255-2.727,1.884-5.848,1.884-9.365
		c0-3.803-1.06-7.051-3.176-9.741c-2.117-2.69-4.897-5.095-8.342-7.212c-3.444-2.115-7.373-4.053-11.786-5.813
		c-4.413-1.758-8.917-3.568-13.509-5.436c-4.593-1.865-9.095-3.892-13.509-6.082c-4.413-2.188-8.342-4.772-11.786-7.75
		c-3.444-2.977-6.227-6.475-8.342-10.495c-2.117-4.018-3.175-8.789-3.175-14.316c0-4.807,1.004-9.542,3.014-14.208
		c2.008-4.664,5.129-8.808,9.364-12.432c4.233-3.623,9.669-6.548,16.308-8.772C41.217,8.753,49.129,7.64,58.315,7.64
		c2.368,0,4.933,0.107,7.696,0.323c2.762,0.215,5.561,0.521,8.396,0.915c2.834,0.395,5.633,0.845,8.396,1.346
		c2.763,0.502,5.328,1.041,7.696,1.614V29.06c-5.525-1.578-11.051-2.781-16.576-3.606c-5.526-0.824-10.871-1.238-16.037-1.238
		c-10.979,0-19.053,1.83-24.219,5.489s-7.75,8.576-7.75,14.747c0,3.805,1.058,7.069,3.175,9.795
		c2.116,2.728,4.897,5.167,8.342,7.319c3.445,2.153,7.374,4.108,11.787,5.866c4.414,1.759,8.916,3.57,13.509,5.436
		c4.591,1.867,9.095,3.912,13.508,6.135c4.413,2.225,8.342,4.862,11.786,7.912c3.444,3.051,6.225,6.62,8.343,10.71
		C98.482,101.716,99.541,106.56,99.541,112.157z"/>
	<path fill="#FFFFFF" d="M229.354,150.262h-18.729l-2.799-87.727l-1.184-33.691l-6.566,19.59l-20.775,55.972h-13.239l-19.806-53.819
		l-6.566-21.743l-0.431,35.198l-2.476,86.22h-18.083l6.889-140.685h22.712l18.944,52.958l6.136,17.868l5.919-17.868l19.914-52.958
		h23.357L229.354,150.262z"/>
	<path fill="#FFFFFF" d="M349.91,79.004c0,12.631-1.49,23.538-4.469,32.722c-2.977,9.186-6.996,16.776-12.055,22.766
		c-5.059,5.992-10.979,10.441-17.76,13.348s-13.939,4.359-21.475,4.359c-9.041,0-16.918-1.633-23.627-4.898
		c-6.711-3.266-12.271-7.982-16.684-14.154c-4.414-6.172-7.697-13.688-9.85-22.55c-2.152-8.862-3.229-18.854-3.229-29.978
		c0-12.486,1.471-23.321,4.412-32.507c2.943-9.185,6.943-16.773,12.002-22.766c5.059-5.991,10.961-10.441,17.707-13.347
		c6.744-2.906,13.885-4.359,21.42-4.359c9.043,0,16.916,1.652,23.627,4.951c6.709,3.302,12.289,8.02,16.738,14.155
		s7.768,13.616,9.957,22.443C348.814,58.015,349.91,67.955,349.91,79.004z M329.996,80.404c0-8.251-0.629-15.805-1.883-22.658
		c-1.258-6.852-3.283-12.755-6.082-17.707s-6.404-8.789-10.818-11.518c-4.412-2.727-9.74-4.09-15.984-4.09
		c-6.027,0-11.213,1.453-15.555,4.359s-7.91,6.854-10.709,11.84c-2.799,4.989-4.881,10.836-6.244,17.545
		c-1.363,6.711-2.045,13.832-2.045,21.366c0,8.326,0.646,15.914,1.938,22.765c1.293,6.854,3.318,12.739,6.082,17.654
		c2.762,4.916,6.332,8.736,10.711,11.463c4.377,2.729,9.65,4.09,15.822,4.09c6.027,0,11.23-1.453,15.607-4.359
		s7.982-6.852,10.818-11.84c2.834-4.987,4.934-10.818,6.297-17.492C329.314,95.15,329.996,88.011,329.996,80.404z"/>
</g>
</svg>
