<?xml version="1.0" encoding="utf-8"?>
<!-- Generator: Adobe Illustrator 15.0.0, SVG Export Plug-In . SVG Version: 6.00 Build 0)  -->
<!DOCTYPE svg PUBLIC "-//W3C//DTD SVG 1.1//EN" "http://www.w3.org/Graphics/SVG/1.1/DTD/svg11.dtd">
<svg version="1.1" id="Слой_1" xmlns="http://www.w3.org/2000/svg" xmlns:xlink="http://www.w3.org/1999/xlink" x="0px" y="0px"
	 width="850.39px" height="850.39px" viewBox="0 0 850.39 850.39" enable-background="new 0 0 850.39 850.39" xml:space="preserve">
<g>
	<path fill="#692080" d="M498.348,489.498V357.413H366.266v59.457c2.168-0.576,3.479-2.761,5.671-3.919
		c2.538-1.346,6.311-1.274,9.48,1.523c3.169,2.801,4.231,13.628,0.083,18.114c-4.148,4.486-10.229,1.703-12.106,0.168
		c-1.308-1.07-1.906-1.883-3.128-2.334v59.076h59.293c-0.202-1.881-2.362-4.051-3.559-6.305c-1.342-2.543-1-6.244,1.797-9.414
		c2.798-3.17,12.876-4.303,17.359-0.15c4.489,4.148,1.706,10.229,0.17,12.102c-1.241,1.52-2.136,2.076-2.521,3.768H498.348z"/>
	<path fill="#692080" d="M441.763,363.843c0,0-3.895-2.824-3.705-6.077c0.149-2.632,1.04-3.008,2.406-4.723
		c1.364-1.719,3.863-7.28-0.121-11.075c-3.985-3.794-13.61-2.82-16.096,0.079c-2.492,2.899-2.577,6.348-1.382,8.672
		c1.193,2.324,3.606,3.562,3.606,6.193c0,2.636-0.673,3.438-2.628,6.919C427.074,363.911,441.763,363.843,441.763,363.843z"/>
	<path fill="#692080" d="M492.226,433.031c0,0,2.802-3.889,6.033-3.703c2.618,0.15,2.988,1.041,4.693,2.406
		c1.704,1.361,7.229,3.836,11-0.154c3.768-3.982,2.805-13.605-0.075-16.095c-2.885-2.485-6.311-2.546-8.617-1.354
		c-2.308,1.195-3.537,3.61-6.154,3.61c-2.615,0-3.407-0.673-6.871-2.633C492.156,418.343,492.226,433.031,492.226,433.031z"/>
</g>
<g>
	<path fill="#FFFFFF" d="M437.846,394.404c0,1.098-0.226,2.053-0.669,2.876c-0.448,0.824-1.071,1.508-1.868,2.053
		c-0.802,0.545-1.762,0.956-2.882,1.226c-1.124,0.271-2.36,0.406-3.714,0.406c-0.607,0-1.219-0.026-1.824-0.071
		c-0.602-0.049-1.185-0.105-1.741-0.177c-0.561-0.071-1.087-0.155-1.581-0.249c-0.492-0.094-0.94-0.191-1.338-0.297v-3.035
		c0.88,0.331,1.873,0.59,2.972,0.774c1.097,0.192,2.346,0.282,3.743,0.282c1.014,0,1.871-0.075,2.583-0.237
		c0.71-0.154,1.292-0.391,1.745-0.703c0.449-0.313,0.782-0.688,0.987-1.136c0.207-0.447,0.304-0.959,0.304-1.535
		c0-0.624-0.171-1.154-0.517-1.594c-0.347-0.44-0.798-0.834-1.364-1.185c-0.566-0.342-1.208-0.662-1.932-0.951
		c-0.722-0.286-1.459-0.583-2.213-0.887c-0.75-0.309-1.487-0.64-2.209-0.997c-0.726-0.36-1.37-0.782-1.934-1.267
		c-0.563-0.489-1.021-1.061-1.364-1.719c-0.348-0.658-0.52-1.44-0.52-2.346c0-0.786,0.166-1.561,0.493-2.324
		c0.332-0.763,0.839-1.444,1.531-2.039c0.695-0.594,1.587-1.072,2.674-1.436c1.087-0.365,2.38-0.546,3.886-0.546
		c0.39,0,0.809,0.019,1.262,0.053c0.447,0.038,0.91,0.087,1.375,0.151c0.461,0.064,0.923,0.135,1.374,0.221
		c0.451,0.08,0.873,0.169,1.26,0.264v2.816c-0.903-0.255-1.811-0.451-2.715-0.586c-0.906-0.135-1.782-0.203-2.624-0.203
		c-1.799,0-3.122,0.297-3.969,0.899c-0.846,0.598-1.271,1.406-1.271,2.414c0,0.621,0.173,1.158,0.522,1.602
		c0.346,0.448,0.801,0.846,1.366,1.2c0.563,0.354,1.206,0.673,1.929,0.962c0.725,0.286,1.46,0.583,2.211,0.887
		c0.756,0.309,1.49,0.643,2.215,1.004c0.724,0.365,1.364,0.797,1.93,1.297c0.563,0.497,1.019,1.083,1.364,1.752
		C437.672,392.701,437.846,393.49,437.846,394.404z"/>
	<path fill="#FFFFFF" d="M454.764,384.8c0-1.478-0.485-2.613-1.451-3.399c-0.971-0.79-2.328-1.181-4.065-1.181h-3.207v9.484h2.926
		c1.855,0,3.286-0.406,4.291-1.219C454.265,387.673,454.764,386.447,454.764,384.8z M458.028,384.661
		c0,0.94-0.181,1.873-0.534,2.794c-0.35,0.921-0.898,1.749-1.638,2.474c-0.738,0.729-1.687,1.32-2.837,1.775
		c-1.151,0.451-2.527,0.677-4.124,0.677h-2.855v8.266h-3.136V377.61h6.486c1.14,0,2.231,0.128,3.275,0.376
		c1.045,0.26,1.967,0.666,2.76,1.226c0.792,0.568,1.426,1.293,1.896,2.188C457.789,382.292,458.028,383.378,458.028,384.661z"/>
	<path fill="#FFFFFF" d="M474.541,393.863c0-0.587-0.124-1.117-0.373-1.587c-0.244-0.47-0.604-0.869-1.073-1.192
		c-0.468-0.323-1.044-0.571-1.717-0.748c-0.679-0.177-1.438-0.263-2.282-0.263h-3.208v7.931h3.313c1.798,0,3.137-0.334,4.016-1.004
		C474.1,396.326,474.541,395.28,474.541,393.863z M473.781,383.638c0-0.47-0.068-0.914-0.211-1.328
		c-0.14-0.421-0.387-0.778-0.741-1.079c-0.349-0.297-0.827-0.538-1.427-0.714c-0.6-0.173-1.355-0.263-2.272-0.263h-3.242v7.212
		h3.137c0.716,0,1.364-0.079,1.947-0.233c0.581-0.15,1.079-0.387,1.497-0.703c0.417-0.316,0.74-0.715,0.971-1.192
		C473.668,384.864,473.781,384.296,473.781,383.638z M477.872,393.753c0,1.106-0.214,2.084-0.645,2.937
		c-0.427,0.85-1.04,1.572-1.83,2.159c-0.795,0.587-1.752,1.034-2.876,1.339c-1.122,0.308-2.369,0.459-3.743,0.459h-6.03V377.61
		h6.592c5.137,0,7.704,1.869,7.704,5.604c0,1.249-0.296,2.32-0.89,3.211c-0.595,0.891-1.561,1.557-2.901,1.989
		c0.622,0.12,1.214,0.319,1.773,0.598c0.558,0.286,1.047,0.647,1.471,1.094c0.422,0.448,0.759,0.974,1.005,1.587
		C477.748,392.306,477.872,392.994,477.872,393.753z"/>
	<path fill="#FFFFFF" d="M435.537,422.164c0-1.632-0.154-3.015-0.459-4.139c-0.308-1.133-0.771-2.042-1.395-2.735
		c-0.621-0.692-1.403-1.196-2.341-1.508c-0.942-0.308-2.048-0.466-3.315-0.466h-2.696v17.679h2.344
		C432.916,430.994,435.537,428.049,435.537,422.164z M438.831,421.935c0,1.105-0.085,2.158-0.256,3.169s-0.443,1.957-0.819,2.82
		c-0.376,0.873-0.865,1.664-1.463,2.373c-0.598,0.711-1.335,1.32-2.204,1.824c-0.868,0.508-1.88,0.895-3.03,1.17
		c-1.15,0.277-2.464,0.418-3.93,0.418h-4.938v-23.037h5.942c3.596,0,6.277,0.925,8.048,2.776
		C437.945,415.297,438.831,418.128,438.831,421.935z"/>
	<path fill="#FFFFFF" d="M455.734,422.269c0-1.35-0.103-2.587-0.309-3.708c-0.207-1.124-0.537-2.09-0.996-2.899
		c-0.455-0.813-1.049-1.441-1.77-1.887c-0.724-0.448-1.596-0.669-2.619-0.669c-0.987,0-1.835,0.237-2.546,0.71
		c-0.711,0.477-1.296,1.124-1.756,1.94c-0.455,0.816-0.798,1.775-1.02,2.873c-0.226,1.102-0.336,2.264-0.336,3.497
		c0,1.366,0.105,2.606,0.317,3.731c0.211,1.122,0.542,2.086,0.997,2.891c0.451,0.805,1.033,1.428,1.752,1.873
		c0.717,0.447,1.581,0.672,2.591,0.672c0.989,0,1.839-0.236,2.558-0.713c0.714-0.475,1.305-1.121,1.77-1.941
		c0.466-0.811,0.81-1.77,1.031-2.861C455.622,424.684,455.734,423.514,455.734,422.269z M458.994,422.041
		c0,2.067-0.243,3.854-0.732,5.358c-0.487,1.504-1.144,2.746-1.971,3.727c-0.831,0.98-1.799,1.711-2.91,2.189
		c-1.11,0.473-2.282,0.709-3.515,0.709c-1.484,0-2.771-0.268-3.869-0.801c-1.1-0.533-2.009-1.305-2.731-2.316
		s-1.264-2.244-1.614-3.691c-0.352-1.453-0.53-3.091-0.53-4.912c0-2.042,0.24-3.813,0.725-5.321
		c0.483-1.504,1.137-2.745,1.965-3.727c0.826-0.981,1.795-1.711,2.901-2.185c1.103-0.478,2.272-0.718,3.506-0.718
		c1.479,0,2.771,0.274,3.87,0.813c1.096,0.541,2.012,1.315,2.74,2.32c0.727,1,1.272,2.229,1.628,3.674
		C458.814,418.604,458.994,420.231,458.994,422.041z"/>
	<polygon fill="#FFFFFF" points="478.296,413.349 471.475,413.349 471.475,433.709 468.302,433.709 468.302,413.349 461.48,413.349 
		461.48,410.672 478.296,410.672 	"/>
	<polygon fill="#FFFFFF" points="437.877,466.928 433.784,466.928 427.072,452.563 425.134,447.945 425.134,466.928 
		422.208,466.928 422.208,443.893 426.246,443.893 432.644,457.5 434.951,462.768 434.951,443.893 437.877,443.893 	"/>
	<polygon fill="#FFFFFF" points="456.596,466.928 443.502,466.928 443.502,443.893 456.596,443.893 456.596,446.539 
		446.638,446.539 446.638,453.676 456.208,453.676 456.208,456.32 446.638,456.32 446.638,464.25 456.596,464.25 	"/>
	<polygon fill="#FFFFFF" points="478.132,446.568 471.313,446.568 471.313,466.928 468.141,466.928 468.141,446.568 
		461.319,446.568 461.319,443.893 478.132,443.893 	"/>
</g>
<g>
	<g>
		<path fill="#4F1D70" d="M233.171,357.943h132.082v132.086h-58.898c0.576-2.176,2.2-3.48,3.359-5.676
			c1.345-2.537,1.275-6.307-1.522-9.477c-2.799-3.168-13.628-4.232-18.112-0.086c-4.49,4.146-1.705,10.232-0.169,12.105
			c1.071,1.309,1.884,1.906,2.333,3.133h-59.073V430.73c2.566,0.277,3.905,2.771,6.304,4.037c2.538,1.348,6.31,1.279,9.478-1.521
			c3.17-2.799,4.232-13.627,0.086-18.11c-4.15-4.486-10.23-1.703-12.104-0.173c-1.518,1.245-2.078,2.144-3.764,2.524V357.943z"/>
		<path fill="#4F1D70" d="M359.727,414.407c0,0,2.741,3.892,5.902,3.708c2.557-0.155,2.924-1.045,4.589-2.411
			c1.666-1.361,7.07-3.835,10.754,0.151c3.686,3.985,2.742,13.608-0.075,16.099c-2.814,2.484-6.167,2.545-8.423,1.354
			c-2.256-1.197-3.46-3.611-6.017-3.611c-2.559,0-3.335,0.678-6.72,2.633C359.663,429.094,359.727,414.407,359.727,414.407z"/>
	</g>
	<path fill="#4F1D70" d="M308.61,363.843c0,0-3.892-2.738-3.706-5.9c0.15-2.562,1.042-2.922,2.405-4.592
		c1.365-1.666,3.837-7.066-0.147-10.755c-3.99-3.686-13.611-2.741-16.098,0.075c-2.489,2.82-2.547,6.17-1.354,8.423
		c1.194,2.256,3.608,3.463,3.608,6.021s-0.675,3.335-2.631,6.716C293.922,363.911,308.61,363.843,308.61,363.843z"/>
</g>
<g>
	<path fill="#FFFFFF" d="M301.271,422.235c0-1.557-0.146-2.88-0.44-3.96c-0.291-1.075-0.735-1.947-1.331-2.609
		c-0.594-0.661-1.34-1.143-2.241-1.439c-0.898-0.298-1.955-0.448-3.168-0.448h-2.576v16.899h2.242
		C298.762,430.678,301.271,427.865,301.271,422.235z M304.421,422.017c0,1.057-0.083,2.069-0.244,3.034
		c-0.166,0.962-0.425,1.863-0.786,2.697c-0.361,0.83-0.825,1.586-1.398,2.268c-0.572,0.68-1.275,1.26-2.106,1.74
		c-0.831,0.482-1.798,0.857-2.899,1.121c-1.1,0.268-2.353,0.398-3.753,0.398h-4.723v-22.024h5.682c3.437,0,6.002,0.884,7.691,2.655
		C303.574,415.674,304.421,418.377,304.421,422.017z"/>
	<path fill="#FFFFFF" d="M320.58,422.337c0-1.29-0.1-2.475-0.297-3.546c-0.193-1.072-0.514-1.997-0.95-2.771
		c-0.438-0.775-1.004-1.376-1.694-1.805c-0.692-0.425-1.527-0.639-2.501-0.639c-0.945,0-1.758,0.229-2.438,0.683
		c-0.679,0.456-1.239,1.073-1.673,1.851c-0.438,0.782-0.765,1.7-0.98,2.749c-0.214,1.053-0.319,2.165-0.319,3.347
		c0,1.301,0.102,2.488,0.305,3.562c0.203,1.071,0.519,1.993,0.952,2.762c0.43,0.771,0.989,1.369,1.677,1.795
		c0.685,0.428,1.51,0.639,2.478,0.639c0.944,0,1.757-0.227,2.44-0.682c0.685-0.453,1.253-1.07,1.696-1.852
		c0.442-0.779,0.771-1.693,0.983-2.739C320.471,424.65,320.58,423.529,320.58,422.337z M323.698,422.123
		c0,1.97-0.233,3.682-0.7,5.118c-0.466,1.441-1.094,2.629-1.887,3.564c-0.794,0.938-1.719,1.637-2.781,2.092
		c-1.062,0.455-2.183,0.68-3.362,0.68c-1.416,0-2.649-0.25-3.699-0.768c-1.049-0.506-1.919-1.248-2.609-2.213
		c-0.692-0.967-1.208-2.145-1.542-3.533c-0.338-1.382-0.508-2.951-0.508-4.691c0-1.956,0.23-3.652,0.692-5.088
		c0.459-1.437,1.086-2.625,1.878-3.564c0.792-0.933,1.717-1.633,2.775-2.088c1.053-0.455,2.17-0.681,3.349-0.681
		c1.416,0,2.649,0.256,3.698,0.771c1.053,0.519,1.923,1.256,2.623,2.219c0.696,0.959,1.214,2.132,1.555,3.512
		C323.525,418.832,323.698,420.393,323.698,422.123z"/>
	<polygon fill="#FFFFFF" points="342.146,413.813 335.626,413.813 335.626,433.275 332.593,433.275 332.593,413.813 
		326.072,413.813 326.072,411.251 342.146,411.251 	"/>
	<polygon fill="#FFFFFF" points="303.662,465.188 299.751,465.188 293.332,451.453 291.48,447.039 291.48,465.188 288.681,465.188 
		288.681,443.162 292.539,443.162 298.659,456.174 300.864,461.211 300.864,443.162 303.662,443.162 	"/>
	<polygon fill="#FFFFFF" points="321.558,465.188 309.038,465.188 309.038,443.162 321.558,443.162 321.558,445.689 
		312.036,445.689 312.036,452.518 321.186,452.518 321.186,455.045 312.036,455.045 312.036,462.627 321.558,462.627 	"/>
	<polygon fill="#FFFFFF" points="342.146,445.727 335.626,445.727 335.626,465.188 332.593,465.188 332.593,445.727 
		326.072,445.727 326.072,443.162 342.146,443.162 	"/>
	<g>
		<path fill="#FFFFFF" d="M302.944,395.826c0,1.045-0.214,1.966-0.643,2.756c-0.431,0.786-1.027,1.444-1.794,1.97
			c-0.767,0.526-1.688,0.914-2.764,1.174c-1.077,0.259-2.266,0.391-3.563,0.391c-0.585,0-1.167-0.022-1.751-0.067
			c-0.581-0.045-1.139-0.105-1.673-0.169c-0.537-0.068-1.042-0.146-1.515-0.237c-0.474-0.09-0.901-0.188-1.287-0.29v-2.907
			c0.849,0.316,1.798,0.56,2.851,0.745c1.055,0.177,2.252,0.267,3.595,0.267c0.97,0,1.798-0.075,2.478-0.226
			c0.683-0.15,1.241-0.375,1.678-0.677c0.432-0.297,0.748-0.662,0.945-1.09c0.197-0.429,0.295-0.921,0.295-1.474
			c0-0.594-0.166-1.105-0.5-1.53c-0.331-0.421-0.767-0.801-1.309-1.132c-0.542-0.331-1.16-0.635-1.854-0.914
			c-0.694-0.274-1.403-0.56-2.123-0.853s-1.429-0.613-2.123-0.959c-0.691-0.338-1.311-0.749-1.852-1.214
			c-0.542-0.47-0.98-1.02-1.311-1.651c-0.333-0.632-0.5-1.379-0.5-2.249c0-0.755,0.158-1.5,0.474-2.233
			c0.318-0.733,0.809-1.384,1.47-1.956c0.666-0.568,1.521-1.026,2.565-1.376c1.043-0.35,2.286-0.523,3.73-0.523
			c0.373,0,0.775,0.015,1.209,0.049c0.435,0.033,0.875,0.083,1.32,0.143c0.446,0.064,0.886,0.135,1.318,0.214
			c0.436,0.079,0.838,0.162,1.211,0.252v2.708c-0.869-0.248-1.737-0.436-2.606-0.567c-0.869-0.128-1.708-0.192-2.52-0.192
			c-1.726,0-2.994,0.286-3.806,0.862c-0.813,0.575-1.219,1.35-1.219,2.316c0,0.598,0.166,1.113,0.5,1.542
			c0.331,0.425,0.768,0.809,1.309,1.147c0.542,0.338,1.16,0.647,1.854,0.921c0.694,0.278,1.399,0.56,2.125,0.857
			c0.718,0.29,1.425,0.613,2.121,0.962c0.691,0.35,1.311,0.764,1.852,1.245c0.539,0.478,0.979,1.038,1.311,1.681
			C302.778,394.183,302.944,394.942,302.944,395.826z"/>
		<path fill="#FFFFFF" d="M324.002,401.812h-3.28l-1.538-4.821h-9.204l-1.557,4.821h-3.129l7.343-22.107h4.126L324.002,401.812z
			 M318.32,394.299l-3.74-11.823l-3.736,11.823H318.32z"/>
		<path fill="#FFFFFF" d="M341.951,401.812h-3.399l-3.297-7.073c-0.249-0.542-0.504-0.989-0.762-1.342
			c-0.261-0.357-0.539-0.639-0.836-0.846c-0.301-0.207-0.628-0.357-0.985-0.447c-0.35-0.09-0.75-0.135-1.19-0.135h-1.419v9.844
			h-3.012v-22.107h5.921c1.288,0,2.39,0.139,3.314,0.421c0.925,0.283,1.685,0.677,2.275,1.185c0.594,0.508,1.027,1.12,1.301,1.835
			c0.278,0.714,0.416,1.508,0.416,2.376c0,0.688-0.1,1.339-0.303,1.955c-0.205,0.613-0.506,1.174-0.906,1.674
			c-0.4,0.5-0.895,0.937-1.489,1.301c-0.59,0.369-1.271,0.643-2.038,0.824c0.621,0.211,1.147,0.587,1.583,1.125
			c0.432,0.534,0.876,1.249,1.327,2.136L341.951,401.812z M337.13,385.774c0-1.181-0.37-2.068-1.107-2.654
			c-0.739-0.583-1.781-0.88-3.122-0.88h-2.841v7.311h2.436c0.71,0,1.35-0.083,1.919-0.249c0.57-0.162,1.053-0.406,1.456-0.726
			c0.398-0.324,0.71-0.719,0.931-1.185C337.019,386.925,337.13,386.383,337.13,385.774z"/>
	</g>
</g>
<path fill="#4F1D70" d="M779.929,282.64c-2.815-2.486-6.167-2.546-8.424-1.354c-2.256,1.196-3.461,3.61-6.017,3.61
	c-0.449,0-0.842-0.019-1.205-0.064v-60.269h-40.238v-0.045h-56.396v0.045H632.2v59.299c2.567-0.278,3.908-2.771,6.305-4.039
	c2.539-1.346,6.039-0.936,9.207,1.866c3.17,2.797,4.506,12.601,0.358,17.083c-4.147,4.486-10.23,2.388-12.104,0.857
	c-1.519-1.245-2.076-2.144-3.766-2.524v59.544h60.122c0.021,0.255,0.027,0.53,0.027,0.827c0,2.557-2.414,3.761-3.608,6.021
	c-1.194,2.252-1.134,5.603,1.355,8.423c2.486,2.817,12.109,3.761,16.097,0.076c3.984-3.689,1.512-9.089,0.149-10.759
	c-1.366-1.666-2.257-2.027-2.408-4.587l0,0h60.349v-60.175c0.125-0.004,0.25-0.004,0.376,0.003c2.557,0.154,2.921,1.045,4.59,2.411
	c1.665,1.361,7.069,3.835,10.755-0.154C783.69,294.752,782.747,285.129,779.929,282.64z"/>
<g>
	<g>
		<path fill="#FFFFFF" d="M700.697,287.976c0,1.091-0.085,2.14-0.254,3.136c-0.167,1-0.438,1.933-0.81,2.79
			c-0.373,0.861-0.854,1.644-1.447,2.347c-0.594,0.703-1.32,1.305-2.18,1.805c-0.861,0.501-1.861,0.888-3,1.163
			c-1.14,0.271-2.436,0.41-3.89,0.41h-4.883V276.83h5.877c3.559,0,6.211,0.914,7.961,2.745
			C699.824,281.406,700.697,284.208,700.697,287.976z M697.438,288.202c0-1.617-0.153-2.982-0.455-4.099
			c-0.303-1.117-0.761-2.016-1.379-2.704c-0.614-0.685-1.389-1.181-2.317-1.489c-0.931-0.309-2.023-0.463-3.28-0.463h-2.668v17.49
			h2.319C694.844,296.938,697.438,294.027,697.438,288.202z"/>
		<path fill="#FFFFFF" d="M720.648,288.078c0,2.05-0.24,3.817-0.723,5.302c-0.482,1.49-1.133,2.719-1.952,3.689
			c-0.822,0.97-1.78,1.692-2.879,2.162c-1.099,0.474-2.258,0.708-3.479,0.708c-1.465,0-2.741-0.264-3.828-0.794
			c-1.089-0.53-1.987-1.293-2.703-2.294c-0.715-1-1.247-2.218-1.597-3.651c-0.349-1.436-0.523-3.057-0.523-4.858
			c0-2.023,0.237-3.779,0.715-5.268c0.478-1.486,1.125-2.716,1.944-3.689c0.821-0.97,1.777-1.689,2.868-2.163
			c1.095-0.47,2.251-0.707,3.472-0.707c1.465,0,2.741,0.27,3.828,0.804s1.991,1.297,2.712,2.294c0.722,0.993,1.26,2.204,1.612,3.636
			C720.472,284.678,720.648,286.288,720.648,288.078z M717.423,288.307c0-1.339-0.103-2.561-0.305-3.674
			c-0.203-1.109-0.532-2.064-0.986-2.865c-0.452-0.805-1.037-1.425-1.752-1.869c-0.714-0.44-1.579-0.662-2.591-0.662
			c-0.976,0-1.816,0.236-2.52,0.707s-1.282,1.109-1.736,1.918c-0.452,0.808-0.789,1.756-1.01,2.843
			c-0.223,1.086-0.332,2.241-0.332,3.463c0,1.346,0.104,2.576,0.314,3.689c0.208,1.109,0.538,2.061,0.985,2.858
			c0.446,0.797,1.026,1.418,1.735,1.857c0.709,0.44,1.564,0.662,2.563,0.662c0.978,0,1.82-0.233,2.53-0.708
			c0.707-0.47,1.292-1.109,1.753-1.917c0.458-0.808,0.8-1.752,1.019-2.832C717.312,290.695,717.423,289.537,717.423,288.307z"/>
		<path fill="#FFFFFF" d="M739.746,279.481h-6.75v20.145h-3.139v-20.145h-6.749v-2.651h16.638V279.481z"/>
	</g>
	<g>
		<path fill="#FFFFFF" d="M699.914,332.496h-4.047l-6.645-14.211l-1.92-4.572v11.496v7.288h-2.896v-22.792h3.995l6.331,13.462
			l2.285,5.216v-12.21v-6.468h2.896V332.496z"/>
		<path fill="#FFFFFF" d="M718.435,332.496h-12.957v-22.792h12.957v2.613h-9.855v7.066h9.471v2.614h-9.471v7.848h9.855V332.496z"/>
		<path fill="#FFFFFF" d="M739.746,312.355h-6.75v20.141h-3.139v-20.141h-6.749v-2.651h16.638V312.355z"/>
	</g>
	<g>
		<path fill="#FFFFFF" d="M699.582,259.171c0,1.248-0.172,2.376-0.518,3.388c-0.349,1.012-0.858,1.873-1.527,2.583
			c-0.671,0.711-1.493,1.26-2.465,1.647c-0.973,0.388-2.089,0.583-3.352,0.583c-1.387,0-2.563-0.185-3.528-0.557
			c-0.967-0.369-1.755-0.891-2.361-1.568c-0.607-0.677-1.052-1.489-1.33-2.437c-0.277-0.947-0.417-2.004-0.417-3.174v-15.241h3.035
			v15c0,0.887,0.082,1.669,0.246,2.338c0.165,0.669,0.434,1.234,0.81,1.681c0.377,0.451,0.862,0.793,1.457,1.023
			c0.599,0.233,1.328,0.35,2.192,0.35c1.614,0,2.807-0.474,3.573-1.421s1.151-2.286,1.151-4.008v-14.963h3.033V259.171z"/>
		<path fill="#FFFFFF" d="M717.486,247.033h-9.463v7.351h8.968v2.583h-8.968v10.093h-3.103v-22.664h12.565V247.033z"/>
		<path fill="#FFFFFF" d="M739.654,267.061h-3.31l-1.551-4.941h-9.275l-1.57,4.941h-3.154l7.4-22.664h4.16L739.654,267.061z
			 M733.926,259.359l-3.771-12.121l-3.769,12.121H733.926z"/>
	</g>
</g>
<g>
	<path fill="#7F1A7F" d="M174.998,497.666c0,0-3.892-2.732-3.708-5.891c0.15-2.557,1.044-2.916,2.406-4.58
		c1.365-1.664,3.836-7.059-0.146-10.742c-3.99-3.68-13.611-2.736-16.098,0.076c-2.489,2.816-2.548,6.16-1.354,8.408
		c1.194,2.258,3.608,3.459,3.608,6.012c0,2.555-0.674,3.33-2.63,6.709C160.308,497.734,174.998,497.666,174.998,497.666z"/>
	<path fill="#7F1A7F" d="M247.703,549.039c-3.685-3.984-9.089-1.512-10.755-0.152c-1.667,1.361-2.035,2.256-4.591,2.404
		c-0.124,0.008-0.25,0.008-0.376,0.004v-60.078H99.9v58.836c1.687-0.383,2.245-0.867,3.762-2.111
		c1.876-1.529,7.766-3.893,11.911,0.592c4.148,4.475,3.033,14.334-0.137,17.127c-3.166,2.799-6.825,3.322-9.363,1.979
		c-2.399-1.266-3.606-3.473-6.173-3.746v59.201h38.434v0.025h49.954v-0.025h43.692V562.92c0.364-0.041,0.758-0.064,1.207-0.064
		c2.556,0,3.761,2.414,6.017,3.605c2.256,1.193,5.607,1.129,8.423-1.352C250.444,562.627,251.388,553.018,247.703,549.039z"/>
</g>
<g>
	<g>
		<path fill="#FFFFFF" d="M169.561,555.332c0,1.059-0.079,2.064-0.243,3.031c-0.162,0.971-0.423,1.869-0.78,2.701
			c-0.357,0.83-0.822,1.586-1.392,2.266c-0.571,0.678-1.271,1.262-2.098,1.742c-0.828,0.484-1.79,0.861-2.888,1.125
			c-1.095,0.262-2.343,0.395-3.742,0.395h-4.697v-22.033h5.654c3.424,0,5.977,0.887,7.662,2.654
			C168.72,548.984,169.561,551.689,169.561,555.332z M166.424,555.551c0-1.564-0.146-2.885-0.436-3.961
			c-0.291-1.078-0.733-1.951-1.328-2.611c-0.592-0.666-1.335-1.145-2.23-1.445c-0.895-0.297-1.948-0.443-3.155-0.443h-2.568v16.906
			h2.231C163.928,563.996,166.424,561.18,166.424,555.551z"/>
		<path fill="#FFFFFF" d="M188.758,555.434c0,1.975-0.231,3.686-0.695,5.123c-0.465,1.439-1.091,2.627-1.88,3.564
			c-0.788,0.939-1.711,1.635-2.768,2.092c-1.057,0.453-2.174,0.684-3.347,0.684c-1.41,0-2.638-0.256-3.686-0.768
			c-1.045-0.512-1.912-1.252-2.6-2.219c-0.689-0.967-1.2-2.143-1.537-3.531c-0.334-1.389-0.504-2.951-0.504-4.691
			c0-1.957,0.229-3.652,0.688-5.094c0.459-1.436,1.083-2.625,1.873-3.564c0.791-0.939,1.708-1.635,2.76-2.092
			c1.052-0.453,2.165-0.68,3.34-0.68c1.41,0,2.636,0.256,3.683,0.775c1.047,0.514,1.916,1.256,2.607,2.215
			c0.696,0.963,1.211,2.133,1.553,3.516C188.588,552.145,188.758,553.701,188.758,555.434z M185.656,555.652
			c0-1.293-0.1-2.475-0.295-3.551c-0.196-1.07-0.512-1.996-0.948-2.771c-0.436-0.777-0.999-1.375-1.687-1.805
			c-0.688-0.424-1.519-0.639-2.493-0.639c-0.938,0-1.747,0.227-2.424,0.682c-0.677,0.453-1.234,1.074-1.67,1.855
			c-0.436,0.779-0.761,1.697-0.972,2.746c-0.214,1.053-0.32,2.166-0.32,3.348c0,1.305,0.102,2.492,0.301,3.564
			c0.203,1.072,0.519,1.994,0.947,2.764c0.432,0.771,0.989,1.369,1.669,1.799c0.685,0.424,1.506,0.639,2.467,0.639
			c0.94,0,1.752-0.23,2.435-0.686c0.683-0.455,1.243-1.07,1.687-1.854c0.442-0.777,0.767-1.691,0.981-2.738
			C185.546,557.961,185.656,556.84,185.656,555.652z"/>
		<path fill="#FFFFFF" d="M207.133,547.119h-6.494v19.473h-3.02v-19.473h-6.495v-2.561h16.008V547.119z"/>
	</g>
	<g>
		<path fill="#FFFFFF" d="M168.72,598.518h-3.911l-6.421-13.736l-1.856-4.416v11.109v7.043h-2.797v-22.029h3.86l6.118,13.012
			l2.209,5.043v-11.801v-6.254h2.798V598.518z"/>
		<path fill="#FFFFFF" d="M186.622,598.518h-12.524v-22.029h12.524v2.527h-9.523v6.826h9.153v2.531h-9.153v7.584h9.523V598.518z"/>
		<path fill="#FFFFFF" d="M207.221,579.049h-6.524v19.469h-3.035v-19.469h-6.522v-2.561h16.081V579.049z"/>
	</g>
	<g>
		<path fill="#FFFFFF" d="M168.269,535.271h-3.804l-6.246-13.795l-1.803-4.434v11.154v7.074h-2.721v-22.117h3.753l5.954,13.061
			l2.147,5.063v-11.846v-6.277h2.721V535.271z"/>
		<path fill="#FFFFFF" d="M186.727,535.271h-3.802l-6.246-13.795l-1.805-4.434v11.154v7.074h-2.72v-22.117h3.754l5.949,13.061
			l2.149,5.063v-11.846v-6.277h2.721V535.271z"/>
		<path fill="#FFFFFF" d="M207.054,513.154l-7.278,22.117h-3.934l-7.115-22.117h3.294l4.624,14.906l1.311,4.367l1.344-4.367
			l4.639-14.906H207.054z"/>
	</g>
</g>
<g>
	<path fill="#4F1D70" d="M233.102,224.378h132.08v132.086h-58.898c0.577-2.17,2.2-3.479,3.362-5.671
		c1.343-2.542,1.273-6.31-1.522-9.48c-2.8-3.169-13.628-4.23-18.114-0.086c-4.488,4.147-1.704,10.232-0.169,12.104
		c1.072,1.309,1.884,1.907,2.335,3.133h-59.073v-59.295c2.565,0.274,3.905,2.768,6.303,4.039c2.539,1.342,6.312,1.274,9.48-1.527
		c3.17-2.798,4.23-13.625,0.085-18.111c-4.148-4.486-10.23-1.703-12.105-0.173c-1.517,1.245-2.075,2.144-3.762,2.527V224.378z"/>
	<path fill="#4F1D70" d="M360.327,280.955c0,0,2.74,3.892,5.902,3.704c2.557-0.15,2.921-1.042,4.589-2.407
		c1.666-1.365,7.07-3.839,10.755,0.15c3.685,3.986,2.741,13.609-0.075,16.095c-2.817,2.489-6.168,2.55-8.424,1.354
		c-2.257-1.192-3.462-3.61-6.017-3.61c-2.559,0-3.335,0.677-6.719,2.632C360.262,295.64,360.327,280.955,360.327,280.955z"/>
	<path fill="#4F1D70" d="M289.746,230.253c0,0,3.892-2.739,3.704-5.902c-0.15-2.557-1.042-2.921-2.406-4.589
		c-1.365-1.666-3.84-7.07,0.15-10.755c3.986-3.685,13.609-2.741,16.095,0.075c2.489,2.817,2.55,6.168,1.354,8.424
		c-1.192,2.257-3.61,3.462-3.61,6.017c0,2.559,0.677,3.335,2.632,6.719C304.431,230.317,289.746,230.253,289.746,230.253z"/>
</g>
<g>
	<g>
		<path fill="#4F1D70" d="M366.275,224.379h132.083v132.082h-58.899c0.577-2.17,2.201-3.479,3.36-5.67
			c1.345-2.539,1.275-6.311-1.522-9.477c-2.799-3.174-13.627-4.234-18.113-0.087c-4.489,4.148-1.705,10.229-0.17,12.101
			c1.074,1.313,1.886,1.911,2.335,3.133h-59.073v-59.295c2.567,0.278,3.906,2.772,6.304,4.039c2.539,1.346,6.31,1.275,9.479-1.527
			c3.169-2.798,4.231-13.625,0.084-18.111c-4.147-4.486-10.228-1.703-12.105-0.168c-1.517,1.244-2.076,2.139-3.763,2.523V224.379z"
			/>
		<path fill="#4F1D70" d="M492.831,280.842c0,0,2.74,3.892,5.902,3.705c2.557-0.151,2.922-1.042,4.59-2.407
			c1.665-1.365,7.069-3.84,10.755,0.15c3.685,3.986,2.741,13.609-0.075,16.095c-2.816,2.489-6.168,2.549-8.424,1.354
			c-2.256-1.192-3.461-3.61-6.017-3.61c-2.56,0-3.335,0.677-6.72,2.632C492.767,295.527,492.831,280.842,492.831,280.842z"/>
	</g>
	<path fill="#4F1D70" d="M428.538,230.253c0,0,3.892-2.739,3.704-5.902c-0.15-2.557-1.044-2.921-2.408-4.589
		c-1.364-1.666-3.839-7.07,0.15-10.755c3.987-3.685,13.609-2.741,16.095,0.075c2.489,2.817,2.551,6.168,1.354,8.424
		c-1.193,2.257-3.61,3.462-3.61,6.017c0,2.559,0.678,3.335,2.633,6.719C443.221,230.317,428.538,230.253,428.538,230.253z"/>
</g>
<g>
	<g>
		<path fill="#FFFFFF" d="M302.395,288.75c0,1.132-0.086,2.218-0.253,3.252c-0.171,1.038-0.444,2.002-0.816,2.896
			c-0.375,0.891-0.859,1.701-1.456,2.429c-0.594,0.73-1.323,1.354-2.188,1.873c-0.863,0.52-1.867,0.92-3.01,1.204
			c-1.146,0.282-2.448,0.425-3.905,0.425h-4.905v-23.632h5.901c3.573,0,6.239,0.949,7.995,2.849
			C301.516,281.944,302.395,284.845,302.395,288.75z M299.118,288.985c0-1.676-0.15-3.093-0.453-4.25
			c-0.305-1.156-0.767-2.093-1.386-2.803c-0.618-0.711-1.395-1.226-2.329-1.545c-0.934-0.318-2.031-0.479-3.291-0.479h-2.681v18.134
			h2.329C296.514,298.042,299.118,295.022,299.118,288.985z"/>
		<path fill="#FFFFFF" d="M322.429,288.859c0,2.121-0.24,3.952-0.726,5.496c-0.484,1.544-1.138,2.818-1.961,3.824
			c-0.822,1.006-1.788,1.754-2.89,2.242c-1.104,0.487-2.27,0.731-3.494,0.731c-1.472,0-2.752-0.274-3.845-0.822
			c-1.093-0.547-1.996-1.341-2.713-2.378c-0.72-1.036-1.253-2.298-1.604-3.787c-0.352-1.489-0.526-3.167-0.526-5.035
			c0-2.099,0.239-3.919,0.718-5.462c0.481-1.54,1.128-2.817,1.954-3.822c0.822-1.008,1.782-1.754,2.88-2.243
			c1.096-0.487,2.26-0.731,3.486-0.731c1.471,0,2.753,0.278,3.843,0.831c1.092,0.554,2,1.348,2.723,2.376
			c0.726,1.031,1.265,2.29,1.623,3.772C322.252,285.332,322.429,287.001,322.429,288.859z M319.189,289.094
			c0-1.386-0.102-2.657-0.305-3.807c-0.205-1.151-0.534-2.142-0.991-2.975c-0.455-0.831-1.042-1.476-1.762-1.933
			c-0.715-0.459-1.583-0.688-2.599-0.688c-0.981,0-1.826,0.244-2.531,0.733c-0.707,0.487-1.288,1.151-1.743,1.99
			c-0.455,0.838-0.793,1.818-1.015,2.944c-0.222,1.128-0.333,2.324-0.333,3.589c0,1.399,0.105,2.676,0.316,3.827
			s0.54,2.14,0.989,2.963c0.45,0.828,1.029,1.469,1.742,1.926c0.712,0.458,1.572,0.688,2.576,0.688c0.981,0,1.826-0.245,2.538-0.733
			c0.713-0.487,1.299-1.15,1.762-1.989c0.459-0.834,0.801-1.816,1.023-2.937C319.079,291.571,319.189,290.371,319.189,289.094z"/>
		<path fill="#FFFFFF" d="M341.607,279.945h-6.778v20.883h-3.152v-20.883h-6.78v-2.749h16.71V279.945z"/>
	</g>
	<g>
		<path fill="#FFFFFF" d="M301.768,335.073h-4.065l-6.673-14.735l-1.926-4.738v11.917v7.557h-2.906v-23.63h4.01l6.357,13.958
			l2.294,5.406V318.15v-6.707h2.909V335.073z"/>
		<path fill="#FFFFFF" d="M320.366,335.073h-13.011v-23.63h13.011v2.711h-9.896v7.323h9.511v2.711h-9.511v8.138h9.896V335.073z"/>
		<path fill="#FFFFFF" d="M341.769,314.19h-6.778v20.883h-3.153V314.19h-6.778v-2.747h16.709V314.19z"/>
	</g>
	<g>
		<path fill="#FFFFFF" d="M301.032,250.77c0,0.967-0.176,1.927-0.528,2.877c-0.35,0.949-0.897,1.801-1.636,2.549
			c-0.737,0.752-1.681,1.358-2.83,1.824c-1.149,0.466-2.519,0.699-4.116,0.699h-2.847v8.514h-3.129v-23.725h6.469
			c1.137,0,2.228,0.132,3.271,0.391c1.044,0.259,1.961,0.681,2.75,1.26c0.794,0.583,1.424,1.335,1.892,2.252
			C300.797,248.333,301.032,249.45,301.032,250.77z M297.779,250.915c0-1.525-0.485-2.691-1.452-3.503
			c-0.968-0.812-2.316-1.217-4.052-1.217h-3.2v9.765h2.918c1.852,0,3.281-0.417,4.281-1.249
			C297.277,253.874,297.779,252.608,297.779,250.915z"/>
		<path fill="#FFFFFF" d="M320.69,267.233h-4.08l-6.699-14.793l-1.933-4.757v11.961v7.589h-2.919v-23.725h4.025l6.383,14.014
			l2.303,5.428v-12.707v-6.735h2.92V267.233z"/>
		<path fill="#FFFFFF" d="M340.365,246.05l-11.729,18.168h11.957v3.014h-15.877v-2.415l11.799-18.37h-11.483v-2.94h15.333V246.05z"
			/>
	</g>
</g>
<g>
	<path fill="#7F1A7F" d="M499.423,224.378h132.081v132.086h-58.897c0.576-2.17,2.198-3.479,3.361-5.671
		c1.343-2.542,1.273-6.31-1.523-9.48c-2.8-3.169-13.628-4.23-18.113-0.086c-4.487,4.147-1.705,10.232-0.169,12.104
		c1.071,1.309,1.883,1.907,2.335,3.133h-59.074v-59.295c2.564,0.274,3.906,2.768,6.303,4.039c2.538,1.342,6.313,1.274,9.48-1.527
		c3.17-2.798,4.23-13.625,0.084-18.111c-4.147-4.486-10.229-1.703-12.104-0.173c-1.517,1.245-2.074,2.144-3.763,2.527V224.378z"/>
	<path fill="#7F1A7F" d="M625.448,280.955c0,0,2.739,3.892,5.902,3.704c2.557-0.15,2.921-1.042,4.59-2.407
		c1.665-1.365,7.069-3.839,10.755,0.15c3.685,3.986,2.74,13.609-0.075,16.095c-2.816,2.489-6.168,2.55-8.424,1.354
		c-2.256-1.192-3.461-3.61-6.017-3.61c-2.56,0-3.335,0.677-6.72,2.632C625.384,295.64,625.448,280.955,625.448,280.955z"/>
	<path fill="#7F1A7F" d="M555.717,230.253c0,0,3.892-2.739,3.704-5.902c-0.15-2.557-1.042-2.921-2.407-4.589
		c-1.365-1.666-3.839-7.07,0.15-10.755c3.986-3.685,13.608-2.741,16.095,0.075c2.489,2.817,2.55,6.168,1.354,8.424
		c-1.192,2.257-3.611,3.462-3.611,6.017c0,2.559,0.678,3.335,2.633,6.719C570.401,230.317,555.717,230.253,555.717,230.253z"/>
</g>
<g>
	<path fill="#FFFFFF" d="M566.723,288.487c0-1.602-0.152-2.959-0.45-4.068c-0.304-1.109-0.755-2.001-1.373-2.685
		c-0.608-0.681-1.377-1.177-2.301-1.481c-0.922-0.305-2.009-0.459-3.257-0.459h-2.65v17.377h2.305
		C564.148,297.17,566.723,294.274,566.723,288.487z M569.961,288.266c0,1.083-0.084,2.125-0.252,3.118
		c-0.166,0.992-0.434,1.918-0.804,2.771c-0.37,0.857-0.85,1.632-1.44,2.332c-0.586,0.699-1.309,1.297-2.164,1.794
		c-0.852,0.496-1.847,0.88-2.978,1.151c-1.135,0.27-2.422,0.406-3.866,0.406h-4.85v-22.642h5.837c3.534,0,6.171,0.91,7.91,2.726
		C569.093,281.742,569.961,284.524,569.961,288.266z"/>
	<path fill="#FFFFFF" d="M586.576,288.593c0-1.328-0.103-2.542-0.306-3.647c-0.199-1.102-0.526-2.053-0.978-2.85
		c-0.449-0.794-1.026-1.411-1.739-1.851c-0.71-0.44-1.569-0.658-2.572-0.658c-0.972,0-1.806,0.233-2.506,0.7
		c-0.7,0.47-1.273,1.105-1.722,1.906c-0.452,0.801-0.787,1.745-1.005,2.824c-0.222,1.079-0.331,2.226-0.331,3.441
		c0,1.335,0.105,2.561,0.313,3.663c0.211,1.102,0.534,2.05,0.978,2.839c0.447,0.794,1.02,1.407,1.724,1.847
		c0.706,0.437,1.556,0.658,2.55,0.658c0.969,0,1.806-0.233,2.51-0.699c0.706-0.47,1.287-1.106,1.743-1.907
		c0.457-0.801,0.794-1.742,1.012-2.817C586.467,290.969,586.576,289.819,586.576,288.593z M589.783,288.371
		c0,2.03-0.243,3.787-0.723,5.265c-0.477,1.478-1.124,2.7-1.939,3.663c-0.813,0.962-1.768,1.681-2.854,2.151
		c-1.093,0.47-2.245,0.699-3.46,0.699c-1.455,0-2.723-0.263-3.801-0.786c-1.08-0.526-1.975-1.286-2.688-2.279
		c-0.711-0.993-1.238-2.204-1.585-3.629c-0.348-1.429-0.519-3.039-0.519-4.825c0-2.012,0.236-3.756,0.71-5.235
		c0.47-1.478,1.117-2.696,1.93-3.663c0.815-0.962,1.763-1.68,2.852-2.147c1.086-0.47,2.234-0.707,3.446-0.707
		c1.456,0,2.724,0.267,3.807,0.801c1.077,0.53,1.975,1.29,2.691,2.279c0.715,0.985,1.251,2.193,1.605,3.61
		C589.604,284.99,589.783,286.592,589.783,288.371z"/>
	<polygon fill="#FFFFFF" points="608.751,279.827 602.048,279.827 602.048,299.836 598.929,299.836 598.929,279.827 
		592.224,279.827 592.224,277.195 608.751,277.195 	"/>
	<polygon fill="#FFFFFF" points="569.342,332.654 565.321,332.654 558.722,318.529 556.813,313.995 556.813,332.654 553.94,332.654 
		553.94,310.008 557.906,310.008 564.197,323.381 566.465,328.563 566.465,310.008 569.342,310.008 	"/>
	<polygon fill="#FFFFFF" points="587.739,332.654 574.866,332.654 574.866,310.008 587.739,310.008 587.739,312.607 
		577.951,312.607 577.951,319.624 587.357,319.624 587.357,322.223 577.951,322.223 577.951,330.018 587.739,330.018 	"/>
	<polygon fill="#FFFFFF" points="608.91,312.641 602.207,312.641 602.207,332.654 599.091,332.654 599.091,312.641 592.384,312.641 
		592.384,310.008 608.91,310.008 	"/>
	<g>
		<path fill="#FFFFFF" d="M569.153,267.647h-3.896l-8.502-11.149v11.149h-3.099v-22.732h3.099v10.556l8.33-10.556h3.67l-8.975,10.8
			L569.153,267.647z"/>
		<path fill="#FFFFFF" d="M587.937,247.352l-11.6,17.407h11.827v2.888h-15.706v-2.313l11.671-17.603h-11.354v-2.817h15.162V247.352z
			"/>
		<path fill="#FFFFFF" d="M607.646,267.647h-4.035l-6.628-14.177l-1.911-4.554v11.461v7.269h-2.889v-22.732h3.984l6.312,13.429
			l2.278,5.197v-12.172v-6.453h2.889V267.647z"/>
	</g>
</g>
<g>
	<path fill="#7F1A7F" d="M499.142,91.231h132.08v132.086h-58.898c0.578-2.17,2.2-3.479,3.362-5.671
		c1.342-2.542,1.273-6.31-1.522-9.48c-2.802-3.169-13.628-4.23-18.115-0.086c-4.487,4.147-1.703,10.232-0.169,12.104
		c1.072,1.309,1.884,1.907,2.336,3.133h-59.073v-59.295c2.564,0.274,3.906,2.768,6.303,4.039c2.538,1.342,6.312,1.274,9.48-1.527
		c3.17-2.798,4.23-13.625,0.084-18.111c-4.146-4.486-10.229-1.703-12.104-0.173c-1.519,1.245-2.077,2.144-3.764,2.527V91.231z"/>
	<path fill="#7F1A7F" d="M625.448,147.808c0,0,2.739,3.892,5.902,3.704c2.557-0.15,2.921-1.043,4.59-2.408
		c1.665-1.364,7.069-3.838,10.755,0.15c3.685,3.988,2.74,13.609-0.075,16.095c-2.816,2.49-6.168,2.551-8.424,1.355
		c-2.256-1.193-3.461-3.61-6.017-3.61c-2.56,0-3.335,0.677-6.72,2.633C625.384,162.492,625.448,147.808,625.448,147.808z"/>
</g>
<g>
	<path fill="#7F1A7F" d="M631.506,489.596V357.511H499.423v59.457c2.169-0.576,3.479-2.761,5.671-3.919
		c2.538-1.346,6.311-1.274,9.48,1.522c3.169,2.802,4.23,13.629,0.083,18.114c-4.148,4.486-10.229,1.705-12.105,0.17
		c-1.309-1.072-1.906-1.885-3.129-2.336v59.076h59.293c-0.201-1.881-2.361-4.049-3.559-6.305c-1.342-2.543-1-6.242,1.797-9.412
		c2.798-3.17,12.876-4.303,17.36-0.15c4.488,4.146,1.705,10.227,0.17,12.1c-1.242,1.52-2.137,2.078-2.521,3.768H631.506z"/>
	<path fill="#7F1A7F" d="M574.92,363.941c0,0-3.895-2.824-3.705-6.077c0.149-2.632,1.041-3.009,2.406-4.723
		c1.364-1.718,3.864-7.28-0.121-11.075c-3.985-3.794-13.61-2.82-16.096,0.079c-2.492,2.899-2.576,6.348-1.382,8.672
		c1.193,2.324,3.605,3.561,3.605,6.193c0,2.636-0.673,3.437-2.628,6.919C560.231,364.01,574.92,363.941,574.92,363.941z"/>
	<path fill="#7F1A7F" d="M624.782,433.129c0,0,2.802-3.889,6.034-3.703c2.617,0.15,2.987,1.041,4.693,2.406
		c1.703,1.361,7.229,3.836,10.999-0.154c3.768-3.982,2.806-13.604-0.075-16.094c-2.885-2.485-6.31-2.546-8.617-1.354
		c-2.307,1.196-3.536,3.611-6.154,3.611c-2.615,0-3.406-0.673-6.87-2.633C624.713,418.441,624.782,433.129,624.782,433.129z"/>
</g>
<g>
	<path fill="#FFFFFF" d="M567.696,423.495c0-1.647-0.156-3.042-0.465-4.182c-0.309-1.136-0.773-2.057-1.402-2.752
		c-0.629-0.703-1.417-1.207-2.365-1.519c-0.947-0.316-2.064-0.475-3.345-0.475h-2.721v17.837h2.364
		C565.051,432.404,567.696,429.432,567.696,423.495z M571.019,423.262c0,1.117-0.083,2.185-0.255,3.199
		c-0.174,1.023-0.448,1.969-0.828,2.848s-0.871,1.674-1.475,2.393c-0.604,0.717-1.346,1.33-2.222,1.838
		c-0.88,0.512-1.901,0.906-3.062,1.186c-1.164,0.277-2.481,0.416-3.967,0.416h-4.975v-23.239h5.992c3.624,0,6.329,0.933,8.116,2.798
		C570.128,416.568,571.019,419.423,571.019,423.262z"/>
	<path fill="#FFFFFF" d="M588.072,423.601c0-1.361-0.102-2.609-0.311-3.742c-0.206-1.132-0.539-2.11-1.006-2.926
		c-0.458-0.819-1.057-1.451-1.786-1.902s-1.606-0.676-2.64-0.676c-0.997,0-1.854,0.24-2.572,0.717
		c-0.715,0.482-1.305,1.136-1.766,1.96c-0.466,0.823-0.807,1.79-1.032,2.899s-0.338,2.282-0.338,3.527
		c0,1.377,0.106,2.632,0.319,3.761c0.214,1.135,0.55,2.104,1.004,2.916c0.459,0.813,1.05,1.441,1.771,1.896
		c0.724,0.451,1.592,0.672,2.613,0.672c0.995,0,1.855-0.236,2.58-0.717c0.722-0.482,1.317-1.133,1.786-1.957
		c0.468-0.822,0.813-1.785,1.041-2.891C587.959,426.037,588.072,424.856,588.072,423.601z M591.363,423.371
		c0,2.088-0.248,3.889-0.74,5.405c-0.489,1.518-1.154,2.773-1.986,3.764c-0.839,0.988-1.817,1.721-2.938,2.203
		c-1.119,0.482-2.302,0.723-3.548,0.723c-1.493,0-2.794-0.275-3.901-0.813c-1.111-0.539-2.026-1.316-2.758-2.338
		c-0.729-1.018-1.271-2.258-1.627-3.725c-0.355-1.465-0.532-3.113-0.532-4.952c0-2.064,0.242-3.854,0.728-5.374
		c0.489-1.516,1.146-2.768,1.982-3.761c0.838-0.989,1.813-1.722,2.925-2.204c1.115-0.477,2.294-0.719,3.539-0.719
		c1.494,0,2.796,0.271,3.903,0.817c1.109,0.545,2.028,1.324,2.768,2.339c0.733,1.012,1.28,2.249,1.644,3.708
		C591.183,419.903,591.363,421.543,591.363,423.371z"/>
	<polygon fill="#FFFFFF" points="610.834,414.601 603.953,414.601 603.953,435.141 600.753,435.141 600.753,414.601 593.87,414.601 
		593.87,411.901 610.834,411.901 	"/>
	<polygon fill="#FFFFFF" points="570.222,468.305 566.097,468.305 559.32,453.811 557.364,449.152 557.364,468.305 554.41,468.305 
		554.41,445.061 558.481,445.061 564.939,458.789 567.268,464.107 567.268,445.061 570.222,445.061 	"/>
	<polygon fill="#FFFFFF" points="589.106,468.305 575.892,468.305 575.892,445.061 589.106,445.061 589.106,447.73 579.058,447.73 
		579.058,454.928 588.715,454.928 588.715,457.6 579.058,457.6 579.058,465.602 589.106,465.602 	"/>
	<polygon fill="#FFFFFF" points="610.834,447.766 603.953,447.766 603.953,468.305 600.753,468.305 600.753,447.766 593.87,447.766 
		593.87,445.061 610.834,445.061 	"/>
	<g>
		<path fill="#FFFFFF" d="M571.218,402.102h-3.106l-0.466-14.549l-0.195-5.588l-1.089,3.249l-3.446,9.285h-2.196l-3.283-8.927
			l-1.091-3.606l-0.07,5.84l-0.41,14.296h-2.998l1.143-23.33h3.766l3.142,8.781l1.018,2.963l0.981-2.963l3.305-8.781h3.874
			L571.218,402.102z"/>
		<path fill="#FFFFFF" d="M589.889,395.784c0,1.105-0.226,2.076-0.677,2.907c-0.455,0.835-1.083,1.527-1.892,2.08
			c-0.811,0.557-1.782,0.966-2.922,1.241c-1.136,0.274-2.389,0.414-3.757,0.414c-0.62,0-1.233-0.026-1.846-0.072
			c-0.613-0.048-1.204-0.109-1.769-0.18c-0.567-0.072-1.098-0.154-1.598-0.248c-0.5-0.098-0.954-0.199-1.356-0.305v-3.068
			c0.892,0.331,1.896,0.59,3.007,0.782c1.113,0.192,2.377,0.286,3.795,0.286c1.022,0,1.895-0.079,2.615-0.24
			c0.72-0.162,1.309-0.399,1.766-0.715c0.458-0.312,0.791-0.699,1-1.15c0.211-0.451,0.312-0.97,0.312-1.553
			c0-0.628-0.172-1.17-0.526-1.614c-0.352-0.447-0.813-0.846-1.383-1.2c-0.572-0.349-1.223-0.669-1.952-0.962
			c-0.733-0.29-1.481-0.59-2.241-0.902c-0.764-0.309-1.51-0.643-2.241-1.008c-0.732-0.365-1.384-0.79-1.955-1.286
			c-0.572-0.493-1.033-1.072-1.383-1.742c-0.352-0.666-0.526-1.455-0.526-2.373c0-0.797,0.166-1.583,0.498-2.358
			c0.333-0.771,0.853-1.459,1.554-2.061c0.703-0.598,1.604-1.083,2.706-1.455c1.099-0.369,2.412-0.553,3.935-0.553
			c0.392,0,0.819,0.019,1.275,0.053c0.458,0.038,0.923,0.086,1.396,0.154c0.47,0.063,0.932,0.139,1.391,0.221
			c0.459,0.083,0.885,0.174,1.277,0.271v2.854c-0.918-0.263-1.834-0.462-2.749-0.598c-0.918-0.139-1.803-0.207-2.661-0.207
			c-1.819,0-3.158,0.305-4.017,0.91c-0.856,0.609-1.285,1.421-1.285,2.444c0,0.632,0.177,1.174,0.526,1.628
			c0.349,0.451,0.814,0.854,1.384,1.214c0.571,0.358,1.222,0.681,1.955,0.971s1.478,0.594,2.237,0.902
			c0.764,0.309,1.512,0.647,2.241,1.016c0.733,0.368,1.385,0.808,1.955,1.312c0.572,0.508,1.035,1.098,1.385,1.778
			C589.711,394.051,589.889,394.855,589.889,395.784z"/>
		<path fill="#FFFFFF" d="M610.883,402.102h-3.997l-8.729-11.443v11.443h-3.181v-23.33h3.181v10.834l8.549-10.834h3.768
			l-9.212,11.082L610.883,402.102z"/>
	</g>
</g>
<g>
	<path fill="#7F1A7F" d="M498.348,622.273V490.188H366.265v59.457c2.169-0.576,3.479-2.76,5.671-3.918
		c2.538-1.346,6.311-1.275,9.48,1.521c3.168,2.803,4.231,13.629,0.083,18.115c-4.149,4.486-10.229,1.703-12.106,0.17
		c-1.308-1.072-1.906-1.885-3.129-2.336v59.076h59.293c-0.202-1.881-2.362-4.051-3.559-6.305c-1.342-2.543-1-6.244,1.797-9.414
		s12.875-4.303,17.36-0.15c4.487,4.148,1.705,10.229,0.169,12.102c-1.24,1.52-2.136,2.076-2.521,3.768H498.348z"/>
	<path fill="#7F1A7F" d="M441.76,496.619c0,0-3.894-2.824-3.704-6.078c0.15-2.633,1.041-3.008,2.405-4.723
		c1.365-1.719,3.864-7.281-0.119-11.074c-3.985-3.795-13.611-2.82-16.097,0.078c-2.492,2.898-2.577,6.348-1.382,8.672
		c1.193,2.324,3.605,3.561,3.605,6.193c0,2.635-0.673,3.438-2.628,6.92C427.072,496.686,441.76,496.619,441.76,496.619z"/>
	<path fill="#7F1A7F" d="M492.598,565.807c0,0,2.802-3.889,6.035-3.703c2.616,0.15,2.987,1.041,4.693,2.406
		c1.702,1.361,7.229,3.836,10.998-0.154c3.768-3.982,2.807-13.605-0.075-16.096c-2.884-2.484-6.309-2.545-8.615-1.354
		c-2.308,1.195-3.538,3.611-6.154,3.611c-2.617,0-3.407-0.674-6.872-2.633C492.53,551.119,492.598,565.807,492.598,565.807z"/>
</g>
<g>
	<path fill="#FFFFFF" d="M435.005,555.92c0-1.59-0.145-2.938-0.445-4.035c-0.3-1.102-0.748-1.988-1.358-2.666
		c-0.609-0.678-1.369-1.166-2.285-1.471s-1.995-0.459-3.232-0.459h-2.63v17.242h2.288
		C432.45,564.531,435.005,561.664,435.005,555.92z M438.22,555.697c0,1.076-0.08,2.109-0.249,3.094
		c-0.164,0.986-0.433,1.904-0.798,2.75c-0.369,0.846-0.843,1.617-1.425,2.309c-0.588,0.697-1.304,1.289-2.151,1.783
		c-0.848,0.492-1.831,0.875-2.955,1.143c-1.123,0.271-2.399,0.402-3.835,0.402h-4.811v-22.465h5.792c3.508,0,6.12,0.902,7.848,2.709
		C437.359,549.225,438.22,551.986,438.22,555.697z"/>
	<path fill="#FFFFFF" d="M454.704,556.023c0-1.314-0.098-2.521-0.301-3.617c-0.197-1.094-0.523-2.037-0.97-2.826
		c-0.445-0.795-1.023-1.404-1.727-1.84c-0.707-0.436-1.557-0.654-2.554-0.654c-0.961,0-1.79,0.232-2.485,0.695
		c-0.692,0.463-1.264,1.094-1.711,1.893c-0.445,0.797-0.778,1.729-0.993,2.801c-0.222,1.072-0.33,2.211-0.33,3.414
		c0,1.328,0.105,2.539,0.312,3.633c0.207,1.094,0.528,2.035,0.971,2.816c0.441,0.791,1.012,1.4,1.71,1.836
		c0.7,0.436,1.541,0.65,2.527,0.65c0.963,0,1.794-0.23,2.491-0.697c0.702-0.461,1.275-1.092,1.728-1.891
		c0.456-0.793,0.79-1.727,1.005-2.789C454.598,558.379,454.704,557.244,454.704,556.023z M457.887,555.799
		c0,2.02-0.238,3.762-0.714,5.227c-0.478,1.467-1.117,2.678-1.927,3.637c-0.807,0.955-1.75,1.666-2.836,2.133
		c-1.083,0.461-2.227,0.695-3.429,0.695c-1.444,0-2.701-0.26-3.772-0.783c-1.074-0.518-1.959-1.273-2.666-2.26
		c-0.703-0.984-1.226-2.184-1.57-3.605c-0.344-1.41-0.518-3.01-0.518-4.783c0-1.994,0.233-3.723,0.706-5.189
		c0.468-1.467,1.106-2.682,1.916-3.637c0.806-0.959,1.749-1.67,2.827-2.133c1.076-0.461,2.219-0.695,3.421-0.695
		c1.441,0,2.701,0.264,3.773,0.791c1.069,0.525,1.96,1.281,2.674,2.26c0.71,0.98,1.241,2.178,1.588,3.588
		C457.709,552.449,457.887,554.039,457.887,555.799z"/>
	<polygon fill="#FFFFFF" points="476.706,547.326 470.059,547.326 470.059,567.178 466.96,567.178 466.96,547.326 460.308,547.326 
		460.308,544.713 476.706,544.713 	"/>
	<polygon fill="#FFFFFF" points="437.605,599.736 433.617,599.736 427.066,585.725 425.177,581.225 425.177,599.736 
		422.327,599.736 422.327,577.271 426.26,577.271 432.498,590.543 434.751,595.68 434.751,577.271 437.605,577.271 	"/>
	<polygon fill="#FFFFFF" points="455.858,599.736 443.086,599.736 443.086,577.271 455.858,577.271 455.858,579.846 
		446.149,579.846 446.149,586.813 455.48,586.813 455.48,589.391 446.149,589.391 446.149,597.123 455.858,597.123 	"/>
	<polygon fill="#FFFFFF" points="476.866,579.885 470.212,579.885 470.212,599.736 467.119,599.736 467.119,579.885 460.47,579.885 
		460.47,577.271 476.866,577.271 	"/>
	<g>
		<path fill="#FFFFFF" d="M437.421,535.244h-3.865l-8.439-11.063v11.063h-3.072v-22.555h3.072v10.473l8.266-10.473h3.642
			l-8.907,10.713L437.421,535.244z"/>
		<path fill="#FFFFFF" d="M456.919,535.244h-3.467l-3.365-7.215c-0.256-0.551-0.514-1.008-0.777-1.373
			c-0.268-0.361-0.551-0.646-0.855-0.861c-0.307-0.211-0.637-0.361-1-0.455c-0.362-0.094-0.767-0.141-1.218-0.141h-1.448v10.045
			h-3.071v-22.555h6.038c1.312,0,2.44,0.146,3.382,0.432c0.944,0.287,1.718,0.693,2.321,1.207c0.603,0.516,1.047,1.141,1.329,1.873
			c0.28,0.73,0.425,1.539,0.425,2.426c0,0.699-0.105,1.365-0.312,1.99c-0.209,0.627-0.517,1.199-0.926,1.709
			c-0.406,0.514-0.911,0.957-1.518,1.328c-0.604,0.377-1.297,0.654-2.08,0.84c0.635,0.217,1.173,0.598,1.616,1.145
			c0.444,0.547,0.893,1.277,1.354,2.182L456.919,535.244z M452.001,518.887c0-1.211-0.376-2.113-1.129-2.711
			c-0.756-0.6-1.815-0.898-3.185-0.898h-2.899v7.457h2.485c0.722,0,1.376-0.084,1.959-0.252c0.579-0.166,1.073-0.414,1.483-0.742
			c0.406-0.326,0.725-0.729,0.947-1.207C451.888,520.057,452.001,519.506,452.001,518.887z"/>
		<path fill="#FFFFFF" d="M477.643,512.689l-8.163,14.496v8.059h-3.104v-8.129l-8.162-14.426h3.708l4.488,8.246l1.656,3.316
			l1.52-3.004l4.539-8.559H477.643z"/>
	</g>
</g>
<g>
	<path fill="#4F1D70" d="M365.097,623.119V491.033H233.014v59.457c2.169-0.574,3.479-2.76,5.671-3.918
		c2.538-1.346,6.31-1.275,9.48,1.521c3.168,2.803,4.23,13.629,0.083,18.115c-4.148,4.486-10.229,1.703-12.105,0.17
		c-1.308-1.072-1.906-1.885-3.129-2.336v59.076h59.293c-0.202-1.879-2.362-4.051-3.559-6.307c-1.342-2.541-1-6.242,1.797-9.412
		c2.798-3.17,12.875-4.303,17.36-0.15c4.487,4.146,1.705,10.229,0.169,12.102c-1.24,1.52-2.136,2.076-2.521,3.768H365.097z"/>
	<path fill="#4F1D70" d="M308.51,497.465c0,0-3.895-2.824-3.705-6.078c0.15-2.633,1.041-3.008,2.406-4.723
		c1.364-1.719,3.864-7.281-0.12-11.074c-3.986-3.795-13.612-2.82-16.097,0.078c-2.492,2.9-2.577,6.348-1.382,8.672
		c1.193,2.324,3.606,3.561,3.606,6.193c0,2.635-0.673,3.438-2.628,6.92C293.822,497.531,308.51,497.465,308.51,497.465z"/>
	<path fill="#4F1D70" d="M359.047,565.699c0,0,2.802-3.891,6.035-3.705c2.616,0.15,2.987,1.041,4.694,2.408
		c1.702,1.359,7.228,3.836,10.998-0.154c3.768-3.984,2.807-13.605-0.075-16.096c-2.884-2.484-6.309-2.545-8.616-1.355
		c-2.307,1.195-3.538,3.611-6.154,3.611c-2.616,0-3.406-0.674-6.872-2.633C358.979,551.01,359.047,565.699,359.047,565.699z"/>
</g>
<g>
	<g>
		<path fill="#FFFFFF" d="M306.05,555.588c0,1.072-0.083,2.104-0.248,3.088c-0.165,0.98-0.433,1.896-0.799,2.74
			c-0.367,0.848-0.839,1.619-1.424,2.311c-0.583,0.691-1.297,1.281-2.142,1.773c-0.848,0.49-1.831,0.873-2.95,1.141
			c-1.122,0.27-2.395,0.402-3.826,0.402h-4.8v-22.416h5.78c3.498,0,6.107,0.902,7.828,2.703S306.05,551.885,306.05,555.588z
			 M302.842,555.811c0-1.588-0.149-2.934-0.443-4.031c-0.301-1.094-0.749-1.986-1.358-2.654c-0.604-0.678-1.364-1.168-2.279-1.467
			c-0.916-0.305-1.991-0.455-3.224-0.455h-2.623v17.201h2.279C300.293,564.404,302.842,561.537,302.842,555.811z"/>
		<path fill="#FFFFFF" d="M325.668,555.689c0,2.012-0.237,3.75-0.711,5.213c-0.474,1.467-1.113,2.674-1.921,3.629
			c-0.805,0.955-1.749,1.662-2.83,2.127c-1.081,0.463-2.222,0.693-3.42,0.693c-1.442,0-2.698-0.26-3.764-0.779
			c-1.069-0.521-1.955-1.271-2.66-2.256c-0.705-0.98-1.224-2.182-1.566-3.596c-0.344-1.41-0.515-3-0.515-4.771
			c0-1.992,0.233-3.715,0.704-5.182c0.468-1.463,1.105-2.674,1.914-3.625c0.803-0.959,1.745-1.666,2.819-2.129
			c1.074-0.463,2.21-0.691,3.414-0.691c1.439,0,2.692,0.264,3.763,0.785c1.068,0.527,1.959,1.279,2.666,2.258
			c0.711,0.977,1.242,2.17,1.587,3.574C325.491,552.348,325.668,553.93,325.668,555.689z M322.496,555.912
			c0-1.313-0.1-2.516-0.3-3.609c-0.2-1.092-0.521-2.031-0.969-2.82c-0.443-0.791-1.021-1.4-1.722-1.836
			c-0.704-0.434-1.553-0.65-2.546-0.65c-0.963,0-1.79,0.229-2.48,0.695c-0.691,0.463-1.261,1.09-1.705,1.889
			c-0.448,0.789-0.778,1.721-0.996,2.793c-0.219,1.068-0.325,2.203-0.325,3.404c0,1.326,0.103,2.533,0.31,3.627
			c0.205,1.092,0.53,2.027,0.966,2.814c0.442,0.777,1.012,1.387,1.708,1.824c0.695,0.436,1.538,0.65,2.523,0.65
			c0.959,0,1.786-0.23,2.483-0.697c0.698-0.461,1.273-1.086,1.725-1.883c0.453-0.795,0.784-1.727,1.004-2.787
			C322.389,558.262,322.496,557.127,322.496,555.912z"/>
		<path fill="#FFFFFF" d="M344.448,547.236h-6.637v19.807h-3.087v-19.807h-6.635v-2.609h16.36V547.236z"/>
	</g>
	<g>
		<path fill="#FFFFFF" d="M305.435,599.525h-3.977l-6.536-13.977l-1.886-4.494v11.299v7.172h-2.849v-22.416h3.928l6.225,13.24
			l2.245,5.127v-12.004v-6.363h2.849V599.525z"/>
		<path fill="#FFFFFF" d="M323.647,599.525h-12.741v-22.416h12.741v2.572h-9.687v6.945h9.313v2.572h-9.313v7.721h9.687V599.525z"/>
		<path fill="#FFFFFF" d="M344.602,579.719h-6.633v19.807h-3.088v-19.807h-6.637v-2.609h16.358V579.719z"/>
	</g>
	<g>
		<path fill="#FFFFFF" d="M307.234,523.779c0,2.021-0.237,3.768-0.715,5.234c-0.473,1.469-1.116,2.684-1.929,3.643
			c-0.807,0.959-1.754,1.67-2.839,2.137c-1.083,0.463-2.23,0.695-3.433,0.695c-1.446,0-2.704-0.258-3.779-0.785
			c-1.076-0.523-1.963-1.275-2.67-2.264c-0.707-0.986-1.23-2.189-1.574-3.604c-0.344-1.416-0.517-3.016-0.517-4.797
			c0-1.998,0.237-3.727,0.707-5.197c0.47-1.471,1.109-2.686,1.917-3.641c0.811-0.959,1.754-1.67,2.832-2.137
			c1.08-0.467,2.223-0.695,3.428-0.695c1.446,0,2.706,0.264,3.778,0.789c1.075,0.527,1.967,1.283,2.677,2.266
			c0.714,0.98,1.243,2.176,1.595,3.586C307.06,520.424,307.234,522.016,307.234,523.779z M304.053,524.004
			c0-1.32-0.102-2.527-0.305-3.625c-0.199-1.094-0.524-2.037-0.972-2.828c-0.449-0.793-1.025-1.406-1.73-1.846
			c-0.705-0.434-1.558-0.65-2.555-0.65c-0.966,0-1.797,0.232-2.489,0.695c-0.696,0.463-1.268,1.098-1.713,1.891
			c-0.449,0.799-0.78,1.734-0.999,2.811c-0.218,1.072-0.327,2.211-0.327,3.414c0,1.332,0.102,2.545,0.311,3.645
			c0.205,1.098,0.532,2.039,0.97,2.824c0.443,0.785,1.015,1.395,1.714,1.83c0.702,0.436,1.544,0.654,2.533,0.654
			c0.963,0,1.794-0.229,2.495-0.695c0.702-0.467,1.277-1.094,1.728-1.895c0.456-0.797,0.794-1.73,1.01-2.795
			C303.944,526.361,304.053,525.223,304.053,524.004z"/>
		<path fill="#FFFFFF" d="M326.725,535.178h-2.997l-0.445-14.031l-0.19-5.389l-1.049,3.133l-3.324,8.953H316.6l-3.168-8.607
			l-1.049-3.479l-0.067,5.633l-0.397,13.787h-2.892l1.102-22.5h3.633l3.029,8.469l0.981,2.857l0.948-2.857l3.185-8.469h3.734
			L326.725,535.178z"/>
		<path fill="#FFFFFF" d="M344.732,529.084c0,1.068-0.216,2.006-0.653,2.807c-0.435,0.803-1.045,1.475-1.825,2.008
			c-0.781,0.529-1.717,0.928-2.815,1.195c-1.094,0.268-2.305,0.395-3.623,0.395c-0.6,0-1.19-0.021-1.785-0.068
			c-0.588-0.043-1.158-0.105-1.702-0.172c-0.547-0.07-1.059-0.15-1.54-0.24c-0.483-0.094-0.918-0.191-1.311-0.293v-2.965
			c0.863,0.324,1.827,0.576,2.901,0.76c1.071,0.184,2.294,0.275,3.657,0.275c0.987,0,1.827-0.08,2.523-0.232
			c0.694-0.152,1.262-0.385,1.706-0.689c0.44-0.305,0.763-0.674,0.962-1.109c0.202-0.436,0.301-0.936,0.301-1.496
			c0-0.609-0.169-1.129-0.504-1.557c-0.342-0.432-0.788-0.816-1.339-1.158c-0.551-0.334-1.177-0.646-1.882-0.93
			c-0.709-0.281-1.429-0.566-2.161-0.867c-0.737-0.297-1.457-0.621-2.165-0.971c-0.704-0.354-1.333-0.764-1.884-1.24
			c-0.554-0.479-0.995-1.039-1.333-1.678c-0.341-0.645-0.512-1.406-0.512-2.295c0-0.766,0.166-1.525,0.485-2.27
			c0.321-0.746,0.82-1.41,1.499-1.99c0.675-0.578,1.543-1.045,2.608-1.402c1.06-0.354,2.324-0.531,3.796-0.531
			c0.377,0,0.788,0.016,1.228,0.049c0.444,0.033,0.892,0.084,1.346,0.148c0.456,0.063,0.899,0.135,1.343,0.217
			c0.444,0.078,0.854,0.166,1.231,0.256v2.752c-0.885-0.252-1.77-0.443-2.653-0.574c-0.884-0.133-1.738-0.197-2.564-0.197
			c-1.756,0-3.048,0.291-3.874,0.877c-0.823,0.586-1.241,1.369-1.241,2.357c0,0.609,0.169,1.133,0.508,1.568
			c0.342,0.438,0.785,0.824,1.334,1.17c0.553,0.346,1.181,0.658,1.886,0.936c0.705,0.287,1.427,0.572,2.16,0.873
			c0.733,0.301,1.456,0.625,2.163,0.979c0.705,0.355,1.331,0.781,1.884,1.268c0.551,0.488,0.995,1.057,1.335,1.713
			C344.563,527.416,344.732,528.189,344.732,529.084z"/>
	</g>
</g>
<g>
	<path fill="#FFFFFF" d="M434.135,288.19c0-1.659-0.152-3.057-0.463-4.204c-0.313-1.144-0.782-2.068-1.414-2.771
		s-1.423-1.215-2.376-1.531c-0.955-0.316-2.076-0.474-3.362-0.474h-2.738v17.938h2.376
		C431.478,297.148,434.135,294.162,434.135,288.19z M437.481,287.953c0,1.125-0.089,2.196-0.262,3.223
		c-0.171,1.023-0.45,1.978-0.829,2.861c-0.384,0.884-0.876,1.681-1.485,2.403c-0.605,0.722-1.353,1.339-2.237,1.851
		c-0.88,0.515-1.904,0.91-3.072,1.191c-1.17,0.278-2.5,0.417-3.99,0.417H420.6v-23.371h6.025c3.649,0,6.371,0.94,8.164,2.817
		C436.582,281.222,437.481,284.091,437.481,287.953z"/>
	<path fill="#FFFFFF" d="M454.629,288.295c0-1.369-0.103-2.625-0.312-3.764c-0.208-1.14-0.546-2.117-1.012-2.941
		c-0.463-0.823-1.061-1.458-1.798-1.914c-0.733-0.455-1.617-0.681-2.655-0.681c-1,0-1.86,0.241-2.583,0.722
		c-0.722,0.485-1.316,1.143-1.78,1.971c-0.464,0.831-0.812,1.797-1.034,2.914c-0.229,1.117-0.341,2.297-0.341,3.549
		c0,1.385,0.107,2.644,0.321,3.784c0.217,1.135,0.551,2.113,1.011,2.933c0.458,0.816,1.052,1.452,1.778,1.903
		c0.729,0.455,1.605,0.681,2.628,0.681c1.005,0,1.866-0.245,2.595-0.722c0.726-0.485,1.326-1.14,1.798-1.971
		c0.47-0.827,0.82-1.797,1.045-2.906C454.517,290.744,454.629,289.559,454.629,288.295z M457.938,288.063
		c0,2.098-0.246,3.911-0.744,5.438c-0.494,1.522-1.161,2.786-2.001,3.779c-0.843,1-1.822,1.737-2.948,2.218
		c-1.128,0.485-2.316,0.726-3.568,0.726c-1.504,0-2.813-0.271-3.926-0.812c-1.114-0.541-2.041-1.327-2.773-2.354
		c-0.731-1.023-1.277-2.271-1.635-3.746c-0.358-1.474-0.538-3.132-0.538-4.979c0-2.075,0.245-3.873,0.731-5.403
		c0.491-1.527,1.157-2.787,1.999-3.779c0.837-0.997,1.817-1.737,2.938-2.219s2.306-0.726,3.56-0.726c1.5,0,2.81,0.275,3.927,0.824
		c1.112,0.549,2.037,1.332,2.778,2.354c0.74,1.015,1.292,2.26,1.655,3.73C457.756,284.577,457.938,286.228,457.938,288.063z"/>
	<polygon fill="#FFFFFF" points="477.521,279.248 470.598,279.248 470.598,299.9 467.381,299.9 467.381,279.248 460.461,279.248 
		460.461,276.529 477.521,276.529 	"/>
	<polygon fill="#FFFFFF" points="436.842,333.774 432.691,333.774 425.876,319.199 423.909,314.513 423.909,333.771 
		420.939,333.771 420.939,310.399 425.036,310.399 431.529,324.204 433.871,329.551 433.871,310.399 436.842,310.399 	"/>
	<polygon fill="#FFFFFF" points="455.832,333.774 442.543,333.774 442.543,310.399 455.832,310.399 455.832,313.081 
		445.729,313.081 445.729,320.324 455.438,320.324 455.438,323.004 445.729,323.004 445.729,331.056 455.832,331.056 	"/>
	<polygon fill="#FFFFFF" points="477.685,313.119 470.762,313.119 470.762,333.771 467.543,333.771 467.543,313.119 
		460.623,313.119 460.623,310.399 477.685,310.399 	"/>
	<g>
		<path fill="#FFFFFF" d="M436.604,266.673h-4.166l-6.84-14.628l-1.974-4.704v11.831v7.501h-2.982v-23.461h4.114l6.516,13.857
			l2.352,5.37v-12.568v-6.659h2.981V266.673z"/>
		<path fill="#FFFFFF" d="M456.622,260.318c0,1.116-0.229,2.09-0.685,2.929c-0.455,0.835-1.09,1.535-1.902,2.091
			c-0.813,0.556-1.79,0.974-2.936,1.249c-1.146,0.274-2.404,0.41-3.779,0.41c-0.623,0-1.242-0.022-1.855-0.072
			c-0.619-0.045-1.211-0.104-1.778-0.176c-0.568-0.076-1.104-0.158-1.608-0.252c-0.502-0.098-0.957-0.196-1.362-0.305v-3.091
			c0.896,0.339,1.906,0.602,3.023,0.793c1.118,0.188,2.392,0.286,3.814,0.286c1.029,0,1.907-0.083,2.63-0.244
			c0.726-0.162,1.32-0.399,1.777-0.719c0.461-0.316,0.795-0.699,1.006-1.154s0.314-0.978,0.314-1.561
			c0-0.636-0.18-1.181-0.529-1.628c-0.353-0.448-0.819-0.846-1.391-1.2c-0.576-0.354-1.231-0.677-1.968-0.97
			c-0.735-0.297-1.486-0.598-2.252-0.91c-0.768-0.308-1.518-0.646-2.253-1.012c-0.736-0.364-1.395-0.797-1.966-1.293
			c-0.575-0.496-1.038-1.079-1.392-1.749c-0.354-0.673-0.53-1.47-0.53-2.391c0-0.801,0.17-1.587,0.504-2.369
			c0.333-0.778,0.854-1.467,1.562-2.072c0.707-0.605,1.612-1.094,2.722-1.463c1.105-0.372,2.424-0.557,3.956-0.557
			c0.396,0,0.823,0.019,1.284,0.057c0.46,0.034,0.927,0.086,1.4,0.15s0.939,0.139,1.401,0.226c0.46,0.083,0.89,0.169,1.282,0.267
			v2.873c-0.924-0.263-1.843-0.462-2.766-0.601c-0.921-0.14-1.813-0.207-2.674-0.207c-1.831,0-3.178,0.305-4.039,0.917
			c-0.861,0.609-1.293,1.429-1.293,2.459c0,0.636,0.177,1.177,0.529,1.632c0.354,0.455,0.816,0.861,1.392,1.222
			c0.575,0.357,1.229,0.685,1.967,0.978c0.735,0.293,1.485,0.595,2.253,0.906c0.767,0.313,1.518,0.651,2.252,1.027
			c0.735,0.368,1.392,0.809,1.967,1.316c0.571,0.512,1.037,1.106,1.388,1.787C456.445,258.577,456.622,259.385,456.622,260.318z"/>
		<path fill="#FFFFFF" d="M477.732,266.673h-4.02l-8.781-11.507v11.507h-3.195v-23.461h3.195v10.897l8.602-10.897h3.786
			l-9.262,11.149L477.732,266.673z"/>
	</g>
</g>
<g>
	<g>
		<path fill="#FFFFFF" d="M571.1,150.877c0,1.136-0.084,2.219-0.256,3.257c-0.171,1.038-0.444,2-0.823,2.894
			c-0.374,0.892-0.865,1.706-1.467,2.433c-0.602,0.731-1.335,1.355-2.211,1.871c-0.873,0.521-1.886,0.921-3.042,1.204
			c-1.154,0.284-2.468,0.425-3.941,0.425h-4.951v-23.642h5.958c3.608,0,6.298,0.948,8.072,2.85
			C570.212,144.067,571.1,146.971,571.1,150.877z M567.794,151.113c0-1.675-0.152-3.093-0.461-4.251
			c-0.306-1.158-0.771-2.092-1.395-2.803c-0.63-0.711-1.41-1.228-2.354-1.547c-0.942-0.319-2.051-0.479-3.321-0.479h-2.706v18.144
			h2.348C565.166,160.175,567.794,157.154,567.794,151.113z"/>
		<path fill="#FFFFFF" d="M591.329,150.987c0,2.123-0.245,3.956-0.735,5.498c-0.485,1.546-1.148,2.82-1.977,3.828
			c-0.833,1.004-1.805,1.752-2.92,2.241c-1.114,0.489-2.29,0.733-3.529,0.733c-1.485,0-2.777-0.274-3.879-0.824
			c-1.104-0.549-2.015-1.342-2.743-2.378c-0.724-1.04-1.261-2.299-1.619-3.791c-0.352-1.489-0.528-3.168-0.528-5.037
			c0-2.098,0.242-3.92,0.725-5.464c0.485-1.542,1.142-2.817,1.972-3.826c0.83-1.006,1.802-1.754,2.909-2.243
			c1.106-0.487,2.285-0.729,3.521-0.729c1.485,0,2.777,0.274,3.877,0.831c1.104,0.553,2.021,1.346,2.751,2.378
			c0.729,1.03,1.279,2.288,1.634,3.772C591.148,147.458,591.329,149.129,591.329,150.987z M588.058,151.22
			c0-1.388-0.104-2.655-0.311-3.806c-0.203-1.15-0.538-2.143-0.997-2.976c-0.46-0.833-1.053-1.478-1.78-1.937
			c-0.722-0.457-1.597-0.687-2.625-0.687c-0.99,0-1.84,0.245-2.556,0.733c-0.712,0.489-1.299,1.15-1.757,1.989
			c-0.459,0.839-0.8,1.82-1.026,2.948c-0.222,1.128-0.336,2.324-0.336,3.591c0,1.399,0.109,2.674,0.318,3.824
			c0.213,1.155,0.546,2.14,0.998,2.967c0.455,0.828,1.04,1.468,1.76,1.926c0.719,0.46,1.586,0.689,2.599,0.689
			c0.993,0,1.849-0.244,2.565-0.731c0.72-0.49,1.312-1.152,1.78-1.991c0.462-0.836,0.807-1.818,1.034-2.939
			C587.948,153.698,588.058,152.498,588.058,151.22z"/>
		<path fill="#FFFFFF" d="M610.691,142.067h-6.841v20.893h-3.185v-20.893h-6.84v-2.749h16.865V142.067z"/>
	</g>
	<g>
		<path fill="#FFFFFF" d="M570.466,197.224h-4.104l-6.734-14.743l-1.945-4.738v11.92v7.561h-2.936v-23.64h4.047l6.422,13.962
			l2.316,5.408v-12.662v-6.708h2.934V197.224z"/>
		<path fill="#FFFFFF" d="M589.244,197.224h-13.138v-23.64h13.138v2.711h-9.988v7.325h9.6v2.715h-9.6v8.138h9.988V197.224z"/>
		<path fill="#FFFFFF" d="M610.855,176.333h-6.845v20.891h-3.183v-20.891h-6.843v-2.749h16.87V176.333z"/>
	</g>
	<g>
		<path fill="#FFFFFF" d="M569.387,122.922c0,1.125-0.224,2.11-0.674,2.959c-0.449,0.846-1.078,1.552-1.881,2.115
			c-0.807,0.564-1.774,0.984-2.901,1.262c-1.133,0.278-2.379,0.417-3.738,0.417c-0.614,0-1.228-0.022-1.837-0.073
			c-0.608-0.047-1.198-0.107-1.757-0.179c-0.563-0.073-1.093-0.16-1.588-0.255c-0.501-0.096-0.949-0.2-1.353-0.309v-3.123
			c0.89,0.336,1.885,0.604,2.993,0.799c1.108,0.192,2.362,0.29,3.771,0.29c1.019,0,1.884-0.083,2.603-0.247
			c0.716-0.164,1.301-0.404,1.756-0.726c0.457-0.318,0.79-0.709,0.993-1.172c0.208-0.458,0.312-0.985,0.312-1.579
			c0-0.641-0.174-1.19-0.522-1.644c-0.349-0.455-0.81-0.859-1.377-1.214c-0.566-0.357-1.214-0.687-1.948-0.982
			c-0.726-0.297-1.466-0.601-2.224-0.917s-1.5-0.658-2.226-1.027c-0.729-0.368-1.377-0.805-1.945-1.308
			c-0.569-0.501-1.028-1.091-1.374-1.771c-0.352-0.677-0.524-1.482-0.524-2.414c0-0.811,0.165-1.61,0.497-2.396
			c0.33-0.79,0.846-1.488,1.541-2.099c0.7-0.613,1.597-1.105,2.689-1.481c1.096-0.372,2.4-0.562,3.917-0.562
			c0.389,0,0.813,0.019,1.27,0.054c0.455,0.038,0.918,0.089,1.384,0.154c0.469,0.067,0.93,0.143,1.384,0.228
			c0.458,0.085,0.879,0.177,1.27,0.272v2.905c-0.911-0.265-1.822-0.468-2.732-0.607c-0.911-0.139-1.796-0.21-2.646-0.21
			c-1.809,0-3.142,0.309-3.995,0.929c-0.854,0.617-1.276,1.444-1.276,2.486c0,0.641,0.172,1.191,0.524,1.652
			c0.346,0.46,0.809,0.873,1.375,1.235c0.565,0.363,1.217,0.692,1.943,0.991c0.728,0.295,1.469,0.602,2.226,0.916
			c0.76,0.316,1.503,0.66,2.229,1.036c0.729,0.375,1.375,0.82,1.942,1.335c0.57,0.514,1.03,1.115,1.377,1.807
			C569.214,121.159,569.387,121.979,569.387,122.922z"/>
		<path fill="#FFFFFF" d="M591.485,129.351h-3.44l-1.614-5.177h-9.661l-1.634,5.177h-3.28l7.705-23.734h4.329L591.485,129.351z
			 M585.523,121.287l-3.925-12.691l-3.923,12.691H585.523z"/>
		<path fill="#FFFFFF" d="M610.785,129.351h-3.089l-0.465-14.801l-0.193-5.684l-1.083,3.305l-3.427,9.442h-2.183l-3.267-9.08
			l-1.086-3.668l-0.067,5.936l-0.409,14.549h-2.981l1.136-23.734h3.746l3.125,8.933l1.012,3.014l0.975-3.014l3.284-8.933h3.856
			L610.785,129.351z"/>
	</g>
</g>
<g>
	<path fill="#7F1A7F" d="M499.423,490.189h132.083v132.082h-58.901c0.578-2.17,2.2-3.475,3.362-5.672
		c1.342-2.537,1.275-6.307-1.522-9.477c-2.8-3.172-13.628-4.234-18.113-0.086c-4.489,4.148-1.705,10.232-0.171,12.107
		c1.072,1.307,1.885,1.904,2.336,3.127h-59.073v-59.295c2.564,0.279,3.906,2.771,6.303,4.039c2.538,1.346,6.312,1.279,9.48-1.523
		c3.17-2.797,4.231-13.629,0.084-18.111c-4.146-4.484-10.229-1.707-12.104-0.174c-1.519,1.246-2.077,2.146-3.764,2.525V490.189z"/>
	<path fill="#7F1A7F" d="M624.64,565.807c0,0,2.802-3.889,6.034-3.703c2.617,0.15,2.987,1.041,4.694,2.406
		c1.702,1.361,7.228,3.836,10.998-0.154c3.768-3.982,2.806-13.605-0.075-16.096c-2.884-2.484-6.31-2.545-8.616-1.354
		c-2.307,1.195-3.538,3.611-6.154,3.611s-3.406-0.674-6.872-2.633C624.571,551.119,624.64,565.807,624.64,565.807z"/>
	<path fill="#7F1A7F" d="M574.933,496.537c0,0-3.888-2.803-3.703-6.035c0.15-2.617,1.041-2.986,2.407-4.693
		c1.36-1.703,3.835-7.229-0.155-10.998c-3.981-3.768-13.604-2.807-16.095,0.074c-2.485,2.885-2.546,6.311-1.354,8.617
		c1.195,2.307,3.61,3.537,3.61,6.154c0,2.615-0.673,3.406-2.633,6.871C560.245,496.605,574.933,496.537,574.933,496.537z"/>
</g>
<g>
	<g>
		<path fill="#FFFFFF" d="M572.729,552.242c0,1.078-0.085,2.109-0.25,3.094c-0.168,0.99-0.431,1.908-0.8,2.758
			c-0.365,0.85-0.844,1.619-1.429,2.313c-0.586,0.695-1.301,1.289-2.148,1.781c-0.851,0.492-1.835,0.877-2.96,1.148
			c-1.124,0.266-2.402,0.402-3.836,0.402h-4.816v-22.496h5.799c3.509,0,6.125,0.902,7.852,2.711
			C571.869,545.76,572.729,548.523,572.729,552.242z M569.513,552.463c0-1.594-0.149-2.941-0.448-4.045
			c-0.296-1.1-0.75-1.99-1.357-2.668c-0.61-0.676-1.372-1.164-2.289-1.469s-1.994-0.455-3.233-0.455h-2.632v17.26h2.289
			C566.956,561.086,569.513,558.213,569.513,552.463z"/>
		<path fill="#FFFFFF" d="M592.41,552.344c0,2.018-0.239,3.764-0.715,5.234c-0.476,1.465-1.121,2.68-1.928,3.635
			c-0.808,0.959-1.754,1.672-2.837,2.137c-1.084,0.467-2.229,0.695-3.434,0.695c-1.444,0-2.703-0.258-3.775-0.781
			c-1.073-0.523-1.96-1.275-2.668-2.26c-0.702-0.99-1.229-2.193-1.573-3.611c-0.343-1.412-0.514-3.012-0.514-4.791
			c0-1.996,0.233-3.729,0.703-5.197c0.473-1.469,1.109-2.684,1.921-3.641c0.806-0.957,1.751-1.668,2.827-2.135
			c1.077-0.465,2.219-0.695,3.425-0.695c1.447,0,2.702,0.264,3.775,0.791c1.071,0.527,1.964,1.281,2.675,2.264
			c0.709,0.98,1.241,2.176,1.591,3.586C592.232,548.988,592.41,550.576,592.41,552.344z M589.227,552.568
			c0-1.32-0.102-2.529-0.301-3.625c-0.201-1.094-0.525-2.039-0.972-2.832c-0.447-0.791-1.023-1.402-1.73-1.838
			c-0.703-0.441-1.556-0.656-2.555-0.656c-0.961,0-1.79,0.23-2.484,0.697c-0.694,0.465-1.264,1.094-1.71,1.891
			c-0.45,0.801-0.782,1.734-1.002,2.809c-0.218,1.072-0.324,2.211-0.324,3.416c0,1.33,0.104,2.541,0.309,3.641
			c0.206,1.094,0.532,2.039,0.974,2.824c0.442,0.785,1.01,1.395,1.712,1.83c0.697,0.436,1.541,0.654,2.526,0.654
			c0.964,0,1.798-0.232,2.495-0.699c0.699-0.463,1.274-1.094,1.729-1.891c0.451-0.799,0.787-1.73,1.006-2.795
			C589.117,554.928,589.227,553.783,589.227,552.568z"/>
		<path fill="#FFFFFF" d="M611.245,543.857h-6.657v19.881h-3.097v-19.881h-6.657v-2.615h16.411V543.857z"/>
	</g>
	<g>
		<path fill="#FFFFFF" d="M572.112,596.336h-3.989l-6.553-14.029l-1.893-4.51v11.346v7.193h-2.858v-22.494h3.941l6.243,13.285
			l2.254,5.145v-12.045v-6.385h2.854V596.336z"/>
		<path fill="#FFFFFF" d="M590.381,596.336H577.6v-22.494h12.781v2.582h-9.717v6.971h9.339v2.578h-9.339v7.746h9.717V596.336z"/>
		<path fill="#FFFFFF" d="M611.403,576.455h-6.655v19.881h-3.099v-19.881h-6.658v-2.613h16.412V576.455z"/>
	</g>
	<g>
		<path fill="#FFFFFF" d="M571.822,531.746h-3.947l-8.617-11.303v11.303h-3.136v-23.043h3.136v10.703l8.44-10.703h3.719
			l-9.093,10.949L571.822,531.746z"/>
		<path fill="#FFFFFF" d="M612.126,519.967c0,1.107-0.087,2.166-0.258,3.176c-0.169,1.01-0.442,1.951-0.816,2.82
			c-0.377,0.869-0.866,1.658-1.463,2.369c-0.599,0.713-1.335,1.322-2.202,1.828c-0.871,0.504-1.883,0.895-3.031,1.172
			c-1.152,0.275-2.462,0.414-3.93,0.414h-4.937v-23.043h5.939c3.594,0,6.275,0.926,8.044,2.775
			C611.241,513.332,612.126,516.16,612.126,519.967z M608.832,520.197c0-1.635-0.155-3.014-0.459-4.143
			c-0.309-1.129-0.771-2.037-1.391-2.734c-0.628-0.691-1.407-1.195-2.348-1.508c-0.939-0.309-2.044-0.467-3.312-0.467h-2.697v17.686
			h2.345C606.211,529.031,608.832,526.088,608.832,520.197z"/>
		<path fill="#FFFFFF" d="M590.588,531.746h-3.54l-3.436-7.369c-0.262-0.564-0.524-1.033-0.795-1.402s-0.56-0.662-0.871-0.881
			s-0.652-0.371-1.023-0.465c-0.37-0.098-0.783-0.145-1.24-0.145h-1.481v10.262h-3.135v-23.043h6.164
			c1.34,0,2.491,0.146,3.455,0.439c0.965,0.295,1.757,0.705,2.372,1.234c0.616,0.529,1.069,1.168,1.354,1.914
			c0.29,0.748,0.435,1.57,0.435,2.477c0,0.719-0.107,1.396-0.319,2.035c-0.209,0.643-0.526,1.223-0.942,1.744
			c-0.417,0.525-0.935,0.979-1.551,1.357c-0.616,0.385-1.323,0.67-2.125,0.859c0.649,0.221,1.2,0.613,1.651,1.17
			c0.452,0.559,0.909,1.305,1.382,2.232L590.588,531.746z M585.566,515.031c0-1.232-0.385-2.154-1.154-2.768
			c-0.769-0.609-1.854-0.918-3.25-0.918h-2.961v7.619h2.538c0.74,0,1.406-0.086,1.998-0.256c0.595-0.17,1.102-0.424,1.517-0.76
			c0.417-0.334,0.74-0.744,0.97-1.232C585.455,516.229,585.566,515.668,585.566,515.031z"/>
	</g>
</g>
<g>
	<path fill="#4F1D70" d="M233.014,624.068h132.084v132.084h-58.9c0.578-2.17,2.2-3.479,3.362-5.67
		c1.343-2.539,1.274-6.311-1.523-9.477c-2.799-3.176-13.628-4.236-18.114-0.09c-4.488,4.15-1.703,10.23-0.169,12.104
		c1.072,1.313,1.885,1.906,2.333,3.133h-59.073v-59.295c2.566,0.273,3.907,2.771,6.307,4.039c2.538,1.346,6.31,1.275,9.478-1.527
		c3.168-2.797,4.232-13.625,0.084-18.111s-10.23-1.703-12.104-0.17c-1.518,1.242-2.076,2.141-3.765,2.523V624.068z"/>
	<path fill="#4F1D70" d="M308.51,629.906c0,0-3.895-2.826-3.705-6.078c0.15-2.633,1.041-3.008,2.406-4.723
		c1.364-1.719,3.864-7.279-0.12-11.074c-3.986-3.793-13.612-2.82-16.097,0.078c-2.492,2.9-2.577,6.35-1.382,8.672
		c1.193,2.324,3.606,3.563,3.606,6.195c0,2.635-0.673,3.436-2.628,6.918C293.822,629.975,308.51,629.906,308.51,629.906z"/>
</g>
<g>
	<g>
		<path fill="#FFFFFF" d="M309.489,686.303c0,1.09-0.085,2.129-0.254,3.127c-0.169,0.996-0.438,1.922-0.809,2.779
			c-0.374,0.854-0.855,1.637-1.449,2.334c-0.593,0.701-1.32,1.299-2.179,1.799c-0.861,0.496-1.862,0.879-3,1.154
			c-1.141,0.27-2.438,0.41-3.89,0.41h-4.884v-22.699h5.877c3.557,0,6.212,0.91,7.962,2.734
			C308.615,679.766,309.489,682.551,309.489,686.303z M306.229,686.529c0-1.609-0.154-2.971-0.457-4.08
			c-0.3-1.111-0.76-2.01-1.377-2.693c-0.615-0.682-1.389-1.178-2.32-1.482c-0.929-0.309-2.023-0.463-3.279-0.463h-2.67v17.418h2.322
			C303.634,695.229,306.229,692.33,306.229,686.529z"/>
		<path fill="#FFFFFF" d="M329.442,686.406c0,2.037-0.239,3.797-0.724,5.279c-0.481,1.482-1.134,2.707-1.953,3.67
			c-0.818,0.971-1.779,1.686-2.877,2.158c-1.1,0.467-2.26,0.703-3.48,0.703c-1.465,0-2.741-0.266-3.83-0.793
			c-1.087-0.527-1.987-1.285-2.702-2.283c-0.714-0.996-1.249-2.207-1.597-3.639c-0.35-1.426-0.521-3.039-0.521-4.832
			c0-2.018,0.237-3.764,0.714-5.246c0.476-1.482,1.125-2.705,1.942-3.674c0.821-0.967,1.777-1.684,2.87-2.154
			c1.092-0.467,2.25-0.703,3.47-0.703c1.467,0,2.741,0.268,3.829,0.801c1.086,0.531,1.993,1.293,2.713,2.283
			c0.722,0.988,1.258,2.197,1.613,3.619C329.265,683.021,329.442,684.623,329.442,686.406z M326.213,686.633
			c0-1.332-0.1-2.551-0.303-3.654c-0.203-1.107-0.534-2.059-0.987-2.857c-0.451-0.799-1.036-1.416-1.75-1.857
			c-0.717-0.441-1.582-0.66-2.593-0.66c-0.976,0-1.816,0.234-2.52,0.701c-0.701,0.471-1.282,1.107-1.735,1.912
			c-0.452,0.805-0.79,1.748-1.012,2.832c-0.222,1.082-0.331,2.229-0.331,3.445c0,1.34,0.105,2.566,0.314,3.672
			c0.21,1.105,0.538,2.055,0.985,2.852c0.449,0.789,1.026,1.406,1.735,1.846s1.564,0.662,2.563,0.662
			c0.978,0,1.822-0.238,2.529-0.707c0.708-0.467,1.293-1.102,1.756-1.91c0.459-0.801,0.799-1.746,1.017-2.82
			C326.104,689.012,326.213,687.861,326.213,686.633z"/>
		<path fill="#FFFFFF" d="M348.541,677.846h-6.75v20.061h-3.14v-20.061h-6.748v-2.639h16.638V677.846z"/>
	</g>
	<g>
		<path fill="#FFFFFF" d="M308.862,730.793h-4.046l-6.645-14.152l-1.92-4.551v11.443v7.26h-2.894v-22.695h3.993l6.332,13.404
			l2.286,5.193v-12.156v-6.441h2.894V730.793z"/>
		<path fill="#FFFFFF" d="M327.389,730.793h-12.96v-22.695h12.96v2.605h-9.858v7.031h9.472v2.605h-9.472v7.814h9.858V730.793z"/>
		<path fill="#FFFFFF" d="M348.701,710.736h-6.75v20.057h-3.14v-20.057h-6.75v-2.639h16.64V710.736z"/>
	</g>
	<g>
		<path fill="#FFFFFF" d="M306.87,665.637h-13.007v-22.785h13.007v2.615h-9.892v7.061h9.508v2.615h-9.508v7.844h9.892V665.637z"/>
		<path fill="#FFFFFF" d="M328.393,665.637h-3.924l-8.563-11.174v11.174h-3.115v-22.785h3.115v10.582l8.386-10.582h3.697
			l-9.035,10.828L328.393,665.637z"/>
		<path fill="#FFFFFF" d="M347.563,658.822c0,1.092-0.213,2.059-0.64,2.9c-0.426,0.844-1.032,1.557-1.82,2.137
			c-0.788,0.582-1.739,1.021-2.854,1.324c-1.115,0.303-2.354,0.453-3.721,0.453h-5.989v-22.785h6.549
			c5.101,0,7.652,1.85,7.652,5.545c0,1.232-0.297,2.289-0.886,3.172c-0.588,0.885-1.549,1.541-2.88,1.971
			c0.619,0.117,1.206,0.313,1.762,0.592c0.553,0.281,1.04,0.639,1.461,1.082c0.419,0.443,0.754,0.965,0.999,1.568
			C347.441,657.387,347.563,658.068,347.563,658.822z M343.5,648.814c0-0.465-0.069-0.904-0.209-1.316
			c-0.139-0.412-0.385-0.768-0.735-1.063c-0.352-0.297-0.825-0.533-1.419-0.707s-1.348-0.262-2.258-0.262h-3.221v7.131h3.116
			c0.712,0,1.357-0.076,1.935-0.227c0.579-0.152,1.073-0.385,1.489-0.697c0.412-0.313,0.736-0.707,0.963-1.176
			C343.387,650.027,343.5,649.465,343.5,648.814z M344.252,658.926c0-0.58-0.121-1.104-0.367-1.57
			c-0.245-0.463-0.6-0.855-1.066-1.176c-0.468-0.32-1.038-0.566-1.709-0.74c-0.669-0.174-1.427-0.262-2.266-0.262h-3.187v7.844
			h3.291c1.788,0,3.117-0.328,3.994-0.992S344.252,660.332,344.252,658.926z"/>
	</g>
</g>
</svg>
