<?xml version="1.0" encoding="utf-8"?>
<!-- Generator: Adobe Illustrator 15.0.0, SVG Export Plug-In . SVG Version: 6.00 Build 0)  -->
<!DOCTYPE svg PUBLIC "-//W3C//DTD SVG 1.1//EN" "http://www.w3.org/Graphics/SVG/1.1/DTD/svg11.dtd">
<svg version="1.1" id="Слой_1" xmlns="http://www.w3.org/2000/svg" xmlns:xlink="http://www.w3.org/1999/xlink" x="0px" y="0px"
	 width="354.33px" height="566.93px" viewBox="0 0 354.33 566.93" enable-background="new 0 0 354.33 566.93" xml:space="preserve">
<g>
	<path fill="#FFFFFF" d="M106.673,280.172c0,6.833-0.528,13.373-1.582,19.623c-1.054,6.252-2.744,12.065-5.068,17.443
		c-2.328,5.379-5.342,10.267-9.049,14.662c-3.706,4.398-8.25,8.16-13.627,11.284c-5.379,3.126-11.629,5.543-18.751,7.25
		c-7.124,1.708-15.228,2.562-24.311,2.562H3.76V210.51h36.738c22.24,0,38.827,5.723,49.768,17.17
		C101.203,239.128,106.673,256.625,106.673,280.172z M86.286,281.59c0-10.102-0.946-18.642-2.834-25.619
		c-1.892-6.977-4.762-12.608-8.613-16.898c-3.853-4.288-8.686-7.394-14.499-9.321c-5.815-1.925-12.646-2.889-20.496-2.889H23.165
		v109.344h14.499C70.078,336.207,86.286,318.001,86.286,281.59z"/>
	<path fill="#FFFFFF" d="M231.388,280.827c0,12.792-1.509,23.839-4.524,33.14c-3.018,9.306-7.087,16.991-12.21,23.058
		c-5.124,6.07-11.119,10.575-17.987,13.519c-6.868,2.944-14.118,4.415-21.75,4.415c-9.156,0-17.133-1.653-23.929-4.96
		c-6.797-3.307-12.427-8.085-16.897-14.336c-4.47-6.249-7.795-13.862-9.976-22.839c-2.18-8.976-3.271-19.095-3.271-30.361
		c0-12.646,1.489-23.619,4.47-32.923c2.98-9.303,7.031-16.989,12.156-23.058c5.124-6.067,11.101-10.574,17.933-13.518
		c6.831-2.943,14.063-4.416,21.695-4.416c9.156,0,17.132,1.673,23.929,5.015c6.795,3.344,12.445,8.122,16.952,14.336
		c4.505,6.213,7.866,13.791,10.084,22.73C230.279,259.568,231.388,269.636,231.388,280.827z M211.22,282.244
		c0-8.357-0.638-16.007-1.908-22.948c-1.271-6.939-3.324-12.918-6.159-17.933c-2.834-5.015-6.486-8.902-10.956-11.666
		c-4.47-2.761-9.866-4.143-16.189-4.143c-6.105,0-11.355,1.472-15.753,4.415c-4.398,2.944-8.013,6.941-10.847,11.993
		c-2.835,5.052-4.943,10.974-6.323,17.77c-1.382,6.796-2.072,14.009-2.072,21.64c0,8.431,0.654,16.117,1.964,23.056
		c1.307,6.942,3.359,12.902,6.158,17.88c2.798,4.979,6.414,8.85,10.847,11.609c4.434,2.764,9.774,4.144,16.026,4.144
		c6.105,0,11.374-1.472,15.808-4.415c4.432-2.944,8.084-6.939,10.957-11.992c2.87-5.051,4.995-10.956,6.377-17.715
		C210.528,297.179,211.22,289.948,211.22,282.244z"/>
	<path fill="#FFFFFF" d="M350.762,227.081h-42.189v125.915h-19.623V227.081H246.76V210.51h104.002V227.081z"/>
</g>
<g>
	<path fill="#FFFFFF" d="M101.767,558.479H76.475L34.939,469.63l-11.993-28.563v71.843v45.568H4.851V415.994h24.964l39.573,84.161
		l14.281,32.595v-76.312v-40.444h18.098V558.479z"/>
	<path fill="#FFFFFF" d="M217.542,558.479h-81V415.994h81v16.353h-61.595v44.151h59.196v16.353h-59.196v49.058h61.595V558.479z"/>
	<path fill="#FFFFFF" d="M350.762,432.563h-42.189v125.915h-19.623V432.563H246.76v-16.569h104.002V432.563z"/>
</g>
<g>
	<path fill="#FFFFFF" d="M102.627,149.367H77.893L23.898,78.589v70.778H4.244V5.051h19.654v67.024L76.789,5.051h23.298
		l-56.976,68.57L102.627,149.367z"/>
	<path fill="#FFFFFF" d="M220.111,149.367h-83.034V5.051h19.985v127.533h63.049V149.367z"/>
	<path fill="#FFFFFF" d="M351.951,75.608c0,6.919-0.534,13.545-1.602,19.875c-1.067,6.332-2.778,12.22-5.134,17.667
		c-2.355,5.449-5.411,10.397-9.165,14.851c-3.754,4.455-8.354,8.265-13.802,11.428c-5.447,3.166-11.778,5.615-18.992,7.343
		c-7.214,1.73-15.422,2.595-24.623,2.595h-30.917V5.051h37.211c22.524,0,39.327,5.797,50.405,17.391
		C346.412,34.036,351.951,51.758,351.951,75.608z M331.303,77.043c0-10.23-0.957-18.881-2.871-25.948
		c-1.913-7.067-4.821-12.77-8.723-17.115c-3.901-4.343-8.797-7.49-14.686-9.441c-5.889-1.949-12.809-2.926-20.759-2.926h-16.894
		v110.75h14.686C314.888,132.363,331.303,113.923,331.303,77.043z"/>
</g>
</svg>
