<?xml version="1.0" encoding="utf-8"?>
<!-- Generator: Adobe Illustrator 15.0.0, SVG Export Plug-In . SVG Version: 6.00 Build 0)  -->
<!DOCTYPE svg PUBLIC "-//W3C//DTD SVG 1.1//EN" "http://www.w3.org/Graphics/SVG/1.1/DTD/svg11.dtd">
<svg version="1.1" id="Слой_1" xmlns="http://www.w3.org/2000/svg" xmlns:xlink="http://www.w3.org/1999/xlink" x="0px" y="0px"
	 width="354.33px" height="566.93px" viewBox="0 0 354.33 566.93" enable-background="new 0 0 354.33 566.93" xml:space="preserve">
<g>
	<path fill="#FFFFFF" d="M107.241,283.745c0,6.833-0.528,13.373-1.582,19.623c-1.054,6.252-2.744,12.066-5.068,17.443
		c-2.328,5.379-5.342,10.268-9.049,14.662c-3.706,4.398-8.25,8.16-13.627,11.285c-5.379,3.125-11.629,5.543-18.751,7.25
		c-7.124,1.707-15.228,2.561-24.311,2.561H4.328V214.083h36.738c22.24,0,38.827,5.723,49.768,17.17
		C101.771,242.701,107.241,260.197,107.241,283.745z M86.854,285.162c0-10.101-0.946-18.642-2.834-25.619
		c-1.892-6.977-4.762-12.608-8.613-16.898c-3.853-4.288-8.686-7.394-14.499-9.321c-5.815-1.925-12.646-2.889-20.496-2.889H23.733
		v109.344h14.499C70.646,339.779,86.854,321.574,86.854,285.162z"/>
	<path fill="#FFFFFF" d="M231.956,284.398c0,12.793-1.509,23.84-4.524,33.141c-3.018,9.307-7.087,16.992-12.21,23.059
		c-5.124,6.07-11.119,10.574-17.987,13.518c-6.868,2.945-14.118,4.416-21.75,4.416c-9.156,0-17.133-1.654-23.929-4.961
		c-6.797-3.307-12.427-8.084-16.897-14.336c-4.47-6.248-7.795-13.861-9.976-22.838c-2.18-8.977-3.271-19.096-3.271-30.361
		c0-12.646,1.489-23.62,4.47-32.923c2.98-9.303,7.031-16.989,12.156-23.058c5.124-6.067,11.101-10.574,17.933-13.518
		c6.831-2.943,14.063-4.416,21.695-4.416c9.156,0,17.132,1.673,23.929,5.015c6.795,3.344,12.445,8.122,16.952,14.336
		c4.505,6.213,7.866,13.791,10.084,22.73C230.848,263.141,231.956,273.208,231.956,284.398z M211.788,285.816
		c0-8.357-0.638-16.006-1.908-22.948c-1.271-6.939-3.324-12.918-6.159-17.933c-2.834-5.015-6.486-8.902-10.956-11.666
		c-4.47-2.761-9.866-4.143-16.189-4.143c-6.105,0-11.355,1.472-15.753,4.415c-4.398,2.944-8.013,6.941-10.847,11.993
		c-2.835,5.052-4.943,10.974-6.323,17.77c-1.382,6.795-2.072,14.008-2.072,21.639c0,8.432,0.654,16.117,1.964,23.057
		c1.307,6.943,3.359,12.902,6.158,17.881c2.798,4.979,6.414,8.85,10.847,11.609c4.434,2.764,9.774,4.143,16.026,4.143
		c6.105,0,11.374-1.471,15.808-4.414c4.432-2.945,8.084-6.939,10.957-11.992c2.87-5.051,4.995-10.957,6.377-17.715
		C211.097,300.752,211.788,293.521,211.788,285.816z"/>
	<path fill="#FFFFFF" d="M351.33,230.654h-42.189v125.915h-19.623V230.654h-42.189v-16.571H351.33V230.654z"/>
</g>
<g>
	<path fill="#FFFFFF" d="M101.335,562.051H76.043l-41.535-88.848l-11.993-28.563v71.842v45.568H4.419V419.566h24.964l39.573,84.162
		l14.281,32.594v-76.311v-40.445h18.098V562.051z"/>
	<path fill="#FFFFFF" d="M217.11,562.051h-81V419.566h81v16.354h-61.595v44.15h59.196v16.354h-59.196v49.057h61.595V562.051z"/>
	<path fill="#FFFFFF" d="M350.33,436.137h-42.189v125.914h-19.623V436.137h-42.189v-16.57H350.33V436.137z"/>
</g>
<g>
	<path fill="#FFFFFF" d="M99.681,112.268c0,6.785-1.387,12.733-4.159,17.839c-2.773,5.108-6.64,9.357-11.601,12.75
		c-4.963,3.393-10.927,5.929-17.894,7.606c-6.969,1.678-14.648,2.517-23.037,2.517c-3.795,0-7.57-0.147-11.327-0.438
		c-3.759-0.292-7.371-0.657-10.835-1.094c-3.467-0.438-6.73-0.948-9.795-1.532c-3.064-0.583-5.838-1.204-8.317-1.861v-18.824
		c5.472,2.043,11.617,3.649,18.44,4.815c6.821,1.168,14.573,1.751,23.256,1.751c6.274,0,11.618-0.493,16.033-1.478
		c4.414-0.985,8.025-2.443,10.835-4.377c2.808-1.933,4.852-4.286,6.129-7.059c1.275-2.772,1.915-5.946,1.915-9.521
		c0-3.866-1.077-7.168-3.229-9.904c-2.152-2.736-4.979-5.18-8.481-7.333c-3.502-2.151-7.497-4.121-11.984-5.91
		c-4.486-1.787-9.066-3.628-13.734-5.526c-4.67-1.896-9.248-3.957-13.735-6.184c-4.486-2.225-8.481-4.852-11.983-7.88
		c-3.502-3.027-6.331-6.583-8.481-10.67c-2.153-4.085-3.229-8.937-3.229-14.556c0-4.887,1.021-9.703,3.064-14.446
		c2.041-4.742,5.215-8.956,9.521-12.641c4.305-3.684,9.831-6.657,16.581-8.919C40.38,7.132,48.424,6,57.765,6
		c2.407,0,5.016,0.109,7.825,0.328c2.808,0.219,5.653,0.53,8.536,0.93c2.881,0.402,5.727,0.858,8.536,1.368
		c2.808,0.511,5.418,1.059,7.825,1.642v17.511c-5.619-1.604-11.236-2.827-16.854-3.667c-5.619-0.838-11.054-1.258-16.308-1.258
		c-11.162,0-19.371,1.86-24.624,5.582c-5.253,3.721-7.88,8.719-7.88,14.993c0,3.868,1.076,7.188,3.229,9.959
		c2.151,2.773,4.979,5.253,8.482,7.442c3.502,2.189,7.496,4.178,11.983,5.964c4.487,1.789,9.064,3.63,13.735,5.527
		c4.668,1.898,9.247,3.978,13.734,6.238c4.487,2.262,8.481,4.944,11.984,8.044c3.502,3.102,6.328,6.73,8.481,10.889
		C98.604,101.652,99.681,106.577,99.681,112.268z"/>
	<path fill="#FFFFFF" d="M235.936,151.01h-21.231l-9.959-31.191h-59.536L135.14,151.01h-20.246L162.391,7.97h26.704L235.936,151.01z
		 M199.163,102.418l-24.187-76.5l-24.187,76.5H199.163z"/>
	<path fill="#FFFFFF" d="M352.052,151.01h-21.997l-21.341-45.747c-1.606-3.502-3.248-6.402-4.926-8.701
		c-1.679-2.298-3.484-4.121-5.417-5.472c-1.934-1.35-4.049-2.315-6.348-2.9c-2.298-0.583-4.87-0.875-7.716-0.875h-9.192v63.695
		h-19.48V7.97h38.304c8.318,0,15.468,0.913,21.451,2.736c5.981,1.824,10.889,4.377,14.72,7.661c3.83,3.283,6.638,7.242,8.427,11.875
		c1.787,4.634,2.682,9.759,2.682,15.376c0,4.451-0.657,8.665-1.97,12.641c-1.313,3.978-3.267,7.589-5.855,10.834
		c-2.591,3.248-5.801,6.057-9.631,8.427c-3.83,2.372-8.227,4.142-13.188,5.308c4.012,1.387,7.423,3.813,10.232,7.278
		c2.808,3.466,5.672,8.082,8.591,13.844L352.052,151.01z M320.861,47.259c0-7.661-2.391-13.388-7.168-17.182
		c-4.78-3.793-11.511-5.691-20.192-5.691h-18.386v47.278h15.759c4.597,0,8.737-0.528,12.422-1.587
		c3.684-1.057,6.821-2.626,9.412-4.706c2.589-2.08,4.597-4.633,6.02-7.661C320.15,54.684,320.861,51.199,320.861,47.259z"/>
</g>
</svg>
