<?xml version="1.0" encoding="utf-8"?>
<!-- Generator: Adobe Illustrator 15.0.0, SVG Export Plug-In . SVG Version: 6.00 Build 0)  -->
<!DOCTYPE svg PUBLIC "-//W3C//DTD SVG 1.1//EN" "http://www.w3.org/Graphics/SVG/1.1/DTD/svg11.dtd">
<svg version="1.1" id="Слой_1" xmlns="http://www.w3.org/2000/svg" xmlns:xlink="http://www.w3.org/1999/xlink" x="0px" y="0px"
	 width="354.33px" height="566.93px" viewBox="0 0 354.33 566.93" enable-background="new 0 0 354.33 566.93" xml:space="preserve">
<g>
	<path fill="#FFFFFF" d="M108.241,282.623c0,6.834-0.528,13.373-1.582,19.623c-1.054,6.252-2.744,12.065-5.068,17.443
		c-2.328,5.379-5.342,10.267-9.049,14.662c-3.706,4.398-8.25,8.16-13.627,11.284c-5.379,3.126-11.629,5.543-18.751,7.25
		c-7.124,1.708-15.228,2.562-24.311,2.562H5.328V212.961h36.738c22.24,0,38.827,5.723,49.768,17.17
		C102.771,241.579,108.241,259.076,108.241,282.623z M87.854,284.041c0-10.102-0.946-18.642-2.834-25.619
		c-1.892-6.977-4.762-12.608-8.613-16.898c-3.853-4.288-8.686-7.394-14.499-9.321c-5.815-1.925-12.646-2.889-20.496-2.889H24.733
		v109.344h14.499C71.646,338.658,87.854,320.452,87.854,284.041z"/>
	<path fill="#FFFFFF" d="M232.955,283.277c0,12.793-1.508,23.84-4.523,33.141c-3.018,9.306-7.088,16.991-12.211,23.058
		c-5.123,6.07-11.119,10.575-17.986,13.519c-6.869,2.944-14.119,4.415-21.75,4.415c-9.157,0-17.133-1.653-23.929-4.96
		c-6.797-3.307-12.427-8.085-16.897-14.336c-4.47-6.249-7.795-13.862-9.976-22.839c-2.18-8.976-3.271-19.095-3.271-30.361
		c0-12.646,1.489-23.619,4.47-32.923c2.98-9.303,7.031-16.989,12.156-23.058c5.124-6.067,11.101-10.574,17.933-13.518
		c6.831-2.943,14.063-4.416,21.696-4.416c9.156,0,17.131,1.673,23.928,5.015c6.795,3.344,12.445,8.122,16.953,14.336
		c4.504,6.213,7.865,13.791,10.084,22.73C231.848,262.019,232.955,272.087,232.955,283.277z M212.787,284.695
		c0-8.357-0.637-16.007-1.908-22.948c-1.271-6.939-3.324-12.918-6.158-17.933c-2.834-5.015-6.486-8.902-10.957-11.666
		c-4.469-2.761-9.865-4.143-16.189-4.143c-6.105,0-11.355,1.472-15.752,4.415c-4.398,2.944-8.013,6.941-10.847,11.993
		c-2.835,5.052-4.943,10.974-6.323,17.77c-1.382,6.795-2.072,14.008-2.072,21.639c0,8.432,0.654,16.117,1.964,23.057
		c1.307,6.942,3.359,12.902,6.158,17.88c2.798,4.979,6.414,8.85,10.847,11.609c4.434,2.764,9.774,4.144,16.026,4.144
		c6.105,0,11.375-1.472,15.809-4.415c4.432-2.944,8.084-6.939,10.957-11.992c2.869-5.051,4.994-10.956,6.377-17.715
		C212.096,299.63,212.787,292.399,212.787,284.695z"/>
	<path fill="#FFFFFF" d="M352.33,229.532h-42.189v125.915h-19.623V229.532h-42.189v-16.571H352.33V229.532z"/>
</g>
<g>
	<path fill="#FFFFFF" d="M103.334,560.93H78.042l-41.535-88.849l-11.993-28.563v71.843v45.568H6.418V418.445h24.964l39.573,84.161
		l14.281,32.595V458.89v-40.444h18.098V560.93z"/>
	<path fill="#FFFFFF" d="M219.109,560.93h-81V418.445h81v16.353h-61.594v44.151h59.196v16.353h-59.196v49.058h61.594V560.93z"/>
	<path fill="#FFFFFF" d="M352.33,435.015h-42.189V560.93h-19.623V435.015h-42.189v-16.569H352.33V435.015z"/>
</g>
<path fill="#FFFFFF" d="M117.505,151.888H98.462l-2.845-89.195l-1.204-34.255l-6.676,19.918l-21.122,56.91H53.154L33.017,50.545
	l-6.676-22.107l-0.438,35.787l-2.517,87.663H5l7.004-143.04h23.092l19.262,53.845l6.238,18.167l6.02-18.167L86.862,8.848h23.749
	L117.505,151.888z"/>
<path fill="#FFFFFF" d="M228.982,113.146c0,6.785-1.387,12.733-4.16,17.839c-2.773,5.108-6.639,9.357-11.6,12.75
	c-4.963,3.393-10.928,5.929-17.895,7.606c-6.969,1.678-14.648,2.517-23.037,2.517c-3.795,0-7.57-0.147-11.327-0.438
	c-3.759-0.292-7.371-0.657-10.835-1.094c-3.467-0.438-6.73-0.948-9.795-1.532c-3.064-0.583-5.838-1.204-8.317-1.861v-18.824
	c5.472,2.043,11.617,3.649,18.44,4.815c6.821,1.168,14.573,1.751,23.256,1.751c6.275,0,11.619-0.493,16.033-1.478
	s8.025-2.443,10.836-4.377c2.807-1.933,4.852-4.286,6.129-7.059c1.275-2.772,1.914-5.946,1.914-9.521
	c0-3.866-1.076-7.168-3.229-9.904c-2.152-2.736-4.979-5.18-8.48-7.333c-3.502-2.151-7.498-4.121-11.984-5.91
	c-4.486-1.787-9.067-3.628-13.735-5.526c-4.67-1.896-9.248-3.957-13.735-6.184c-4.486-2.225-8.481-4.852-11.983-7.88
	c-3.502-3.027-6.331-6.583-8.481-10.67c-2.153-4.085-3.229-8.937-3.229-14.556c0-4.887,1.021-9.703,3.064-14.446
	c2.041-4.742,5.215-8.956,9.521-12.641c4.305-3.684,9.831-6.657,16.581-8.919c6.747-2.261,14.791-3.393,24.132-3.393
	c2.406,0,5.016,0.109,7.824,0.328s5.654,0.53,8.537,0.93c2.881,0.402,5.727,0.858,8.535,1.368c2.809,0.511,5.418,1.059,7.826,1.642
	v17.511c-5.619-1.604-11.236-2.827-16.854-3.667c-5.619-0.838-11.055-1.258-16.309-1.258c-11.162,0-19.371,1.86-24.624,5.582
	c-5.253,3.721-7.88,8.719-7.88,14.993c0,3.868,1.076,7.188,3.229,9.959c2.151,2.773,4.979,5.253,8.482,7.442
	c3.502,2.189,7.496,4.178,11.983,5.964c4.487,1.789,9.065,3.63,13.735,5.527c4.668,1.898,9.248,3.978,13.734,6.238
	c4.488,2.262,8.482,4.944,11.984,8.044c3.502,3.102,6.328,6.73,8.482,10.889C227.904,102.53,228.982,107.455,228.982,113.146z"/>
<path fill="#FFFFFF" d="M353.33,151.888h-24.514l-53.518-70.152v70.152h-19.48V8.848h19.48v66.431l52.422-66.431h23.094
	l-56.473,67.963L353.33,151.888z"/>
</svg>
