<svg viewBox="0 0 888 888" xmlns="http://www.w3.org/2000/svg">
  <g id="tx" fill="#fff">
    <path d="m522 265q0 9.3-3.8 16.3t-10.6 11.65-16.35 6.95-21.05 2.3q-5.2 0-10.35-0.4t-9.9-1-8.95-1.4-7.6-1.7v-17.2q7.5 2.8 16.85 4.4t21.25 1.6q8.6 0 14.65-1.35t9.9-4 5.6-6.45 1.75-8.7q0-5.3-2.95-9.05t-7.75-6.7-10.95-5.4-12.55-5.05-12.55-5.65-10.95-7.2-7.75-9.75-2.95-13.3q0-6.7 2.8-13.2t8.7-11.55 15.15-8.15 22.05-3.1q3.3 0 7.15 0.3t7.8 0.85 7.8 1.25 7.15 1.5v16q-7.7-2.2-15.4-3.35t-14.9-1.15q-15.3 0-22.5 5.1t-7.2 13.7q0 5.3 2.95 9.1t7.75 6.8 10.95 5.45 12.55 5.05 12.55 5.7 10.95 7.35 7.75 9.95 2.95 13.5z"/>
    <path d="m637 210q0 8-3 15.85t-9.3 14.05-16.1 10.05-23.4 3.85h-16.2v46.9h-17.8v-130.7h36.8q9.7 0 18.6 2.15t15.65 6.95 10.75 12.4 4 18.5zm-18.5 0.8q0-12.6-8.25-19.3t-23.05-6.7h-18.2v53.8h16.6q15.8 0 24.35-6.9t8.55-20.9z"/>
    <path d="m750 262q0 9.4-3.65 16.65t-10.4 12.25-16.3 7.6-21.25 2.6h-34.2v-130.7h37.4q43.7 0 43.7 31.8 0 10.6-5.05 18.2t-16.45 11.3q5.3 1 10.05 3.4t8.35 6.2 5.7 9 2.1 11.7zm-23.2-57.4q0-4-1.2-7.55t-4.2-6.1-8.1-4.05-12.9-1.5h-18.4v40.9h17.8q6.1 0 11.05-1.3t8.5-4 5.5-6.75 1.95-9.65zm4.3 58q0-5-2.1-9t-6.1-6.75-9.75-4.25-12.95-1.5h-18.2v45h18.8q15.3 0 22.8-5.7t7.5-17.8z"/>
    <path d="m527 443q0 9.4-1.45 18t-4.65 16-8.3 13.45-12.5 10.35-17.2 6.65-22.3 2.35h-28v-130.7h33.7q30.6 0 45.65 15.75t15.05 48.15zm-18.7 1.3q0-13.9-2.6-23.5t-7.9-15.5-13.3-8.55-18.8-2.65h-15.3v100.3h13.3q44.6 0 44.6-50.1z"/>
    <path d="m642 444q0 17.6-4.15 30.4t-11.2 21.15-16.5 12.4-19.95 4.05q-12.6 0-21.95-4.55t-15.5-13.15-9.15-20.95-3-27.85q0-17.4 4.1-30.2t11.15-21.15 16.45-12.4 19.9-4.05q12.6 0 21.95 4.6t15.55 13.15 9.25 20.85 3.05 27.7zm-18.5 1.3q0-11.5-1.75-21.05t-5.65-16.45-10.05-10.7-14.85-3.8q-8.4 0-14.45 4.05t-9.95 11-5.8 16.3-1.9 19.85q0 11.6 1.8 21.15t5.65 16.4 9.95 10.65 14.7 3.8q8.4 0 14.5-4.05t10.05-11 5.85-16.25 1.9-19.9z"/>
    <path d="m752 394h-38.7v115.5h-18v-115.5h-38.7v-15.2h95.4z"/>
    <path d="m523 719h-23.2l-38.1-81.5-11-26.2v107.7h-16.6v-130.7h22.9l36.3 77.2 13.1 29.9v-107.1h16.6z"/>
    <path d="m629 719h-74.3v-130.7h74.3v15h-56.5v40.5h54.3v15h-54.3v45h56.5z"/>
    <path d="m752 603h-38.7v115.5h-18v-115.5h-38.7v-15.2h95.4z"/>
  </g>
</svg>
