<?xml version="1.0" encoding="utf-8"?>
<!-- Generator: Adobe Illustrator 15.0.0, SVG Export Plug-In . SVG Version: 6.00 Build 0)  -->
<!DOCTYPE svg PUBLIC "-//W3C//DTD SVG 1.1//EN" "http://www.w3.org/Graphics/SVG/1.1/DTD/svg11.dtd">
<svg version="1.1" id="Слой_1" xmlns="http://www.w3.org/2000/svg" xmlns:xlink="http://www.w3.org/1999/xlink" x="0px" y="0px"
	 width="850.39px" height="850.39px" viewBox="0 0 850.39 850.39" enable-background="new 0 0 850.39 850.39" xml:space="preserve">
<path fill="#FFFFFF" d="M0,0v850.39h850.39V0H0z M836.39,836.39H14V14h822.39V836.39z"/>
<g display="none">
	<path display="inline" fill="#FFFFFF" d="M524.567,250.913c0,6.759-1.382,12.684-4.144,17.77c-2.763,5.088-6.614,9.321-11.555,12.7
		c-4.944,3.38-10.885,5.906-17.824,7.577c-6.942,1.671-14.593,2.508-22.949,2.508c-3.779,0-7.54-0.146-11.283-0.436
		c-3.744-0.292-7.341-0.654-10.792-1.09c-3.453-0.436-6.705-0.944-9.757-1.526c-3.053-0.581-5.816-1.199-8.286-1.854v-18.75
		c5.451,2.035,11.573,3.635,18.37,4.796c6.795,1.164,14.517,1.745,23.165,1.745c6.251,0,11.574-0.491,15.972-1.472
		c4.396-0.981,7.994-2.435,10.793-4.361c2.796-1.925,4.832-4.269,6.105-7.032c1.271-2.761,1.907-5.922,1.907-9.485
		c0-3.851-1.073-7.14-3.216-9.866c-2.145-2.726-4.96-5.159-8.449-7.304c-3.488-2.143-7.468-4.105-11.938-5.887
		c-4.47-1.78-9.031-3.614-13.681-5.505c-4.652-1.889-9.213-3.942-13.682-6.16c-4.47-2.216-8.45-4.832-11.938-7.849
		c-3.489-3.015-6.307-6.558-8.449-10.629c-2.146-4.069-3.217-8.901-3.217-14.499c0-4.869,1.018-9.665,3.053-14.391
		c2.034-4.723,5.195-8.92,9.484-12.591c4.287-3.669,9.793-6.631,16.518-8.885c6.721-2.252,14.733-3.38,24.038-3.38
		c2.397,0,4.995,0.109,7.794,0.327c2.798,0.218,5.632,0.528,8.504,0.927c2.87,0.401,5.704,0.855,8.503,1.363
		c2.796,0.509,5.396,1.054,7.794,1.635v17.443c-5.598-1.598-11.192-2.816-16.788-3.652c-5.598-0.835-11.011-1.254-16.243-1.254
		c-11.12,0-19.297,1.854-24.529,5.56c-5.232,3.707-7.85,8.686-7.85,14.936c0,3.853,1.072,7.16,3.216,9.92
		c2.144,2.763,4.962,5.233,8.449,7.414c3.489,2.18,7.468,4.161,11.938,5.941c4.47,1.781,9.03,3.617,13.682,5.505
		c4.65,1.892,9.212,3.962,13.683,6.214c4.47,2.253,8.448,4.924,11.938,8.013c3.487,3.09,6.304,6.705,8.448,10.847
		C523.495,240.338,524.567,245.244,524.567,250.913z"/>
	<path display="inline" fill="#FFFFFF" d="M649.393,190.626c0,5.816-1.091,11.575-3.271,17.279
		c-2.18,5.707-5.561,10.812-10.139,15.317c-4.578,4.507-10.43,8.16-17.552,10.957c-7.123,2.799-15.626,4.197-25.51,4.197h-17.66
		v51.129h-19.405V147.02h40.118c7.049,0,13.807,0.782,20.277,2.344c6.468,1.563,12.154,4.088,17.061,7.577
		c4.906,3.488,8.813,7.996,11.719,13.518C647.937,175.982,649.393,182.706,649.393,190.626z M629.223,191.499
		c0-9.158-2.997-16.171-8.993-21.041c-5.995-4.869-14.373-7.304-25.129-7.304h-19.84v58.651h18.096
		c11.482,0,20.332-2.507,26.547-7.521C626.117,209.269,629.223,201.674,629.223,191.499z"/>
	<path display="inline" fill="#FFFFFF" d="M772.146,246.879c0,6.833-1.328,12.883-3.98,18.151
		c-2.653,5.271-6.432,9.722-11.338,13.354c-4.904,3.635-10.83,6.396-17.77,8.286c-6.94,1.891-14.662,2.834-23.166,2.834h-37.283
		V147.02h40.772c31.76,0,47.641,11.556,47.641,34.667c0,7.704-1.837,14.318-5.506,19.841c-3.67,5.524-9.648,9.631-17.934,12.319
		c3.852,0.728,7.504,1.962,10.957,3.707c3.45,1.744,6.486,3.998,9.103,6.759c2.616,2.762,4.688,6.033,6.214,9.811
		C771.381,237.904,772.146,242.155,772.146,246.879z M746.854,184.303c0-2.906-0.437-5.65-1.31-8.231
		c-0.871-2.579-2.397-4.796-4.578-6.65c-2.18-1.853-5.124-3.325-8.83-4.415c-3.707-1.09-8.395-1.635-14.063-1.635h-20.059v44.588
		h19.405c4.432,0,8.448-0.472,12.046-1.417c3.597-0.944,6.686-2.399,9.267-4.361c2.579-1.962,4.578-4.416,5.995-7.358
		C746.144,191.88,746.854,188.375,746.854,184.303z M751.541,247.533c0-3.633-0.764-6.904-2.29-9.812
		c-1.526-2.906-3.744-5.359-6.649-7.358c-2.909-1.999-6.451-3.543-10.63-4.633c-4.18-1.091-8.885-1.635-14.118-1.635h-19.84v49.058
		h20.494c11.12,0,19.405-2.072,24.856-6.214C748.815,262.796,751.541,256.328,751.541,247.533z"/>
</g>
<g>
	<path fill="#FFFFFF" d="M474.673,421.172c0,6.833-0.528,13.373-1.582,19.623c-1.054,6.252-2.744,12.065-5.068,17.443
		c-2.328,5.379-5.342,10.267-9.049,14.662c-3.706,4.398-8.25,8.16-13.627,11.284c-5.379,3.126-11.629,5.543-18.751,7.25
		c-7.124,1.708-15.228,2.562-24.311,2.562H371.76V351.51h36.738c22.24,0,38.827,5.723,49.768,17.17
		C469.203,380.128,474.673,397.625,474.673,421.172z M454.286,422.59c0-10.102-0.946-18.642-2.834-25.619
		c-1.892-6.977-4.762-12.608-8.613-16.898c-3.853-4.288-8.686-7.394-14.499-9.321c-5.815-1.925-12.646-2.889-20.496-2.889h-16.679
		v109.344h14.499C438.078,477.207,454.286,459.001,454.286,422.59z"/>
	<path fill="#FFFFFF" d="M599.388,421.827c0,12.792-1.509,23.839-4.524,33.14c-3.018,9.306-7.087,16.991-12.21,23.058
		c-5.124,6.07-11.119,10.575-17.987,13.519c-6.868,2.944-14.118,4.415-21.75,4.415c-9.156,0-17.133-1.653-23.929-4.96
		c-6.797-3.307-12.427-8.085-16.897-14.336c-4.47-6.249-7.795-13.862-9.976-22.839c-2.18-8.976-3.271-19.095-3.271-30.361
		c0-12.646,1.489-23.619,4.47-32.923c2.98-9.303,7.031-16.989,12.156-23.058c5.124-6.067,11.101-10.574,17.933-13.518
		c6.831-2.943,14.063-4.416,21.695-4.416c9.156,0,17.132,1.673,23.929,5.015c6.795,3.344,12.445,8.122,16.952,14.336
		c4.505,6.213,7.866,13.791,10.084,22.73C598.279,400.568,599.388,410.636,599.388,421.827z M579.22,423.244
		c0-8.357-0.638-16.007-1.908-22.948c-1.271-6.939-3.324-12.918-6.159-17.933c-2.834-5.015-6.486-8.902-10.956-11.666
		c-4.47-2.761-9.866-4.143-16.189-4.143c-6.105,0-11.355,1.472-15.753,4.415c-4.398,2.944-8.013,6.941-10.847,11.993
		c-2.835,5.052-4.943,10.974-6.323,17.77c-1.382,6.796-2.072,14.009-2.072,21.64c0,8.431,0.654,16.117,1.964,23.056
		c1.307,6.942,3.359,12.902,6.158,17.88c2.798,4.979,6.414,8.85,10.847,11.609c4.434,2.764,9.774,4.144,16.026,4.144
		c6.105,0,11.374-1.472,15.808-4.415c4.432-2.944,8.084-6.939,10.957-11.992c2.87-5.051,4.995-10.956,6.377-17.715
		C578.528,438.179,579.22,430.948,579.22,423.244z"/>
	<path fill="#FFFFFF" d="M718.762,368.081h-42.189v125.915h-19.623V368.081H614.76V351.51h104.002V368.081z"/>
</g>
<g>
	<path fill="#FFFFFF" d="M469.767,699.479h-25.292l-41.535-88.849l-11.993-28.563v71.843v45.568h-18.096V556.994h24.964
		l39.573,84.161l14.281,32.595v-76.312v-40.444h18.098V699.479z"/>
	<path fill="#FFFFFF" d="M585.542,699.479h-81V556.994h81v16.353h-61.595v44.151h59.196v16.353h-59.196v49.058h61.595V699.479z"/>
	<path fill="#FFFFFF" d="M718.762,573.563h-42.189v125.915h-19.623V573.563H614.76v-16.569h104.002V573.563z"/>
</g>
<g>
	<path fill="#FFFFFF" d="M467.207,249.957c0,6.674-1.363,12.523-4.09,17.545c-2.728,5.023-6.531,9.203-11.41,12.54
		c-4.88,3.337-10.747,5.831-17.599,7.481c-6.854,1.65-14.407,2.476-22.658,2.476c-3.732,0-7.445-0.145-11.141-0.431
		c-3.697-0.288-7.249-0.646-10.656-1.077c-3.409-0.43-6.62-0.931-9.634-1.507c-3.014-0.574-5.742-1.184-8.181-1.83v-18.514
		c5.382,2.01,11.426,3.589,18.137,4.736c6.709,1.148,14.333,1.722,22.874,1.722c6.171,0,11.427-0.484,15.769-1.453
		c4.341-0.969,7.893-2.404,10.655-4.306c2.763-1.9,4.772-4.215,6.028-6.943c1.255-2.727,1.884-5.848,1.884-9.364
		c0-3.803-1.06-7.051-3.176-9.742c-2.117-2.691-4.897-5.094-8.342-7.212c-3.444-2.115-7.373-4.053-11.786-5.813
		c-4.413-1.757-8.917-3.568-13.509-5.436c-4.593-1.865-9.095-3.892-13.509-6.082c-4.413-2.188-8.342-4.772-11.786-7.75
		c-3.444-2.977-6.227-6.475-8.342-10.495c-2.117-4.018-3.175-8.789-3.175-14.316c0-4.807,1.004-9.542,3.014-14.208
		c2.008-4.664,5.129-8.808,9.364-12.432c4.233-3.623,9.669-6.548,16.308-8.772c6.636-2.224,14.548-3.337,23.734-3.337
		c2.368,0,4.933,0.107,7.696,0.323c2.762,0.215,5.561,0.521,8.396,0.915c2.834,0.395,5.633,0.845,8.396,1.346
		c2.763,0.502,5.328,1.041,7.696,1.614v17.223c-5.525-1.578-11.051-2.781-16.576-3.606c-5.526-0.824-10.871-1.238-16.037-1.238
		c-10.979,0-19.053,1.83-24.219,5.489s-7.75,8.576-7.75,14.747c0,3.805,1.058,7.069,3.175,9.795
		c2.116,2.728,4.897,5.167,8.342,7.319c3.445,2.153,7.374,4.108,11.787,5.866c4.414,1.759,8.916,3.57,13.509,5.436
		c4.591,1.867,9.095,3.912,13.508,6.135c4.413,2.225,8.342,4.862,11.786,7.912c3.444,3.051,6.225,6.62,8.343,10.71
		C466.148,239.516,467.207,244.36,467.207,249.957z"/>
	<path fill="#FFFFFF" d="M597.02,288.062h-18.729l-2.799-87.726l-1.184-33.691l-6.566,19.59l-20.774,55.972h-13.239l-19.806-53.819
		l-6.566-21.743l-0.431,35.198l-2.476,86.219h-18.083l6.889-140.685h22.712l18.944,52.958l6.136,17.868l5.92-17.868l19.913-52.958
		h23.357L597.02,288.062z"/>
	<path fill="#FFFFFF" d="M717.576,216.804c0,12.631-1.49,23.538-4.468,32.722c-2.978,9.187-6.996,16.775-12.056,22.766
		c-5.059,5.993-10.979,10.441-17.76,13.348s-13.939,4.359-21.475,4.359c-9.041,0-16.917-1.633-23.626-4.898
		c-6.711-3.265-12.271-7.982-16.685-14.154c-4.413-6.171-7.696-13.687-9.849-22.55c-2.153-8.862-3.229-18.854-3.229-29.978
		c0-12.486,1.471-23.321,4.413-32.507c2.942-9.185,6.942-16.773,12.002-22.766c5.059-5.991,10.961-10.441,17.707-13.347
		c6.744-2.906,13.885-4.359,21.42-4.359c9.042,0,16.916,1.652,23.627,4.951c6.709,3.302,12.288,8.02,16.737,14.155
		s7.768,13.616,9.957,22.443C716.481,195.814,717.576,205.754,717.576,216.804z M697.662,218.204c0-8.251-0.628-15.805-1.883-22.658
		c-1.257-6.852-3.283-12.755-6.082-17.707s-6.404-8.789-10.817-11.518c-4.413-2.727-9.741-4.09-15.984-4.09
		c-6.028,0-11.213,1.453-15.555,4.359s-7.911,6.854-10.71,11.84c-2.798,4.989-4.88,10.836-6.243,17.545
		c-1.363,6.711-2.045,13.832-2.045,21.366c0,8.326,0.646,15.914,1.938,22.766c1.292,6.854,3.318,12.739,6.082,17.653
		c2.762,4.916,6.332,8.737,10.71,11.464c4.377,2.728,9.65,4.09,15.823,4.09c6.027,0,11.229-1.453,15.607-4.359
		c4.376-2.906,7.982-6.852,10.817-11.84c2.834-4.987,4.934-10.818,6.297-17.492C696.98,232.95,697.662,225.811,697.662,218.204z"/>
</g>
</svg>
