<?xml version="1.0" encoding="utf-8"?>
<!-- Generator: Adobe Illustrator 15.0.0, SVG Export Plug-In . SVG Version: 6.00 Build 0)  -->
<!DOCTYPE svg PUBLIC "-//W3C//DTD SVG 1.1//EN" "http://www.w3.org/Graphics/SVG/1.1/DTD/svg11.dtd">
<svg version="1.1" id="Слой_1" xmlns="http://www.w3.org/2000/svg" xmlns:xlink="http://www.w3.org/1999/xlink" x="0px" y="0px"
	 width="354.33px" height="566.93px" viewBox="0 0 354.33 566.93" enable-background="new 0 0 354.33 566.93" xml:space="preserve">
<g>
	<path fill="#FFFFFF" d="M107.574,280.697c0,6.834-0.528,13.373-1.582,19.623c-1.054,6.252-2.744,12.065-5.068,17.443
		c-2.328,5.379-5.342,10.267-9.049,14.662c-3.706,4.398-8.25,8.16-13.627,11.284c-5.379,3.126-11.629,5.543-18.751,7.25
		c-7.124,1.708-15.228,2.562-24.311,2.562H4.661V211.035h36.738c22.24,0,38.827,5.724,49.768,17.171
		C102.104,239.653,107.574,257.15,107.574,280.697z M87.188,282.115c0-10.102-0.946-18.643-2.834-25.619
		c-1.892-6.977-4.762-12.608-8.613-16.898c-3.853-4.287-8.686-7.394-14.499-9.32c-5.815-1.925-12.646-2.889-20.496-2.889H24.066
		v109.344h14.499C70.979,336.732,87.188,318.526,87.188,282.115z"/>
	<path fill="#FFFFFF" d="M232.289,281.352c0,12.793-1.509,23.84-4.524,33.141c-3.018,9.306-7.087,16.991-12.21,23.058
		c-5.124,6.07-11.119,10.575-17.987,13.519c-6.868,2.944-14.118,4.415-21.75,4.415c-9.156,0-17.133-1.653-23.929-4.96
		c-6.797-3.307-12.427-8.085-16.897-14.336c-4.47-6.249-7.795-13.862-9.976-22.839c-2.18-8.976-3.271-19.095-3.271-30.361
		c0-12.646,1.489-23.619,4.47-32.923c2.98-9.303,7.031-16.988,12.156-23.058c5.124-6.067,11.101-10.574,17.933-13.519
		c6.831-2.943,14.063-4.415,21.695-4.415c9.156,0,17.132,1.673,23.929,5.015c6.795,3.344,12.445,8.122,16.952,14.336
		c4.505,6.214,7.866,13.791,10.084,22.73C231.181,260.094,232.289,270.161,232.289,281.352z M212.121,282.77
		c0-8.357-0.638-16.007-1.908-22.948c-1.271-6.939-3.324-12.919-6.159-17.933c-2.834-5.016-6.486-8.902-10.956-11.666
		c-4.47-2.761-9.866-4.143-16.189-4.143c-6.105,0-11.355,1.472-15.753,4.415c-4.398,2.944-8.013,6.941-10.847,11.993
		c-2.835,5.052-4.943,10.974-6.323,17.77c-1.382,6.795-2.072,14.008-2.072,21.639c0,8.432,0.654,16.117,1.964,23.057
		c1.307,6.942,3.359,12.902,6.158,17.88c2.798,4.979,6.414,8.85,10.847,11.609c4.434,2.764,9.774,4.144,16.026,4.144
		c6.105,0,11.374-1.472,15.808-4.415c4.432-2.944,8.084-6.939,10.957-11.992c2.87-5.051,4.995-10.956,6.377-17.715
		C211.43,297.704,212.121,290.474,212.121,282.77z"/>
	<path fill="#FFFFFF" d="M351.663,227.606h-42.189v125.915h-19.623V227.606h-42.189v-16.571h104.002V227.606z"/>
</g>
<g>
	<path fill="#FFFFFF" d="M102.668,559.004H77.376l-41.535-88.849l-11.993-28.563v71.843v45.568H5.752V416.52h24.964l39.573,84.161
		l14.281,32.595v-76.312V416.52h18.098V559.004z"/>
	<path fill="#FFFFFF" d="M218.443,559.004h-81V416.52h81v16.353h-61.595v44.151h59.196v16.353h-59.196v49.058h61.595V559.004z"/>
	<path fill="#FFFFFF" d="M351.663,433.089h-42.189v125.915h-19.623V433.089h-42.189V416.52h104.002V433.089z"/>
</g>
<path fill="#FFFFFF" d="M104.017,149.783H79.722L26.685,80.26v69.523H7.379V8.025h19.306V73.86L78.638,8.025h22.884L45.557,75.379
	L104.017,149.783z"/>
<path fill="#FFFFFF" d="M351.33,77.331c0,6.797-0.525,13.305-1.572,19.523c-1.05,6.219-2.731,12.003-5.043,17.354
	c-2.315,5.351-5.315,10.213-9.003,14.587c-3.688,4.376-8.207,8.118-13.558,11.226c-5.353,3.11-11.57,5.515-18.655,7.212
	c-7.087,1.7-15.148,2.549-24.187,2.549h-30.368V8.025h36.551c22.125,0,38.628,5.694,49.512,17.082
	C345.889,36.496,351.33,53.904,351.33,77.331z M331.048,78.741c0-10.049-0.94-18.547-2.819-25.488
	c-1.882-6.941-4.737-12.544-8.568-16.812c-3.834-4.266-8.642-7.356-14.426-9.273c-5.786-1.915-12.582-2.874-20.391-2.874h-16.595
	v108.787h14.426C314.923,133.081,331.048,114.967,331.048,78.741z"/>
<path fill="#FFFFFF" d="M220.703,149.783h-21.801l-21.149-45.336c-1.592-3.471-3.218-6.345-4.881-8.623
	c-1.663-2.277-3.453-4.084-5.368-5.423c-1.917-1.337-4.014-2.294-6.291-2.874c-2.277-0.578-4.827-0.868-7.646-0.868h-9.111v63.124
	h-19.306V8.025h37.961c8.243,0,15.329,0.905,21.259,2.711c5.929,1.809,10.792,4.339,14.588,7.593
	c3.797,3.253,6.579,7.177,8.352,11.768c1.771,4.592,2.657,9.671,2.657,15.239c0,4.411-0.65,8.587-1.952,12.527
	c-1.301,3.942-3.237,7.521-5.803,10.738c-2.567,3.218-5.748,6.002-9.544,8.351c-3.797,2.351-8.153,4.104-13.07,5.26
	c3.977,1.375,7.357,3.78,10.142,7.213c2.782,3.435,5.621,8.009,8.514,13.72L220.703,149.783z M189.792,46.962
	c0-7.592-2.369-13.268-7.104-17.028c-4.736-3.759-11.406-5.64-20.01-5.64h-18.223v46.855h15.619c4.555,0,8.658-0.524,12.311-1.573
	c3.649-1.047,6.76-2.603,9.327-4.664c2.565-2.061,4.556-4.59,5.966-7.592C189.087,54.321,189.792,50.867,189.792,46.962z"/>
</svg>
