<svg viewBox="0 0 888 888" xmlns="http://www.w3.org/2000/svg">
  <rect id="bg" width="888" height="888" fill="#68217a"/>
  <g id="tx" fill="#fff">
    <path d="m527 443q0 9.4-1.45 18t-4.65 16-8.3 13.45-12.5 10.35-17.2 6.65-22.3 2.35h-28v-130.7h33.7q30.6 0 45.65 15.75t15.05 48.15zm-18.7 1.3q0-13.9-2.6-23.5t-7.9-15.5-13.3-8.55-18.8-2.65h-15.3v100.3h13.3q44.6 0 44.6-50.1z"/>
    <path d="m642 444q0 17.6-4.15 30.4t-11.2 21.15-16.5 12.4-19.95 4.05q-12.6 0-21.95-4.55t-15.5-13.15-9.15-20.95-3-27.85q0-17.4 4.1-30.2t11.15-21.15 16.45-12.4 19.9-4.05q12.6 0 21.95 4.6t15.55 13.15 9.25 20.85 3.05 27.7zm-18.5 1.3q0-11.5-1.75-21.05t-5.65-16.45-10.05-10.7-14.85-3.8q-8.4 0-14.45 4.05t-9.95 11-5.8 16.3-1.9 19.85q0 11.6 1.8 21.15t5.65 16.4 9.95 10.65 14.7 3.8q8.4 0 14.5-4.05t10.05-11 5.85-16.25 1.9-19.9z"/>
    <path d="m752 394h-38.7v115.5h-18v-115.5h-38.7v-15.2h95.4z"/>
    <path d="m523 719h-23.2l-38.1-81.5-11-26.2v107.7h-16.6v-130.7h22.9l36.3 77.2 13.1 29.9v-107.1h16.6z"/>
    <path d="m629 719h-74.3v-130.7h74.3v15h-56.5v40.5h54.3v15h-54.3v45h56.5z"/>
    <path d="m752 603h-38.7v115.5h-18v-115.5h-38.7v-15.2h95.4z"/>
  </g>
  <g id="bc" fill="#cf18fd">
    <path d="m501.26 256.34 1.8921 28.137h-1.8921q-3.7842-12.634-10.803-18.188-7.019-5.5542-16.846-5.5542-8.2397 0-14.893 4.2114-6.6528 4.1504-10.498 13.306-3.7842 9.1553-3.7842 22.766 0 11.23 3.6011 19.47 3.6011 8.2397 10.803 12.634 7.2632 4.3945 16.541 4.3945 8.0566 0 14.221-3.418 6.1646-3.479 13.55-13.733l1.8921 1.2207q-6.2256 11.047-14.526 16.174-8.3008 5.127-19.714 5.127-20.569 0-31.86-15.259-8.4228-11.353-8.4228-26.733 0-12.39 5.5542-22.766t15.259-16.052q9.7656-5.7373 21.301-5.7373 8.9722 0 17.7 4.3945 2.5635 1.3428 3.6621 1.3428 1.648 0 2.8687-1.1597 1.5869-1.6479 2.2583-4.5776z"/>
    <path d="m581.15 318.11 2.0142 0.42724-7.0801 22.461h-64.087v-2.2583h3.1128q5.249 0 7.5073-3.418 1.2817-1.9531 1.2817-9.0332v-53.406q0-7.7515-1.709-9.7046-2.3804-2.6856-7.0801-2.6856h-3.1128v-2.2583h37.476v2.2583q-6.5918-0.061-9.2773 1.2207-2.6245 1.2817-3.6011 3.2349-0.97656 1.9531-0.97656 9.3384v52.002q0 5.0659 0.97656 6.958 0.73242 1.2817 2.2583 1.8921 1.5259 0.61036 9.5215 0.61036h6.0425q9.5215 0 13.367-1.4038 3.8452-1.4038 7.019-4.9438 3.1738-3.6011 6.3477-11.292z"/>
    <path d="m645.54 260.49v-2.2583h29.297v2.2583h-3.1128q-4.8828 0-7.5073 4.0894-1.2817 1.8921-1.2817 8.7891v33.569q0 12.451-2.5024 19.348-2.4414 6.8359-9.7046 11.78-7.2022 4.8828-19.653 4.8828-13.55 0-20.569-4.6997-7.019-4.6997-9.9487-12.634-1.9531-5.4321-1.9531-20.386v-32.349q0-7.6294-2.1362-10.01-2.0752-2.3804-6.7749-2.3804h-3.1128v-2.2583h35.767v2.2583h-3.1738q-5.127 0-7.3242 3.2349-1.5259 2.1973-1.5259 9.1553v36.072q0 4.8218 0.85449 11.047 0.91553 6.2256 3.2349 9.7046 2.3193 3.479 6.6528 5.7373 4.3945 2.2583 10.742 2.2583 8.1177 0 14.526-3.54 6.4087-3.54 8.728-9.0332 2.3804-5.5542 2.3804-18.738v-33.508q0-7.7515-1.709-9.7046-2.3804-2.6856-7.0801-2.6856z"/>
    <path d="m733.98 298.76q8.606 1.8311 12.878 5.8594 5.9204 5.6152 5.9204 13.733 0 6.1646-3.9062 11.841-3.9062 5.6152-10.742 8.2397-6.7749 2.5635-20.752 2.5635h-39.062v-2.2583h3.1128q5.188 0 7.4463-3.2959 1.4038-2.1362 1.4038-9.0942v-53.467q0-7.6904-1.77-9.7046-2.3804-2.6856-7.0801-2.6856h-3.1128v-2.2583h35.767q10.01 0 16.052 1.4648 9.1553 2.1973 13.977 7.8125 4.8218 5.5542 4.8218 12.817 0 6.2256-3.7842 11.169-3.7842 4.8828-11.169 7.2632zm-31.982-3.2959q2.2583 0.42725 5.127 0.67139 2.9297 0.18311 6.4087 0.18311 8.9111 0 13.367-1.8921 4.5166-1.9531 6.897-5.9204 2.3804-3.9673 2.3804-8.667 0-7.2632-5.9204-12.39-5.9204-5.127-17.273-5.127-6.1035 0-10.986 1.3428zm0 39.551q7.0801 1.648 13.977 1.648 11.047 0 16.846-4.9438 5.7983-5.0049 5.7983-12.329 0-4.8218-2.6245-9.2773t-8.5449-7.019q-5.9204-2.5635-14.648-2.5635-3.7842 0-6.4697 0.12207-2.6855 0.12207-4.3335 0.42725z"/>
    <path d="m340.76 673.26q1.8311-8.606 5.8594-12.878 5.6152-5.9204 13.733-5.9204 6.1646 0 11.841 3.9062 5.6152 3.9062 8.2397 10.742 2.5635 6.7749 2.5635 20.752v39.062h-2.2583v-3.1128q0-5.188-3.2959-7.4463-2.1362-1.4038-9.0942-1.4038h-53.467q-7.6904 0-9.7046 1.77-2.6856 2.3804-2.6856 7.0801v3.1128h-2.2583v-35.767q0-10.01 1.4648-16.052 2.1973-9.1553 7.8125-13.977 5.5542-4.8218 12.817-4.8218 6.2256 0 11.169 3.7842 4.8828 3.7842 7.2632 11.169zm-3.2959 31.982q0.42725-2.2583 0.67139-5.127 0.18311-2.9297 0.18311-6.4087 0-8.9111-1.8921-13.367-1.9531-4.5166-5.9204-6.897-3.9673-2.3804-8.667-2.3804-7.2632 0-12.39 5.9204-5.127 5.9204-5.127 17.273 0 6.1035 1.3428 10.986zm39.551 0q1.648-7.0801 1.648-13.977 0-11.047-4.9438-16.846-5.0049-5.7983-12.329-5.7983-4.8218 0-9.2773 2.6245t-7.019 8.5449q-2.5635 5.9204-2.5635 14.648 0 3.7842 0.12207 6.4697 0.12207 2.6855 0.42725 4.3335z"/>
    <path d="m298.34 601.79q0-16.113 12.268-27.893 12.207-11.841 30.518-11.841 18.86 0 31.311 11.902 12.451 11.902 12.451 28.809 0 17.09-12.146 28.748-12.146 11.597-31.433 11.597-19.714 0-32.166-13.428-10.803-11.658-10.803-27.893zm4.4556 1.1597q0 11.108 8.2398 17.822 10.254 8.3618 30.029 8.3618 20.264 0 31.189-8.667 8.3008-6.6528 8.3008-17.578 0-11.658-9.0942-19.226-9.0942-7.6294-28.687-7.6294-21.24 0-31.677 8.3618-8.3008 6.7139-8.3008 18.555z"/>
    <path d="m298.34 511.46q0-16.113 12.268-27.893 12.207-11.841 30.518-11.841 18.86 0 31.311 11.902 12.451 11.902 12.451 28.809 0 17.09-12.146 28.748-12.146 11.597-31.433 11.597-19.714 0-32.166-13.428-10.803-11.658-10.803-27.893zm4.4556 1.1597q0 11.108 8.2398 17.822 10.254 8.3618 30.029 8.3618 20.264 0 31.189-8.667 8.3008-6.6528 8.3008-17.578 0-11.658-9.0942-19.226-9.0942-7.6294-28.687-7.6294-21.24 0-31.677 8.3618-8.3008 6.7139-8.3008 18.555z"/>
    <path d="m337.1 429.49 30.334-30.518q7.5073-7.5073 10.254-12.817 2.6856-5.3101 3.0518-10.62h2.2583v39.368h-2.2583q0-3.54-1.1597-5.0659-1.2207-1.5869-2.6856-1.5869-1.4648 0-2.6245 0.61036-1.1597 0.54931-4.3335 3.7842l-28.259 28.564h26.672q6.2866 0 8.3008-0.79346 1.5259-0.61035 2.6245-2.5635 1.4648-2.6245 1.4648-5.5542v-2.8076h2.2583v35.278h-2.2583v-2.9297q0-5.127-2.9907-7.4463-1.9531-1.4648-9.3994-1.4648h-53.467q-6.2866 0-8.3618 0.79346-1.4648 0.61035-2.5635 2.5024-1.4648 2.6855-1.4648 5.6152v2.9297h-2.2583v-35.278h2.2583v2.8076q0 2.8686 1.4038 5.5542 0.97656 1.8921 2.9297 2.6245 1.9531 0.73242 8.0566 0.73242h25.33q-1.1597-1.2207-7.7515-8.3618-16.602-18.127-22.156-21.912-2.4414-1.648-4.2725-1.648-1.4038 0-2.4414 1.2817-1.0986 1.2817-1.0986 4.3335v1.8921h-2.2583v-30.396h2.2583q0.061 2.6855 0.73242 4.8828 0.67139 2.1973 2.6245 5.3711 1.8921 3.1738 6.1646 7.8125 1.2207 1.3428 12.512 12.39z"/>
  </g>
  <g id="bk" fill="#cf18fd">
    <path d="m394 318c-3.3175-26.85 3.3802-76.318-1.0526-96.794-4.0098 4.0568-10.021 6.1108-15.781 8.4165 3.2695 14.492-8.3496 14.096-12.625 21.042 4.4599 26.926-5.9375 52.33-2.1052 74.7-25.243-2.9875-46.529 4.0746-72.596 1.0526-5.8299 9.2518-15.061 15.101-18.939 26.302 29.975 2.3986 62.42-3.2288 88.378 0 6.3698 0.79257 11.708 3.9827 17.886 3.1567 8.7193-1.1664 18.779-10.579 19.991-19.991 0.70068-5.4446-2.3088-11.024-3.1556-17.886zm-24.069 6.0826c-0.48139-3.4867-1.7491-13.34-1.7491-20.505 0-4.133 0.88132-10.503 1.8117-17.245 1.0714-7.7482 2.1793-15.759 2.0509-21.142-0.19631-8.1345-1.7606-14.196-2.338-16.181 0.90012-0.56284 1.8869-1.0369 2.834-1.5507 0.46363 1.5235 2.195 7.7398 2.3996 16.301 0.12844 5.3235-0.97531 13.306-2.0425 21.026-0.93562 6.7676-1.8201 13.161-1.8201 17.345 0 7.6354 1.4264 18.278 1.8347 21.153-1.0818 0.18065-2.0425 0.4793-2.9813 0.80092zm-3.2862-71.312c0.40308-1.5194 1.3136-2.5302 2.4289-3.3353 0.60879 2.1344 2.0592 7.9758 2.2451 15.774 0.12844 5.3235-0.97635 13.306-2.0425 21.024-0.93562 6.7676-1.8201 13.161-1.8201 17.345 0 7.3117 1.3084 17.382 1.7762 20.748-1.1539 0.40516-2.3077 0.81136-3.6402 1.04-4.3732-24.311 6.2988-47.413 1.0526-72.596zm-3.1567 75.751c-0.36339 0.56075-0.70172 1.1466-1.0035 1.77-2.6659-0.41978-8.1335-1.1403-15.113-1.3084-5.242-0.12531-12.91 0.70903-20.331 1.5173-6.9577 0.75811-13.534 1.4755-17.992 1.4181-7.6176-0.0919-15.536-0.89386-18.828-1.2646 0.4062-0.69441 0.67457-1.4076 0.67248-2.1323 23.898 4.3878 48.758-4.3054 72.596 0zm-1.3011 2.456c-0.35817 0.86462-0.63593 1.8076-0.79257 2.8737-2.8518-0.44275-8.3214-1.1466-15.049-1.3084-5.4248-0.1274-13.447 0.72051-21.199 1.5434-6.5828 0.69859-12.798 1.3596-16.889 1.3596-7.2031 0-17.077-1.2186-20.501-1.6718 0.65682-0.76855 1.4139-1.5883 2.0216-2.4414 3.0575 0.34981 11.32 1.2144 19.263 1.3105 0.16081 2e-3 0.3258 3e-3 0.49287 3e-3 4.4891 0 10.857-0.69336 17.586-1.4254 7.3963-0.80509 15.043-1.6373 20.234-1.512 6.7791 0.16082 12.128 0.84896 14.834 1.2687zm-74.45 7.013c-2.0947-0.89386-1.6415-2.1219-0.52003-3.5587 2.9322 0.39472 13.451 1.7366 21.041 1.7366 4.1278 0 10.364-0.66204 16.965-1.3627 7.7294-0.82076 15.72-1.6676 21.107-1.5392 6.7206 0.16186 12.17 0.86776 14.989 1.3053-0.0919 1.0254-0.0877 2.1459 0.0668 3.4188-23.916 0.0647-53.216-0.0888-73.648 0zm89.429-1.0526h-12.625c-0.68815-8.4018 4.0788-11.351 12.625-10.521zm0-13.677c-1.3439-0.19004-2.4978-0.19109-3.5378-0.0762-0.40307-2.8539-1.8264-13.461-1.8264-21.055 0-4.133 0.88028-10.503 1.8128-17.245 1.0703-7.7482 2.1783-15.759 2.0488-21.141-0.2172-8.971-2.0916-15.408-2.479-16.648 1.1904-0.69859 2.2618-1.5183 2.928-2.7411 2.456 24.199 0.354 52.955 1.0536 78.907z"/>
  </g>
</svg>
