<svg width="850.39px" height="850.39px" enable-background="new 0 0 850.39 850.39" version="1.1" viewBox="0 0 850.39 850.39" xmlns="http://www.w3.org/2000/svg">
  <rect y=".004" width="850.39" height="850.39" fill="#fff"/>
  <rect x="14" y="14.004" width="822.39" height="822.39" fill="#68217B"/>
  <g clip-rule="evenodd" fill="#3A1C44" fill-rule="evenodd">
    <path d="m526.36 168.68c29.436-4.386 57.168 3.642 66.004 24.446 6.74 15.866 3.259 66.224 3.259 87.192 0 19.7 4.143 69.802-2.443 87.191-4.678 12.35-15.603 21.195-26.891 24.446-15.313 4.41-38.093 4.247-52.152-0.814-11.944-4.3-21.137-12.391-25.262-25.261-2.774-8.663-1.631-26.18-1.631-40.745v-84.747c0-17.554-1.691-32.511 2.445-44.003 6.088-16.907 16.784-24.741 36.671-27.705z"/>
    <path d="m551.62 429.44c0.524 22.29-1.059 46.69 0.815 67.633 4.497 4.739 18.324 0.146 22.003 5.705 2.409 2.728 2.017 10.835 0.814 14.669-3.895 5.608-18.811 4.072-33.411 4.072-22.006 0-44.762 1.949-32.594-20.371 4.892-3.258 16.382 0.086 20.372-4.075 3.708-19.107 0.61-45.02 1.629-66.819-41.657-1.158-72.481-22.28-75.783-61.931-0.801-9.613 0-21.832 0-35.04 0-12.166-2.936-33.125 7.332-32.595 16.238 0.839 5.588 37.85 8.965 65.19 4.656 37.697 39.841 48.698 85.562 45.632 28.01-1.877 50.87-19.868 53.783-48.078 1.398-13.543-5.604-61.5 7.333-62.745 10.589-1.02 8.964 14.247 8.964 26.891 0 12.989 0.6 26.217 0 35.854-2.635 42.432-29.613 65.552-75.784 66.008z"/>
  </g>
  <g fill="#fff">
    <path d="m199.92 235.23c0 6.867-0.507 13.436-1.522 19.715-1.013 6.281-2.64 12.122-4.876 17.525-2.24 5.404-5.139 10.314-8.706 14.73-3.564 4.419-7.937 8.198-13.11 11.337-5.175 3.141-11.188 5.569-18.039 7.284-6.854 1.716-14.651 2.574-23.388 2.574h-29.367v-143.15h35.344c21.396 0 37.353 5.75 47.879 17.251 10.523 11.501 15.785 29.079 15.785 52.737zm-19.614 1.424c0-10.149-0.909-18.729-2.726-25.739-1.819-7.01-4.581-12.667-8.287-16.977-3.706-4.308-8.356-7.429-13.948-9.364-5.596-1.934-12.167-2.903-19.719-2.903h-16.047v109.86h13.95c31.185 0 46.777-18.291 46.777-54.873z"/>
    <path d="m319.9 235.88c0 12.853-1.451 23.952-4.352 33.296-2.903 9.35-6.819 17.071-11.748 23.166-4.929 6.098-10.697 10.625-17.304 13.582-6.608 2.958-13.583 4.436-20.924 4.436-8.809 0-16.483-1.661-23.022-4.983s-11.954-8.123-16.255-14.403c-4.301-6.278-7.499-13.927-9.598-22.946-2.097-9.018-3.146-19.184-3.146-30.504 0-12.705 1.432-23.729 4.299-33.077 2.867-9.347 6.765-17.068 11.695-23.166 4.931-6.096 10.681-10.624 17.253-13.581 6.571-2.957 13.529-4.437 20.872-4.437 8.809 0 16.481 1.681 23.02 5.039 6.537 3.359 11.973 8.16 16.31 14.403 4.333 6.243 7.567 13.855 9.702 22.836 2.132 8.981 3.198 19.096 3.198 30.339zm-19.403 1.425c0-8.396-0.613-16.082-1.836-23.056-1.223-6.972-3.198-12.979-5.925-18.017-2.726-5.039-6.24-8.944-10.541-11.72-4.299-2.773-9.491-4.162-15.575-4.162-5.874 0-10.925 1.479-15.154 4.436-4.231 2.958-7.709 6.974-10.436 12.049-2.727 5.076-4.756 11.025-6.083 17.853-1.331 6.827-1.994 14.074-1.994 21.74 0 8.471 0.629 16.193 1.888 23.165 1.257 6.975 3.232 12.962 5.925 17.963 2.692 5.002 6.171 8.891 10.436 11.664 4.266 2.776 9.403 4.163 15.417 4.163 5.874 0 10.943-1.479 15.209-4.436 4.263-2.958 7.777-6.972 10.541-12.048 2.76-5.075 4.805-11.008 6.135-17.798 1.328-6.792 1.993-14.056 1.993-21.796z"/>
    <path d="m434.74 181.89h-40.588v126.5h-18.878v-126.5h-40.589v-16.648h100.06v16.648z"/>
    <path d="m195.5 516.81h-24.333l-39.959-89.267-11.537-28.695v117.96h-17.409v-143.15h24.016l38.073 84.556 13.74 32.748v-117.3h17.411v143.15z"/>
    <path d="m306.88 516.81h-77.927v-143.15h77.927v16.429h-59.259v44.359h56.952v16.428h-56.952v49.289h59.259v16.648z"/>
    <path d="m435.04 390.3h-40.588v126.51h-18.878v-126.51h-40.589v-16.647h100.06v16.647z"/>
  </g>
  <g fill="#fff">
    <path d="m751.07 507.36v6.103l-95.116-10.477 85.09-39.839-85.09-39.838 95.116-10.477v6.102l-73.836 8.096 77.145 36.116-77.145 36.117 73.836 8.097z"/>
    <path d="m657.89 346.25c0-13.417 4.597-24.721 13.785-33.911 9.19-9.188 20.401-13.785 33.636-13.785 13.326 0.093 24.537 4.734 33.635 13.923 9.099 9.191 13.647 20.449 13.647 33.773 0 13.418-4.549 24.722-13.647 33.911-9.098 9.191-20.309 13.785-33.635 13.785-13.234 0-24.422-4.571-33.566-13.716-9.144-9.144-13.763-20.471-13.855-33.98zm89.188 0c0-11.763-3.997-21.595-11.992-29.5-7.996-7.903-17.921-11.855-29.775-11.855-11.763 0.092-21.688 4.066-29.776 11.924-8.085 7.857-12.131 17.668-12.131 29.431 0 11.855 4.046 21.711 12.131 29.568 8.088 7.857 18.014 11.786 29.776 11.786 11.854 0 21.779-3.929 29.775-11.786 7.995-7.857 11.992-17.713 11.992-29.568z"/>
    <path d="m751.07 233.22v6.869l-43.423 29.799v2.757h43.423v6.065h-91.945v-13.234c0-4.501 0.368-8.224 1.103-11.166 0.736-2.94 1.93-5.697 3.584-8.271 2.115-3.033 4.824-5.376 8.133-7.031 3.309-1.654 7.168-2.481 11.58-2.481 5.606 0 10.338 1.378 14.198 4.135 3.859 2.757 6.571 6.526 8.133 11.304 0.645 1.747 1.127 3.584 1.447 5.514 0.323 1.93 0.438 3.838 0.345 5.721l43.422-29.981zm-86.431 39.426h37.495v-8.823c0.093-6.524-1.517-11.648-4.825-15.37s-7.947-5.583-13.923-5.583c-3.767 0-7.03 0.758-9.787 2.275-2.757 1.516-4.824 3.47-6.203 5.858-0.827 1.654-1.492 3.77-1.999 6.341-0.504 2.574-0.758 5.147-0.758 7.719v7.583z"/>
    <path d="m659.13 170.08h5.514v38.047h33.359v-37.22h5.514v37.22h42.045v-38.047h5.514v44.112h-91.945v-44.112z"/>
  </g>
  <path d="m576.9 286.55c0 6.009-0.596 11.467-1.788 16.374-1.193 4.908-2.89 9.311-5.091 13.209l13.896 17.337h-15.892l-6.055-7.499c-3.257 2.752-6.892 4.85-10.904 6.295-4.014 1.445-8.359 2.167-13.037 2.167-4.449 0-8.394-0.62-11.833-1.858-3.44-1.238-6.329-2.969-8.669-5.194-2.339-2.224-4.117-4.873-5.332-7.946-1.215-3.072-1.822-6.467-1.822-10.182 0-3.485 0.458-6.593 1.376-9.322 0.917-2.728 2.155-5.16 3.715-7.292 1.559-2.132 3.359-4.013 5.4-5.641 2.04-1.627 4.185-3.13 6.433-4.506l-1.514-2.133c-2.569-3.165-4.483-6.375-5.744-9.631-1.263-3.256-1.893-6.443-1.893-9.563 0-3.302 0.527-6.352 1.583-9.15 1.054-2.797 2.603-5.217 4.644-7.258 2.04-2.041 4.563-3.635 7.567-4.782 3.004-1.146 6.433-1.72 10.285-1.72 3.716 0 6.972 0.528 9.77 1.583 2.797 1.055 5.136 2.5 7.018 4.334 1.88 1.835 3.29 3.956 4.23 6.364 0.939 2.408 1.411 4.965 1.411 7.671 0 3.44-0.585 6.457-1.755 9.047-1.169 2.592-2.707 4.885-4.609 6.88-1.903 1.995-4.083 3.773-6.536 5.332-2.454 1.56-4.965 3.073-7.533 4.541l17.75 22.153c2.018-5.412 2.958-11.947 2.821-19.607h12.108zm-54.075 21.259c0 2.432 0.389 4.656 1.169 6.673 0.779 2.019 1.893 3.75 3.337 5.194 1.445 1.445 3.21 2.557 5.298 3.337 2.086 0.78 4.438 1.169 7.052 1.169 5.962 0 11.19-2.202 15.686-6.604l-21.878-27.381c-1.56 1.055-2.992 2.179-4.3 3.371-1.307 1.193-2.432 2.5-3.371 3.922-0.94 1.422-1.675 2.982-2.201 4.678-0.529 1.697-0.792 3.577-0.792 5.641zm29.721-48.434c0-3.439-0.964-6.133-2.89-8.083-1.927-1.949-4.541-2.924-7.843-2.924-1.835 0-3.452 0.299-4.851 0.895s-2.58 1.422-3.543 2.477c-0.963 1.056-1.686 2.294-2.167 3.715-0.481 1.422-0.723 2.958-0.723 4.609 0 2.477 0.458 4.782 1.376 6.915 0.917 2.132 2.385 4.483 4.403 7.052l1.857 2.408c1.972-1.101 3.829-2.212 5.572-3.337 1.743-1.123 3.269-2.361 4.575-3.715 1.308-1.352 2.339-2.843 3.096-4.472 0.759-1.629 1.138-3.476 1.138-5.54z" fill="#fff"/>
  <g clip-rule="evenodd" fill="#CF18FD" fill-rule="evenodd">
    <path d="m172.02 577.66v96.929h-23.221v-84.005c-5.352-2.988-16.91-0.452-24.673-1.293v85.298h-23.221v-96.929h71.115z"/>
    <path d="m209.76 577.66h47.894v9.047c1.081 2.915 8.14 0.504 11.61 1.292v76.251h-11.61v10.339h-47.894v-10.339h-11.611v-76.251h11.611v-10.339zm11.611 11.631v74.959h24.672v-74.959h-24.672z"/>
    <path d="m307 577.66h59.505v85.297c1.08 2.916 8.14 0.505 11.61 1.293v20.678h-23.222v-10.339h-46.442c-3.273 0.962-0.568 7.249-1.452 10.339h-24.672v-20.678h13.062v-76.251h11.611v-10.339zm11.61 11.631v74.959h24.672v-74.959h-24.672z"/>
    <path d="m392.62 577.66h23.22v41.356c1.082 2.915 8.141 0.504 11.611 1.292v-20.678h11.61c3.294-1.376 0.553-8.125 1.451-11.632h11.611v-10.339h23.222v21.971h-23.222v20.678h-13.063v10.339c1.545 2.934 9.124 0.492 13.063 1.293v10.339h11.61v20.678c1.082 2.916 8.142 0.505 11.611 1.293v10.339h-23.222v-9.047c-1.081-2.915-8.14-0.505-11.611-1.292v-20.679c-1.543-2.933-9.121-0.492-13.062-1.292v-10.339h-10.159c-3.377 11.639-0.489 28.856-1.452 42.648h-23.22c2e-3 -32.309 2e-3 -64.619 2e-3 -96.928z"/>
    <path d="m513.09 577.66h23.221v10.339h13.062v10.339c1.081 2.916 8.141 0.505 11.611 1.293v74.958h-23.222v-31.018c-5.352-2.988-16.911-0.452-24.672-1.292v32.31h-23.223v-74.958h11.611v-11.632h11.611c1e-3 -3.446 1e-3 -6.894 1e-3 -10.339zm0 54.28h24.672v-32.31h-24.672v32.31z"/>
    <path d="m598.72 577.66h47.894v10.339h11.61v21.971h-23.223v-19.386c-5.351-2.988-16.911-0.452-24.671-1.293v73.666c5.35 2.989 16.909 0.449 24.671 1.293v-21.971h23.223v21.971h-10.16c-3.274 0.961-0.567 7.249-1.45 10.339h-47.894v-10.339h-11.611v-76.251h11.611v-10.339z"/>
    <path d="m755.46 577.66v11.631h-24.673v85.298h-23.221v-84.005c-4.871-2.985-15.94-0.452-23.221-1.293v-11.631h71.115z"/>
  </g>
</svg>
