<?xml version="1.0" encoding="utf-8"?>
<!-- Generator: Adobe Illustrator 15.0.0, SVG Export Plug-In . SVG Version: 6.00 Build 0)  -->
<!DOCTYPE svg PUBLIC "-//W3C//DTD SVG 1.1//EN" "http://www.w3.org/Graphics/SVG/1.1/DTD/svg11.dtd">
<svg version="1.1" id="Слой_1" xmlns="http://www.w3.org/2000/svg" xmlns:xlink="http://www.w3.org/1999/xlink" x="0px" y="0px"
	 width="850.39px" height="850.39px" viewBox="0 0 850.39 850.39" enable-background="new 0 0 850.39 850.39" xml:space="preserve">
<rect fill="#68217B" width="850.39" height="850.39"/>
<g>
	<path fill-rule="evenodd" clip-rule="evenodd" fill="#3A1C44" d="M526.362,168.677c29.436-4.386,57.168,3.642,66.004,24.446
		c6.74,15.866,3.259,66.224,3.259,87.192c0,19.7,4.143,69.802-2.443,87.191c-4.678,12.35-15.603,21.195-26.891,24.446
		c-15.313,4.41-38.093,4.247-52.152-0.814c-11.944-4.3-21.137-12.391-25.262-25.261c-2.774-8.663-1.631-26.18-1.631-40.745
		c0-25.001,0-58.576,0-84.747c0-17.554-1.691-32.511,2.445-44.003C495.779,179.475,506.475,171.641,526.362,168.677z"/>
	<path fill-rule="evenodd" clip-rule="evenodd" fill="#3A1C44" d="M551.622,429.44c0.524,22.29-1.059,46.69,0.815,67.633
		c4.497,4.739,18.324,0.146,22.003,5.705c2.409,2.728,2.017,10.835,0.814,14.669c-3.895,5.608-18.811,4.072-33.411,4.072
		c-22.006,0-44.762,1.949-32.594-20.371c4.892-3.258,16.382,0.086,20.372-4.075c3.708-19.107,0.61-45.02,1.629-66.819
		c-41.657-1.158-72.481-22.28-75.783-61.931c-0.801-9.613,0-21.832,0-35.04c0-12.166-2.936-33.125,7.332-32.595
		c16.238,0.839,5.588,37.85,8.965,65.19c4.656,37.697,39.841,48.698,85.562,45.632c28.01-1.877,50.87-19.868,53.783-48.078
		c1.398-13.543-5.604-61.5,7.333-62.745c10.589-1.02,8.964,14.247,8.964,26.891c0,12.989,0.6,26.217,0,35.854
		C624.771,405.864,597.793,428.984,551.622,429.44z"/>
</g>
<g>
	<g>
		<path fill="#FFFFFF" d="M199.917,235.228c0,6.867-0.507,13.436-1.522,19.715c-1.013,6.281-2.64,12.122-4.876,17.525
			c-2.24,5.404-5.139,10.314-8.706,14.73c-3.564,4.419-7.937,8.198-13.11,11.337c-5.175,3.141-11.188,5.569-18.039,7.284
			c-6.854,1.716-14.651,2.574-23.388,2.574h-29.367V165.24h35.344c21.396,0,37.353,5.75,47.879,17.251
			C194.655,193.992,199.917,211.57,199.917,235.228z M180.303,236.652c0-10.149-0.909-18.729-2.726-25.739
			c-1.819-7.01-4.581-12.667-8.287-16.977c-3.706-4.308-8.356-7.429-13.948-9.364c-5.596-1.934-12.167-2.903-19.719-2.903h-16.047
			v109.856h13.95C164.711,291.525,180.303,273.234,180.303,236.652z"/>
		<path fill="#FFFFFF" d="M319.9,235.885c0,12.853-1.451,23.952-4.352,33.296c-2.903,9.35-6.819,17.071-11.748,23.166
			c-4.929,6.098-10.697,10.625-17.304,13.582c-6.608,2.958-13.583,4.436-20.924,4.436c-8.809,0-16.483-1.661-23.022-4.983
			s-11.954-8.123-16.255-14.403c-4.301-6.278-7.499-13.927-9.598-22.946c-2.097-9.018-3.146-19.184-3.146-30.504
			c0-12.705,1.432-23.729,4.299-33.077c2.867-9.347,6.765-17.068,11.695-23.166c4.931-6.096,10.681-10.624,17.253-13.581
			c6.571-2.957,13.529-4.437,20.872-4.437c8.809,0,16.481,1.681,23.02,5.039c6.537,3.359,11.973,8.16,16.31,14.403
			c4.333,6.243,7.567,13.855,9.702,22.836C318.834,214.527,319.9,224.642,319.9,235.885z M300.497,237.31
			c0-8.396-0.613-16.082-1.836-23.056c-1.223-6.972-3.198-12.979-5.925-18.017c-2.726-5.039-6.24-8.944-10.541-11.72
			c-4.299-2.773-9.491-4.162-15.575-4.162c-5.874,0-10.925,1.479-15.154,4.436c-4.231,2.958-7.709,6.974-10.436,12.049
			c-2.727,5.076-4.756,11.025-6.083,17.853c-1.331,6.827-1.994,14.074-1.994,21.74c0,8.471,0.629,16.193,1.888,23.165
			c1.257,6.975,3.232,12.962,5.925,17.963c2.692,5.002,6.171,8.891,10.436,11.664c4.266,2.776,9.403,4.163,15.417,4.163
			c5.874,0,10.943-1.479,15.209-4.436c4.263-2.958,7.777-6.972,10.541-12.048c2.76-5.075,4.805-11.008,6.135-17.798
			C299.832,252.314,300.497,245.05,300.497,237.31z"/>
		<path fill="#FFFFFF" d="M434.745,181.888h-40.588v126.505h-18.878V181.888h-40.589V165.24h100.056V181.888z"/>
	</g>
	<g>
		<path fill="#FFFFFF" d="M195.495,516.807h-24.333l-39.959-89.267l-11.537-28.695v72.18v45.782h-17.409V373.654h24.016
			l38.073,84.556l13.74,32.748v-76.671v-40.633h17.411V516.807z"/>
		<path fill="#FFFFFF" d="M306.878,516.807h-77.927V373.654h77.927v16.429h-59.259v44.359h56.952v16.428h-56.952v49.289h59.259
			V516.807z"/>
		<path fill="#FFFFFF" d="M435.042,390.301h-40.588v126.506h-18.878V390.301h-40.589v-16.647h100.056V390.301z"/>
	</g>
</g>
<g>
	<path fill="#FFFFFF" d="M751.073,507.359v6.103l-95.116-10.477l85.09-39.839l-85.09-39.838l95.116-10.477v6.102l-73.836,8.096
		l77.145,36.116l-77.145,36.117L751.073,507.359z"/>
	<path fill="#FFFFFF" d="M657.887,346.251c0-13.417,4.597-24.721,13.785-33.911c9.19-9.188,20.401-13.785,33.636-13.785
		c13.326,0.093,24.537,4.734,33.635,13.923c9.099,9.191,13.647,20.449,13.647,33.773c0,13.418-4.549,24.722-13.647,33.911
		c-9.098,9.191-20.309,13.785-33.635,13.785c-13.234,0-24.422-4.571-33.566-13.716C662.598,371.087,657.979,359.76,657.887,346.251z
		 M747.075,346.251c0-11.763-3.997-21.595-11.992-29.5c-7.996-7.903-17.921-11.855-29.775-11.855
		c-11.763,0.092-21.688,4.066-29.776,11.924c-8.085,7.857-12.131,17.668-12.131,29.431c0,11.855,4.046,21.711,12.131,29.568
		c8.088,7.857,18.014,11.786,29.776,11.786c11.854,0,21.779-3.929,29.775-11.786C743.078,367.962,747.075,358.106,747.075,346.251z"
		/>
	<path fill="#FFFFFF" d="M751.073,233.215v6.869l-43.423,29.799v2.757h43.423v6.065h-91.945v-13.234
		c0-4.501,0.368-8.224,1.103-11.166c0.736-2.94,1.93-5.697,3.584-8.271c2.115-3.033,4.824-5.376,8.133-7.031
		c3.309-1.654,7.168-2.481,11.58-2.481c5.606,0,10.338,1.378,14.198,4.135c3.859,2.757,6.571,6.526,8.133,11.304
		c0.645,1.747,1.127,3.584,1.447,5.514c0.323,1.93,0.438,3.838,0.345,5.721L751.073,233.215z M664.642,272.641h37.495v-8.823
		c0.093-6.524-1.517-11.648-4.825-15.37c-3.308-3.722-7.947-5.583-13.923-5.583c-3.767,0-7.03,0.758-9.787,2.275
		c-2.757,1.516-4.824,3.47-6.203,5.858c-0.827,1.654-1.492,3.77-1.999,6.341c-0.504,2.574-0.758,5.147-0.758,7.719V272.641z"/>
	<path fill="#FFFFFF" d="M659.128,170.082h5.514v38.047h33.359v-37.22h5.514v37.22h42.045v-38.047h5.514v44.112h-91.945V170.082z"/>
</g>
<g>
	<path fill="#FFFFFF" d="M576.895,286.55c0,6.009-0.596,11.467-1.788,16.374c-1.193,4.908-2.89,9.311-5.091,13.209l13.896,17.337
		h-15.892l-6.055-7.499c-3.257,2.752-6.892,4.85-10.904,6.295c-4.014,1.445-8.359,2.167-13.037,2.167
		c-4.449,0-8.394-0.62-11.833-1.858c-3.44-1.238-6.329-2.969-8.669-5.194c-2.339-2.224-4.117-4.873-5.332-7.946
		c-1.215-3.072-1.822-6.467-1.822-10.182c0-3.485,0.458-6.593,1.376-9.322c0.917-2.728,2.155-5.16,3.715-7.292
		c1.559-2.132,3.359-4.013,5.4-5.641c2.04-1.627,4.185-3.13,6.433-4.506l-1.514-2.133c-2.569-3.165-4.483-6.375-5.744-9.631
		c-1.263-3.256-1.893-6.443-1.893-9.563c0-3.302,0.527-6.352,1.583-9.15c1.054-2.797,2.603-5.217,4.644-7.258
		c2.04-2.041,4.563-3.635,7.567-4.782c3.004-1.146,6.433-1.72,10.285-1.72c3.716,0,6.972,0.528,9.77,1.583
		c2.797,1.055,5.136,2.5,7.018,4.334c1.88,1.835,3.29,3.956,4.23,6.364c0.939,2.408,1.411,4.965,1.411,7.671
		c0,3.44-0.585,6.457-1.755,9.047c-1.169,2.592-2.707,4.885-4.609,6.88c-1.903,1.995-4.083,3.773-6.536,5.332
		c-2.454,1.56-4.965,3.073-7.533,4.541l17.75,22.153c2.018-5.412,2.958-11.947,2.821-19.607H576.895z M522.82,307.809
		c0,2.432,0.389,4.656,1.169,6.673c0.779,2.019,1.893,3.75,3.337,5.194c1.445,1.445,3.21,2.557,5.298,3.337
		c2.086,0.78,4.438,1.169,7.052,1.169c5.962,0,11.19-2.202,15.686-6.604l-21.878-27.381c-1.56,1.055-2.992,2.179-4.3,3.371
		c-1.307,1.193-2.432,2.5-3.371,3.922c-0.94,1.422-1.675,2.982-2.201,4.678C523.083,303.865,522.82,305.745,522.82,307.809z
		 M552.541,259.375c0-3.439-0.964-6.133-2.89-8.083c-1.927-1.949-4.541-2.924-7.843-2.924c-1.835,0-3.452,0.299-4.851,0.895
		c-1.399,0.596-2.58,1.422-3.543,2.477c-0.963,1.056-1.686,2.294-2.167,3.715c-0.481,1.422-0.723,2.958-0.723,4.609
		c0,2.477,0.458,4.782,1.376,6.915c0.917,2.132,2.385,4.483,4.403,7.052l1.857,2.408c1.972-1.101,3.829-2.212,5.572-3.337
		c1.743-1.123,3.269-2.361,4.575-3.715c1.308-1.352,2.339-2.843,3.096-4.472C552.162,263.286,552.541,261.439,552.541,259.375z"/>
</g>
<g>
	<path fill-rule="evenodd" clip-rule="evenodd" fill="#CF18FD" d="M172.023,577.66c0,32.31,0,64.619,0,96.929
		c-7.741,0-15.48,0-23.221,0c0-28.001,0-56.005,0-84.005c-5.352-2.988-16.91-0.452-24.673-1.293c0,28.433,0,56.865,0,85.298
		c-7.74,0-15.48,0-23.221,0c0-32.31,0-64.619,0-96.929C124.614,577.66,148.319,577.66,172.023,577.66z"/>
	<path fill-rule="evenodd" clip-rule="evenodd" fill="#CF18FD" d="M209.758,577.66c15.965,0,31.93,0,47.894,0
		c0,3.017,0,6.03,0,9.047c1.081,2.915,8.14,0.504,11.61,1.292c0,25.416,0,50.834,0,76.251c-3.87,0-7.74,0-11.61,0
		c0,3.445,0,6.894,0,10.339c-15.964,0-31.929,0-47.894,0c0-3.445,0-6.894,0-10.339c-3.87,0-7.74,0-11.611,0
		c0-25.417,0-50.835,0-76.251c3.871,0,7.741,0,11.611,0C209.758,584.553,209.758,581.105,209.758,577.66z M221.369,589.291
		c0,24.987,0,49.972,0,74.959c8.224,0,16.449,0,24.672,0c0-24.987,0-49.972,0-74.959
		C237.817,589.291,229.593,589.291,221.369,589.291z"/>
	<path fill-rule="evenodd" clip-rule="evenodd" fill="#CF18FD" d="M306.997,577.66c19.835,0,39.67,0,59.505,0
		c0,28.433,0,56.864,0,85.297c1.08,2.916,8.14,0.505,11.61,1.293c0,6.894,0,13.784,0,20.678c-7.741,0-15.481,0-23.222,0
		c0-3.445,0-6.894,0-10.339c-15.48,0-30.962,0-46.442,0c-3.273,0.962-0.568,7.249-1.452,10.339c-8.224,0-16.448,0-24.672,0
		c0-6.894,0-13.784,0-20.678c4.354,0,8.708,0,13.062,0c0-25.417,0-50.835,0-76.251c3.87,0,7.741,0,11.611,0
		C306.997,584.553,306.997,581.105,306.997,577.66z M318.607,589.291c0,24.987,0,49.972,0,74.959c8.224,0,16.448,0,24.672,0
		c0-24.987,0-49.972,0-74.959C335.056,589.291,326.832,589.291,318.607,589.291z"/>
	<path fill-rule="evenodd" clip-rule="evenodd" fill="#CF18FD" d="M392.625,577.66c7.741,0,15.48,0,23.22,0
		c0,13.784,0,27.571,0,41.356c1.082,2.915,8.141,0.504,11.611,1.292c0-6.894,0-13.785,0-20.678c3.87,0,7.741,0,11.61,0
		c3.294-1.376,0.553-8.125,1.451-11.632c3.871,0,7.742,0,11.611,0c0-3.445,0-6.894,0-10.339c7.741,0,15.481,0,23.222,0
		c0,7.322,0,14.647,0,21.971c-7.74,0-15.48,0-23.222,0c0,6.893,0,13.784,0,20.678c-4.354,0-8.708,0-13.063,0
		c0,3.445,0,6.894,0,10.339c1.545,2.934,9.124,0.492,13.063,1.293c0,3.445,0,6.893,0,10.339c3.871,0,7.741,0,11.61,0
		c0,6.894,0,13.785,0,20.678c1.082,2.916,8.142,0.505,11.611,1.293c0,3.445,0,6.894,0,10.339c-7.74,0-15.48,0-23.222,0
		c0-3.017,0-6.03,0-9.047c-1.081-2.915-8.14-0.505-11.611-1.292c0-6.895,0-13.785,0-20.679c-1.543-2.933-9.121-0.492-13.062-1.292
		c0-3.446,0-6.894,0-10.339c-3.386,0-6.772,0-10.159,0c-3.377,11.639-0.489,28.856-1.452,42.648c-7.74,0-15.479,0-23.22,0
		C392.625,642.279,392.625,609.969,392.625,577.66z"/>
	<path fill-rule="evenodd" clip-rule="evenodd" fill="#CF18FD" d="M513.086,577.66c7.739,0,15.479,0,23.221,0
		c0,3.445,0,6.894,0,10.339c4.354,0,8.707,0,13.062,0c0,3.445,0,6.894,0,10.339c1.081,2.916,8.141,0.505,11.611,1.293
		c0,24.987,0,49.972,0,74.958c-7.741,0-15.481,0-23.222,0c0-10.339,0-20.678,0-31.018c-5.352-2.988-16.911-0.452-24.672-1.292
		c0,10.771,0,21.539,0,32.31c-7.742,0-15.482,0-23.223,0c0-24.986,0-49.971,0-74.958c3.871,0,7.74,0,11.611,0
		c0-3.878,0-7.755,0-11.632c3.869,0,7.74,0,11.611,0C513.086,584.553,513.086,581.105,513.086,577.66z M513.086,631.94
		c8.224,0,16.447,0,24.672,0c0-10.771,0-21.539,0-32.31c-8.225,0-16.448,0-24.672,0C513.086,610.401,513.086,621.169,513.086,631.94
		z"/>
	<path fill-rule="evenodd" clip-rule="evenodd" fill="#CF18FD" d="M598.715,577.66c15.964,0,31.928,0,47.894,0
		c0,3.445,0,6.894,0,10.339c3.868,0,7.739,0,11.61,0c0,7.323,0,14.648,0,21.971c-7.742,0-15.481,0-23.223,0
		c0-6.462,0-12.924,0-19.386c-5.351-2.988-16.911-0.452-24.671-1.293c0,24.557,0,49.111,0,73.666
		c5.35,2.989,16.909,0.449,24.671,1.293c0-7.323,0-14.647,0-21.971c7.741,0,15.48,0,23.223,0c0,7.323,0,14.647,0,21.971
		c-3.389,0-6.774,0-10.16,0c-3.274,0.961-0.567,7.249-1.45,10.339c-15.966,0-31.93,0-47.894,0c0-3.445,0-6.894,0-10.339
		c-3.871,0-7.742,0-11.611,0c0-25.417,0-50.835,0-76.251c3.869,0,7.74,0,11.611,0C598.715,584.553,598.715,581.105,598.715,577.66z"
		/>
	<path fill-rule="evenodd" clip-rule="evenodd" fill="#CF18FD" d="M755.457,577.66c0,3.877,0,7.755,0,11.631
		c-8.226,0-16.449,0-24.673,0c0,28.433,0,56.865,0,85.298c-7.74,0-15.481,0-23.221,0c0-28.001,0-56.005,0-84.005
		c-4.871-2.985-15.94-0.452-23.221-1.293c0-3.876,0-7.754,0-11.631C708.046,577.66,731.751,577.66,755.457,577.66z"/>
</g>
</svg>
