<?xml version="1.0" encoding="utf-8"?>
<!-- Generator: Adobe Illustrator 15.0.0, SVG Export Plug-In . SVG Version: 6.00 Build 0)  -->
<!DOCTYPE svg PUBLIC "-//W3C//DTD SVG 1.1//EN" "http://www.w3.org/Graphics/SVG/1.1/DTD/svg11.dtd">
<svg version="1.1" id="Слой_1" xmlns="http://www.w3.org/2000/svg" xmlns:xlink="http://www.w3.org/1999/xlink" x="0px" y="0px"
	 width="354.33px" height="566.93px" viewBox="0 0 354.33 566.93" enable-background="new 0 0 354.33 566.93" xml:space="preserve">
<g>
	<path fill="#FFFFFF" d="M108.883,280.688c0,6.834-0.526,13.373-1.577,19.623c-1.05,6.252-2.735,12.065-5.051,17.443
		c-2.32,5.379-5.324,10.267-9.018,14.662c-3.693,4.398-8.222,8.16-13.581,11.284c-5.361,3.126-11.589,5.543-18.688,7.25
		c-7.1,1.708-15.176,2.562-24.228,2.562H6.319V211.025h36.614c22.165,0,38.695,5.724,49.599,17.171
		C103.432,239.644,108.883,257.141,108.883,280.688z M88.566,282.105c0-10.102-0.943-18.643-2.825-25.619
		c-1.885-6.977-4.745-12.608-8.584-16.898c-3.839-4.287-8.656-7.394-14.45-9.32c-5.795-1.925-12.603-2.889-20.426-2.889H25.659
		v109.344h14.45C72.413,336.723,88.566,318.517,88.566,282.105z"/>
	<path fill="#FFFFFF" d="M233.175,281.342c0,12.793-1.504,23.84-4.509,33.141c-3.008,9.306-7.063,16.991-12.169,23.058
		c-5.106,6.07-11.081,10.575-17.926,13.519c-6.845,2.944-14.07,4.415-21.676,4.415c-9.125,0-17.075-1.653-23.848-4.96
		c-6.774-3.307-12.385-8.085-16.84-14.336c-4.455-6.249-7.768-13.862-9.941-22.839c-2.172-8.976-3.26-19.095-3.26-30.361
		c0-12.646,1.484-23.619,4.455-32.923c2.971-9.303,7.007-16.988,12.115-23.058c5.106-6.067,11.063-10.574,17.872-13.519
		c6.808-2.943,14.015-4.415,21.622-4.415c9.125,0,17.073,1.673,23.847,5.015c6.772,3.344,12.403,8.122,16.896,14.336
		c4.489,6.214,7.839,13.791,10.05,22.73C232.07,260.084,233.175,270.151,233.175,281.342z M213.075,282.76
		c0-8.357-0.636-16.007-1.901-22.948c-1.268-6.939-3.313-12.919-6.139-17.933c-2.824-5.016-6.464-8.902-10.919-11.666
		c-4.454-2.761-9.833-4.143-16.134-4.143c-6.085,0-11.317,1.472-15.7,4.415c-4.383,2.944-7.985,6.941-10.81,11.993
		c-2.825,5.052-4.927,10.974-6.302,17.77c-1.377,6.795-2.065,14.008-2.065,21.639c0,8.432,0.652,16.117,1.958,23.057
		c1.302,6.942,3.348,12.902,6.137,17.88c2.788,4.979,6.392,8.85,10.81,11.609c4.419,2.764,9.741,4.144,15.972,4.144
		c6.084,0,11.335-1.472,15.754-4.415c4.416-2.944,8.056-6.939,10.919-11.992c2.86-5.051,4.979-10.956,6.355-17.715
		C212.386,297.694,213.075,290.464,213.075,282.76z"/>
	<path fill="#FFFFFF" d="M352.144,227.597h-42.046v125.915h-19.557V227.597h-42.046v-16.571h103.648V227.597z"/>
</g>
<g>
	<path fill="#FFFFFF" d="M103.994,558.994H78.788l-41.394-88.849l-11.953-28.563v71.843v45.568H7.407V416.51h24.879l39.439,84.161
		l14.233,32.595v-76.312V416.51h18.036V558.994z"/>
	<path fill="#FFFFFF" d="M219.376,558.994h-80.725V416.51h80.725v16.353H157.99v44.151h58.995v16.353H157.99v49.058h61.386V558.994z
		"/>
	<path fill="#FFFFFF" d="M352.144,433.079h-42.046v125.915h-19.557V433.079h-42.046V416.51h103.648V433.079z"/>
</g>
<g>
	<path fill="#FFFFFF" d="M114.402,77.502c0,12.842-1.51,23.932-4.526,33.27c-3.018,9.34-7.089,17.056-12.216,23.147
		c-5.126,6.093-11.125,10.616-17.996,13.571s-14.125,4.432-21.759,4.432c-9.162,0-17.143-1.66-23.941-4.979
		c-6.8-3.319-12.435-8.116-16.906-14.392c-4.472-6.274-7.799-13.916-9.98-22.928c-2.181-9.01-3.272-19.169-3.272-30.479
		c0-12.695,1.49-23.711,4.472-33.051c2.98-9.338,7.035-17.054,12.161-23.147C25.564,16.855,31.545,12.33,38.38,9.375
		c6.834-2.955,14.07-4.432,21.705-4.432c9.162,0,17.141,1.679,23.941,5.034c6.798,3.357,12.451,8.153,16.96,14.392
		c4.508,6.238,7.871,13.844,10.09,22.818C113.293,56.161,114.402,66.268,114.402,77.502z M94.224,78.925
		c0-8.39-0.637-16.069-1.908-23.038c-1.273-6.967-3.327-12.969-6.163-18.003c-2.836-5.035-6.49-8.937-10.962-11.71
		c-4.471-2.772-9.871-4.159-16.197-4.159c-6.108,0-11.362,1.478-15.761,4.432c-4.4,2.955-8.017,6.969-10.852,12.039
		c-2.836,5.072-4.946,11.018-6.326,17.839c-1.382,6.823-2.073,14.063-2.073,21.724c0,8.464,0.655,16.18,1.964,23.146
		c1.309,6.969,3.362,12.952,6.163,17.949c2.798,4.998,6.416,8.883,10.852,11.655c4.435,2.774,9.779,4.159,16.033,4.159
		c6.108,0,11.379-1.477,15.815-4.432c4.434-2.955,8.088-6.967,10.961-12.039c2.872-5.07,4.999-10.999,6.381-17.784
		C93.532,93.918,94.224,86.66,94.224,78.925z"/>
	<path fill="#FFFFFF" d="M237.87,149.953h-18.979l-2.835-89.195l-1.2-34.255l-6.653,19.918l-21.051,56.91h-13.416L153.668,48.61
		l-6.653-22.107l-0.437,35.787l-2.508,87.663h-18.325l6.981-143.041h23.013l19.196,53.845l6.217,18.167l5.999-18.167L207.33,6.913
		h23.669L237.87,149.953z"/>
	<path fill="#FFFFFF" d="M351.958,111.21c0,6.785-1.383,12.733-4.146,17.839c-2.764,5.108-6.617,9.357-11.562,12.75
		c-4.945,3.392-10.89,5.929-17.832,7.606c-6.945,1.678-14.599,2.517-22.959,2.517c-3.782,0-7.545-0.146-11.289-0.438
		c-3.746-0.292-7.346-0.656-10.798-1.094c-3.455-0.438-6.708-0.947-9.762-1.532c-3.055-0.583-5.818-1.204-8.289-1.86v-18.824
		c5.453,2.043,11.577,3.649,18.378,4.815c6.798,1.168,14.523,1.751,23.177,1.751c6.253,0,11.578-0.493,15.979-1.478
		c4.399-0.985,7.998-2.443,10.798-4.377c2.799-1.933,4.835-4.286,6.108-7.059c1.271-2.772,1.908-5.946,1.908-9.521
		c0-3.866-1.073-7.168-3.217-9.904c-2.146-2.736-4.963-5.18-8.453-7.333c-3.49-2.151-7.472-4.121-11.943-5.91
		c-4.472-1.787-9.036-3.628-13.688-5.526c-4.654-1.896-9.217-3.957-13.689-6.184c-4.471-2.225-8.452-4.852-11.942-7.88
		c-3.49-3.027-6.31-6.583-8.453-10.67c-2.146-4.085-3.217-8.937-3.217-14.556c0-4.887,1.017-9.703,3.054-14.446
		c2.034-4.742,5.197-8.956,9.488-12.641c4.29-3.684,9.798-6.657,16.524-8.919c6.725-2.261,14.741-3.393,24.05-3.393
		c2.399,0,4.999,0.109,7.799,0.328c2.798,0.219,5.635,0.53,8.508,0.93c2.87,0.402,5.707,0.858,8.507,1.368
		c2.798,0.511,5.399,1.059,7.799,1.642v17.511c-5.601-1.604-11.198-2.827-16.797-3.667c-5.6-0.838-11.016-1.258-16.252-1.258
		c-11.124,0-19.306,1.86-24.541,5.582c-5.234,3.721-7.853,8.719-7.853,14.993c0,3.868,1.072,7.188,3.218,9.959
		c2.144,2.773,4.962,5.253,8.453,7.442c3.49,2.189,7.471,4.178,11.942,5.964c4.473,1.789,9.034,3.63,13.689,5.527
		c4.652,1.898,9.216,3.978,13.688,6.238c4.472,2.262,8.453,4.944,11.943,8.044c3.49,3.102,6.307,6.73,8.453,10.889
		C350.884,100.595,351.958,105.52,351.958,111.21z"/>
</g>
</svg>
