<svg viewBox="0 0 920 920" xmlns="http://www.w3.org/2000/svg">
  <rect id="br" x="8" y="8" width="904" height="904" stroke="#fff" stroke-width="16" fill-opacity="0"/>
  <g id="tx" fill="#fff">
    <path d="m539 317h-23.2l-38.1-81.5-11-26.2v107.7h-16.6v-130.7h22.9l36.3 77.2 13.1 29.9v-107.1h16.6z"/>
    <path d="m652 317h-23.2l-38.1-81.5-11-26.2v107.7h-16.6v-130.7h22.9l36.3 77.2 13.1 29.9v-107.1h16.6z"/>
    <path d="m776 186-44.4 130.7h-24l-43.4-130.7h20.1l28.2 88.1 8 25.8 8.2-25.8 28.3-88.1z"/>
    <path d="m543 459q0 9.4-1.45 18t-4.65 16-8.3 13.45-12.5 10.35-17.2 6.65-22.3 2.35h-28v-130.7h33.7q30.6 0 45.65 15.75t15.05 48.15zm-18.7 1.3q0-13.9-2.6-23.5t-7.9-15.5-13.3-8.55-18.8-2.65h-15.3v100.3h13.3q44.6 0 44.6-50.1z"/>
    <path d="m658 460q0 17.6-4.15 30.4t-11.2 21.15-16.5 12.4-19.95 4.05q-12.6 0-21.95-4.55t-15.5-13.15-9.15-20.95-3-27.85q0-17.4 4.1-30.2t11.15-21.15 16.45-12.4 19.9-4.05q12.6 0 21.95 4.6t15.55 13.15 9.25 20.85 3.05 27.7zm-18.5 1.3q0-11.5-1.75-21.05t-5.65-16.45-10.05-10.7-14.85-3.8q-8.4 0-14.45 4.05t-9.95 11-5.8 16.3-1.9 19.85q0 11.6 1.8 21.15t5.65 16.4 9.95 10.65 14.7 3.8q8.4 0 14.5-4.05t10.05-11 5.85-16.25 1.9-19.9z"/>
    <path d="m768 410h-38.7v115.5h-18v-115.5h-38.7v-15.2h95.4z"/>
    <path d="m539 735h-23.2l-38.1-81.5-11-26.2v107.7h-16.6v-130.7h22.9l36.3 77.2 13.1 29.9v-107.1h16.6z"/>
    <path d="m645 735h-74.3v-130.7h74.3v15h-56.5v40.5h54.3v15h-54.3v45h56.5z"/>
    <path d="m768 619h-38.7v115.5h-18v-115.5h-38.7v-15.2h95.4z"/>
  </g>
</svg>
