<?xml version="1.0" encoding="utf-8"?>
<!-- Generator: Adobe Illustrator 15.0.0, SVG Export Plug-In . SVG Version: 6.00 Build 0)  -->
<!DOCTYPE svg PUBLIC "-//W3C//DTD SVG 1.1//EN" "http://www.w3.org/Graphics/SVG/1.1/DTD/svg11.dtd">
<svg version="1.1" id="Слой_1" xmlns="http://www.w3.org/2000/svg" xmlns:xlink="http://www.w3.org/1999/xlink" x="0px" y="0px"
	 width="354.33px" height="566.93px" viewBox="0 0 354.33 566.93" enable-background="new 0 0 354.33 566.93" xml:space="preserve">
<g>
	<path fill="#FFFFFF" d="M106.311,280.623c0,6.834-0.528,13.373-1.582,19.623c-1.054,6.252-2.744,12.065-5.068,17.443
		c-2.328,5.379-5.342,10.267-9.049,14.662c-3.706,4.398-8.25,8.16-13.627,11.284c-5.379,3.126-11.629,5.543-18.751,7.25
		c-7.124,1.708-15.228,2.562-24.311,2.562H3.397V210.961h36.738c22.24,0,38.827,5.723,49.768,17.17
		C100.841,239.579,106.311,257.076,106.311,280.623z M85.924,282.041c0-10.102-0.946-18.642-2.834-25.619
		c-1.892-6.977-4.762-12.608-8.613-16.898c-3.853-4.288-8.686-7.394-14.499-9.321c-5.815-1.925-12.646-2.889-20.496-2.889H22.803
		v109.344h14.499C69.716,336.658,85.924,318.452,85.924,282.041z"/>
	<path fill="#FFFFFF" d="M231.025,281.277c0,12.793-1.509,23.84-4.524,33.141c-3.018,9.306-7.087,16.991-12.21,23.058
		c-5.124,6.07-11.119,10.575-17.987,13.519c-6.868,2.944-14.118,4.415-21.75,4.415c-9.156,0-17.133-1.653-23.929-4.96
		c-6.797-3.307-12.427-8.085-16.897-14.336c-4.47-6.249-7.795-13.862-9.976-22.839c-2.18-8.976-3.271-19.095-3.271-30.361
		c0-12.646,1.489-23.619,4.47-32.923c2.98-9.303,7.031-16.989,12.156-23.058c5.124-6.067,11.101-10.574,17.933-13.518
		c6.831-2.943,14.063-4.416,21.695-4.416c9.156,0,17.132,1.673,23.929,5.015c6.795,3.344,12.445,8.122,16.952,14.336
		c4.505,6.213,7.866,13.791,10.084,22.73C229.917,260.019,231.025,270.087,231.025,281.277z M210.857,282.695
		c0-8.357-0.638-16.007-1.908-22.948c-1.271-6.939-3.324-12.918-6.159-17.933c-2.834-5.015-6.486-8.902-10.956-11.666
		c-4.47-2.761-9.866-4.143-16.189-4.143c-6.105,0-11.355,1.472-15.753,4.415c-4.398,2.944-8.013,6.941-10.847,11.993
		c-2.835,5.052-4.943,10.974-6.323,17.77c-1.382,6.795-2.072,14.008-2.072,21.639c0,8.432,0.654,16.117,1.964,23.057
		c1.307,6.942,3.359,12.902,6.158,17.88c2.798,4.979,6.414,8.85,10.847,11.609c4.434,2.764,9.774,4.144,16.026,4.144
		c6.105,0,11.374-1.472,15.808-4.415c4.432-2.944,8.084-6.939,10.957-11.992c2.87-5.051,4.995-10.956,6.377-17.715
		C210.166,297.63,210.857,290.399,210.857,282.695z"/>
	<path fill="#FFFFFF" d="M350.399,227.532H308.21v125.915h-19.623V227.532h-42.189v-16.571h104.002V227.532z"/>
</g>
<g>
	<path fill="#FFFFFF" d="M101.404,558.93H76.112l-41.535-88.849l-11.993-28.563v71.843v45.568H4.488V416.445h24.964l39.573,84.161
		l14.281,32.595V456.89v-40.444h18.098V558.93z"/>
	<path fill="#FFFFFF" d="M217.18,558.93h-81V416.445h81v16.353h-61.595v44.151h59.196v16.353h-59.196v49.058h61.595V558.93z"/>
	<path fill="#FFFFFF" d="M350.399,433.015H308.21V558.93h-19.623V433.015h-42.189v-16.569h104.002V433.015z"/>
</g>
<g>
	<path fill="#FFFFFF" d="M99.135,149.888H74.894l-52.92-70.152v70.152H2.71V6.848h19.263v66.431L73.811,6.848h22.835L40.804,74.812
		L99.135,149.888z"/>
	<path fill="#FFFFFF" d="M221.425,149.888h-21.752l-21.103-45.747c-1.588-3.502-3.212-6.402-4.871-8.701
		c-1.66-2.298-3.445-4.121-5.356-5.472c-1.912-1.35-4.003-2.315-6.277-2.9c-2.272-0.583-4.816-0.875-7.63-0.875h-9.09v63.695
		h-19.263V6.848h37.876c8.226,0,15.295,0.913,21.212,2.736c5.915,1.824,10.768,4.377,14.556,7.661
		c3.787,3.283,6.563,7.242,8.333,11.875c1.767,4.634,2.651,9.759,2.651,15.376c0,4.451-0.65,8.665-1.948,12.641
		c-1.299,3.978-3.229,7.589-5.79,10.834c-2.562,3.248-5.735,6.057-9.523,8.427c-3.787,2.372-8.135,4.142-13.04,5.308
		c3.967,1.387,7.34,3.813,10.118,7.278c2.776,3.466,5.608,8.082,8.495,13.844L221.425,149.888z M190.582,46.138
		c0-7.661-2.363-13.388-7.088-17.182c-4.727-3.793-11.382-5.691-19.967-5.691h-18.181v47.278h15.583
		c4.545,0,8.64-0.528,12.284-1.587c3.643-1.057,6.745-2.626,9.307-4.706c2.561-2.08,4.546-4.633,5.953-7.661
		C189.879,53.563,190.582,50.078,190.582,46.138z"/>
	<path fill="#FFFFFF" d="M351.399,6.848L300.21,98.779v51.109H280.73V98.341L229.542,6.848h23.268l28.137,52.313l10.39,21.013
		l9.523-19.042l28.463-54.283H351.399z"/>
</g>
</svg>
