<?xml version="1.0" encoding="utf-8"?>
<!-- Generator: Adobe Illustrator 15.0.0, SVG Export Plug-In . SVG Version: 6.00 Build 0)  -->
<!DOCTYPE svg PUBLIC "-//W3C//DTD SVG 1.1//EN" "http://www.w3.org/Graphics/SVG/1.1/DTD/svg11.dtd">
<svg version="1.1" xmlns="http://www.w3.org/2000/svg" xmlns:xlink="http://www.w3.org/1999/xlink" x="0px" y="0px" width="1036px"
	 height="349.6px" viewBox="0 0 1036 349.6" enable-background="new 0 0 1036 349.6" xml:space="preserve">
<g id="фон_чтоб_было_видно._УДАЛИТЬ">
</g>
<g id="Слой_1">
	<path fill="none" d="M758.371,48.813c-4.695-0.024-7.527,0.359-12.473,1.378c-17.633,3.649-28.465,8.985-62.691,31.008
		c-0.07,0.043,0.316,3.969,0.867,8.707c2.277,19.68,3.555,40.922,3.602,59.907c0.055,20.847-0.297,25.96-5.148,74.113
		c-1.43,14.199-2.426,26.246-2.223,26.772c17.418-3.804,35.516-7.69,56.953-8.948c12.313-0.642,32.531,1.297,52.426,4.434
		c21.223,3.343,29.336,2.683,40.066,0.746c23.93-4.317,35.492-14.942,35.492-14.942s-2.871-0.66-4.605-0.944
		c-11.523-1.922-21.836-5.422-27.66-9.41c-4.297-2.942-11.465-9.57-11.465-10.603c0-0.437,1.559-0.547,3.93-0.258
		c4.758,0.586,29.164-0.531,35.336-1.847c21.965-4.685,36.664-16.367,36.664-16.367s-2.449-1.11-3.246-1.536
		c-2.332-1.246-18.563-5.003-25.977-6.011c-9.195-1.254-28.648-0.657-33.16,1.027c-1.813,0.676-3.383,1.137-3.484,1.03
		c-0.492-0.507,5.781-8.944,9.922-13.34c6.117-6.496,10.219-8.394,27.168-12.613c10.344-2.574,15.059-4.25,18.746-6.203
		c21.66-11.461,25.555-21.035,25.555-21.035s-3.746,0.113-9.992,1.965c-24.723,7.316-40.027,7.992-54.48,2.41
		c-9.211-3.559-17.402-7.836-17.059-8.895c0.16-0.496,3.426-3.671,7.277-7.066c8.066-7.109,15.145-10.922,30.75-16.613
		c6.02-2.196,10.086-4.09,10.086-4.684c0-1.504-26.117-2.609-35.969-1.519c-4.129,0.457-8.172,1.074-8.984,1.378
		c-1.238,0.469-1.352-0.042,0.605-2.011c2.633-2.645,4.824-5.086,6.652-7.324c10.145-12.454,8.969-18.676,8.969-18.676
		s-2.754,0.937-8.34,3.511c-13.484,6.215-32.762,8.383-47.906,5.383c-8.371-1.66-23.785-5.746-25.391-6.738
		c-1.504-0.934,1.637-6.902,5.5-10.461c4.883-4.504,12.09-8.555,17.543-9.23c2.422-0.301,4.461-0.567,4.461-0.567
		s-8.121-4.793-32.84-5.789C761.723,48.867,759.938,48.82,758.371,48.813z"/>
	<path fill="#FFFFFF" d="M534.566,136.477c0,0,32.289,0.96,70.266-23.911c37.977-24.871,86.141-55.168,102.352-63.308
		c16.207-8.141,38.902-20.801,75.949-17.184c37.051,3.617,40.832,6.113,51.59,7.125c11.711,1.102,23.902,0.563,23.902,0.563
		s-8.652,13.441-32.422,18.086c-15.574,3.047-36.121,9.949-36.121,9.949s33.773,3.894,57.426-2.977
		c25.746-7.48,42.941-16.89,48.168-19.633c8.613-4.523,18.961-10.984,18.961-10.984s-8.695,17.356-16.59,26.336
		c-9.129,10.379-32.941,28.965-32.941,28.965s26.875-13.859,43.695-16.172c13.727-1.887,22.445-2.687,29.391-3.594
		c6.949-0.902,17.688-5.558,17.688-5.558s-23.676,35.535-41.219,43.41c-18.125,8.137-52.332,15.375-52.332,15.375
		s14.359,3.168,33.809,0c19.453-3.164,43.184-9.465,66.227-4.07c25.781,6.035,30.555,7.542,40.43,10.027
		c7.617,1.918,19.098-0.235,19.098-0.235s-14.234,36.254-57.473,41.551c-40.297,4.934-52.223-3.301-75.035-2.691
		c-15.617,0.414-23.543,9.23-23.543,9.23s18.012-2.234,43.727,4.974c23.57,6.604,31.109,8.297,38.984,8.297
		c7.871,0,24.465-6.488,24.465-6.488s-6.945,23.515-42.145,26.679c-35.195,3.168-49.258,10.771-49.258,10.771
		s6.188,10.937,20.543,10.483c14.359-0.448,21.305-7.687,21.305-7.687s-10.188,32.109-59.742,40.699
		c-17.879,3.101-36.125,3.164-87.531-8.142c-51.406-11.304-118.414,7.259-139.402,12.211c-15.539,3.668-44.313,7.235-61.133,6.781
		c-11.582-0.308-29.176-3.164-29.176-3.164s19.398,2.114,34.914,1.418c10.781-0.483,27.203-2,37.113-4.312
		c13.301-3.103,49.898-12.267,60.461-14.567c13.238-2.886,38.004-8.918,72.496-8.3c29.805,0.535,45.941,6.574,69.379,10.422
		c21.316,3.496,34.012-1.379,46.098-3.672c11.789-2.239,34.25-14.547,34.25-14.547s-15.461-0.469-22.797-5.039
		c-9.793-6.098-24.617-17.696-24.617-17.696s13.426,0.293,23.664-3.246c14.957-5.164,23.559-9.496,32.125-10.168
		c8.188-0.636,37.004-5.004,37.004-5.004s-15.773-1.187-24.941-4.382c-9.168-3.2-17.355-7.153-28.816-9.071
		c-10.828-1.812-37.164-3.711-37.164-3.711s4.023-13.523,29.73-19.351c26.984-6.117,38.703,2.613,72.031-1.227
		c21.441-2.468,33.652-18.777,33.652-18.777s-22.672-13.824-56.559-14.059c-21.547-0.148-32.109,3.532-48.555,3.532
		c-22.27,0-34.535-8.114-34.535-8.114s12.664-5.504,24.875-9.437c13.855-4.461,30.52-11.973,36.094-14.199
		c7.203-2.879,19.688-18.125,19.688-18.125s-7.105-1.247-23.48,1.953c-7.18,1.402-18.895,4.597-26.82,7.191
		c-8.031,2.625-27.547,5.817-27.547,5.817s14.207-16.028,18.137-20.504c3.93-4.477,11.563-16.36,11.563-16.36
		s-27.91,11.176-41.441,13.074c-15.363,2.157-23.543,2.395-36.508,2.301c-15.523-0.109-21.738-5.824-21.738-5.824
		s5.633-5.648,12.844-8.465c15.824-6.18,22.293-12.094,22.293-12.094s-29.496-8.128-52.359-7.308
		c-40.766,1.469-67.695,22.887-87.063,33.461c-15.379,8.394-44.133,26.074-59.547,36.492c-28.43,19.219-54.078,24.25-61.754,25.527
		C549.141,137.406,534.566,136.477,534.566,136.477z"/>
	<path fill="#E95F34" d="M592.449,128.125c-1.18,0.008-2.301,0.195-3.301,0.375c-5.898,1.055-9.281,1.684-14.23,3.488
		c-3.16,1.153-3.391,0.324-11.57,2.516c-6.516,1.75-25.465,1.844-26.234,1.941c-0.77,0.094-1.695-0.121-2.09-0.125l0.695,136.188
		c2.125-0.11,4.621-0.168,7.293-0.09c10.918,0.309,24.332,2.312,29.563,2.102c5.234-0.211,7.059-1.684,7.059-1.684
		s-8.625-0.642-13.336-3.177c-4.707-2.538-5.758-5.28-5.758-5.28s21.035,5.065,32.949,2.965
		c14.391-2.535,23.551-11.637,29.305-15.864c5.758-4.226,14.668-6.125,14.668-6.125s-13.613-0.851-22.508,1.262
		c-8.895,2.113-18.84,5.285-28.781,4.442c-8.582-0.731-19.027-6.575-18.313-11.614c1.047-7.397,8.324-8.858,18.051-8.457
		c16.363,0.672,21.969,3.599,37.402,2.547c21.715-1.479,34.539-10.362,41.34-18.18c6.801-7.82,10.211-13.108,10.211-13.108
		s-20.156,13.944-39.516,14.37c-19.359,0.423-32.422-5.926-39.227-8.25c-6.801-2.323-13.336-3.995-13.336-3.995
		s9.926-0.645,15.16-2.337c5.23-1.69,15.191-6.53,20.16-9.276c4.973-2.746,10.086-5.414,13.367-6.379
		c4.695-1.383,10.703-1.474,10.703-1.474c0.016-0.004-11.977-3.5-21.727-2.312c-5.457,0.664-21.684,5.019-41.598,4.019
		c-16.508-0.828-30.691-9.229-30.691-9.229s15.516,0.565,24.934-0.91c9.418-1.481,15.68-4.055,19.527-6.778
		c4.039-2.855,6.621-4.996,11.949-7.992c4.563-2.566,8.938-3.879,8.938-3.879s-10.906-0.797-17.125,2.36
		c-4.18,2.125-16.887,7.156-26.699,7.199c-5.035,0.019-9.145-3.606-9.637-7.082c-0.57-4.067,2.359-7.473,6.512-8.762
		c4.816-1.496,9.922-2.195,9.922-2.195s-5.496-1.5-11.254-0.867c-5.754,0.636-9.539,2.863-15.766,2.269
		c-4.973-0.476-9.043-2.457-9.082-5.984c-0.055-4.649,7.375-3.34,14.98-3.469c7.426-0.125,14.93,0.758,23.781-2.77
		c8-3.187,9.371-5.511,13.086-7.175c5.145-2.305,7.539-2.407,7.539-2.407S595.988,128.105,592.449,128.125z"/>
	<path fill="#E95F34" d="M187.352,110.988c59.855-52.144,159.113-32.656,159.113-32.656l189.309,58.141l0.105,136.089
		L71.391,322.781l210.507-36.19l1.606-9.531c14.992-3.532,27.09-17.239,27.09-17.239l48.293-0.854v-5.142h-51.504
		c-15.313,17.238-32.231,20.56-32.231,20.56l-3.316,8.996l-125.492,0.641l-115.746,7.175l115.961-11.03l0.32-6.531l16.598-1.392
		c-40.903,0-50.754-34.476-50.754-34.476c9.851,19.914,35.976,14.988,35.976,14.988c-48.289,0-34.051-42.293-34.051-42.293
		c16.493-50.859,72.813-99.688,72.813-99.688L187.352,110.988z"/>
	<path fill="#FFFFFF" d="M326.336,289.48c-5.141,0-9.316-5.89-9.316-13.171c0-7.282,4.175-13.168,9.316-13.168h0.32
		c-0.855-0.321-1.605-0.536-2.57-0.536c-5.352,0-9.637,6.103-9.637,13.598c0,7.496,4.285,13.599,9.637,13.599
		c0.855,0,1.715-0.215,2.57-0.535h-0.32V289.48z"/>
	<path fill="#FFFFFF" d="M330.938,276.309c0-1.821-1.071-3.317-2.356-3.317c-1.281,0-2.355,1.496-2.355,3.317
		c0,1.82,1.074,3.32,2.355,3.32C329.867,279.629,330.938,278.129,330.938,276.309z"/>
	<path fill="#FFFFFF" d="M268.836,138.184c54.609-46.469,109.215-28.481,109.215-28.481v-4.816
		c-65.957-16.168-109.106,33.297-109.106,33.297H268.836z"/>
	<path fill="#FFFFFF" d="M116.684,228.984c0,0,0.109,5.353,3.32,8.672c0,0,61.351,5.996,100.113-6.961
		c67.887-29.55,126.242-30.94,126.028-30.94c-5.141-0.859-50.54-6.531-86.516,7.707c0,0-53.324,22.164-83.625,23.233
		c0,0-52.68,0.431-59.426-1.711H116.684z"/>
	<path fill="#FFFFFF" d="M178.359,271.708c80.735-3.32,90.262-35.441,165.75-41.332
		C257.164,233.586,261.234,262.711,178.359,271.708z"/>
	<polygon fill="#FFFFFF" points="173.004,203.82 201.164,181.23 216.906,180.48 194.313,202.965 175.254,204.141 194.957,205.426 
		224.723,178.766 198.383,178.766 173.004,203.715 	"/>
	<path fill="#E95F34" d="M134.352,178.766l4.07,0.109L134.352,178.766z"/>
	<polygon fill="#FFFFFF" points="135.637,202.965 143.883,178.875 131.566,178.875 121.824,202.43 132.852,202.75 124.82,200.824 
		133.711,180.372 140.563,180.586 	"/>
	<path fill="#FFFFFF" d="M500.758,198.684c0,12.203,0,24.41-0.106,36.511v36.617c3.746-0.32,7.496-0.75,11.243-1.07v-21.733
		c0-3.642,0-7.067-0.106-10.603c-0.109-5.676-0.43-11.351-0.75-17.022c0.961,5.781,1.926,11.668,2.996,17.453
		c0.965,5.137,2.035,10.062,3.106,15.098l3.21,16.058c4.07-0.426,8.031-0.75,11.887-1.176V198.79h-10.602v24.09
		c0,3.965,0.215,7.926,0.324,11.78c0.105,3.853,0.211,7.817,0.426,11.668c-0.535-3.641-1.176-7.172-1.711-10.812
		c-0.535-3.641-1.18-7.176-1.82-10.817c-0.75-4.387-1.714-8.776-2.57-13.062c-0.859-4.282-1.82-8.672-2.785-12.953H500.758z"/>
	<path fill="#FFFFFF" d="M480.629,198.684c0,12.527,0,25.054-0.106,37.582c0,12.527,0,25.16-0.109,37.687l12.527-1.284v-37.047
		c0-12.313,0-24.625,0.11-37.048h-12.528L480.629,198.684z"/>
	<path fill="#FFFFFF" d="M350.75,198.254c0,5.565,0,11.137-0.109,16.703c4.07-0.105,8.031-0.105,11.992-0.216
		c0,11.778-0.106,23.664-0.106,35.552l-0.109,35.547l16.598-1.606c0-11.672,0.105-23.233,0.105-34.8
		c0-11.563,0.109-23.235,0.109-34.797c3.747-0.11,7.387-0.11,11.137-0.215v-15.953c-12.851,0-26.129,0-39.726-0.11L350.75,198.254z"
		/>
	<path fill="#FFFFFF" d="M508.469,131.437c0,10.922,0.105,21.739,0.105,32.551c0,10.817,0.11,21.524,0.11,32.231h9.527v-26.446
		c1.93,0.211,3.855,0.426,5.781,0.747v25.914h8.352v-58.25c-2.676-0.75-5.566-1.497-8.352-2.356v22.379
		c-1.926-0.32-3.852-0.641-5.887-1.07v-23.129c-3.105-0.856-6.316-1.711-9.637-2.676V131.437z"/>
	<path fill="#FFFFFF" d="M382.336,96.32c0.105,6.317,0.215,12.742,0.32,18.95c5.356,1.179,10.602,2.464,15.739,3.535
		c0.214,12.957,0.429,25.91,0.644,38.761c0.215,12.848,0.426,25.59,0.641,38.438c6.961,0,13.597,0.108,20.023,0.108
		c-0.215-11.991-0.32-24.093-0.535-36.191c-0.215-12.102-0.32-24.305-0.535-36.512c4.281,0.961,8.566,1.926,12.637,2.891
		c-0.11-5.461-0.11-10.922-0.215-16.383c-14.778-4.07-31.051-8.672-48.934-13.598H382.336z"/>
	<path fill="#FFFFFF" d="M503.863,154.566c0-4.711,0-8.031-0.215-10.812c-0.214-2.785-0.64-4.926-1.496-7.176
		c-3.32-8.566-10.066-10.707-11.886-11.137c-5.782-1.605-11.778-0.746-14.457,7.282c-1.176,3.535-1.391,8.351-1.391,9.425
		c-0.105,3.426-0.105,6.743-0.105,10.172v10.063c0,5.14,0.105,10.281,0.32,15.312c0.215,4.392,0.64,6.317,1.176,8.353
		c1.285,4.496,5.355,11.672,14.027,11.672c1.18,0,2.57,0,4.926-0.856c2.035-0.75,3-1.394,3.855-2.144
		c1.391-1.176,2.356-2.892,2.676-3.532c1.82-3.425,2.355-6.96,2.465-11.136c0.105-3.106,0-6.426,0-9.531
		c-3.426-0.426-6.961-0.747-10.602-1.176c0,1.715-0.105,3.32-0.105,5.031c0,1.605,0.105,3.215,0.105,4.82
		c0,4.603-1.39,6.317-2.89,6.211c-0.965,0-1.715-0.644-2.036-0.965c-1.39-1.5-1.285-3.854-1.285-6.531
		c0-5.354-0.105-10.815-0.105-16.167c0-5.461-0.11-10.816-0.11-16.277c0-4.176,0.215-5.996,1.395-6.957
		c0.32-0.215,0.961-0.645,1.926-0.43c1.285,0.32,2.25,1.82,2.676,3.746c0.324,1.606,0.214,4.285,0.214,4.5
		c0,2.141,0.11,4.496,0.11,6.852c3.64,0.64,7.172,1.285,10.597,1.926L503.863,154.566z"/>
	<path fill="#FFFFFF" d="M434.801,111.309c0.215,14.347,0.32,28.589,0.535,42.722c0.215,14.133,0.32,28.27,0.535,42.188
		c12.313,0,23.664,0.104,34.266,0.104c0-4.815-0.11-9.741-0.11-14.558c-5.781-0.325-11.882-0.645-18.203-1.075
		c-0.105-6.101-0.105-12.203-0.211-18.308c5.352,0.644,10.492,1.285,15.418,1.82c0-4.926-0.109-9.742-0.109-14.668
		c-4.926-0.855-10.063-1.715-15.418-2.676c0-5.246-0.106-10.601-0.106-15.847c6.102,1.39,11.993,2.675,17.668,3.961
		c0-4.817-0.109-9.532-0.109-14.348c-10.492-2.891-21.734-5.996-34.051-9.422L434.801,111.309z"/>
	<path fill="#FFFFFF" d="M310.809,92.25c-96.368-32.977-156.754,60.816-156.754,60.816c38.547,7.926,100.328-7.386,100.328-7.386
		c19.914-27.516,56.535-53.43,56.535-53.43H310.809z"/>
	<path fill="#FFFFFF" d="M712.832,222.523c-4.012-0.05-9.273,3.267-8.773,6.762c0.566,3.978,7.117,4.087,11.184,0.188
		c2.469-2.364,2.703-3.711,0.938-5.664C715.383,222.93,714.172,222.54,712.832,222.523z"/>
	<path fill="#FFFFFF" d="M785.566,189.41l-5.617,0.47l-0.422,24.242l-2.293,1.918c-1.746,1.473-3.098,1.922-5.805,1.922
		c-1.945,0-3.949-0.396-4.445-0.892c-0.629-0.629-0.891-4.69-0.891-13.479V191h-5.988l-0.188,9.176
		c-0.355,18.172,0.008,19.793,4.914,21.926c2.98,1.296,3.645,1.313,8.914,0.07c5.102-1.199,9.324-4.203,10.766-7.652
		c0.738-1.762,1.055-5.836,1.055-13.809V189.41z"/>
	<path fill="#FFFFFF" d="M769.84,144.406v2.297c0,2.289,0.008,2.281,4.68,2.504l4.68,0.231l0.188,13.058
		c0.207,13.027,0.457,14.219,2.926,14.254c0.48,0.004,1.406-0.195,2.059-0.445c1.02-0.391,1.195-2.278,1.195-13.528v-13.105
		l4.305,0.258c4.164,0.25,4.305,0.195,4.305-1.614c0-1.699-0.363-1.929-3.93-2.363c-2.16-0.265-7.637-0.711-12.168-1.008
		L769.84,144.406z"/>
	<path fill="#FFFFFF" d="M739.887,142.91l0.422,17.082c0.23,9.395,0.539,17.281,0.676,17.504c0.293,0.477,12.465,0.191,18.184-0.419
		c3.797-0.405,3.934-0.495,3.934-2.714v-2.293l-8.285,0.395l-8.262,0.375l0.211-5.336l0.234-5.336h14.977l0.211-1.965
		c0.203-1.738-0.09-1.992-2.621-2.41c-1.566-0.258-5.105-0.484-7.887-0.492h-5.055v-9.547l8.238,0.375l8.238,0.398v-1.941
		c0-1.066-0.254-2.066-0.563-2.25c-0.309-0.18-5.535-0.59-11.609-0.887L739.887,142.91z"/>
	<path fill="#FFFFFF" d="M702.07,141.508v39.008h1.895c1.055,0,2.559-0.45,3.32-1.004c1.258-0.918,1.391-2.289,1.453-14.489
		l0.07-13.476l2.879,5.312c1.59,2.918,4.84,9.016,7.23,13.547l4.352,8.239l3.184-0.165c5.566-0.269,5.23,0.954,5.008-18.347
		l-0.188-17.434l-3.207-0.234l-3.18-0.235l0.348,13.528c0.199,7.437,0.227,13.527,0.07,13.527c-0.152,0-2.613-4.465-5.473-9.922
		c-2.863-5.457-6.203-11.609-7.418-13.668c-2.184-3.695-2.281-3.738-6.297-3.957L702.07,141.508z"/>
	<path fill="#FFFFFF" d="M769.746,98.984c-0.516,0.086-0.656,0.668-0.656,2.012c0,2.414-0.09,2.375,6.813,3.559l2.691,0.445
		l0.488,6.809c0.266,3.734,0.492,9.73,0.492,13.339c0,6.852,0.199,7.254,3.559,7.372l1.684,0.07v-26.328l2.059,0.398
		c1.133,0.219,3.156,0.606,4.496,0.867c2.285,0.446,2.434,0.336,2.434-1.66v-2.133l-11.047-2.175
		c-6.074-1.196-11.637-2.317-12.355-2.504C770.145,98.988,769.918,98.957,769.746,98.984z"/>
	<path fill="none" stroke="#FFFFFF" stroke-width="3" d="M758.371,48.813c-4.695-0.024-7.527,0.359-12.473,1.378
		c-17.633,3.649-28.465,8.985-62.691,31.008c-0.07,0.043,0.316,3.969,0.867,8.707c2.277,19.68,3.555,40.922,3.602,59.907
		c0.055,20.847-0.297,25.96-5.148,74.113c-1.43,14.199-2.426,26.246-2.223,26.772c17.418-3.804,35.516-7.69,56.953-8.948
		c12.313-0.642,32.531,1.297,52.426,4.434c21.223,3.343,29.336,2.683,40.066,0.746c23.93-4.317,35.492-14.942,35.492-14.942
		s-2.871-0.66-4.605-0.944c-11.523-1.922-21.836-5.422-27.66-9.41c-4.297-2.942-11.465-9.57-11.465-10.603
		c0-0.437,1.559-0.547,3.93-0.258c4.758,0.586,29.164-0.531,35.336-1.847c21.965-4.685,36.664-16.367,36.664-16.367
		s-2.449-1.11-3.246-1.536c-2.332-1.246-18.563-5.003-25.977-6.011c-9.195-1.254-28.648-0.657-33.16,1.027
		c-1.813,0.676-3.383,1.137-3.484,1.03c-0.492-0.507,5.781-8.944,9.922-13.34c6.117-6.496,10.219-8.394,27.168-12.613
		c10.344-2.574,15.059-4.25,18.746-6.203c21.66-11.461,25.555-21.035,25.555-21.035s-3.746,0.113-9.992,1.965
		c-24.723,7.316-40.027,7.992-54.48,2.41c-9.211-3.559-17.402-7.836-17.059-8.895c0.16-0.496,3.426-3.671,7.277-7.066
		c8.066-7.109,15.145-10.922,30.75-16.613c6.02-2.196,10.086-4.684,10.086-4.684s-26.117-2.609-35.969-1.519
		c-4.129,0.457-8.172,1.074-8.984,1.378c-1.238,0.469-1.352-0.042,0.605-2.011c2.633-2.645,4.824-5.086,6.652-7.324
		C851.996,79.066,853,73.35,853,73.35s-6.115,1.499-12.216,3.752c-13.928,5.145-31.065,7.636-46.21,4.636
		c-8.371-1.66-23.785-5.746-25.391-6.738c-1.504-0.934,1.637-6.902,5.5-10.461c4.883-4.504,12.09-8.555,17.543-9.23
		c2.422-0.301,4.461-0.567,4.461-0.567s-8.121-4.793-32.84-5.789C761.723,48.867,759.938,48.82,758.371,48.813z"/>
	<path fill="#FFFFFF" d="M470.348,236.691c-1.926-12.632-3.746-25.375-5.672-38.117h-17.348
		c-1.926,13.063-3.961,26.235-5.887,39.513c-1.929,13.276-3.964,26.66-5.996,40.151c4.711-0.429,9.313-0.965,13.918-1.394
		c0.43-4.817,0.965-9.528,1.391-14.348c3.535-0.32,6.961-0.535,10.387-0.855c0.535,4.605,0.964,9.316,1.5,13.921
		c4.496-0.429,8.886-0.859,13.277-1.285C474.098,261.75,472.168,249.219,470.348,236.691z M452.359,248.684v-0.106
		c0.004,0,0.007-0.001,0.011-0.001c0.641-6.171,1.279-12.347,2.025-18.521c0.644-6.426,1.285-12.957,1.82-19.489
		c0.43,5.356,0.965,10.922,1.394,16.383c0.321,3.535,0.746,7.067,1.071,10.603c0.32,3.531,0.75,7.065,1.07,10.492
		c-2.461,0.215-4.918,0.429-7.38,0.533C452.366,248.613,452.363,248.648,452.359,248.684z"/>
	<path fill="#FFFFFF" d="M431.16,269.992c0-5.461,0.11-11.026,0-16.487c-0.105-5.781-0.32-11.138-3.961-14.457
		c-0.855-0.746-1.605-1.176-3.535-2.142c2.891-2.14,3.965-3.211,4.926-5.03c1.605-2.785,2.57-5.996,2.57-13.173
		c0-10.706-2.57-17.663-10.922-19.594c-1.5-0.319-1.925-0.425-4.496-0.425c-7.281-0.11-14.562,0-22.058,0v-0.215
		c0,14.027-0.106,28.051-0.106,42.078c0,14.026-0.109,28.055-0.109,42.187c5.14-0.535,10.172-0.964,15.097-1.5v-36.401
		c4.711-0.431,6.856,0.211,7.711,3.211c0.75,2.25,0.641,6.211,0.641,6.637v16.812c0,4.177,0.109,5.031,0.965,8.992
		c4.926-0.535,9.746-0.961,14.457-1.39C431.27,275.238,431.16,274.168,431.16,269.992z M417.348,221.383
		c0,3.315-0.106,7.065-2.571,8.776c-1.175,0.86-3.211,1.07-6.211,1.285c0-6.422,0-12.742,0.11-19.164
		c4.711-0.108,6.637,0,7.816,2.892C417.457,217.418,417.348,220.633,417.348,221.383z"/>
	<g>
		<path fill="#FFFFFF" d="M712.832,222.523c-4.012-0.05-9.273,3.267-8.773,6.762c0.566,3.978,7.117,4.087,11.184,0.188
			c2.469-2.364,2.703-3.711,0.938-5.664C715.383,222.93,714.172,222.54,712.832,222.523z"/>
		<path fill="#FFFFFF" d="M785.575,189.41l-5.617,0.47c0,0,0.652,19.16-0.422,24.242c-0.286,1.354-1.162,1.721-1.777,2.146
			c-1.88,1.298-3.613,1.694-6.32,1.694c-1.945,0-3.434-0.782-3.93-1.278c-0.629-0.629-1.406-4.304-1.406-13.093V191h-5.988
			l-0.188,9.176c-0.355,18.172,0.73,21.021,5.914,22.346c2.722,0.695,4.404,0.709,8.834,0c5.763-0.922,8.404-4.553,9.846-8.002
			c0.738-1.762,1.055-5.836,1.055-13.809V189.41z"/>
		<path fill="#FFFFFF" d="M769.84,144.406v2.297c0,2.289,0.008,2.281,4.68,2.504l4.68,0.231l0.188,13.058
			c0.207,13.027,0.457,14.219,2.926,14.254c0.48,0.004,1.406-0.195,2.059-0.445c1.02-0.391,1.195-2.278,1.195-13.528v-13.105
			l4.305,0.258c4.164,0.25,4.305,0.195,4.305-1.614c0-1.699-0.363-1.929-3.93-2.363c-2.16-0.265-7.637-0.711-12.168-1.008
			L769.84,144.406z"/>
		<path fill="#FFFFFF" d="M739.887,142.91l0.422,17.082c0.23,9.395,0.539,17.281,0.676,17.504
			c0.293,0.477,12.465,0.191,18.184-0.419c3.797-0.405,3.934-0.495,3.934-2.714v-2.293l-8.285,0.395l-8.262,0.375l0.211-5.336
			l0.234-5.336h14.977l0.211-1.965c0.203-1.738-0.09-1.992-2.621-2.41c-1.566-0.258-5.105-0.484-7.887-0.492h-5.055v-9.547
			l8.238,0.375l8.238,0.398v-1.941c0-1.066-0.254-2.066-0.563-2.25c-0.309-0.18-5.535-0.59-11.609-0.887L739.887,142.91z"/>
		<path fill="#FFFFFF" d="M702.07,141.508v39.008h1.895c1.055,0,2.559-0.45,3.32-1.004c1.258-0.918,1.391-2.289,1.453-14.489
			l0.07-13.476l2.879,5.312c1.59,2.918,4.84,9.016,7.23,13.547l4.352,8.239l3.184-0.165c5.566-0.269,5.23,0.954,5.008-18.347
			l-0.188-17.434l-3.207-0.234l-3.18-0.235l0.348,13.528c0.199,7.437,0.227,13.527,0.07,13.527c-0.152,0-2.613-4.465-5.473-9.922
			c-2.863-5.457-6.203-11.609-7.418-13.668c-2.184-3.695-2.281-3.738-6.297-3.957L702.07,141.508z"/>
		<path fill="#FFFFFF" d="M769.746,98.984c-0.516,0.086-0.656,0.668-0.656,2.012c0,2.414-0.09,2.375,6.813,3.559l2.691,0.445
			l0.488,6.809c0.266,3.734,0.492,9.73,0.492,13.339c0,6.852,0.199,7.254,3.559,7.372l1.684,0.07v-26.328l2.059,0.398
			c1.133,0.219,3.156,0.606,4.496,0.867c2.285,0.446,2.434,0.336,2.434-1.66v-2.133l-11.047-2.175
			c-6.074-1.196-11.637-2.317-12.355-2.504C770.145,98.988,769.918,98.957,769.746,98.984z"/>
		<path fill="#FFFFFF" d="M765.84,114.182c-0.465-7.301-2.148-11.324-6.273-14.953c-3.574-3.144-8.098-4.547-12.309-4.398
			c-5.414,0.191-10.305,2.964-11.938,7.91c-1.246,3.781-0.43,12.929,1.5,16.918c1.984,4.101,5.84,7.828,9.523,9.199
			c3.719,1.383,10.688,0.898,13.926-0.961c1.355-0.777,3.219-2.887,4.188-4.75C765.961,120.252,766.145,119.03,765.84,114.182z
			 M757.625,122.841c-1.867,2.145-5.902,2.946-8.754,1.754c-3.164-1.32-5.227-3.793-6.387-7.699
			c-1.84-6.187-1.098-12.066,1.918-15.305c0.977-1.05,2.699-1.593,4.586-1.636s3.922,0.414,5.547,1.402
			C760.164,104.792,762.035,117.768,757.625,122.841z"/>
		<path fill="#FFFFFF" d="M718.13,90.115c-4.047-1.777-19.379-5.582-21.832-5.5c-0.164,0.004-0.262,0.028-0.305,0.071
			c-0.344,0.344,5.047,39.41,5.523,40.039c0.391,0.519,12.563,1.269,16.004,0.984c1.855-0.152,4.891-1.008,6.742-1.894
			c4.23-2.032,6.48-5.407,7.137-10.649C732.646,103.182,727.493,94.225,718.13,90.115z M721.149,118.268
			c-2.184,1.836-3.047,2.058-7.934,2.058c-3.699,0-5.594-0.304-5.828-0.937c-0.332-0.902-4.094-26.227-4.094-27.567
			c0-0.265,0.395-0.386,1.078-0.375c2.961,0.067,11.117,2.481,13.969,4.403c3.273,2.203,4.949,5.23,5.781,10.531
			C725.044,112.256,724.177,115.721,721.149,118.268z"/>
		<path fill="#FFFFFF" d="M744.679,211.665c-1.383-0.97-1.316-1.091,1.238-2.668c6.949-4.294,6.293-14.134-1.027-15.634
			c-0.559-0.112-1.93-0.147-3.723-0.14c-5.375,0.023-14.313,0.507-14.742,0.937c-0.125,0.125-0.582,6.449-1.031,14.063
			c-0.445,7.617-1.008,15.625-1.238,17.785c-0.41,3.812-0.367,3.933,1.449,3.933c1.031,0,2.734-0.324,3.793-0.726
			c1.734-0.66,1.941-1.133,1.941-4.774c0-2.218,0.188-5.569,0.445-7.44c0.426-3.103,0.672-3.431,2.809-3.771
			c3.402-0.539,5.195,0.973,8.703,7.329c1.715,3.101,3.559,5.636,4.098,5.636c2.301,0,5.66-1,5.66-1.683
			C753.054,223.238,746.202,212.73,744.679,211.665z M734.897,208.574l-2.809,0.47v-5.195c0-5.896,0.191-6.106,5.895-6.106
			c5.418,0,7.449,2.317,5.688,6.505C742.671,206.629,740.737,207.594,734.897,208.574z"/>
	</g>
</g>
</svg>
