<?xml version="1.0" encoding="utf-8"?>
<!-- Generator: Adobe Illustrator 15.0.0, SVG Export Plug-In . SVG Version: 6.00 Build 0)  -->
<!DOCTYPE svg PUBLIC "-//W3C//DTD SVG 1.1//EN" "http://www.w3.org/Graphics/SVG/1.1/DTD/svg11.dtd">
<svg version="1.1" xmlns="http://www.w3.org/2000/svg" xmlns:xlink="http://www.w3.org/1999/xlink" x="0px" y="0px"
	 width="850.39px" height="850.39px" viewBox="0 0 850.39 850.39" enable-background="new 0 0 850.39 850.39" xml:space="preserve">
<g id="Слой_5">
	<rect fill="#FFFFFF" width="850.39" height="850.39"/>
	<rect x="14" y="14" fill="#69217A" width="822.39" height="822.39"/>
</g>
<g id="Слой_3">
	<g>
		<path fill="#FFFFFF" d="M474.143,216.172c0,6.834-0.527,13.373-1.582,19.623c-1.053,6.252-2.744,12.065-5.068,17.443
			c-2.328,5.379-5.342,10.267-9.049,14.662c-3.705,4.398-8.25,8.16-13.627,11.284c-5.379,3.126-11.629,5.543-18.75,7.25
			c-7.125,1.708-15.229,2.562-24.311,2.562H371.23V146.51h36.738c22.24,0,38.826,5.723,49.768,17.17
			C468.674,175.128,474.143,192.625,474.143,216.172z M453.756,217.59c0-10.102-0.945-18.642-2.834-25.619
			c-1.891-6.977-4.762-12.608-8.613-16.898c-3.852-4.288-8.686-7.394-14.498-9.321c-5.816-1.925-12.646-2.889-20.496-2.889h-16.68
			v109.344h14.5C437.549,272.207,453.756,254.001,453.756,217.59z"/>
		<path fill="#FFFFFF" d="M598.857,216.826c0,12.793-1.508,23.84-4.523,33.141c-3.018,9.306-7.088,16.991-12.211,23.058
			c-5.123,6.07-11.119,10.575-17.986,13.519c-6.869,2.944-14.119,4.415-21.75,4.415c-9.156,0-17.133-1.653-23.93-4.96
			s-12.426-8.085-16.896-14.336c-4.471-6.249-7.795-13.862-9.977-22.839c-2.18-8.976-3.27-19.095-3.27-30.361
			c0-12.646,1.488-23.619,4.469-32.923c2.98-9.303,7.031-16.989,12.156-23.058c5.125-6.067,11.102-10.574,17.934-13.518
			c6.83-2.943,14.063-4.416,21.695-4.416c9.156,0,17.131,1.673,23.928,5.015c6.795,3.344,12.445,8.122,16.953,14.336
			c4.504,6.213,7.865,13.791,10.084,22.73C597.75,195.568,598.857,205.636,598.857,216.826z M578.689,218.244
			c0-8.357-0.637-16.007-1.908-22.948c-1.271-6.939-3.324-12.918-6.158-17.933c-2.834-5.015-6.486-8.902-10.957-11.666
			c-4.469-2.761-9.865-4.143-16.189-4.143c-6.105,0-11.355,1.472-15.752,4.415c-4.398,2.944-8.014,6.941-10.848,11.993
			c-2.834,5.052-4.943,10.974-6.322,17.77c-1.383,6.796-2.072,14.008-2.072,21.639c0,8.432,0.654,16.117,1.963,23.057
			c1.307,6.942,3.359,12.902,6.158,17.88c2.799,4.979,6.414,8.85,10.848,11.609c4.434,2.764,9.773,4.144,16.025,4.144
			c6.105,0,11.375-1.472,15.809-4.415c4.432-2.944,8.084-6.939,10.957-11.992c2.869-5.051,4.994-10.956,6.377-17.715
			C577.998,233.179,578.689,225.948,578.689,218.244z"/>
		<path fill="#FFFFFF" d="M718.232,163.081h-42.189v125.915H656.42V163.081H614.23V146.51h104.002V163.081z"/>
	</g>
	<g>
		<path fill="#FFFFFF" d="M469.547,496.438h-25.293l-41.535-88.849l-11.992-28.563v71.843v45.568h-18.096V353.953h24.963
			l39.574,84.161l14.281,32.596v-76.312v-40.444h18.098V496.438z"/>
		<path fill="#FFFFFF" d="M585.322,496.438h-81V353.953h81v16.353h-61.596v44.151h59.197v16.352h-59.197v49.059h61.596V496.438z"/>
		<path fill="#FFFFFF" d="M718.541,370.522h-42.189v125.916h-19.623V370.522h-42.189v-16.569h104.002V370.522z"/>
	</g>
	<g>
		<path fill="#FFFFFF" d="M551.487,704.438h-22.012l-21.354-45.746c-1.607-3.503-3.25-6.402-4.929-8.701
			c-1.68-2.298-3.486-4.121-5.42-5.472c-1.936-1.35-4.052-2.315-6.352-2.9c-2.3-0.583-4.873-0.876-7.721-0.876h-9.198v63.695H455.01
			v-143.04h38.328c8.323,0,15.477,0.913,21.464,2.736c5.985,1.824,10.896,4.378,14.729,7.661c3.833,3.283,6.643,7.241,8.433,11.874
			c1.788,4.634,2.683,9.759,2.683,15.376c0,4.452-0.657,8.665-1.971,12.641c-1.314,3.978-3.269,7.59-5.859,10.835
			c-2.592,3.247-5.804,6.057-9.637,8.427c-3.832,2.372-8.231,4.142-13.195,5.309c4.014,1.387,7.428,3.813,10.239,7.277
			c2.81,3.467,5.676,8.082,8.596,13.845L551.487,704.438z M520.277,600.688c0-7.661-2.393-13.389-7.173-17.183
			c-4.782-3.793-11.518-5.691-20.204-5.691h-18.397v47.279h15.769c4.6,0,8.742-0.528,12.43-1.587
			c3.686-1.057,6.825-2.627,9.418-4.706c2.59-2.08,4.599-4.633,6.022-7.661C519.565,608.112,520.277,604.627,520.277,600.688z"/>
		<path fill="#FFFFFF" d="M674.992,654.642c0,7.88-1.113,15.013-3.34,21.396c-2.228,6.386-5.494,11.82-9.801,16.307
			c-4.309,4.487-9.582,7.954-15.824,10.397s-13.415,3.666-21.519,3.666c-8.907,0-16.464-1.168-22.668-3.502
			c-6.206-2.334-11.263-5.636-15.167-9.904c-3.906-4.269-6.754-9.394-8.542-15.377c-1.789-5.981-2.683-12.657-2.683-20.027v-96.199
			h19.492v94.667c0,5.619,0.529,10.544,1.588,14.774c1.058,4.232,2.793,7.771,5.202,10.616c2.409,2.845,5.53,4.998,9.362,6.457
			c3.833,1.46,8.523,2.188,14.072,2.188c10.365,0,18.015-2.991,22.942-8.974s7.392-14.409,7.392-25.281v-94.448h19.492V654.642z"/>
	</g>
	<circle fill="#FFFFFF" cx="411.187" cy="685.5" r="17.5"/>
</g>
</svg>
