<?xml version="1.0" encoding="utf-8"?>
<!-- Generator: Adobe Illustrator 15.0.0, SVG Export Plug-In . SVG Version: 6.00 Build 0)  -->
<!DOCTYPE svg PUBLIC "-//W3C//DTD SVG 1.1//EN" "http://www.w3.org/Graphics/SVG/1.1/DTD/svg11.dtd">
<svg version="1.1" id="Слой_1" xmlns="http://www.w3.org/2000/svg" xmlns:xlink="http://www.w3.org/1999/xlink" x="0px" y="0px"
	 width="354.33px" height="566.93px" viewBox="0 0 354.33 566.93" enable-background="new 0 0 354.33 566.93" xml:space="preserve">
<g>
	<path fill="#FFFFFF" d="M107.241,280.623c0,6.834-0.528,13.373-1.582,19.623c-1.054,6.252-2.744,12.065-5.068,17.443
		c-2.328,5.379-5.342,10.267-9.049,14.662c-3.706,4.398-8.25,8.16-13.627,11.284c-5.379,3.126-11.629,5.543-18.751,7.25
		c-7.124,1.708-15.228,2.562-24.311,2.562H4.328V210.961h36.738c22.24,0,38.827,5.723,49.768,17.17
		C101.771,239.579,107.241,257.076,107.241,280.623z M86.854,282.041c0-10.102-0.946-18.642-2.834-25.619
		c-1.892-6.977-4.762-12.608-8.613-16.898c-3.853-4.288-8.686-7.394-14.499-9.321c-5.815-1.925-12.646-2.889-20.496-2.889H23.733
		v109.344h14.499C70.646,336.658,86.854,318.452,86.854,282.041z"/>
	<path fill="#FFFFFF" d="M231.956,281.277c0,12.793-1.509,23.84-4.524,33.141c-3.018,9.306-7.087,16.991-12.21,23.058
		c-5.124,6.07-11.119,10.575-17.987,13.519c-6.868,2.944-14.118,4.415-21.75,4.415c-9.156,0-17.133-1.653-23.929-4.96
		c-6.797-3.307-12.427-8.085-16.897-14.336c-4.47-6.249-7.795-13.862-9.976-22.839c-2.18-8.976-3.271-19.095-3.271-30.361
		c0-12.646,1.489-23.619,4.47-32.923c2.98-9.303,7.031-16.989,12.156-23.058c5.124-6.067,11.101-10.574,17.933-13.518
		c6.831-2.943,14.063-4.416,21.695-4.416c9.156,0,17.132,1.673,23.929,5.015c6.795,3.344,12.445,8.122,16.952,14.336
		c4.505,6.213,7.866,13.791,10.084,22.73C230.848,260.019,231.956,270.087,231.956,281.277z M211.788,282.695
		c0-8.357-0.638-16.007-1.908-22.948c-1.271-6.939-3.324-12.918-6.159-17.933c-2.834-5.015-6.486-8.902-10.956-11.666
		c-4.47-2.761-9.866-4.143-16.189-4.143c-6.105,0-11.355,1.472-15.753,4.415c-4.398,2.944-8.013,6.941-10.847,11.993
		c-2.835,5.052-4.943,10.974-6.323,17.77c-1.382,6.795-2.072,14.008-2.072,21.639c0,8.432,0.654,16.117,1.964,23.057
		c1.307,6.942,3.359,12.902,6.158,17.88c2.798,4.979,6.414,8.85,10.847,11.609c4.434,2.764,9.774,4.144,16.026,4.144
		c6.105,0,11.374-1.472,15.808-4.415c4.432-2.944,8.084-6.939,10.957-11.992c2.87-5.051,4.995-10.956,6.377-17.715
		C211.097,297.63,211.788,290.399,211.788,282.695z"/>
	<path fill="#FFFFFF" d="M351.33,227.532h-42.189v125.915h-19.623V227.532h-42.189v-16.571H351.33V227.532z"/>
</g>
<g>
	<path fill="#FFFFFF" d="M102.335,558.93H77.043l-41.535-88.849l-11.993-28.563v71.843v45.568H5.419V416.445h24.964l39.573,84.161
		l14.281,32.595V456.89v-40.444h18.098V558.93z"/>
	<path fill="#FFFFFF" d="M218.11,558.93h-81V416.445h81v16.353h-61.595v44.151h59.196v16.353h-59.196v49.058h61.595V558.93z"/>
	<path fill="#FFFFFF" d="M351.33,433.015h-42.189V558.93h-19.623V433.015h-42.189v-16.569H351.33V433.015z"/>
</g>
<g>
	<path fill="#FFFFFF" d="M89.88,149.888H8.565V6.848H89.88v16.417H28.046v44.324h59.427v16.416H28.046v49.249H89.88V149.888z"/>
	<path fill="#FFFFFF" d="M224.384,149.888h-24.515l-53.517-70.152v70.152h-19.48V6.848h19.48v66.431l52.422-66.431h23.093
		l-56.472,67.963L224.384,149.888z"/>
	<path fill="#FFFFFF" d="M344.222,107.097c0,6.859-1.332,12.933-3.994,18.222c-2.665,5.291-6.457,9.759-11.382,13.407
		c-4.926,3.649-10.873,6.421-17.84,8.317c-6.968,1.898-14.72,2.846-23.256,2.846h-37.429V6.848h40.931
		c31.884,0,47.826,11.601,47.826,34.802c0,7.735-1.844,14.375-5.527,19.918c-3.685,5.546-9.686,9.668-18.003,12.367
		c3.866,0.73,7.533,1.97,10.999,3.721c3.465,1.751,6.512,4.014,9.139,6.786c2.626,2.773,4.706,6.057,6.238,9.85
		C343.456,98.086,344.222,102.354,344.222,107.097z M318.831,44.277c0-2.917-0.438-5.672-1.313-8.263
		c-0.876-2.589-2.408-4.815-4.597-6.676c-2.189-1.86-5.145-3.338-8.865-4.432c-3.721-1.095-8.427-1.642-14.118-1.642h-20.137v44.761
		h19.48c4.449,0,8.481-0.474,12.093-1.423c3.612-0.947,6.712-2.408,9.303-4.377c2.589-1.97,4.597-4.432,6.02-7.387
		S318.831,48.364,318.831,44.277z M323.537,107.753c0-3.647-0.766-6.931-2.298-9.85c-1.532-2.917-3.759-5.379-6.676-7.387
		c-2.919-2.006-6.477-3.557-10.671-4.651c-4.196-1.094-8.92-1.642-14.173-1.642h-19.918v49.249h20.575
		c11.163,0,19.48-2.08,24.952-6.238C320.802,123.075,323.537,116.582,323.537,107.753z"/>
</g>
</svg>
