<svg width="10508px" height="6660.9px" enable-background="new 0 0 10508.244 6660.944" version="1.1" viewBox="0 0 10508 6660.9" xmlns="http://www.w3.org/2000/svg">
  <g fill="#692080">
    <path d="m6142.4 4138.6v-1932.4h-1932.4v869.88c31.718-8.443 50.884-40.386 82.949-57.347 37.142-19.685 92.309-18.669 138.69 22.284 46.378 40.955 61.903 199.35 1.238 264.99-60.689 65.642-149.66 24.934-177.09 2.501-19.166-15.698-27.931-27.584-45.783-34.169v864.28h867.48c-2.957-27.502-34.563-59.209-52.08-92.234-19.658-37.191-14.645-91.333 26.311-137.71 40.93-46.352 188.38-62.951 253.97-2.213 65.666 60.664 24.959 149.63 2.477 177.06-18.15 22.211-31.248 30.383-36.895 55.094h871.14z"/>
    <path d="m5314.5 2300.2s-56.951-41.277-54.227-88.868c2.203-38.527 15.252-44 35.209-69.132 19.959-25.107 56.529-106.47-1.758-161.99-58.336-55.514-199.13-41.302-235.5 1.139-36.422 42.415-37.686 92.878-20.229 126.85 17.48 33.997 52.791 52.123 52.791 90.625 0 38.578-9.881 50.265-38.48 101.25 47.296 1.113 262.2 0.123 262.2 0.123z"/>
    <path d="m6061.6 3312.5s40.979-56.925 88.273-54.201c38.279 2.203 43.703 15.253 68.662 35.21 24.934 19.933 105.75 56.108 160.92-2.228 55.119-58.313 41.029-199.06-1.113-235.48-42.168-36.374-92.309-37.265-126.06-19.81-33.748 17.482-51.75 52.816-90.031 52.816-38.256 0-49.867-9.88-100.5-38.503-1.164 47.293-0.148 262.19-0.148 262.19z"/>
  </g>
  <g fill="#fff">
    <path d="m5229 2747.4c0 16.045-3.268 30.035-9.781 42.069-6.535 12.033-15.674 22.062-27.336 30.034-11.713 7.974-25.752 13.966-42.143 17.928-16.441 3.962-34.541 5.942-54.326 5.942-8.889 0-17.852-0.347-26.691-1.04s-17.357-1.535-25.504-2.6c-8.172-1.016-15.873-2.229-23.102-3.59-7.207-1.387-13.744-2.848-19.563-4.383v-44.372c12.852 4.853 27.361 8.616 43.455 11.341 16.07 2.772 34.32 4.135 54.771 4.135 14.809 0 27.361-1.139 37.787-3.492 10.398-2.278 18.891-5.745 25.527-10.3 6.586-4.556 11.439-10.078 14.436-16.615 3.021-6.537 4.482-14.016 4.482-22.459 0-9.087-2.525-16.887-7.578-23.324-5.074-6.438-11.711-12.182-19.98-17.283-8.271-5.051-17.656-9.707-28.254-13.916-10.572-4.209-21.344-8.566-32.361-13.023-10.969-4.482-21.766-9.336-32.338-14.561-10.598-5.273-20.008-11.439-28.252-18.57-8.246-7.131-14.957-15.5-19.982-25.132-5.102-9.632-7.602-21.071-7.602-34.319 0-11.488 2.426-22.854 7.205-34.021 4.828-11.167 12.281-21.096 22.408-29.787 10.152-8.691 23.201-15.674 39.098-21.047 15.896-5.299 34.84-7.973 56.877-7.973 5.67 0 11.811 0.271 18.445 0.768 6.563 0.544 13.297 1.262 20.107 2.203 6.76 0.966 13.494 2.006 20.105 3.244 6.611 1.188 12.752 2.477 18.422 3.862v41.228c-13.223-3.764-26.469-6.637-39.717-8.617-13.246-1.98-26.049-2.946-38.404-2.946-26.295 0-45.658 4.357-58.039 13.123-12.355 8.766-18.57 20.576-18.57 35.334 0 9.112 2.525 16.936 7.625 23.473 5.076 6.537 11.713 12.355 19.982 17.53 8.246 5.151 17.654 9.854 28.229 14.064 10.598 4.185 21.367 8.542 32.361 12.999 11.02 4.507 21.791 9.409 32.363 14.709 10.598 5.322 19.982 11.637 28.227 18.941 8.271 7.305 14.932 15.848 20.008 25.652 5.078 9.832 7.603 21.42 7.603 34.791z"/>
    <path d="m5476.6 2606.8c0-21.641-7.082-38.231-21.246-49.77-14.186-11.514-34.021-17.259-59.449-17.259h-46.924v138.76h42.787c27.164 0 48.086-5.967 62.795-17.803 14.707-11.885 22.037-29.836 22.037-53.928zm47.74-2.031c0 13.718-2.602 27.386-7.775 40.881-5.127 13.47-13.148 25.553-23.969 36.176-10.822 10.696-24.662 19.312-41.525 25.949-16.813 6.636-36.967 9.93-60.316 9.93h-41.773v120.93h-45.906v-337.02h94.91c16.664 0 32.66 1.832 47.936 5.498 15.277 3.764 28.748 9.73 40.361 17.951 11.588 8.27 20.85 18.917 27.732 31.967 6.857 13.072 10.325 28.968 10.325 47.737z"/>
    <path d="m5765.9 2739.4c0-8.592-1.807-16.343-5.424-23.2-3.59-6.908-8.838-12.703-15.723-17.432-6.857-4.73-15.252-8.37-25.133-10.945-9.902-2.6-21.021-3.862-33.377-3.862h-46.947v116.03h48.482c26.297 0 45.881-4.901 58.783-14.708 12.901-9.805 19.339-25.108 19.339-45.882zm-11.094-149.58c0-6.858-1.014-13.371-3.094-19.438-2.055-6.141-5.672-11.365-10.82-15.772-5.15-4.358-12.133-7.849-20.898-10.425-8.766-2.574-19.834-3.887-33.254-3.887h-47.443v105.51h45.883c10.498 0 19.982-1.139 28.523-3.367 8.494-2.229 15.799-5.67 21.889-10.326 6.117-4.628 10.846-10.448 14.189-17.406 3.367-6.958 5.025-15.254 5.025-24.885zm59.848 148c0 16.194-3.145 30.48-9.434 42.961-6.264 12.456-15.203 22.979-26.791 31.57-11.613 8.617-25.627 15.154-42.068 19.61-16.418 4.482-34.666 6.71-54.771 6.71h-88.199v-337.02h96.42c75.148 0 112.71 27.312 112.71 81.984 0 18.224-4.334 33.896-13.023 46.946-8.691 13.049-22.805 22.781-42.439 29.118 9.135 1.734 17.777 4.656 25.949 8.766 8.17 4.136 15.326 9.459 21.541 15.996 6.166 6.537 11.094 14.263 14.684 23.201 3.588 8.963 5.42 19.041 5.42 30.159z"/>
    <path d="m5195.3 3153.5c0-23.87-2.252-44.099-6.734-60.566-4.506-16.54-11.268-29.861-20.379-39.988-9.086-10.153-20.525-17.506-34.268-22.063-13.793-4.531-29.938-6.834-48.482-6.834h-39.445v258.65h34.27c76.708 0 115.04-43.084 115.04-129.2zm48.185-3.343c0 16.17-1.238 31.596-3.738 46.402-2.502 14.782-6.488 28.574-11.984 41.252-5.498 12.752-12.654 24.29-21.42 34.69-8.738 10.4-19.51 19.313-32.213 26.693-12.727 7.402-27.51 13.097-44.371 17.134-16.838 4.035-36.027 6.091-57.471 6.091h-72.229v-337.05h86.912c52.592 0 91.838 13.543 117.71 40.607 25.852 27.089 38.801 68.489 38.801 124.18z"/>
    <path d="m5490.7 3155c0-19.759-1.512-37.859-4.508-54.275-2.996-16.441-7.85-30.58-14.584-42.416-6.66-11.859-15.326-21.071-25.875-27.607-10.598-6.563-23.35-9.807-38.307-9.807-14.459 0-26.865 3.493-37.264 10.425-10.4 6.983-18.943 16.442-25.678 28.401-6.66 11.935-11.662 25.924-14.93 42.02-3.295 16.094-4.904 33.13-4.904 51.156 0 19.981 1.535 38.156 4.654 54.598 3.072 16.393 7.924 30.506 14.561 42.291 6.611 11.762 15.154 20.924 25.652 27.412 10.475 6.536 23.127 9.829 37.908 9.829 14.461 0 26.891-3.491 37.391-10.45 10.447-6.957 19.115-16.391 25.9-28.4 6.809-11.885 11.834-25.875 15.104-41.871 3.245-15.996 4.88-33.106 4.88-51.306zm47.712-3.367c0 30.258-3.59 56.405-10.721 78.395-7.133 22.012-16.738 40.186-28.848 54.522-12.133 14.362-26.32 25.034-42.563 31.991-16.244 6.982-33.404 10.449-51.43 10.449-21.689 0-40.533-3.912-56.604-11.736-16.094-7.8-29.391-19.115-39.963-33.923-10.574-14.757-18.473-32.783-23.598-54.004-5.15-21.245-7.752-45.188-7.752-71.831 0-29.887 3.518-55.812 10.574-77.873 7.057-21.988 16.639-40.162 28.748-54.523 12.107-14.337 26.271-25.01 42.439-31.967 16.145-6.958 33.254-10.498 51.305-10.498 21.641 0 40.533 4.01 56.604 11.91 16.045 7.898 29.441 19.214 40.113 33.922 10.621 14.658 18.596 32.609 23.82 53.755 5.251 21.146 7.876 44.942 7.876 71.411z"/>
    <polygon points="5820.8 3024.5 5721 3024.5 5721 3322.4 5674.6 3322.4 5674.6 3024.5 5574.8 3024.5 5574.8 2985.3 5820.8 2985.3"/>
    <polygon points="5229.5 3808.4 5169.6 3808.4 5071.4 3598.2 5043.1 3530.7 5043.1 3808.4 5000.3 3808.4 5000.3 3471.4 5059.3 3471.4 5152.9 3670.4 5186.7 3747.6 5186.7 3471.4 5229.5 3471.4"/>
    <polygon points="5503.3 3808.4 5311.8 3808.4 5311.8 3471.4 5503.3 3471.4 5503.3 3510.1 5357.7 3510.1 5357.7 3614.5 5497.7 3614.5 5497.7 3653.2 5357.7 3653.2 5357.7 3769.2 5503.3 3769.2"/>
    <polygon points="5818.5 3510.5 5718.7 3510.5 5718.7 3808.4 5672.2 3808.4 5672.2 3510.5 5572.5 3510.5 5572.5 3471.4 5818.5 3471.4"/>
  </g>
  <g fill="#7F1A7F">
    <path d="m6157.5 4138.6h1932.4v-1932.4h-869.88c8.443 31.719 36.385 50.883 53.346 82.949 19.66 37.117 20.67 88.309-20.309 134.66-40.928 46.402-194.35 62.927-259.99 2.262-65.617-60.688-27.934-146.68-5.477-174.09 15.725-19.165 27.584-27.93 34.172-45.783h-864.26v867.45c37.539-4.012 57.174-40.459 92.236-59.055 37.115-19.686 92.332-18.645 138.68 22.286 46.354 40.954 61.904 199.35 1.24 264.99-60.689 65.668-149.66 24.936-177.09 2.478-22.209-18.174-30.406-31.273-55.068-36.919v871.16z"/>
    <path d="m8003.6 3310.9s40.066-56.95 86.291-54.228c37.441 2.204 42.764 15.277 67.152 35.211 24.365 19.932 103.45 56.133 157.38-2.18 53.906-58.336 40.088-199.15-1.115-235.5-41.227-36.424-90.252-37.315-123.28-19.833-32.982 17.48-50.588 52.814-88.002 52.814-37.412 0-48.775-9.879-98.301-38.504-1.113 47.319-0.123 262.22-0.123 262.22z"/>
    <path d="m6983.6 4057.8s56.926 40.089 54.201 86.367c-2.205 37.363-15.254 42.736-35.211 67.102-19.957 24.389-56.133 103.45 2.205 157.36 58.313 53.931 199.1 40.113 235.5-1.113 36.398-41.203 37.291-90.254 19.785-123.21-17.457-33.031-52.791-50.637-52.791-88.074 0-37.414 9.855-48.756 38.504-98.277-47.318-1.114-262.19-0.149-262.19-0.149z"/>
  </g>
  <g fill="#fff">
    <path d="m7157 3172.9c0-24.092-2.279-44.471-6.785-61.135-4.506-16.639-11.34-30.084-20.551-40.285-9.188-10.275-20.723-17.68-34.592-22.261-13.865-4.581-30.184-6.907-48.928-6.907h-39.791v260.96h34.592c77.354 0 116.06-43.456 116.06-130.37zm48.607-3.367c0 16.293-1.215 31.918-3.74 46.823-2.525 14.931-6.537 28.772-12.107 41.623-5.572 12.851-12.729 24.514-21.566 34.988-8.865 10.498-19.709 19.486-32.537 26.915-12.852 7.477-27.781 13.247-44.768 17.307-17.012 4.086-36.301 6.141-58.016 6.141h-72.822v-340.02h87.682c53.035 0 92.604 13.618 118.75 40.954 26.097 27.288 39.122 69.083 39.122 125.27z"/>
    <path d="m7455.1 3174.5c0-19.957-1.51-38.206-4.555-54.77-3.021-16.541-7.898-30.854-14.707-42.788-6.736-11.984-15.453-21.245-26.125-27.856-10.672-6.587-23.521-9.88-38.625-9.88-14.584 0-27.115 3.517-37.639 10.524-10.447 7.033-19.09 16.589-25.85 28.648-6.809 12.034-11.785 26.173-15.08 42.391-3.318 16.219-4.975 33.428-4.975 51.627 0 20.155 1.584 38.479 4.703 55.043 3.119 16.589 8.021 30.802 14.684 42.638 6.709 11.911 15.326 21.121 25.898 27.732 10.598 6.611 23.301 9.879 38.258 9.879 14.533 0 27.137-3.491 37.734-10.524 10.549-7.031 19.266-16.539 26.123-28.622 6.857-12.06 11.91-26.147 15.229-42.292 3.269-16.118 4.927-33.378 4.927-51.75zm48.135-3.367c0 30.505-3.613 56.9-10.82 79.062-7.18 22.211-16.887 40.559-29.094 55.043-12.23 14.486-26.543 25.208-42.936 32.264-16.391 7.008-33.699 10.524-51.922 10.524-21.84 0-40.881-3.961-57.1-11.836-16.244-7.899-29.639-19.288-40.336-34.219-10.648-14.906-18.596-33.057-23.795-54.499-5.201-21.418-7.775-45.561-7.775-72.45 0-30.184 3.541-56.381 10.648-78.592 7.131-22.186 16.762-40.509 28.994-55.019 12.232-14.485 26.494-25.206 42.787-32.239 16.316-7.031 33.551-10.548 51.75-10.548 21.889 0 40.93 4.011 57.123 11.96 16.244 7.998 29.689 19.387 40.484 34.194 10.723 14.856 18.744 32.933 24.068 54.276 5.277 21.319 7.924 45.338 7.924 72.079z"/>
    <polygon points="7788.1 3042.9 7687.4 3042.9 7687.4 3343.4 7640.6 3343.4 7640.6 3042.9 7539.9 3042.9 7539.9 3003.3 7788.1 3003.3"/>
    <polygon points="7193.9 3828.5 7133.5 3828.5 7034.4 3616.5 7005.8 3548.3 7005.8 3828.5 6962.6 3828.5 6962.6 3488.5 7022.2 3488.5 7116.6 3689.3 7150.7 3767.1 7150.7 3488.5 7193.9 3488.5"/>
    <polygon points="7470.2 3828.5 7276.9 3828.5 7276.9 3488.5 7470.2 3488.5 7470.2 3527.5 7323.2 3527.5 7323.2 3632.9 7464.5 3632.9 7464.5 3671.9 7323.2 3671.9 7323.2 3789 7470.2 3789"/>
    <polygon points="7788.1 3528 7687.4 3528 7687.4 3828.5 7640.6 3828.5 7640.6 3528 7539.9 3528 7539.9 3488.5 7788.1 3488.5"/>
    <path d="m7208.5 2859.9h-45.436l-6.809-212.84-2.873-81.735-15.922 47.515-50.412 135.81h-32.141l-48.035-130.59-15.947-52.74-1.039 85.4-5.992 209.18h-43.877l16.715-341.33h55.092l45.98 128.48 14.885 43.356 14.359-43.356 48.332-128.48h56.678l16.442 341.33z"/>
    <path d="m7481.7 2767.5c0 16.193-3.318 30.381-9.93 42.563-6.637 12.183-15.848 22.335-27.684 30.431-11.836 8.098-26.072 14.139-42.713 18.151-16.613 4.011-34.938 6.016-54.969 6.016-9.063 0-18.051-0.37-27.014-1.04-8.988-0.718-17.605-1.584-25.875-2.648-8.271-1.041-16.047-2.229-23.375-3.615-7.305-1.412-13.939-2.897-19.834-4.457v-44.917c13.049 4.853 27.732 8.69 44 11.488 16.293 2.773 34.768 4.185 55.514 4.185 14.957 0 27.711-1.188 38.258-3.541 10.523-2.353 19.139-5.818 25.824-10.448 6.713-4.582 11.59-10.227 14.635-16.863 3.068-6.586 4.58-14.162 4.58-22.705 0-9.211-2.551-17.11-7.701-23.622-5.15-6.538-11.883-12.357-20.254-17.531-8.344-5.126-17.877-9.805-28.574-14.064-10.721-4.26-21.639-8.666-32.783-13.223-11.168-4.482-22.088-9.433-32.783-14.732-10.723-5.324-20.254-11.589-28.6-18.818-8.369-7.23-15.104-15.699-20.23-25.455-5.148-9.756-7.699-21.318-7.699-34.739 0-11.662 2.428-23.151 7.305-34.468 4.852-11.315 12.453-21.393 22.705-30.158 10.301-8.791 23.473-15.871 39.592-21.295 16.096-5.397 35.285-8.097 57.57-8.097 5.744 0 11.984 0.248 18.67 0.792 6.709 0.497 13.494 1.238 20.379 2.229 6.883 0.941 13.668 2.031 20.377 3.244 6.711 1.238 12.926 2.525 18.67 3.938v41.771c-13.42-3.838-26.816-6.76-40.211-8.766-13.422-2.006-26.396-2.996-38.926-2.996-26.643 0-46.229 4.457-58.756 13.321-12.555 8.89-18.82 20.8-18.82 35.78 0 9.235 2.576 17.158 7.701 23.77s11.91 12.529 20.254 17.779c8.369 5.225 17.879 9.953 28.6 14.213 10.723 4.258 21.643 8.666 32.76 13.197 11.143 4.506 22.088 9.483 32.783 14.881 10.697 5.398 20.254 11.786 28.598 19.189 8.346 7.405 15.105 16.07 20.256 26 5.124 9.929 7.7 21.666 7.7 35.26z"/>
    <path d="m7788.8 2859.9h-58.486l-127.72-167.38v167.38h-46.502v-341.33h46.502v158.54l125.09-158.54h55.119l-134.78 162.16 140.77 179.17z"/>
  </g>
  <g fill="#4F1D70">
    <path d="m2262.8 2213.9h1932.4v1932.4h-861.71c8.443-31.742 32.189-50.883 49.174-82.973 19.661-37.143 18.646-92.308-22.284-138.66-40.955-46.402-199.38-61.926-265-1.262-65.653 60.688-24.934 149.68-2.476 177.09 15.687 19.166 27.571 27.906 34.157 45.807h-864.26v-867.5c37.537 4.038 57.148 40.535 92.234 59.081 37.129 19.685 92.334 18.67 138.67-22.31 46.377-40.93 61.927-199.35 1.25-264.97-60.677-65.641-149.67-24.935-177.09-2.501-22.211 18.199-30.382 31.322-55.068 36.919v-871.14z"/>
    <path d="m4114.3 3040s40.088 56.951 86.341 54.227c37.414-2.229 42.762-15.277 67.152-35.259 24.364-19.932 103.43-56.133 157.36 2.228 53.929 58.313 40.113 199.1-1.114 235.48-41.178 36.398-90.229 37.291-123.24 19.809-33.006-17.456-50.635-52.814-88.025-52.814-37.438 0-48.779 9.904-98.301 38.529-1.114-47.346-0.173-262.2-0.173-262.2z"/>
    <path d="m3366.5 2300.2s-56.963-40.039-54.239-86.317c2.204-37.439 15.253-42.737 35.198-67.127 19.957-24.389 56.133-103.43-2.167-157.38-58.337-53.904-199.12-40.088-235.5 1.089-36.423 41.251-37.277 90.279-19.82 123.26 17.48 33.031 52.803 50.636 52.803 88.05 0 37.438-9.88 48.804-38.491 98.301 47.292 1.114 262.22 0.124 262.22 0.124z"/>
  </g>
  <path d="m3361.5 4248.8s-56.963-40.038-54.239-86.316c2.204-37.439 15.253-42.737 35.198-67.127 19.957-24.389 56.133-103.43-2.167-157.38-58.337-53.904-199.12-40.088-235.5 1.09-36.422 41.251-37.277 90.278-19.82 123.26 17.481 33.031 52.803 50.637 52.803 88.05 0 37.438-9.88 48.804-38.491 98.302 47.292 1.112 262.22 0.122 262.22 0.122z" fill="#4F1D70"/>
  <g fill="#fff">
    <path d="m3259.1 3154.5c0-22.805-2.117-42.144-6.413-57.916-4.259-15.773-10.758-28.5-19.475-38.207-8.703-9.681-19.623-16.738-32.771-21.071-13.172-4.357-28.611-6.536-46.364-6.536h-37.698v247.24h32.795c73.267 0 109.93-41.153 109.93-123.51zm46.117-3.195c0 15.451-1.201 30.259-3.565 44.372-2.414 14.113-6.228 27.287-11.489 39.469-5.275 12.133-12.083 23.2-20.465 33.154-8.382 9.955-18.645 18.447-30.815 25.504s-26.296 12.555-42.415 16.392c-16.095 3.888-34.418 5.794-54.933 5.794h-69.07v-322.19h83.11c50.289 0 87.79 12.926 112.51 38.825 24.723 25.876 37.128 65.443 37.128 118.68z"/>
    <path d="m3541.6 3156c0-18.894-1.461-36.2-4.357-51.874-2.822-15.699-7.502-29.219-13.89-40.559-6.414-11.34-14.684-20.13-24.786-26.396-10.104-6.239-22.335-9.359-36.598-9.359-13.816 0-25.701 3.342-35.656 9.978-9.928 6.661-18.124 15.698-24.488 27.113-6.413 11.439-11.192 24.835-14.336 40.187-3.12 15.402-4.655 31.694-4.655 48.953 0 19.066 1.485 36.447 4.457 52.146 2.972 15.674 7.577 29.144 13.915 40.411 6.29 11.265 14.46 20.031 24.514 26.246 10.029 6.24 22.111 9.359 36.25 9.359 13.816 0 25.702-3.317 35.73-9.953 10.029-6.661 18.299-15.698 24.785-27.113 6.488-11.439 11.292-24.786 14.412-40.063 3.119-15.278 4.703-31.644 4.703-49.076zm45.586-3.169c0 28.871-3.393 53.904-10.227 74.9-6.834 21.048-15.996 38.456-27.608 52.172-11.612 13.693-25.132 23.92-40.683 30.557-15.549 6.684-31.941 9.978-49.175 9.978-20.724 0-38.751-3.714-54.128-11.217-15.352-7.453-28.078-18.273-38.182-32.412-10.102-14.139-17.654-31.347-22.557-51.651-4.928-20.279-7.428-43.183-7.428-68.662 0-28.599 3.379-53.409 10.127-74.432 6.734-21.047 15.896-38.429 27.484-52.146 11.588-13.693 25.107-23.895 40.608-30.555 15.401-6.686 31.743-9.979 48.978-9.979 20.725 0 38.775 3.764 54.127 11.315 15.401 7.577 28.152 18.372 38.354 32.412 10.177 14.063 17.778 31.199 22.754 51.403 5.055 20.206 7.556 43.011 7.556 68.317z"/>
    <polygon points="3857.1 3031.3 3761.7 3031.3 3761.7 3316 3717.3 3316 3717.3 3031.3 3621.9 3031.3 3621.9 2993.8 3857.1 2993.8"/>
    <polygon points="3294.1 3782.9 3236.9 3782.9 3142.9 3582 3115.8 3517.4 3115.8 3782.9 3074.9 3782.9 3074.9 3460.7 3131.3 3460.7 3220.9 3651 3253.1 3724.7 3253.1 3460.7 3294.1 3460.7"/>
    <polygon points="3555.9 3782.9 3372.7 3782.9 3372.7 3460.7 3555.9 3460.7 3555.9 3497.7 3416.6 3497.7 3416.6 3597.6 3550.5 3597.6 3550.5 3634.5 3416.6 3634.5 3416.6 3745.4 3555.9 3745.4"/>
    <polygon points="3857.1 3498.2 3761.7 3498.2 3761.7 3782.9 3717.3 3782.9 3717.3 3498.2 3621.9 3498.2 3621.9 3460.7 3857.1 3460.7"/>
    <path d="m3283.6 2768.1c0 15.327-3.133 28.772-9.409 40.312-6.289 11.538-15.03 21.17-26.247 28.846s-24.698 13.396-40.447 17.185c-15.747 3.788-33.129 5.695-52.109 5.695-8.555 0-17.097-0.322-25.615-0.991-8.492-0.668-16.664-1.51-24.5-2.476-7.837-0.966-15.216-2.129-22.136-3.467-6.934-1.312-13.198-2.724-18.807-4.21v-42.563c12.381 4.63 26.271 8.245 41.698 10.896 15.413 2.624 32.944 3.937 52.593 3.937 14.188 0 26.271-1.089 36.262-3.317 9.967-2.204 18.138-5.521 24.501-9.881 6.326-4.383 10.97-9.706 13.854-15.995 2.871-6.265 4.332-13.444 4.332-21.517 0-8.741-2.451-16.218-7.316-22.409-4.854-6.165-11.254-11.712-19.165-16.565-7.923-4.853-16.961-9.311-27.113-13.346-10.151-4.061-20.502-8.221-31.063-12.529-10.561-4.283-20.91-8.939-31.038-13.99-10.151-5.002-19.189-10.969-27.113-17.803-7.923-6.859-14.312-14.881-19.165-24.117-4.879-9.261-7.317-20.23-7.317-32.932 0-11.044 2.315-21.938 6.933-32.66 4.631-10.722 11.799-20.254 21.518-28.6 9.743-8.318 22.235-15.054 37.514-20.154 15.265-5.102 33.451-7.677 54.572-7.677 5.423 0 11.328 0.248 17.691 0.743 6.352 0.52 12.777 1.188 19.301 2.105 6.514 0.891 12.938 1.955 19.302 3.094 6.352 1.165 12.257 2.402 17.693 3.715v39.594c-12.704-3.616-25.418-6.389-38.108-8.296-12.715-1.882-25.009-2.822-36.881-2.822-25.244 0-43.802 4.185-55.676 12.603-11.873 8.419-17.828 19.734-17.828 33.898 0 8.765 2.428 16.268 7.317 22.532 4.853 6.265 11.254 11.86 19.165 16.814 7.924 4.951 16.961 9.458 27.113 13.494 10.151 4.035 20.477 8.195 31.063 12.504 10.535 4.283 20.886 9.014 31.037 14.089 10.152 5.126 19.19 11.192 27.113 18.224 7.899 6.982 14.313 15.204 19.166 24.613 4.875 9.381 7.315 20.525 7.315 33.424z"/>
    <path d="m3591.7 2855.7h-48.012l-22.507-70.544h-134.62l-22.78 70.544h-45.783l107.41-323.48h60.366l105.93 323.48zm-83.147-109.91-54.698-172.98-54.672 172.98h109.37z"/>
    <path d="m3854.2 2855.7h-49.744l-48.235-103.48c-3.639-7.923-7.378-14.484-11.142-19.659-3.813-5.226-7.899-9.335-12.257-12.405-4.382-3.021-9.186-5.2-14.386-6.537-5.15-1.313-10.993-1.981-17.432-1.981h-20.774v144.06h-44.05v-323.48h86.614c18.819 0 34.963 2.055 48.481 6.19 13.545 4.134 24.662 9.904 33.305 17.308 8.666 7.453 15.004 16.391 19.041 26.865 4.061 10.475 6.066 22.063 6.066 34.764 0 10.078-1.461 19.586-4.432 28.6-2.997 8.988-7.404 17.159-13.248 24.488-5.868 7.354-13.099 13.693-21.789 19.066-8.643 5.373-18.596 9.359-29.813 12.01 9.063 3.119 16.787 8.615 23.151 16.441 6.339 7.848 12.825 18.297 19.412 31.297l51.232 106.45zm-70.544-234.64c0-17.309-5.397-30.283-16.193-38.875-10.821-8.543-26.05-12.852-45.661-12.852h-41.573v106.92h35.631c10.399 0 19.759-1.188 28.078-3.59 8.345-2.377 15.427-5.942 21.294-10.622 5.844-4.729 10.4-10.499 13.619-17.357 3.195-6.834 4.805-14.708 4.805-23.622z"/>
  </g>
  <path d="m6372.6 5004.8c-53.902-58.311-132.96-22.16-157.36-2.203-24.363 19.957-29.713 33.031-67.127 35.209v-881.91h-881.46c-0.829-5.95-1.213-12.429-1.213-19.934 0-38.328 35.359-56.305 52.84-90.055 17.455-33.848 16.59-83.989-19.785-126.16-36.447-42.168-177.19-56.305-235.52-1.113-58.313 55.143-22.162 136.08-2.203 161.02 19.98 24.934 33.006 30.404 35.209 68.686 0.146 2.538 0.111 5.057-0.068 7.553h-880.18v865.16c24.662-5.693 32.858-17.768 55.069-35.943 27.412-22.457 116.45-42.712 173.09 26.477 47.269 57.743 40.139 200.04-6.263 241.02-46.377 40.93-90.044 45.225-129.69 31.26-34.962-12.307-54.722-46.518-92.21-50.527v854.92h478.83v1.037h894.89v-1.037h558.68v-880.55c3.754-0.283 7.748-0.424 12.107-0.424 37.439 0 55.045 35.334 88.025 52.814 33.008 17.457 82.059 16.59 123.26-19.809 41.203-36.399 55.044-177.17 1.089-235.5z" fill="#7F1A7F"/>
  <g fill="#fff">
    <path d="m5215.6 5110.4c0-23.301-2.129-43.01-6.512-59.08-4.383-16.094-10.969-29.094-19.859-38.973-8.912-9.93-20.031-17.086-33.451-21.518-13.396-4.432-29.193-6.686-47.293-6.686h-38.479v252.24h33.477c74.754 1e-3 112.12-41.969 112.12-125.98zm47.045-3.269c0 15.75-1.188 30.854-3.639 45.289-2.426 14.413-6.338 27.831-11.688 40.236-5.373 12.381-12.33 23.646-20.85 33.773-8.592 10.178-19.064 18.844-31.471 26.074-12.404 7.206-26.816 12.801-43.256 16.713-16.418 3.938-35.088 5.893-56.084 5.893h-70.396v-328.68h84.758c51.305 0 89.535 13.223 114.79 39.617 25.233 26.42 37.835 66.756 37.835 121.08z"/>
    <path d="m5503.9 5111.9c0-19.264-1.461-36.918-4.408-52.914-2.896-15.994-7.65-29.811-14.213-41.375-6.512-11.588-14.955-20.527-25.256-26.916-10.326-6.387-22.781-9.557-37.34-9.557-14.064 0-26.197 3.416-36.35 10.176-10.152 6.785-18.496 15.996-25.033 27.684-6.537 11.639-11.391 25.305-14.559 40.98-3.219 15.674-4.805 32.313-4.805 49.918 0 19.436 1.535 37.189 4.557 53.186 2.996 16.021 7.727 29.762 14.188 41.227 6.463 11.515 14.783 20.428 25.033 26.791 10.227 6.414 22.533 9.559 36.969 9.559 14.09 0 26.223-3.367 36.449-10.201 10.25-6.759 18.645-15.971 25.279-27.658 6.637-11.613 11.539-25.256 14.709-40.83 3.194-15.601 4.78-32.265 4.78-50.07zm46.548-3.268c0 29.516-3.49 54.994-10.449 76.438-6.98 21.492-16.34 39.195-28.178 53.212-11.811 13.989-25.627 24.388-41.498 31.198-15.848 6.761-32.561 10.177-50.166 10.177-21.121 0-39.518-3.813-55.191-11.44-15.699-7.627-28.674-18.67-39-33.08-10.301-14.41-17.951-31.967-22.979-52.717-5.051-20.676-7.576-44.025-7.576-69.998 0-29.195 3.441-54.474 10.326-75.941 6.857-21.469 16.219-39.223 28.029-53.213s25.602-24.389 41.375-31.174c15.748-6.785 32.461-10.201 50.043-10.201 21.119 0 39.518 3.861 55.217 11.588 15.648 7.699 28.672 18.72 39.096 33.057 10.4 14.361 18.15 31.816 23.252 52.467 5.1 20.6 7.699 43.826 7.699 69.627z"/>
    <polygon points="5825.8 4984.6 5728.5 4984.6 5728.5 5275.1 5683.2 5275.1 5683.2 4984.6 5585.8 4984.6 5585.8 4946.4 5825.8 4946.4"/>
    <polygon points="5253.7 5751.4 5195.3 5751.4 5099.5 5546.4 5071.9 5480.6 5071.9 5751.4 5030.1 5751.4 5030.1 5422.7 5087.7 5422.7 5179 5616.9 5211.9 5692.1 5211.9 5422.7 5253.7 5422.7"/>
    <polygon points="5520.8 5751.4 5333.9 5751.4 5333.9 5422.7 5520.8 5422.7 5520.8 5460.4 5378.7 5460.4 5378.7 5562.3 5515.2 5562.3 5515.2 5600 5378.7 5600 5378.7 5713.2 5520.8 5713.2"/>
    <polygon points="5828.1 5461 5730.8 5461 5730.8 5751.4 5685.5 5751.4 5685.5 5461 5588.2 5461 5588.2 5422.7 5828.1 5422.7"/>
    <path d="m5251 4807.9h-56.555l-123.46-161.84v161.84h-44.916v-329.99h44.916v153.25l120.93-153.25h53.287l-130.29 156.76 136.09 173.23z"/>
    <path d="m5536.3 4807.9h-50.734l-49.227-105.56c-3.738-8.072-7.502-14.757-11.365-20.082-3.912-5.273-8.047-9.482-12.504-12.604-4.482-3.094-9.336-5.321-14.658-6.684-5.299-1.363-11.217-2.031-17.803-2.031h-21.195v146.96h-44.916v-329.99h88.322c19.213 0 35.705 2.129 49.496 6.314 13.816 4.209 25.133 10.127 33.947 17.678 8.84 7.555 15.328 16.689 19.438 27.387 4.111 10.697 6.215 22.508 6.215 35.482 0 10.275-1.535 20.006-4.557 29.145-3.045 9.186-7.527 17.506-13.52 25.008-5.941 7.477-13.344 13.965-22.209 19.438-8.84 5.473-18.992 9.533-30.432 12.232 9.262 3.193 17.135 8.789 23.621 16.787 6.488 7.999 13.074 18.67 19.809 31.941l52.272 108.58zm-71.955-239.34c0-17.68-5.521-30.877-16.516-39.643-11.043-8.766-26.57-13.148-46.6-13.148h-42.416v109.07h36.373c10.572 0 20.131-1.189 28.648-3.664 8.494-2.451 15.723-6.041 21.717-10.846 5.941-4.805 10.572-10.672 13.865-17.656 3.295-7.004 4.929-15.029 4.929-24.115z"/>
    <path d="m5839.5 4477.9-119.42 212.08v117.91h-45.436v-118.93l-119.42-211.06h54.278l65.641 120.69 24.242 48.48 22.234-43.949 66.385-125.22h51.502z"/>
  </g>
  <g fill="#692080">
    <path d="m4210.1 259.81h1932.4v1932.4h-861.71c8.443-31.742 32.189-50.883 49.175-82.973 19.661-37.143 18.646-92.308-22.284-138.66-40.954-46.402-199.38-61.926-265-1.262-65.654 60.688-24.934 149.68-2.477 177.09 15.688 19.166 27.572 27.906 34.158 45.807h-864.26v-867.5c37.537 4.038 57.148 40.535 92.234 59.081 37.129 19.685 92.334 18.67 138.67-22.31 46.377-40.93 61.926-199.35 1.25-264.97-60.678-65.642-149.67-24.935-177.09-2.501-22.211 18.199-30.383 31.322-55.068 36.919v-871.14z"/>
    <path d="m6061.7 1085.9s40.088 56.951 86.342 54.227c37.414-2.229 42.762-15.277 67.152-35.259 24.365-19.932 103.43-56.133 157.36 2.228 53.93 58.313 40.113 199.1-1.113 235.48-41.178 36.398-90.229 37.291-123.24 19.809-33.006-17.456-50.635-52.814-88.025-52.814-37.438 0-48.779 9.904-98.301 38.529-1.115-47.345-0.174-262.2-0.174-262.2z"/>
  </g>
  <g fill="#fff">
    <path d="m5174.7 1193.4c0-24.266-2.229-44.718-6.785-61.481-4.531-16.763-11.414-30.258-20.65-40.559-9.285-10.3-20.85-17.753-34.789-22.383-13.99-4.606-30.383-6.909-49.201-6.909h-40.037v262.42h34.789c77.798 0 116.67-43.703 116.67-131.08zm48.951-3.417c0 16.417-1.287 32.091-3.813 47.121-2.5 14.98-6.563 28.92-12.133 41.846-5.596 12.925-12.801 24.638-21.74 35.161-8.865 10.573-19.76 19.611-32.709 27.113-12.9 7.478-27.881 13.297-44.967 17.407-17.109 4.086-36.572 6.116-58.361 6.116h-73.242v-341.95h88.148c53.385 0 93.176 13.742 119.45 41.227 26.247 27.459 39.37 69.429 39.37 125.96z"/>
    <path d="m5474.6 1194.9c0-20.032-1.533-38.429-4.58-55.044-3.045-16.688-7.998-31.025-14.807-43.059-6.76-12.034-15.525-21.369-26.297-28.005-10.721-6.636-23.646-9.954-38.824-9.954-14.658 0-27.238 3.541-37.811 10.598-10.549 7.057-19.24 16.689-26.049 28.822-6.783 12.108-11.836 26.296-15.129 42.614-3.342 16.317-4.977 33.625-4.977 51.923 0 20.254 1.561 38.677 4.705 55.366 3.145 16.615 8.047 30.927 14.781 42.886 6.711 11.96 15.377 21.245 26 27.881 10.672 6.611 23.498 9.93 38.479 9.93 14.658 0 27.285-3.541 37.934-10.573 10.648-7.082 19.412-16.664 26.295-28.797 6.885-12.133 12.01-26.321 15.303-42.54 3.319-16.219 4.977-33.577 4.977-52.048zm48.408-3.393c0 30.679-3.615 57.198-10.895 79.532-7.205 22.31-16.986 40.757-29.291 55.316-12.307 14.584-26.645 25.404-43.135 32.461s-33.873 10.573-52.195 10.573c-21.988 0-41.129-3.937-57.445-11.86-16.293-7.948-29.838-19.438-40.559-34.442-10.697-14.98-18.695-33.229-23.92-54.796-5.25-21.567-7.875-45.808-7.875-72.847 0-30.382 3.592-56.678 10.723-79.037 7.182-22.334 16.912-40.781 29.219-55.316 12.256-14.584 26.594-25.38 43.01-32.462 16.391-7.032 33.725-10.597 52.07-10.597 21.965 0 41.105 4.011 57.422 12.034 16.318 8.022 29.861 19.487 40.682 34.418 10.82 14.906 18.893 33.081 24.217 54.573 5.298 21.418 7.972 45.585 7.972 72.45z"/>
    <polygon points="5809.5 1062.6 5708.2 1062.6 5708.2 1364.7 5661.2 1364.7 5661.2 1062.6 5559.9 1062.6 5559.9 1022.8 5809.5 1022.8"/>
    <polygon points="5214.3 1860.3 5153.6 1860.3 5053.9 1647.1 5025.2 1578.5 5025.2 1860.3 4981.7 1860.3 4981.7 1518.4 5041.6 1518.4 5136.6 1720.3 5170.9 1798.5 5170.9 1518.4 5214.3 1518.4"/>
    <polygon points="5492.2 1860.3 5297.8 1860.3 5297.8 1518.4 5492.2 1518.4 5492.2 1557.6 5344.4 1557.6 5344.4 1663.5 5486.4 1663.5 5486.4 1702.8 5344.4 1702.8 5344.4 1820.5 5492.2 1820.5"/>
    <polygon points="5811.9 1558.1 5710.6 1558.1 5710.6 1860.3 5663.5 1860.3 5663.5 1558.1 5562.3 1558.1 5562.3 1518.4 5811.9 1518.4"/>
    <path d="m5210.9 878.62h-60.936l-100.06-214.06-28.92-68.786v282.85h-43.604v-343.29h60.168l95.33 202.77 34.418 78.542v-281.31h43.604v343.28z"/>
    <path d="m5503.7 785.65c0 16.293-3.318 30.58-9.98 42.836-6.66 12.232-15.945 22.433-27.855 30.58-11.885 8.146-26.197 14.238-42.936 18.249-16.738 4.036-35.16 6.017-55.291 6.017-9.088 0-18.174-0.321-27.164-1.04-9.037-0.668-17.703-1.56-26.021-2.6-8.297-1.064-16.145-2.303-23.498-3.689-7.355-1.411-14.016-2.872-19.959-4.457v-45.188c13.123 4.903 27.881 8.765 44.248 11.563s34.988 4.185 55.811 4.185c15.057 0 27.881-1.188 38.504-3.541 10.574-2.353 19.264-5.868 25.975-10.499 6.734-4.63 11.637-10.276 14.707-16.937 3.07-6.636 4.607-14.262 4.607-22.83 0-9.285-2.602-17.233-7.727-23.795-5.176-6.563-11.984-12.405-20.379-17.581-8.395-5.175-18-9.904-28.771-14.188-10.771-4.309-21.74-8.716-32.957-13.272s-22.186-9.483-32.957-14.832c-10.77-5.348-20.379-11.637-28.771-18.917-8.395-7.255-15.18-15.797-20.354-25.603-5.176-9.806-7.727-21.468-7.727-34.963 0-11.711 2.451-23.25 7.355-34.64 4.877-11.39 12.504-21.493 22.83-30.333 10.35-8.864 23.596-15.995 39.814-21.393 16.17-5.448 35.482-8.171 57.891-8.171 5.77 0 12.033 0.272 18.795 0.817 6.734 0.495 13.543 1.263 20.477 2.229 6.934 0.94 13.742 2.03 20.502 3.268 6.734 1.213 12.998 2.526 18.77 3.937v42.02c-13.496-3.838-26.965-6.784-40.461-8.79-13.469-2.03-26.518-3.021-39.121-3.021-26.791 0-46.502 4.457-59.105 13.396-12.602 8.914-18.916 20.947-18.916 35.978 0 9.31 2.6 17.258 7.775 23.895 5.148 6.66 11.934 12.603 20.328 17.877 8.418 5.249 18 10.004 28.771 14.312 10.771 4.284 21.74 8.716 32.957 13.248 11.217 4.556 22.211 9.558 32.982 15.005 10.746 5.398 20.328 11.836 28.746 19.289 8.395 7.453 15.178 16.144 20.33 26.123 5.199 9.977 7.775 21.787 7.775 35.456z"/>
    <path d="m5812.6 878.62h-58.807l-128.46-168.35v168.35h-46.749v-343.29h46.749v159.44l125.84-159.44h55.391l-135.52 163.12 141.56 180.16z"/>
  </g>
  <path d="m10262 1112.2c-41.178-36.398-90.229-37.291-123.24-19.809-33.006 17.456-50.635 52.814-88.025 52.814-6.568 0-12.32-0.313-17.629-0.97v-881.71h-588.71v-0.714h-825.08v0.714h-518.6v867.5c37.537-4.038 57.148-40.535 92.234-59.081 37.129-19.685 88.334-13.67 134.67 27.31 46.377 40.93 65.926 184.35 5.25 249.97-60.689 65.631-149.67 34.935-177.09 12.501-22.211-18.199-30.383-31.322-55.068-36.919v871.14h879.57c0.283 3.761 0.424 7.764 0.424 12.133 0 37.414-35.322 55.02-52.803 88.051-17.457 32.98-16.604 82.008 19.82 123.26 36.387 41.178 177.16 54.994 235.5 1.09 58.299-53.955 22.123-132.99 2.166-157.38-19.945-24.391-32.994-29.688-35.197-67.127 0-8e-3 0-0.017-2e-3 -0.025h882.92v-880.34c1.82-0.073 3.652-0.069 5.496 0.039 37.414 2.229 42.762 15.277 67.152 35.259 24.365 19.932 103.43 56.133 157.36-2.228 53.931-58.314 40.115-199.1-1.112-235.48z" fill="#692080"/>
  <path d="m8315.3 1108.5c-41.178-36.398-90.229-37.291-123.24-19.809-33.006 17.456-50.635 52.814-88.025 52.814-6.566 0-12.32-0.313-17.629-0.97v-881.71h-861.71l2e-3 1e-3h-206.43v-2e-3h-864.26v867.5c37.537-4.038 57.148-37.535 92.234-56.081 37.131-19.685 94.334-15.67 140.67 25.31 46.377 40.93 59.926 187.35-0.75 252.97-60.678 65.642-150.67 30.935-178.09 8.501-22.211-18.199-29.383-31.322-54.068-36.919v871.14h879.57c0.283 3.761 0.424 7.764 0.424 12.133 0 37.414-35.322 55.019-52.803 88.05-17.457 32.981-16.604 82.009 19.82 123.26 36.387 41.177 177.16 54.994 235.5 1.089 58.299-53.954 22.123-132.99 2.166-157.38-19.945-24.39-32.994-29.688-35.197-67.127v-0.025h882.91v-880.34c1.822-0.074 3.654-0.07 5.496 0.039 37.414 2.229 42.762 15.277 67.152 35.259 24.365 19.932 103.43 56.133 157.36-2.228 53.931-58.312 40.115-199.1-1.112-235.48z" fill="#4F1D70"/>
  <g fill="#fff">
    <path d="m9102.8 1190.2c0 15.996-1.234 31.301-3.703 45.929-2.465 14.633-6.424 28.237-11.863 40.827-5.449 12.589-12.502 24.027-21.18 34.317-8.67 10.294-19.309 19.099-31.893 26.408-12.59 7.319-27.219 12.974-43.885 16.969-16.676 4-35.643 5.998-56.9 5.998h-71.445v-333.49h85.986c52.055 0 90.875 13.396 116.48 40.189 25.6 26.792 38.401 67.744 38.401 122.86zm-47.717 3.319c0-23.643-2.213-43.633-6.633-59.962-4.424-16.329-11.145-29.51-20.16-39.551-9.014-10.034-20.328-17.305-33.932-21.814-13.613-4.505-29.6-6.761-47.973-6.761h-39.039v255.92h33.938c75.867-1e-3 113.8-42.615 113.8-127.83z"/>
    <path d="m9394.7 1191.8c0 29.943-3.529 55.798-10.588 77.567-7.063 21.778-16.588 39.766-28.58 53.964-11.99 14.208-26.023 24.754-42.096 31.643-16.078 6.889-33.047 10.331-50.906 10.331-21.432 0-40.1-3.867-56.008-11.606s-29.084-18.925-39.547-33.554c-10.465-14.628-18.244-32.447-23.352-53.457-5.102-21.005-7.652-44.689-7.652-71.06 0-29.597 3.484-55.281 10.459-77.057 6.977-21.773 16.457-39.761 28.453-53.967 11.994-14.201 25.982-24.749 41.973-31.64 15.986-6.889 32.914-10.333 50.779-10.333 21.43 0 40.096 3.916 56.004 11.737 15.902 7.826 29.127 19.01 39.678 33.554 10.543 14.543 18.41 32.278 23.602 53.201 5.189 20.923 7.781 44.486 7.781 70.677zm-47.203 3.319c0-19.561-1.49-37.464-4.467-53.71-2.977-16.242-7.779-30.237-14.414-41.972-6.633-11.739-15.18-20.836-25.645-27.305-10.459-6.461-23.09-9.696-37.891-9.696-14.291 0-26.578 3.444-36.869 10.333-10.295 6.891-18.756 16.247-25.389 28.07s-11.57 25.684-14.797 41.59c-3.236 15.904-4.85 32.786-4.85 50.646 0 19.735 1.531 37.724 4.594 53.965 3.059 16.247 7.861 30.198 14.412 41.846 6.551 11.652 15.014 20.712 25.391 27.172 10.377 6.468 22.875 9.7 37.508 9.7 14.289 0 26.623-3.447 37-10.336 10.371-6.889 18.92-16.242 25.645-28.068 6.715-11.821 11.689-25.641 14.926-41.462 3.227-15.82 4.846-32.742 4.846-50.773z"/>
    <path d="m9674.1 1066h-98.744v294.71h-45.928v-294.71h-98.746v-38.786h243.42v38.786z"/>
    <path d="m9091.3 1841.6h-59.193l-97.215-207.95-28.072-66.851v274.8h-42.354v-333.49h58.432l92.619 196.98 33.426 76.291v-273.27h42.357v333.49z"/>
    <path d="m9362.3 1841.6h-189.58v-333.49h189.58v38.271h-144.16v103.34h138.55v38.271h-138.55v114.82h144.16v38.782z"/>
    <path d="m9674.1 1546.9h-98.744v294.71h-45.928v-294.71h-98.746v-38.779h243.42v38.779z"/>
    <path d="m9086.5 768.82c0 18.267-2.537 34.801-7.605 49.6-5.08 14.802-12.521 27.401-22.332 37.803-9.814 10.402-21.828 18.436-36.045 24.103-14.221 5.666-30.561 8.5-49.021 8.5-20.293 0-37.506-2.708-51.639-8.119-14.139-5.412-25.658-13.067-34.551-22.961-8.9-9.895-15.387-21.775-19.459-35.646-4.078-13.867-6.111-29.343-6.111-46.428v-223.01h44.402v219.46c0 13.026 1.205 24.443 3.619 34.251 2.408 9.811 6.361 18.013 11.848 24.609 5.49 6.597 12.6 11.587 21.33 14.969 8.732 3.385 19.414 5.074 32.057 5.074 23.613 0 41.039-6.934 52.262-20.804 11.229-13.867 16.84-33.403 16.84-58.607v-218.95h44.406v216.16z"/>
    <path d="m9348.4 591.22h-138.45v107.57h131.22v37.802h-131.22v147.66h-45.402v-331.6h183.86v38.563z"/>
    <path d="m9672.7 884.26h-48.396l-22.699-72.308h-135.71l-22.951 72.308h-46.154l108.27-331.6h60.869l106.77 331.6zm-83.82-112.65-55.131-177.34-55.135 177.34h110.27z"/>
  </g>
  <g fill="#fff">
    <path d="m7142.7 1197.8c0-23.473-2.229-43.332-6.586-59.525-4.432-16.243-11.068-29.316-20.057-39.32-8.914-9.954-20.18-17.184-33.699-21.666-13.494-4.457-29.389-6.71-47.639-6.71h-38.801v254.22h33.723c75.373-1e-3 113.06-42.317 113.06-127zm47.369-3.293c0 15.896-1.213 31.125-3.666 45.659-2.451 14.51-6.363 28.055-11.785 40.534-5.398 12.504-12.406 23.845-21.047 34.095-8.592 10.227-19.166 18.967-31.67 26.222-12.479 7.279-27.014 12.9-43.578 16.862-16.59 3.962-35.434 5.967-56.555 5.967h-70.965v-331.28h85.426c51.699 0 90.254 13.297 115.71 39.915 25.43 26.617 38.133 67.299 38.133 122.02z"/>
    <path d="m7433.2 1199.3c0-19.412-1.486-37.216-4.455-53.359-2.949-16.145-7.729-30.035-14.34-41.698-6.561-11.637-15.029-20.675-25.43-27.113-10.396-6.413-22.953-9.632-37.637-9.632-14.236 0-26.42 3.417-36.646 10.25-10.25 6.859-18.645 16.169-25.23 27.906-6.586 11.737-11.49 25.504-14.658 41.326-3.244 15.772-4.854 32.561-4.854 50.314 0 19.561 1.535 37.463 4.58 53.583 3.049 16.144 7.801 29.985 14.287 41.574 6.537 11.588 14.932 20.551 25.232 27.014 10.324 6.388 22.73 9.632 37.289 9.632 14.188 0 26.42-3.417 36.746-10.276 10.299-6.858 18.793-16.144 25.479-27.881 6.686-11.736 11.613-25.479 14.809-41.202 3.217-15.698 4.828-32.511 4.828-50.438zm46.897-3.268c0 29.713-3.541 55.415-10.549 77.032-7.006 21.641-16.439 39.518-28.4 53.607-11.885 14.089-25.826 24.588-41.771 31.447-15.971 6.858-32.832 10.251-50.586 10.251-21.293 0-39.842-3.863-55.639-11.539s-28.896-18.793-39.295-33.329c-10.4-14.534-18.15-32.214-23.178-53.087-5.098-20.898-7.6-44.421-7.6-70.593 0-29.416 3.465-54.92 10.375-76.561 6.906-21.617 16.34-39.47 28.252-53.608 11.934-14.089 25.799-24.588 41.721-31.421 15.871-6.834 32.684-10.301 50.414-10.301 21.295 0 39.84 3.912 55.662 11.688 15.773 7.75 28.896 18.892 39.42 33.328 10.449 14.46 18.273 32.09 23.449 52.865 5.125 20.773 7.725 44.197 7.725 70.221z"/>
    <polygon points="7757.6 1071 7659.5 1071 7659.5 1363.8 7613.9 1363.8 7613.9 1071 7515.8 1071 7515.8 1032.5 7757.6 1032.5"/>
    <polygon points="7181 1843.9 7122.2 1843.9 7025.6 1637.3 6997.7 1570.9 6997.7 1843.9 6955.7 1843.9 6955.7 1512.6 7013.7 1512.6 7105.8 1708.3 7138.9 1784.1 7138.9 1512.6 7181 1512.6"/>
    <polygon points="7450.2 1843.9 7261.9 1843.9 7261.9 1512.6 7450.2 1512.6 7450.2 1550.6 7307 1550.6 7307 1653.3 7444.6 1653.3 7444.6 1691.3 7307 1691.3 7307 1805.4 7450.2 1805.4"/>
    <polygon points="7759.9 1551.1 7661.9 1551.1 7661.9 1843.9 7616.2 1843.9 7616.2 1551.1 7518.1 1551.1 7518.1 1512.6 7759.9 1512.6"/>
    <path d="m7178.3 892.86h-57l-124.4-163.12v163.12h-45.313v-332.59h45.313v154.46l121.87-154.46h53.684l-131.28 158.02 137.13 174.56z"/>
    <path d="m7453.1 595.9-169.71 254.72h173.03v42.242h-229.78v-33.873l170.75-257.49h-166.14v-41.227h221.86v35.631z"/>
    <path d="m7741.4 892.86h-59.029l-96.963-207.4-27.98-66.657v274.05h-42.242v-332.59h58.289l92.355 196.45 33.33 76.066v-272.52h42.24v332.59z"/>
  </g>
  <path d="m4425.2 5009.8c-53.93-58.361-132.99-22.16-157.36-2.229-24.391 19.982-29.739 33.031-67.153 35.26-1.843 0.108-3.675 0.112-5.497 0.039v-880.34h-1932.4v862.14c24.687-5.597 32.857-12.72 55.068-30.919 27.422-22.434 113.57-57.024 174.25 8.617 60.677 65.616 44.377 210.07-2 251-46.34 40.98-99.871 48.686-137 29-35.086-18.545-52.778-50.883-90.315-54.92v867.5h562.32v0.403h730.83v-0.403h639.25v-881.71c5.308-0.657 11.063-0.97 17.63-0.97 37.39 0 55.02 35.358 88.025 52.814 33.007 17.482 82.058 16.59 123.24-19.809 41.228-36.371 55.043-177.16 1.114-235.48z" fill="#4F1D70"/>
  <g fill="#7F1A7F">
    <path d="m1411.7 4249.7s-56.963-40.037-54.239-86.316c2.204-37.439 15.253-42.737 35.198-67.127 19.957-24.389 56.133-103.43-2.167-157.38-58.337-53.904-199.12-40.088-235.5 1.09-36.422 41.251-37.277 90.278-19.82 123.26 17.481 33.031 52.803 50.637 52.803 88.05 0 37.438-9.88 48.804-38.491 98.302 47.292 1.112 262.22 0.122 262.22 0.122z"/>
    <path d="m2475.4 5010.7c-53.93-58.361-132.99-22.16-157.36-2.229-24.391 19.982-29.739 33.031-67.153 35.26-1.843 0.108-3.675 0.112-5.497 0.039v-880.34h-1932.4v862.14c24.687-5.597 32.857-12.72 55.068-30.919 27.422-22.434 113.57-57.024 174.25 8.617 60.677 65.616 44.377 210.07-2 251-46.34 40.98-99.871 48.686-137 29-35.086-18.545-52.778-50.883-90.315-54.92v867.5h562.32v0.403h730.83v-0.403h639.25v-881.71c5.308-0.658 11.063-0.971 17.63-0.971 37.39 0 55.02 35.358 88.025 52.814 33.007 17.482 82.058 16.59 123.24-19.809 41.227-36.372 55.043-177.16 1.114-235.48z"/>
  </g>
  <g fill="#fff">
    <path d="m3329 5105.5c0 15.699-1.2 30.754-3.628 45.139-2.426 14.387-6.313 27.758-11.674 40.139-5.386 12.381-12.281 23.646-20.824 33.75-8.53 10.127-18.979 18.768-31.335 25.973-12.394 7.182-26.792 12.777-43.171 16.664-16.416 3.963-35.037 5.918-55.973 5.918h-70.234v-327.93h84.559c51.169 0 89.363 13.174 114.52 39.543 25.181 26.321 37.76 66.581 37.76 120.81zm-46.909 3.245c0-23.25-2.18-42.911-6.513-58.981-4.37-16.021-10.956-29.019-19.833-38.875-8.877-9.855-20.008-17.035-33.353-21.443-13.396-4.432-29.131-6.659-47.182-6.659h-38.38v251.67h33.353c74.617-1e-3 111.91-41.896 111.91-125.71z"/>
    <path d="m3616 5107c0 29.439-3.467 54.869-10.399 76.264-6.934 21.443-16.293 39.098-28.129 53.088-11.736 13.939-25.578 24.314-41.375 31.1-15.822 6.785-32.512 10.15-50.042 10.15-21.097 0-39.47-3.787-55.069-11.414-15.648-7.602-28.623-18.595-38.924-32.98-10.301-14.387-17.927-31.918-22.929-52.594-5.026-20.647-7.526-43.9-7.526-69.85 0-29.119 3.416-54.35 10.3-75.793 6.833-21.395 16.144-39.098 27.979-53.039 11.762-13.99 25.529-24.339 41.252-31.125 15.724-6.757 32.338-10.15 49.943-10.15 21.071 0 39.395 3.863 55.043 11.537 15.649 7.676 28.674 18.695 39.023 32.983 10.375 14.337 18.125 31.741 23.227 52.345 5.05 20.576 7.626 43.726 7.626 69.478zm-46.402 3.244c0-19.215-1.46-36.819-4.408-52.791-2.922-15.971-7.627-29.737-14.163-41.275-6.513-11.541-14.931-20.479-25.206-26.842-10.277-6.363-22.732-9.533-37.242-9.533-14.089 0-26.173 3.367-36.274 10.152-10.127 6.783-18.447 15.945-24.959 27.607-6.537 11.59-11.365 25.256-14.561 40.906-3.193 15.6-4.778 32.238-4.778 49.77 0 19.412 1.511 37.092 4.531 53.088 3.021 15.994 7.75 29.688 14.139 41.152 6.487 11.439 14.807 20.328 25.009 26.691 10.176 6.365 22.482 9.533 36.894 9.533 14.015 0 26.147-3.342 36.349-10.152 10.202-6.783 18.62-15.945 25.207-27.583 6.636-11.612 11.489-25.231 14.708-40.782 3.168-15.548 4.754-32.187 4.754-49.941z"/>
    <path d="m3890.8 4983.3h-97.113v289.8h-45.188v-289.8h-97.063v-38.133h239.36v38.133z"/>
    <path d="m3320 5748.3h-58.176l-95.602-204.48-27.607-65.739v270.22h-41.674v-327.93h57.471l91.083 193.68 32.858 75.025v-268.71h41.647v327.94z"/>
    <path d="m3586.5 5748.3h-186.4v-327.93h186.4v37.637h-141.73v101.62h136.23v37.637h-136.23v112.91h141.73v38.132z"/>
    <path d="m3893 5458.5h-97.064v289.78h-45.164v-289.78h-97.112v-38.156h239.34v38.156z"/>
    <path d="m3346.3 4640.1c0 29.59-3.479 55.119-10.449 76.587-6.97 21.517-16.38 39.271-28.228 53.31-11.811 14.016-25.678 24.414-41.549 31.225-15.859 6.785-32.61 10.201-50.24 10.201-21.159 0-39.569-3.813-55.291-11.49-15.711-7.65-28.723-18.668-39.048-33.129-10.338-14.412-17.989-32.016-23.028-52.741-5.051-20.726-7.564-44.124-7.564-70.147 0-29.219 3.455-54.574 10.326-76.066 6.883-21.492 16.242-39.245 28.066-53.26 11.86-14.041 25.665-24.439 41.449-31.25 15.761-6.783 32.486-10.201 50.142-10.201 21.134 0 39.556 3.889 55.267 11.591 15.711 7.724 28.747 18.767 39.146 33.128 10.449 14.338 18.188 31.842 23.325 52.494 5.101 20.648 7.676 43.924 7.676 69.748zm-46.575 3.318c0-19.313-1.473-36.992-4.433-53.037-2.921-16.045-7.676-29.838-14.237-41.426s-14.98-20.576-25.293-26.965c-10.338-6.363-22.805-9.557-37.401-9.557-14.126 0-26.271 3.416-36.399 10.176-10.176 6.809-18.534 16.07-25.071 27.707-6.562 11.662-11.427 25.381-14.596 41.08-3.207 15.697-4.792 32.361-4.792 49.967 0 19.486 1.498 37.266 4.531 53.311 3.021 16.045 7.774 29.813 14.2 41.301 6.488 11.514 14.845 20.428 25.083 26.816 10.251 6.389 22.595 9.559 37.043 9.559 14.076 0 26.246-3.369 36.51-10.178 10.251-6.809 18.694-16.021 25.306-27.707 6.648-11.688 11.576-25.33 14.758-40.903 3.193-15.652 4.791-32.365 4.791-50.144z"/>
    <path d="m3631.5 4806.9h-43.826l-6.537-205.27-2.773-78.84-15.352 45.832-48.631 130.99h-31l-46.354-125.93-15.351-50.885-0.991 82.381-5.793 201.73h-42.316l16.119-329.2h53.138l44.322 123.93 14.361 41.82 13.865-41.82 46.6-123.93h54.623l15.896 329.2z"/>
    <path d="m3894.9 4717.7c0 15.648-3.169 29.317-9.557 41.078-6.339 11.762-15.277 21.518-26.693 29.342-11.414 7.801-25.132 13.619-41.202 17.506-15.995 3.887-33.7 5.795-52.989 5.795-8.765 0-17.431-0.348-26.098-1.016-8.617-0.668-16.936-1.51-24.909-2.525-7.997-1.016-15.501-2.18-22.532-3.516-7.057-1.361-13.42-2.799-19.165-4.283v-43.357c12.628 4.729 26.741 8.443 42.44 11.117 15.698 2.699 33.55 4.012 53.508 4.012 14.461 0 26.742-1.139 36.919-3.416 10.151-2.229 18.472-5.598 24.935-10.078 6.463-4.434 11.167-9.83 14.113-16.219 2.921-6.389 4.383-13.668 4.383-21.913 0-8.89-2.451-16.491-7.379-22.78-4.977-6.289-11.514-11.936-19.561-16.912-8.072-4.902-17.235-9.459-27.56-13.594-10.35-4.109-20.897-8.32-31.621-12.703-10.746-4.357-21.293-9.111-31.643-14.211-10.301-5.15-19.487-11.193-27.559-18.15-8.097-6.981-14.535-15.154-19.487-24.563-5.002-9.387-7.479-20.553-7.479-33.502 0-11.242 2.377-22.359 7.082-33.254 4.705-10.896 11.984-20.627 21.914-29.094 9.879-8.469 22.606-15.328 38.156-20.504 15.525-5.225 34.022-7.824 55.539-7.824 5.521 0 11.538 0.248 17.976 0.744 6.462 0.494 13.024 1.236 19.685 2.129 6.635 0.965 13.147 2.006 19.635 3.193 6.487 1.164 12.479 2.428 18.025 3.766v40.285c-12.974-3.689-25.899-6.488-38.8-8.445-12.925-1.904-25.454-2.871-37.538-2.871-25.701 0-44.594 4.283-56.652 12.826-12.084 8.566-18.176 20.057-18.176 34.518 0 8.889 2.477 16.539 7.429 22.928 5.002 6.363 11.489 12.059 19.536 17.109 8.098 5.053 17.259 9.633 27.584 13.719 10.326 4.135 20.873 8.369 31.619 12.727 10.722 4.408 21.295 9.162 31.62 14.336 10.325 5.225 19.487 11.416 27.584 18.547 8.047 7.131 14.534 15.477 19.512 25.059 4.93 9.58 7.406 20.897 7.406 33.994z"/>
  </g>
  <g fill="#fff">
    <path d="m1332.1 5101.7c0 15.46-1.189 30.252-3.563 44.391-2.373 14.145-6.181 27.295-11.414 39.461-5.244 12.169-12.03 23.226-20.377 33.17-8.347 9.949-18.58 18.459-30.689 25.525-12.112 7.072-26.188 12.54-42.227 16.402-16.043 3.863-34.292 5.793-54.748 5.793h-68.742v-322.33h82.734c50.084 0 87.438 12.946 112.08 38.843 24.634 25.896 36.951 65.478 36.951 118.75zm-45.91 3.207c0-22.852-2.13-42.172-6.383-57.955-4.259-15.783-10.724-28.523-19.396-38.227-8.675-9.699-19.561-16.727-32.651-21.086-13.096-4.354-28.478-6.535-46.158-6.535h-37.56v247.36h32.652c72.996 1e-3 109.5-41.186 109.5-123.56z"/>
    <path d="m1613 5103.2c0 28.939-3.397 53.93-10.188 74.971-6.795 21.051-15.959 38.438-27.495 52.161-11.539 13.731-25.042 23.923-40.508 30.581-15.466 6.662-31.792 9.988-48.98 9.988-20.621 0-38.583-3.74-53.888-11.221-15.306-7.48-27.984-18.289-38.052-32.431-10.066-14.136-17.555-31.358-22.466-51.665-4.908-20.306-7.364-43.197-7.364-68.686 0-28.607 3.354-53.431 10.066-74.479 6.711-21.043 15.833-38.432 27.374-52.16 11.541-13.726 25-23.921 40.385-30.581 15.383-6.657 31.668-9.988 48.858-9.988 20.618 0 38.578 3.784 53.886 11.345 15.303 7.564 28.026 18.373 38.177 32.432 10.144 14.055 17.713 31.197 22.708 51.42 4.993 20.221 7.487 42.998 7.487 68.313zm-45.416 3.207c0-18.904-1.436-36.211-4.297-51.914-2.863-15.697-7.487-29.223-13.872-40.567-6.382-11.345-14.606-20.14-24.672-26.39-10.064-6.246-22.218-9.372-36.458-9.372-13.75 0-25.572 3.329-35.476 9.987-9.905 6.66-18.043 15.703-24.425 27.131-6.386 11.43-11.133 24.826-14.241 40.197-3.111 15.374-4.665 31.691-4.665 48.955 0 19.072 1.472 36.459 4.421 52.156 2.943 15.705 7.565 29.188 13.868 40.449 6.3 11.262 14.445 20.02 24.427 26.262 9.984 6.253 22.011 9.374 36.092 9.374 13.75 0 25.613-3.329 35.599-9.987 9.979-6.662 18.205-15.699 24.674-27.129 6.464-11.426 11.25-24.785 14.36-40.075 3.107-15.292 4.665-31.65 4.665-49.077z"/>
    <path d="m1881.8 4981.6h-95.01v284.84h-44.19v-284.84h-95.01v-37.487h234.21v37.487z"/>
    <path d="m1319.8 5733.6h-57.215l-93.961-200.99-27.131-64.615v265.61h-40.937v-322.33h56.474l89.522 190.39 32.308 73.736v-264.13h40.94v322.33z"/>
    <path d="m1581.7 5733.6h-183.24v-322.33h183.24v36.992h-139.34v99.881h133.92v36.992h-133.92v110.98h139.34v37.486z"/>
    <path d="m1883.1 5448.8h-95.441v284.85h-44.392v-284.85h-95.442v-37.484h235.27v37.484z"/>
    <path d="m1313.2 4808.3h-55.642l-91.377-201.78-26.383-64.867v266.64h-39.812v-323.59h54.924l87.059 191.13 31.417 74.025v-265.16h39.814v323.59z"/>
    <path d="m1583.3 4808.3h-55.643l-91.378-201.78-26.383-64.867v266.64h-39.812v-323.59h54.923l87.059 191.13 31.419 74.025v-265.16h39.813v323.59z"/>
    <path d="m1880.7 4484.7-106.49 323.59h-57.559l-104.09-323.59h48.207l67.634 218.12 19.187 63.876 19.666-63.876 67.873-218.12h45.568z"/>
  </g>
</svg>
