<?xml version="1.0" encoding="utf-8"?>
<!-- Generator: Adobe Illustrator 15.0.0, SVG Export Plug-In . SVG Version: 6.00 Build 0)  -->
<!DOCTYPE svg PUBLIC "-//W3C//DTD SVG 1.1//EN" "http://www.w3.org/Graphics/SVG/1.1/DTD/svg11.dtd">
<svg version="1.1" id="Слой_1" xmlns="http://www.w3.org/2000/svg" xmlns:xlink="http://www.w3.org/1999/xlink" x="0px" y="0px"
	 width="10508.244px" height="6660.944px" viewBox="0 0 10508.244 6660.944" enable-background="new 0 0 10508.244 6660.944"
	 xml:space="preserve">
<path fill="#692080" d="M6142.381,4138.58V2206.16H4209.985v869.877c31.718-8.443,50.884-40.386,82.949-57.347
	c37.142-19.685,92.309-18.669,138.686,22.284c46.378,40.955,61.903,199.351,1.238,264.992
	c-60.689,65.642-149.655,24.934-177.09,2.501c-19.166-15.698-27.931-27.584-45.783-34.169v864.281h867.475
	c-2.957-27.502-34.563-59.209-52.08-92.234c-19.658-37.191-14.645-91.333,26.311-137.712c40.93-46.352,188.375-62.951,253.967-2.213
	c65.666,60.664,24.959,149.63,2.477,177.065c-18.15,22.211-31.248,30.383-36.895,55.094H6142.381z"/>
<path fill="#692080" d="M5314.523,2300.202c0,0-56.951-41.277-54.227-88.868c2.203-38.527,15.252-44,35.209-69.132
	c19.959-25.107,56.529-106.472-1.758-161.986c-58.336-55.514-199.127-41.302-235.502,1.139
	c-36.422,42.415-37.686,92.878-20.229,126.851c17.48,33.997,52.791,52.123,52.791,90.625c0,38.578-9.881,50.265-38.48,101.248
	C5099.623,2301.192,5314.523,2300.202,5314.523,2300.202z"/>
<path fill="#692080" d="M6061.586,3312.479c0,0,40.979-56.925,88.273-54.201c38.279,2.203,43.703,15.253,68.662,35.21
	c24.934,19.933,105.754,56.108,160.92-2.228c55.119-58.313,41.029-199.055-1.113-235.477
	c-42.168-36.374-92.309-37.265-126.059-19.81c-33.748,17.482-51.75,52.816-90.031,52.816c-38.256,0-49.867-9.88-100.504-38.503
	C6060.57,3097.579,6061.586,3312.479,6061.586,3312.479z"/>
<g>
	<path fill="#FFFFFF" d="M5229.023,2747.36c0,16.045-3.268,30.035-9.781,42.069c-6.535,12.033-15.674,22.062-27.336,30.034
		c-11.713,7.974-25.752,13.966-42.143,17.928c-16.441,3.962-34.541,5.942-54.326,5.942c-8.889,0-17.852-0.347-26.691-1.04
		s-17.357-1.535-25.504-2.6c-8.172-1.016-15.873-2.229-23.102-3.59c-7.207-1.387-13.744-2.848-19.563-4.383v-44.372
		c12.852,4.853,27.361,8.616,43.455,11.341c16.07,2.772,34.32,4.135,54.771,4.135c14.809,0,27.361-1.139,37.787-3.492
		c10.398-2.278,18.891-5.745,25.527-10.3c6.586-4.556,11.439-10.078,14.436-16.615c3.021-6.537,4.482-14.016,4.482-22.459
		c0-9.087-2.525-16.887-7.578-23.324c-5.074-6.438-11.711-12.182-19.98-17.283c-8.271-5.051-17.656-9.707-28.254-13.916
		c-10.572-4.209-21.344-8.566-32.361-13.023c-10.969-4.482-21.766-9.336-32.338-14.561c-10.598-5.273-20.008-11.439-28.252-18.57
		c-8.246-7.131-14.957-15.5-19.982-25.132c-5.102-9.632-7.602-21.071-7.602-34.319c0-11.488,2.426-22.854,7.205-34.021
		c4.828-11.167,12.281-21.096,22.408-29.787c10.152-8.691,23.201-15.674,39.098-21.047c15.896-5.299,34.84-7.973,56.877-7.973
		c5.67,0,11.811,0.271,18.445,0.768c6.563,0.544,13.297,1.262,20.107,2.203c6.76,0.966,13.494,2.006,20.105,3.244
		c6.611,1.188,12.752,2.477,18.422,3.862v41.228c-13.223-3.764-26.469-6.637-39.717-8.617c-13.246-1.98-26.049-2.946-38.404-2.946
		c-26.295,0-45.658,4.357-58.039,13.123c-12.355,8.766-18.57,20.576-18.57,35.334c0,9.112,2.525,16.936,7.625,23.473
		c5.076,6.537,11.713,12.355,19.982,17.53c8.246,5.151,17.654,9.854,28.229,14.064c10.598,4.185,21.367,8.542,32.361,12.999
		c11.02,4.507,21.791,9.409,32.363,14.709c10.598,5.322,19.982,11.637,28.227,18.941c8.271,7.305,14.932,15.848,20.008,25.652
		C5226.498,2722.401,5229.023,2733.989,5229.023,2747.36z"/>
	<path fill="#FFFFFF" d="M5476.558,2606.842c0-21.641-7.082-38.231-21.246-49.77c-14.186-11.514-34.021-17.259-59.449-17.259
		h-46.924v138.76h42.787c27.164,0,48.086-5.967,62.795-17.803C5469.228,2648.885,5476.558,2630.934,5476.558,2606.842z
		 M5524.298,2604.811c0,13.718-2.602,27.386-7.775,40.881c-5.127,13.47-13.148,25.553-23.969,36.176
		c-10.822,10.696-24.662,19.312-41.525,25.949c-16.813,6.636-36.967,9.93-60.316,9.93h-41.773v120.932h-45.906v-337.021h94.91
		c16.664,0,32.66,1.832,47.936,5.498c15.277,3.764,28.748,9.73,40.361,17.951c11.588,8.27,20.85,18.917,27.732,31.967
		C5520.83,2570.146,5524.298,2586.042,5524.298,2604.811z"/>
	<path fill="#FFFFFF" d="M5765.891,2739.412c0-8.592-1.807-16.343-5.424-23.2c-3.59-6.908-8.838-12.703-15.723-17.432
		c-6.857-4.73-15.252-8.37-25.133-10.945c-9.902-2.6-21.021-3.862-33.377-3.862h-46.947v116.029h48.482
		c26.297,0,45.881-4.901,58.783-14.708C5759.453,2775.489,5765.891,2760.186,5765.891,2739.412z M5754.797,2589.831
		c0-6.858-1.014-13.371-3.094-19.438c-2.055-6.141-5.672-11.365-10.82-15.772c-5.15-4.358-12.133-7.849-20.898-10.425
		c-8.766-2.574-19.834-3.887-33.254-3.887h-47.443v105.506h45.883c10.498,0,19.982-1.139,28.523-3.367
		c8.494-2.229,15.799-5.67,21.889-10.326c6.117-4.628,10.846-10.448,14.189-17.406
		C5753.139,2607.758,5754.797,2599.462,5754.797,2589.831z M5814.645,2737.827c0,16.194-3.145,30.48-9.434,42.961
		c-6.264,12.456-15.203,22.979-26.791,31.57c-11.613,8.617-25.627,15.154-42.068,19.61c-16.418,4.482-34.666,6.71-54.771,6.71
		h-88.199v-337.021h96.42c75.148,0,112.711,27.312,112.711,81.984c0,18.224-4.334,33.896-13.023,46.946
		c-8.691,13.049-22.805,22.781-42.439,29.118c9.135,1.734,17.777,4.656,25.949,8.766c8.17,4.136,15.326,9.459,21.541,15.996
		c6.166,6.537,11.094,14.263,14.684,23.201C5812.813,2716.631,5814.645,2726.709,5814.645,2737.827z"/>
	<path fill="#FFFFFF" d="M5195.273,3153.465c0-23.87-2.252-44.099-6.734-60.566c-4.506-16.54-11.268-29.861-20.379-39.988
		c-9.086-10.153-20.525-17.506-34.268-22.063c-13.793-4.531-29.938-6.834-48.482-6.834h-39.445v258.653h34.27
		C5156.943,3282.667,5195.273,3239.583,5195.273,3153.465z M5243.458,3150.122c0,16.17-1.238,31.596-3.738,46.402
		c-2.502,14.782-6.488,28.574-11.984,41.252c-5.498,12.752-12.654,24.29-21.42,34.69c-8.738,10.4-19.51,19.313-32.213,26.693
		c-12.727,7.402-27.51,13.097-44.371,17.134c-16.838,4.035-36.027,6.091-57.471,6.091h-72.229v-337.046h86.912
		c52.592,0,91.838,13.543,117.713,40.607C5230.509,3053.034,5243.458,3094.434,5243.458,3150.122z"/>
	<path fill="#FFFFFF" d="M5490.748,3155.024c0-19.759-1.512-37.859-4.508-54.275c-2.996-16.441-7.85-30.58-14.584-42.416
		c-6.66-11.859-15.326-21.071-25.875-27.607c-10.598-6.563-23.35-9.807-38.307-9.807c-14.459,0-26.865,3.493-37.264,10.425
		c-10.4,6.983-18.943,16.442-25.678,28.401c-6.66,11.935-11.662,25.924-14.93,42.02c-3.295,16.094-4.904,33.13-4.904,51.156
		c0,19.981,1.535,38.156,4.654,54.598c3.072,16.393,7.924,30.506,14.561,42.291c6.611,11.762,15.154,20.924,25.652,27.412
		c10.475,6.536,23.127,9.829,37.908,9.829c14.461,0,26.891-3.491,37.391-10.45c10.447-6.957,19.115-16.391,25.9-28.4
		c6.809-11.885,11.834-25.875,15.104-41.871C5489.113,3190.334,5490.748,3173.224,5490.748,3155.024z M5538.46,3151.657
		c0,30.258-3.59,56.405-10.721,78.395c-7.133,22.012-16.738,40.186-28.848,54.522c-12.133,14.362-26.32,25.034-42.563,31.991
		c-16.244,6.982-33.404,10.449-51.43,10.449c-21.689,0-40.533-3.912-56.604-11.736c-16.094-7.8-29.391-19.115-39.963-33.923
		c-10.574-14.757-18.473-32.783-23.598-54.004c-5.15-21.245-7.752-45.188-7.752-71.831c0-29.887,3.518-55.812,10.574-77.873
		c7.057-21.988,16.639-40.162,28.748-54.523c12.107-14.337,26.271-25.01,42.439-31.967c16.145-6.958,33.254-10.498,51.305-10.498
		c21.641,0,40.533,4.01,56.604,11.91c16.045,7.898,29.441,19.214,40.113,33.922c10.621,14.658,18.596,32.609,23.82,53.755
		C5535.835,3101.392,5538.46,3125.188,5538.46,3151.657z"/>
	<polygon fill="#FFFFFF" points="5820.836,3024.534 5721.023,3024.534 5721.023,3322.384 5674.621,3322.384 5674.621,3024.534 
		5574.81,3024.534 5574.81,2985.338 5820.836,2985.338 	"/>
	<polygon fill="#FFFFFF" points="5229.494,3808.417 5169.646,3808.417 5071.419,3598.247 5043.068,3530.699 5043.068,3808.417 
		5000.255,3808.417 5000.255,3471.371 5059.335,3471.371 5152.933,3670.448 5186.681,3747.556 5186.681,3471.371 5229.494,3471.371 
			"/>
	<polygon fill="#FFFFFF" points="5503.349,3808.417 5311.775,3808.417 5311.775,3471.371 5503.349,3471.371 5503.349,3510.072 
		5357.656,3510.072 5357.656,3614.489 5497.679,3614.489 5497.679,3653.167 5357.656,3653.167 5357.656,3769.22 5503.349,3769.22 	
		"/>
	<polygon fill="#FFFFFF" points="5818.457,3510.543 5718.672,3510.543 5718.672,3808.417 5672.244,3808.417 5672.244,3510.543 
		5572.458,3510.543 5572.458,3471.371 5818.457,3471.371 	"/>
</g>
<g>
	<g>
		<path fill="#7F1A7F" d="M6157.484,4138.58h1932.395V2206.185h-869.877c8.443,31.719,36.385,50.883,53.346,82.949
			c19.66,37.117,20.67,88.309-20.309,134.662c-40.928,46.402-194.35,62.927-259.992,2.262
			c-65.617-60.688-27.934-146.679-5.477-174.089c15.725-19.165,27.584-27.93,34.172-45.783h-864.258v867.451
			c37.539-4.012,57.174-40.459,92.236-59.055c37.115-19.686,92.332-18.645,138.684,22.286c46.354,40.954,61.904,199.349,1.24,264.99
			c-60.689,65.668-149.656,24.936-177.092,2.478c-22.209-18.174-30.406-31.273-55.068-36.919V4138.58z"/>
		<path fill="#7F1A7F" d="M8003.588,3310.871c0,0,40.066-56.95,86.291-54.228c37.441,2.204,42.764,15.277,67.152,35.211
			c24.365,19.932,103.453,56.133,157.381-2.18c53.906-58.336,40.088-199.152-1.115-235.501
			c-41.227-36.424-90.252-37.315-123.283-19.833c-32.982,17.48-50.588,52.814-88.002,52.814c-37.412,0-48.775-9.879-98.301-38.504
			C8002.598,3095.969,8003.588,3310.871,8003.588,3310.871z"/>
		<path fill="#7F1A7F" d="M6983.561,4057.76c0,0,56.926,40.089,54.201,86.367c-2.205,37.363-15.254,42.736-35.211,67.102
			c-19.957,24.389-56.133,103.451,2.205,157.355c58.313,53.931,199.105,40.113,235.5-1.113
			c36.398-41.203,37.291-90.254,19.785-123.211c-17.457-33.031-52.791-50.637-52.791-88.074c0-37.414,9.855-48.756,38.504-98.277
			C7198.436,4056.795,6983.561,4057.76,6983.561,4057.76z"/>
	</g>
	<g>
		<path fill="#FFFFFF" d="M7156.961,3172.926c0-24.092-2.279-44.471-6.785-61.135c-4.506-16.639-11.34-30.084-20.551-40.285
			c-9.188-10.275-20.723-17.68-34.592-22.261c-13.865-4.581-30.184-6.907-48.928-6.907h-39.791v260.955h34.592
			C7118.26,3303.293,7156.961,3259.837,7156.961,3172.926z M7205.568,3169.559c0,16.293-1.215,31.918-3.74,46.823
			c-2.525,14.931-6.537,28.772-12.107,41.623c-5.572,12.851-12.729,24.514-21.566,34.988c-8.865,10.498-19.709,19.486-32.537,26.915
			c-12.852,7.477-27.781,13.247-44.768,17.307c-17.012,4.086-36.301,6.141-58.016,6.141h-72.822v-340.017h87.682
			c53.035,0,92.604,13.618,118.752,40.954C7192.543,3071.581,7205.568,3113.376,7205.568,3169.559z"/>
		<path fill="#FFFFFF" d="M7455.082,3174.511c0-19.957-1.51-38.206-4.555-54.77c-3.021-16.541-7.898-30.854-14.707-42.788
			c-6.736-11.984-15.453-21.245-26.125-27.856c-10.672-6.587-23.521-9.88-38.625-9.88c-14.584,0-27.115,3.517-37.639,10.524
			c-10.447,7.033-19.09,16.589-25.85,28.648c-6.809,12.034-11.785,26.173-15.08,42.391c-3.318,16.219-4.975,33.428-4.975,51.627
			c0,20.155,1.584,38.479,4.703,55.043c3.119,16.589,8.021,30.802,14.684,42.638c6.709,11.911,15.326,21.121,25.898,27.732
			c10.598,6.611,23.301,9.879,38.258,9.879c14.533,0,27.137-3.491,37.734-10.524c10.549-7.031,19.266-16.539,26.123-28.622
			c6.857-12.06,11.91-26.147,15.229-42.292C7453.424,3210.143,7455.082,3192.883,7455.082,3174.511z M7503.217,3171.144
			c0,30.505-3.613,56.9-10.82,79.062c-7.18,22.211-16.887,40.559-29.094,55.043c-12.23,14.486-26.543,25.208-42.936,32.264
			c-16.391,7.008-33.699,10.524-51.922,10.524c-21.84,0-40.881-3.961-57.1-11.836c-16.244-7.899-29.639-19.288-40.336-34.219
			c-10.648-14.906-18.596-33.057-23.795-54.499c-5.201-21.418-7.775-45.561-7.775-72.45c0-30.184,3.541-56.381,10.648-78.592
			c7.131-22.186,16.762-40.509,28.994-55.019c12.232-14.485,26.494-25.206,42.787-32.239c16.316-7.031,33.551-10.548,51.75-10.548
			c21.889,0,40.93,4.011,57.123,11.96c16.244,7.998,29.689,19.387,40.484,34.194c10.723,14.856,18.744,32.933,24.068,54.276
			C7500.57,3120.384,7503.217,3144.403,7503.217,3171.144z"/>
		<polygon fill="#FFFFFF" points="7788.092,3042.858 7687.416,3042.858 7687.416,3343.356 7640.568,3343.356 7640.568,3042.858 
			7539.914,3042.858 7539.914,3003.339 7788.092,3003.339 		"/>
		<polygon fill="#FFFFFF" points="7193.904,3828.522 7133.537,3828.522 7034.42,3616.47 7005.795,3548.328 7005.795,3828.522 
			6962.588,3828.522 6962.588,3488.481 7022.162,3488.481 7116.625,3689.317 7150.695,3767.116 7150.695,3488.481 
			7193.904,3488.481 		"/>
		<polygon fill="#FFFFFF" points="7470.188,3828.522 7276.879,3828.522 7276.879,3488.481 7470.188,3488.481 7470.188,3527.504 
			7323.207,3527.504 7323.207,3632.862 7464.467,3632.862 7464.467,3671.91 7323.207,3671.91 7323.207,3788.979 7470.188,3788.979 
					"/>
		<polygon fill="#FFFFFF" points="7788.092,3528.024 7687.416,3528.024 7687.416,3828.522 7640.568,3828.522 7640.568,3528.024 
			7539.914,3528.024 7539.914,3488.481 7788.092,3488.481 		"/>
		<g>
			<path fill="#FFFFFF" d="M7208.463,2859.948h-45.436l-6.809-212.845l-2.873-81.735l-15.922,47.515l-50.412,135.814h-32.141
				l-48.035-130.59l-15.947-52.74l-1.039,85.4l-5.992,209.18h-43.877l16.715-341.329h55.092l45.98,128.484l14.885,43.356
				l14.359-43.356l48.332-128.484h56.678L7208.463,2859.948z"/>
			<path fill="#FFFFFF" d="M7481.652,2767.516c0,16.193-3.318,30.381-9.93,42.563c-6.637,12.183-15.848,22.335-27.684,30.431
				c-11.836,8.098-26.072,14.139-42.713,18.151c-16.613,4.011-34.938,6.016-54.969,6.016c-9.063,0-18.051-0.37-27.014-1.04
				c-8.988-0.718-17.605-1.584-25.875-2.648c-8.271-1.041-16.047-2.229-23.375-3.615c-7.305-1.412-13.939-2.897-19.834-4.457V2808
				c13.049,4.853,27.732,8.69,44,11.488c16.293,2.773,34.768,4.185,55.514,4.185c14.957,0,27.711-1.188,38.258-3.541
				c10.523-2.353,19.139-5.818,25.824-10.448c6.713-4.582,11.59-10.227,14.635-16.863c3.068-6.586,4.58-14.162,4.58-22.705
				c0-9.211-2.551-17.11-7.701-23.622c-5.15-6.538-11.883-12.357-20.254-17.531c-8.344-5.126-17.877-9.805-28.574-14.064
				c-10.721-4.26-21.639-8.666-32.783-13.223c-11.168-4.482-22.088-9.433-32.783-14.732c-10.723-5.324-20.254-11.589-28.6-18.818
				c-8.369-7.23-15.104-15.699-20.23-25.455c-5.148-9.756-7.699-21.318-7.699-34.739c0-11.662,2.428-23.151,7.305-34.468
				c4.852-11.315,12.453-21.393,22.705-30.158c10.301-8.791,23.473-15.871,39.592-21.295c16.096-5.397,35.285-8.097,57.57-8.097
				c5.744,0,11.984,0.248,18.67,0.792c6.709,0.497,13.494,1.238,20.379,2.229c6.883,0.941,13.668,2.031,20.377,3.244
				c6.711,1.238,12.926,2.525,18.67,3.938v41.771c-13.42-3.838-26.816-6.76-40.211-8.766c-13.422-2.006-26.396-2.996-38.926-2.996
				c-26.643,0-46.229,4.457-58.756,13.321c-12.555,8.89-18.82,20.8-18.82,35.78c0,9.235,2.576,17.158,7.701,23.77
				s11.91,12.529,20.254,17.779c8.369,5.225,17.879,9.953,28.6,14.213c10.723,4.258,21.643,8.666,32.76,13.197
				c11.143,4.506,22.088,9.483,32.783,14.881c10.697,5.398,20.254,11.786,28.598,19.189c8.346,7.405,15.105,16.07,20.256,26
				C7479.076,2742.185,7481.652,2753.922,7481.652,2767.516z"/>
			<path fill="#FFFFFF" d="M7788.787,2859.948h-58.486l-127.717-167.384v167.384h-46.502v-341.329h46.502v158.543l125.092-158.543
				h55.119l-134.775,162.159L7788.787,2859.948z"/>
		</g>
	</g>
</g>
<g>
	<g>
		<path fill="#4F1D70" d="M2262.757,2213.91h1932.395v1932.418h-861.706c8.443-31.742,32.189-50.883,49.174-82.973
			c19.661-37.143,18.646-92.308-22.284-138.661c-40.955-46.402-199.376-61.926-265.005-1.262
			c-65.653,60.688-24.934,149.679-2.476,177.089c15.687,19.166,27.571,27.906,34.157,45.807h-864.256v-867.5
			c37.537,4.038,57.148,40.535,92.234,59.081c37.129,19.685,92.334,18.67,138.674-22.31c46.377-40.93,61.927-199.351,1.25-264.967
			c-60.677-65.641-149.668-24.935-177.09-2.501c-22.211,18.199-30.382,31.322-55.068,36.919V2213.91z"/>
		<path fill="#4F1D70" d="M4114.307,3039.985c0,0,40.088,56.951,86.341,54.227c37.414-2.229,42.762-15.277,67.152-35.259
			c24.364-19.932,103.426-56.133,157.355,2.228c53.929,58.313,40.113,199.104-1.114,235.477
			c-41.178,36.398-90.229,37.291-123.235,19.809c-33.006-17.456-50.635-52.814-88.025-52.814c-37.438,0-48.779,9.904-98.301,38.529
			C4113.366,3254.836,4114.307,3039.985,4114.307,3039.985z"/>
	</g>
	<path fill="#4F1D70" d="M3366.477,2300.202c0,0-56.963-40.039-54.239-86.317c2.204-37.439,15.253-42.737,35.198-67.127
		c19.957-24.389,56.133-103.426-2.167-157.38c-58.337-53.904-199.115-40.088-235.502,1.089
		c-36.423,41.251-37.277,90.279-19.82,123.26c17.48,33.031,52.803,50.636,52.803,88.05c0,37.438-9.88,48.804-38.491,98.301
		C3151.551,2301.192,3366.477,2300.202,3366.477,2300.202z"/>
</g>
<path fill="#4F1D70" d="M3361.473,4248.8c0,0-56.963-40.038-54.239-86.316c2.204-37.439,15.253-42.737,35.198-67.127
	c19.957-24.389,56.133-103.427-2.167-157.381c-58.337-53.904-199.115-40.088-235.502,1.09
	c-36.422,41.251-37.277,90.278-19.82,123.26c17.481,33.031,52.803,50.637,52.803,88.05c0,37.438-9.88,48.804-38.491,98.302
	C3146.547,4249.79,3361.473,4248.8,3361.473,4248.8z"/>
<g>
	<path fill="#FFFFFF" d="M3259.053,3154.53c0-22.805-2.117-42.144-6.413-57.916c-4.259-15.773-10.758-28.5-19.475-38.207
		c-8.703-9.681-19.623-16.738-32.771-21.071c-13.172-4.357-28.611-6.536-46.364-6.536h-37.698v247.238h32.795
		C3222.394,3278.038,3259.053,3236.885,3259.053,3154.53z M3305.17,3151.335c0,15.451-1.201,30.259-3.565,44.372
		c-2.414,14.113-6.228,27.287-11.489,39.469c-5.275,12.133-12.083,23.2-20.465,33.154c-8.382,9.955-18.645,18.447-30.815,25.504
		c-12.17,7.057-26.296,12.555-42.415,16.392c-16.095,3.888-34.418,5.794-54.933,5.794h-69.07v-322.189h83.11
		c50.289,0,87.79,12.926,112.514,38.825C3292.765,3058.532,3305.17,3098.099,3305.17,3151.335z"/>
	<path fill="#FFFFFF" d="M3541.587,3156.015c0-18.894-1.461-36.2-4.357-51.874c-2.822-15.699-7.502-29.219-13.89-40.559
		c-6.414-11.34-14.684-20.13-24.786-26.396c-10.104-6.239-22.335-9.359-36.598-9.359c-13.816,0-25.701,3.342-35.656,9.978
		c-9.928,6.661-18.124,15.698-24.488,27.113c-6.413,11.439-11.192,24.835-14.336,40.187c-3.12,15.402-4.655,31.694-4.655,48.953
		c0,19.066,1.485,36.447,4.457,52.146c2.972,15.674,7.577,29.144,13.915,40.411c6.29,11.265,14.46,20.031,24.514,26.246
		c10.029,6.24,22.111,9.359,36.25,9.359c13.816,0,25.702-3.317,35.73-9.953c10.029-6.661,18.299-15.698,24.785-27.113
		c6.488-11.439,11.292-24.786,14.412-40.063C3540.003,3189.813,3541.587,3173.447,3541.587,3156.015z M3587.173,3152.846
		c0,28.871-3.393,53.904-10.227,74.9c-6.834,21.048-15.996,38.456-27.608,52.172c-11.612,13.693-25.132,23.92-40.683,30.557
		c-15.549,6.684-31.941,9.978-49.175,9.978c-20.724,0-38.751-3.714-54.128-11.217c-15.352-7.453-28.078-18.273-38.182-32.412
		c-10.102-14.139-17.654-31.347-22.557-51.651c-4.928-20.279-7.428-43.183-7.428-68.662c0-28.599,3.379-53.409,10.127-74.432
		c6.734-21.047,15.896-38.429,27.484-52.146c11.588-13.693,25.107-23.895,40.608-30.555c15.401-6.686,31.743-9.979,48.978-9.979
		c20.725,0,38.775,3.764,54.127,11.315c15.401,7.577,28.152,18.372,38.354,32.412c10.177,14.063,17.778,31.199,22.754,51.403
		C3584.672,3104.735,3587.173,3127.54,3587.173,3152.846z"/>
	<polygon fill="#FFFFFF" points="3857.116,3031.293 3761.713,3031.293 3761.713,3316.02 3717.34,3316.02 3717.34,3031.293 
		3621.938,3031.293 3621.938,2993.831 3857.116,2993.831 	"/>
	<polygon fill="#FFFFFF" points="3294.064,3782.938 3236.866,3782.938 3142.948,3582.003 3115.848,3517.426 3115.848,3782.938 
		3074.893,3782.938 3074.893,3460.7 3131.335,3460.7 3220.859,3651.036 3253.147,3724.749 3253.147,3460.7 3294.064,3460.7 	"/>
	<polygon fill="#FFFFFF" points="3555.899,3782.938 3372.718,3782.938 3372.718,3460.7 3555.899,3460.7 3555.899,3497.692 
		3416.569,3497.692 3416.569,3597.554 3550.452,3597.554 3550.452,3634.521 3416.569,3634.521 3416.569,3745.45 3555.899,3745.45 	
		"/>
	<polygon fill="#FFFFFF" points="3857.116,3498.212 3761.713,3498.212 3761.713,3782.938 3717.34,3782.938 3717.34,3498.212 
		3621.938,3498.212 3621.938,3460.7 3857.116,3460.7 	"/>
	<g>
		<path fill="#FFFFFF" d="M3283.554,2768.134c0,15.327-3.133,28.772-9.409,40.312c-6.289,11.538-15.03,21.17-26.247,28.846
			c-11.217,7.676-24.698,13.396-40.447,17.185c-15.747,3.788-33.129,5.695-52.109,5.695c-8.555,0-17.097-0.322-25.615-0.991
			c-8.492-0.668-16.664-1.51-24.5-2.476c-7.837-0.966-15.216-2.129-22.136-3.467c-6.934-1.312-13.198-2.724-18.807-4.21v-42.563
			c12.381,4.63,26.271,8.245,41.698,10.896c15.413,2.624,32.944,3.937,52.593,3.937c14.188,0,26.271-1.089,36.262-3.317
			c9.967-2.204,18.138-5.521,24.501-9.881c6.326-4.383,10.97-9.706,13.854-15.995c2.871-6.265,4.332-13.444,4.332-21.517
			c0-8.741-2.451-16.218-7.316-22.409c-4.854-6.165-11.254-11.712-19.165-16.565c-7.923-4.853-16.961-9.311-27.113-13.346
			c-10.151-4.061-20.502-8.221-31.063-12.529c-10.561-4.283-20.91-8.939-31.038-13.99c-10.151-5.002-19.189-10.969-27.113-17.803
			c-7.923-6.859-14.312-14.881-19.165-24.117c-4.879-9.261-7.317-20.23-7.317-32.932c0-11.044,2.315-21.938,6.933-32.66
			c4.631-10.722,11.799-20.254,21.518-28.6c9.743-8.318,22.235-15.054,37.514-20.154c15.265-5.102,33.451-7.677,54.572-7.677
			c5.423,0,11.328,0.248,17.691,0.743c6.352,0.52,12.777,1.188,19.301,2.105c6.514,0.891,12.938,1.955,19.302,3.094
			c6.352,1.165,12.257,2.402,17.693,3.715v39.594c-12.704-3.616-25.418-6.389-38.108-8.296c-12.715-1.882-25.009-2.822-36.881-2.822
			c-25.244,0-43.802,4.185-55.676,12.603c-11.873,8.419-17.828,19.734-17.828,33.898c0,8.765,2.428,16.268,7.317,22.532
			c4.853,6.265,11.254,11.86,19.165,16.814c7.924,4.951,16.961,9.458,27.113,13.494c10.151,4.035,20.477,8.195,31.063,12.504
			c10.535,4.283,20.886,9.014,31.037,14.089c10.152,5.126,19.19,11.192,27.113,18.224c7.899,6.982,14.313,15.204,19.166,24.613
			C3281.114,2744.091,3283.554,2755.235,3283.554,2768.134z"/>
		<path fill="#FFFFFF" d="M3591.654,2855.739h-48.012l-22.507-70.544H3386.51l-22.78,70.544h-45.783l107.414-323.477h60.366
			L3591.654,2855.739z M3508.507,2745.825l-54.698-172.981l-54.672,172.981H3508.507z"/>
		<path fill="#FFFFFF" d="M3854.244,2855.739H3804.5l-48.235-103.477c-3.639-7.923-7.378-14.484-11.142-19.659
			c-3.813-5.226-7.899-9.335-12.257-12.405c-4.382-3.021-9.186-5.2-14.386-6.537c-5.15-1.313-10.993-1.981-17.432-1.981h-20.774
			v144.059h-44.05v-323.477h86.614c18.819,0,34.963,2.055,48.481,6.19c13.545,4.134,24.662,9.904,33.305,17.308
			c8.666,7.453,15.004,16.391,19.041,26.865c4.061,10.475,6.066,22.063,6.066,34.764c0,10.078-1.461,19.586-4.432,28.6
			c-2.997,8.988-7.404,17.159-13.248,24.488c-5.868,7.354-13.099,13.693-21.789,19.066c-8.643,5.373-18.596,9.359-29.813,12.01
			c9.063,3.119,16.787,8.615,23.151,16.441c6.339,7.848,12.825,18.297,19.412,31.297L3854.244,2855.739z M3783.7,2621.104
			c0-17.309-5.397-30.283-16.193-38.875c-10.821-8.543-26.05-12.852-45.661-12.852h-41.573v106.918h35.631
			c10.399,0,19.759-1.188,28.078-3.59c8.345-2.377,15.427-5.942,21.294-10.622c5.844-4.729,10.4-10.499,13.619-17.357
			C3782.09,2637.892,3783.7,2630.018,3783.7,2621.104z"/>
	</g>
</g>
<path fill="#7F1A7F" d="M6372.611,5004.826c-53.902-58.311-132.965-22.16-157.355-2.203c-24.363,19.957-29.713,33.031-67.127,35.209
	v-881.91h-881.465c-0.829-5.95-1.213-12.429-1.213-19.934c0-38.328,35.359-56.305,52.84-90.055
	c17.455-33.848,16.59-83.989-19.785-126.157c-36.447-42.168-177.189-56.305-235.525-1.113
	c-58.313,55.143-22.162,136.085-2.203,161.021c19.98,24.934,33.006,30.404,35.209,68.686c0.146,2.538,0.111,5.057-0.068,7.553
	h-880.185v865.164c24.662-5.693,32.858-17.768,55.069-35.943c27.412-22.457,116.454-42.712,173.091,26.477
	c47.269,57.743,40.139,200.037-6.263,241.018c-46.377,40.93-90.044,45.225-129.687,31.26c-34.962-12.307-54.722-46.518-92.21-50.527
	v854.924h478.828v1.037h894.886v-1.037h558.682v-880.547c3.754-0.283,7.748-0.424,12.107-0.424
	c37.439,0,55.045,35.334,88.025,52.814c33.008,17.457,82.059,16.59,123.26-19.809
	C6412.725,5203.931,6426.566,5063.162,6372.611,5004.826z"/>
<g>
	<path fill="#FFFFFF" d="M5215.65,5110.373c0-23.301-2.129-43.01-6.512-59.08c-4.383-16.094-10.969-29.094-19.859-38.973
		c-8.912-9.93-20.031-17.086-33.451-21.518c-13.396-4.432-29.193-6.686-47.293-6.686h-38.479v252.24h33.477
		C5178.287,5236.357,5215.65,5194.387,5215.65,5110.373z M5262.695,5107.104c0,15.75-1.188,30.854-3.639,45.289
		c-2.426,14.413-6.338,27.831-11.688,40.236c-5.373,12.381-12.33,23.646-20.85,33.773c-8.592,10.178-19.064,18.844-31.471,26.074
		c-12.404,7.206-26.816,12.801-43.256,16.713c-16.418,3.938-35.088,5.893-56.084,5.893h-70.396v-328.676h84.758
		c51.305,0,89.535,13.223,114.791,39.617C5250.093,5012.443,5262.695,5052.779,5262.695,5107.104z"/>
	<path fill="#FFFFFF" d="M5503.869,5111.883c0-19.264-1.461-36.918-4.408-52.914c-2.896-15.994-7.65-29.811-14.213-41.375
		c-6.512-11.588-14.955-20.527-25.256-26.916c-10.326-6.387-22.781-9.557-37.34-9.557c-14.064,0-26.197,3.416-36.35,10.176
		c-10.152,6.785-18.496,15.996-25.033,27.684c-6.537,11.639-11.391,25.305-14.559,40.98c-3.219,15.674-4.805,32.313-4.805,49.918
		c0,19.436,1.535,37.189,4.557,53.186c2.996,16.021,7.727,29.762,14.188,41.227c6.463,11.515,14.783,20.428,25.033,26.791
		c10.227,6.414,22.533,9.559,36.969,9.559c14.09,0,26.223-3.367,36.449-10.201c10.25-6.759,18.645-15.971,25.279-27.658
		c6.637-11.613,11.539-25.256,14.709-40.83C5502.283,5146.352,5503.869,5129.688,5503.869,5111.883z M5550.417,5108.615
		c0,29.516-3.49,54.994-10.449,76.438c-6.98,21.492-16.34,39.195-28.178,53.212c-11.811,13.989-25.627,24.388-41.498,31.198
		c-15.848,6.761-32.561,10.177-50.166,10.177c-21.121,0-39.518-3.813-55.191-11.44c-15.699-7.627-28.674-18.67-39-33.08
		c-10.301-14.41-17.951-31.967-22.979-52.717c-5.051-20.676-7.576-44.025-7.576-69.998c0-29.195,3.441-54.474,10.326-75.941
		c6.857-21.469,16.219-39.223,28.029-53.213s25.602-24.389,41.375-31.174c15.748-6.785,32.461-10.201,50.043-10.201
		c21.119,0,39.518,3.861,55.217,11.588c15.648,7.699,28.672,18.72,39.096,33.057c10.4,14.361,18.15,31.816,23.252,52.467
		C5547.818,5059.588,5550.417,5082.814,5550.417,5108.615z"/>
	<polygon fill="#FFFFFF" points="5825.762,4984.637 5728.475,4984.637 5728.475,5275.082 5683.162,5275.082 5683.162,4984.637 
		5585.828,4984.637 5585.828,4946.406 5825.762,4946.406 	"/>
	<polygon fill="#FFFFFF" points="5253.708,5751.41 5195.347,5751.41 5099.521,5546.439 5071.863,5480.574 5071.863,5751.41 
		5030.142,5751.41 5030.142,5422.732 5087.71,5422.732 5178.98,5616.883 5211.937,5692.057 5211.937,5422.732 5253.708,5422.732 	
		"/>
	<polygon fill="#FFFFFF" points="5520.755,5751.41 5333.884,5751.41 5333.884,5422.732 5520.755,5422.732 5520.755,5460.443 
		5378.677,5460.443 5378.677,5562.311 5515.208,5562.311 5515.208,5600.045 5378.677,5600.045 5378.677,5713.181 5520.755,5713.181 
			"/>
	<polygon fill="#FFFFFF" points="5828.09,5460.963 5730.752,5460.963 5730.752,5751.41 5685.49,5751.41 5685.49,5460.963 
		5588.179,5460.963 5588.179,5422.732 5828.09,5422.732 	"/>
	<g>
		<path fill="#FFFFFF" d="M5250.984,4807.869h-56.555l-123.457-161.838v161.838h-44.916v-329.99h44.916v153.246l120.932-153.246
			h53.287l-130.293,156.762L5250.984,4807.869z"/>
		<path fill="#FFFFFF" d="M5536.255,4807.869h-50.734l-49.227-105.557c-3.738-8.072-7.502-14.757-11.365-20.082
			c-3.912-5.273-8.047-9.482-12.504-12.604c-4.482-3.094-9.336-5.321-14.658-6.684c-5.299-1.363-11.217-2.031-17.803-2.031h-21.195
			v146.957h-44.916v-329.99h88.322c19.213,0,35.705,2.129,49.496,6.314c13.816,4.209,25.133,10.127,33.947,17.678
			c8.84,7.555,15.328,16.689,19.438,27.387c4.111,10.697,6.215,22.508,6.215,35.482c0,10.275-1.535,20.006-4.557,29.145
			c-3.045,9.186-7.527,17.506-13.52,25.008c-5.941,7.477-13.344,13.965-22.209,19.438c-8.84,5.473-18.992,9.533-30.432,12.232
			c9.262,3.193,17.135,8.789,23.621,16.787c6.488,7.999,13.074,18.67,19.809,31.941L5536.255,4807.869z M5464.3,4568.529
			c0-17.68-5.521-30.877-16.516-39.643c-11.043-8.766-26.57-13.148-46.6-13.148h-42.416v109.072h36.373
			c10.572,0,20.131-1.189,28.648-3.664c8.494-2.451,15.723-6.041,21.717-10.846c5.941-4.805,10.572-10.672,13.865-17.656
			C5462.666,4585.64,5464.3,4577.615,5464.3,4568.529z"/>
		<path fill="#FFFFFF" d="M5839.453,4477.879l-119.422,212.078v117.912h-45.436v-118.928l-119.424-211.063h54.278l65.641,120.686
			l24.242,48.48l22.234-43.949l66.385-125.217H5839.453z"/>
	</g>
</g>
<g>
	<path fill="#692080" d="M4210.113,259.813h1932.395V2192.23H5280.8c8.443-31.742,32.189-50.883,49.175-82.973
		c19.661-37.143,18.646-92.308-22.284-138.661c-40.954-46.402-199.375-61.926-265.004-1.262
		c-65.654,60.688-24.934,149.679-2.477,177.089c15.688,19.166,27.572,27.906,34.158,45.807h-864.256v-867.5
		c37.537,4.038,57.148,40.535,92.234,59.081c37.129,19.685,92.334,18.67,138.674-22.31c46.377-40.93,61.926-199.351,1.25-264.967
		c-60.678-65.642-149.668-24.935-177.09-2.501c-22.211,18.199-30.383,31.322-55.068,36.919V259.813z"/>
	<path fill="#692080" d="M6061.662,1085.887c0,0,40.088,56.951,86.342,54.227c37.414-2.229,42.762-15.277,67.152-35.259
		c24.365-19.932,103.426-56.133,157.355,2.228c53.93,58.313,40.113,199.104-1.113,235.477
		c-41.178,36.398-90.229,37.291-123.236,19.809c-33.006-17.456-50.635-52.814-88.025-52.814c-37.438,0-48.779,9.904-98.301,38.529
		C6060.721,1300.739,6061.662,1085.887,6061.662,1085.887z"/>
</g>
<g>
	<path fill="#FFFFFF" d="M5174.748,1193.386c0-24.266-2.229-44.718-6.785-61.481c-4.531-16.763-11.414-30.258-20.65-40.559
		c-9.285-10.3-20.85-17.753-34.789-22.383c-13.99-4.606-30.383-6.909-49.201-6.909h-40.037v262.417h34.789
		C5135.873,1324.471,5174.748,1280.768,5174.748,1193.386z M5223.699,1189.969c0,16.417-1.287,32.091-3.813,47.121
		c-2.5,14.98-6.563,28.92-12.133,41.846c-5.596,12.925-12.801,24.638-21.74,35.161c-8.865,10.573-19.76,19.611-32.709,27.113
		c-12.9,7.478-27.881,13.297-44.967,17.407c-17.109,4.086-36.572,6.116-58.361,6.116h-73.242v-341.949h88.148
		c53.385,0,93.176,13.742,119.447,41.227C5210.576,1091.47,5223.699,1133.44,5223.699,1189.969z"/>
	<path fill="#FFFFFF" d="M5474.601,1194.947c0-20.032-1.533-38.429-4.58-55.044c-3.045-16.688-7.998-31.025-14.807-43.059
		c-6.76-12.034-15.525-21.369-26.297-28.005c-10.721-6.636-23.646-9.954-38.824-9.954c-14.658,0-27.238,3.541-37.811,10.598
		c-10.549,7.057-19.24,16.689-26.049,28.822c-6.783,12.108-11.836,26.296-15.129,42.614c-3.342,16.317-4.977,33.625-4.977,51.923
		c0,20.254,1.561,38.677,4.705,55.366c3.145,16.615,8.047,30.927,14.781,42.886c6.711,11.96,15.377,21.245,26,27.881
		c10.672,6.611,23.498,9.93,38.479,9.93c14.658,0,27.285-3.541,37.934-10.573c10.648-7.082,19.412-16.664,26.295-28.797
		c6.885-12.133,12.01-26.321,15.303-42.54C5472.943,1230.776,5474.601,1213.418,5474.601,1194.947z M5523.009,1191.554
		c0,30.679-3.615,57.198-10.895,79.532c-7.205,22.31-16.986,40.757-29.291,55.316c-12.307,14.584-26.645,25.404-43.135,32.461
		s-33.873,10.573-52.195,10.573c-21.988,0-41.129-3.937-57.445-11.86c-16.293-7.948-29.838-19.438-40.559-34.442
		c-10.697-14.98-18.695-33.229-23.92-54.796c-5.25-21.567-7.875-45.808-7.875-72.847c0-30.382,3.592-56.678,10.723-79.037
		c7.182-22.334,16.912-40.781,29.219-55.316c12.256-14.584,26.594-25.38,43.01-32.462c16.391-7.032,33.725-10.597,52.07-10.597
		c21.965,0,41.105,4.011,57.422,12.034c16.318,8.022,29.861,19.487,40.682,34.418c10.82,14.906,18.893,33.081,24.217,54.573
		C5520.335,1140.522,5523.009,1164.689,5523.009,1191.554z"/>
	<polygon fill="#FFFFFF" points="5809.494,1062.575 5708.223,1062.575 5708.223,1364.733 5661.152,1364.733 5661.152,1062.575 
		5559.904,1062.575 5559.904,1022.784 5809.494,1022.784 	"/>
	<polygon fill="#FFFFFF" points="5214.339,1860.299 5153.65,1860.299 5053.939,1647.057 5025.166,1578.519 5025.166,1860.274 
		4981.71,1860.274 4981.71,1518.35 5041.632,1518.35 5136.64,1720.3 5170.91,1798.52 5170.91,1518.35 5214.339,1518.35 	"/>
	<polygon fill="#FFFFFF" points="5492.183,1860.299 5297.759,1860.299 5297.759,1518.35 5492.183,1518.35 5492.183,1557.571 
		5344.359,1557.571 5344.359,1663.548 5486.414,1663.548 5486.414,1702.769 5344.359,1702.769 5344.359,1820.508 5492.183,1820.508 
			"/>
	<polygon fill="#FFFFFF" points="5811.896,1558.091 5710.623,1558.091 5710.623,1860.274 5663.529,1860.274 5663.529,1558.091 
		5562.281,1558.091 5562.281,1518.35 5811.896,1518.35 	"/>
	<g>
		<path fill="#FFFFFF" d="M5210.873,878.625h-60.936l-100.061-214.059l-28.92-68.786V768.86v109.766h-43.604V535.339h60.168
			l95.33,202.768l34.418,78.542v-183.85v-97.459h43.604V878.625z"/>
		<path fill="#FFFFFF" d="M5503.722,785.648c0,16.293-3.318,30.58-9.98,42.836c-6.66,12.232-15.945,22.433-27.855,30.58
			c-11.885,8.146-26.197,14.238-42.936,18.249c-16.738,4.036-35.16,6.017-55.291,6.017c-9.088,0-18.174-0.321-27.164-1.04
			c-9.037-0.668-17.703-1.56-26.021-2.6c-8.297-1.064-16.145-2.303-23.498-3.689c-7.355-1.411-14.016-2.872-19.959-4.457v-45.188
			c13.123,4.903,27.881,8.765,44.248,11.563c16.367,2.798,34.988,4.185,55.811,4.185c15.057,0,27.881-1.188,38.504-3.541
			c10.574-2.353,19.264-5.868,25.975-10.499c6.734-4.63,11.637-10.276,14.707-16.937c3.07-6.636,4.607-14.262,4.607-22.83
			c0-9.285-2.602-17.233-7.727-23.795c-5.176-6.563-11.984-12.405-20.379-17.581c-8.395-5.175-18-9.904-28.771-14.188
			c-10.771-4.309-21.74-8.716-32.957-13.272s-22.186-9.483-32.957-14.832c-10.77-5.348-20.379-11.637-28.771-18.917
			c-8.395-7.255-15.18-15.797-20.354-25.603c-5.176-9.806-7.727-21.468-7.727-34.963c0-11.711,2.451-23.25,7.355-34.64
			c4.877-11.39,12.504-21.493,22.83-30.333c10.35-8.864,23.596-15.995,39.814-21.393c16.17-5.448,35.482-8.171,57.891-8.171
			c5.77,0,12.033,0.272,18.795,0.817c6.734,0.495,13.543,1.263,20.477,2.229c6.934,0.94,13.742,2.03,20.502,3.268
			c6.734,1.213,12.998,2.526,18.77,3.937v42.02c-13.496-3.838-26.965-6.784-40.461-8.79c-13.469-2.03-26.518-3.021-39.121-3.021
			c-26.791,0-46.502,4.457-59.105,13.396c-12.602,8.914-18.916,20.947-18.916,35.978c0,9.31,2.6,17.258,7.775,23.895
			c5.148,6.66,11.934,12.603,20.328,17.877c8.418,5.249,18,10.004,28.771,14.312c10.771,4.284,21.74,8.716,32.957,13.248
			c11.217,4.556,22.211,9.558,32.982,15.005c10.746,5.398,20.328,11.836,28.746,19.289c8.395,7.453,15.178,16.144,20.33,26.123
			C5501.146,760.169,5503.722,771.979,5503.722,785.648z"/>
		<path fill="#FFFFFF" d="M5812.59,878.625h-58.807l-128.461-168.35v168.35h-46.749V535.339h46.749v159.436l125.836-159.436h55.391
			l-135.518,163.125L5812.59,878.625z"/>
	</g>
</g>
<path fill="#692080" d="M10261.98,1112.224c-41.178-36.398-90.229-37.291-123.236-19.809
	c-33.006,17.456-50.635,52.814-88.025,52.814c-6.568,0-12.32-0.313-17.629-0.97V262.552h-588.713v-0.714h-825.082v0.714h-518.6
	v867.5c37.537-4.038,57.148-40.535,92.234-59.081c37.129-19.685,88.334-13.67,134.674,27.31
	c46.377,40.93,65.926,184.351,5.25,249.967c-60.689,65.631-149.668,34.935-177.09,12.501
	c-22.211-18.199-30.383-31.322-55.068-36.919v871.14h879.568c0.283,3.761,0.424,7.764,0.424,12.133
	c0,37.414-35.322,55.02-52.803,88.051c-17.457,32.98-16.604,82.008,19.82,123.26c36.387,41.178,177.164,54.994,235.502,1.09
	c58.299-53.955,22.123-132.992,2.166-157.381c-19.945-24.391-32.994-29.688-35.197-67.127c0-0.008,0-0.017-0.002-0.025h882.916
	v-880.34c1.82-0.073,3.652-0.069,5.496,0.039c37.414,2.229,42.762,15.277,67.152,35.259c24.365,19.932,103.426,56.133,157.355-2.228
	C10317.023,1289.387,10303.207,1148.596,10261.98,1112.224z"/>
<path fill="#4F1D70" d="M8315.281,1108.507c-41.178-36.398-90.229-37.291-123.236-19.809
	c-33.006,17.456-50.635,52.814-88.025,52.814c-6.566,0-12.32-0.313-17.629-0.97V258.836h-861.707c0,0,0.002,0.001,0.002,0.001
	l-206.434,0c0,0,0-0.001,0-0.002h-864.256v867.5c37.537-4.038,57.148-37.535,92.234-56.081
	c37.131-19.685,94.334-15.67,140.674,25.31c46.377,40.93,59.926,187.351-0.75,252.967c-60.678,65.642-150.668,30.935-178.09,8.501
	c-22.211-18.199-29.383-31.322-54.068-36.919v871.14h879.568c0.283,3.761,0.424,7.764,0.424,12.133
	c0,37.414-35.322,55.019-52.803,88.05c-17.457,32.981-16.604,82.009,19.82,123.26c36.387,41.177,177.164,54.994,235.502,1.089
	c58.299-53.954,22.123-132.992,2.166-157.38c-19.945-24.39-32.994-29.688-35.197-67.127c0-0.008,0-0.017,0-0.025h882.914v-880.34
	c1.822-0.074,3.654-0.07,5.496,0.039c37.414,2.229,42.762,15.277,67.152,35.259c24.365,19.932,103.426,56.133,157.355-2.228
	C8370.324,1285.671,8356.508,1144.88,8315.281,1108.507z"/>
<g>
	<g>
		<path fill="#FFFFFF" d="M9102.811,1190.244c0,15.996-1.234,31.301-3.703,45.929c-2.465,14.633-6.424,28.237-11.863,40.827
			c-5.449,12.589-12.502,24.027-21.18,34.317c-8.67,10.294-19.309,19.099-31.893,26.408c-12.59,7.319-27.219,12.974-43.885,16.969
			c-16.676,4-35.643,5.998-56.9,5.998h-71.445v-333.493h85.986c52.055,0,90.875,13.396,116.482,40.189
			C9090.01,1094.18,9102.811,1135.132,9102.811,1190.244z M9055.094,1193.563c0-23.643-2.213-43.633-6.633-59.962
			c-4.424-16.329-11.145-29.51-20.16-39.551c-9.014-10.034-20.328-17.305-33.932-21.814c-13.613-4.505-29.6-6.761-47.973-6.761
			h-39.039v255.922h33.938C9017.162,1321.396,9055.094,1278.782,9055.094,1193.563z"/>
		<path fill="#FFFFFF" d="M9394.707,1191.775c0,29.943-3.529,55.798-10.588,77.567c-7.063,21.778-16.588,39.766-28.58,53.964
			c-11.99,14.208-26.023,24.754-42.096,31.643c-16.078,6.889-33.047,10.331-50.906,10.331c-21.432,0-40.1-3.867-56.008-11.606
			s-29.084-18.925-39.547-33.554c-10.465-14.628-18.244-32.447-23.352-53.457c-5.102-21.005-7.652-44.689-7.652-71.06
			c0-29.597,3.484-55.281,10.459-77.057c6.977-21.773,16.457-39.761,28.453-53.967c11.994-14.201,25.982-24.749,41.973-31.64
			c15.986-6.889,32.914-10.333,50.779-10.333c21.43,0,40.096,3.916,56.004,11.737c15.902,7.826,29.127,19.01,39.678,33.554
			c10.543,14.543,18.41,32.278,23.602,53.201C9392.115,1142.021,9394.707,1165.584,9394.707,1191.775z M9347.504,1195.094
			c0-19.561-1.49-37.464-4.467-53.71c-2.977-16.242-7.779-30.237-14.414-41.972c-6.633-11.739-15.18-20.836-25.645-27.305
			c-10.459-6.461-23.09-9.696-37.891-9.696c-14.291,0-26.578,3.444-36.869,10.333c-10.295,6.891-18.756,16.247-25.389,28.07
			s-11.57,25.684-14.797,41.59c-3.236,15.904-4.85,32.786-4.85,50.646c0,19.735,1.531,37.724,4.594,53.965
			c3.059,16.247,7.861,30.198,14.412,41.846c6.551,11.652,15.014,20.712,25.391,27.172c10.377,6.468,22.875,9.7,37.508,9.7
			c14.289,0,26.623-3.447,37-10.336c10.371-6.889,18.92-16.242,25.645-28.068c6.715-11.821,11.689-25.641,14.926-41.462
			C9345.885,1230.047,9347.504,1213.125,9347.504,1195.094z"/>
		<path fill="#FFFFFF" d="M9674.105,1065.984h-98.744v294.708h-45.928v-294.708h-98.746v-38.786h243.418V1065.984z"/>
	</g>
	<g>
		<path fill="#FFFFFF" d="M9091.326,1841.626h-59.193l-97.215-207.954l-28.072-66.851v168.151v106.654h-42.354v-333.487h58.432
			l92.619,196.978l33.426,76.291v-178.61v-94.659h42.357V1841.626z"/>
		<path fill="#FFFFFF" d="M9362.301,1841.626h-189.582v-333.487h189.582v38.271h-144.162v103.34h138.549v38.271h-138.549v114.823
			h144.162V1841.626z"/>
		<path fill="#FFFFFF" d="M9674.105,1546.918h-98.744v294.708h-45.928v-294.708h-98.746v-38.779h243.418V1546.918z"/>
	</g>
	<g>
		<path fill="#FFFFFF" d="M9086.494,768.819c0,18.267-2.537,34.801-7.605,49.6c-5.08,14.802-12.521,27.401-22.332,37.803
			c-9.814,10.402-21.828,18.436-36.045,24.103c-14.221,5.666-30.561,8.5-49.021,8.5c-20.293,0-37.506-2.708-51.639-8.119
			c-14.139-5.412-25.658-13.067-34.551-22.961c-8.9-9.895-15.387-21.775-19.459-35.646c-4.078-13.867-6.111-29.343-6.111-46.428
			V552.66h44.402v219.458c0,13.026,1.205,24.443,3.619,34.251c2.408,9.811,6.361,18.013,11.848,24.609
			c5.49,6.597,12.6,11.587,21.33,14.969c8.732,3.385,19.414,5.074,32.057,5.074c23.613,0,41.039-6.934,52.262-20.804
			c11.229-13.867,16.84-33.403,16.84-58.607V552.66h44.406V768.819z"/>
		<path fill="#FFFFFF" d="M9348.434,591.223H9209.98v107.573h131.221v37.802H9209.98v147.66h-45.402V552.66h183.855V591.223z"/>
		<path fill="#FFFFFF" d="M9672.74,884.258h-48.396l-22.699-72.308h-135.709l-22.951,72.308h-46.154L9505.1,552.66h60.869
			L9672.74,884.258z M9588.92,771.61l-55.131-177.342l-55.135,177.342H9588.92z"/>
	</g>
</g>
<g>
	<path fill="#FFFFFF" d="M7142.717,1197.769c0-23.473-2.229-43.332-6.586-59.525c-4.432-16.243-11.068-29.316-20.057-39.32
		c-8.914-9.954-20.18-17.184-33.699-21.666c-13.494-4.457-29.389-6.71-47.639-6.71h-38.801v254.221h33.723
		C7105.031,1324.768,7142.717,1282.452,7142.717,1197.769z M7190.086,1194.476c0,15.896-1.213,31.125-3.666,45.659
		c-2.451,14.51-6.363,28.055-11.785,40.534c-5.398,12.504-12.406,23.845-21.047,34.095c-8.592,10.227-19.166,18.967-31.67,26.222
		c-12.479,7.279-27.014,12.9-43.578,16.862c-16.59,3.962-35.434,5.967-56.555,5.967h-70.965V1032.54h85.426
		c51.699,0,90.254,13.297,115.707,39.915C7177.383,1099.072,7190.086,1139.754,7190.086,1194.476z"/>
	<path fill="#FFFFFF" d="M7433.189,1199.304c0-19.412-1.486-37.216-4.455-53.359c-2.949-16.145-7.729-30.035-14.34-41.698
		c-6.561-11.637-15.029-20.675-25.43-27.113c-10.396-6.413-22.953-9.632-37.637-9.632c-14.236,0-26.42,3.417-36.646,10.25
		c-10.25,6.859-18.645,16.169-25.23,27.906c-6.586,11.737-11.49,25.504-14.658,41.326c-3.244,15.772-4.854,32.561-4.854,50.314
		c0,19.561,1.535,37.463,4.58,53.583c3.049,16.144,7.801,29.985,14.287,41.574c6.537,11.588,14.932,20.551,25.232,27.014
		c10.324,6.388,22.73,9.632,37.289,9.632c14.188,0,26.42-3.417,36.746-10.276c10.299-6.858,18.793-16.144,25.479-27.881
		c6.686-11.736,11.613-25.479,14.809-41.202C7431.578,1234.044,7433.189,1217.231,7433.189,1199.304z M7480.086,1196.036
		c0,29.713-3.541,55.415-10.549,77.032c-7.006,21.641-16.439,39.518-28.4,53.607c-11.885,14.089-25.826,24.588-41.771,31.447
		c-15.971,6.858-32.832,10.251-50.586,10.251c-21.293,0-39.842-3.863-55.639-11.539c-15.797-7.676-28.896-18.793-39.295-33.329
		c-10.4-14.534-18.15-32.214-23.178-53.087c-5.098-20.898-7.6-44.421-7.6-70.593c0-29.416,3.465-54.92,10.375-76.561
		c6.906-21.617,16.34-39.47,28.252-53.608c11.934-14.089,25.799-24.588,41.721-31.421c15.871-6.834,32.684-10.301,50.414-10.301
		c21.295,0,39.84,3.912,55.662,11.688c15.773,7.75,28.896,18.892,39.42,33.328c10.449,14.46,18.273,32.09,23.449,52.865
		C7477.486,1146.588,7480.086,1170.012,7480.086,1196.036z"/>
	<polygon fill="#FFFFFF" points="7757.605,1071.042 7659.527,1071.042 7659.527,1363.816 7613.895,1363.816 7613.895,1071.042 
		7515.818,1071.042 7515.818,1032.54 7757.605,1032.54 	"/>
	<polygon fill="#FFFFFF" points="7181.023,1843.907 7122.217,1843.907 7025.646,1637.301 6997.742,1570.917 6997.742,1843.907 
		6955.699,1843.907 6955.699,1512.605 7013.738,1512.605 7105.75,1708.266 7138.93,1784.06 7138.93,1512.605 7181.023,1512.605 	"/>
	<polygon fill="#FFFFFF" points="7450.199,1843.907 7261.867,1843.907 7261.867,1512.605 7450.199,1512.605 7450.199,1550.638 
		7306.984,1550.638 7306.984,1653.272 7444.629,1653.272 7444.629,1691.28 7306.984,1691.28 7306.984,1805.354 7450.199,1805.354 	
		"/>
	<polygon fill="#FFFFFF" points="7759.934,1551.133 7661.881,1551.133 7661.881,1843.907 7616.246,1843.907 7616.246,1551.133 
		7518.143,1551.133 7518.143,1512.605 7759.934,1512.605 	"/>
	<g>
		<path fill="#FFFFFF" d="M7178.277,892.863h-57l-124.402-163.125v163.125h-45.313V560.273h45.313v154.459l121.873-154.459h53.684
			l-131.283,158.025L7178.277,892.863z"/>
		<path fill="#FFFFFF" d="M7453.098,595.905l-169.713,254.716h173.029v42.242h-229.781V858.99l170.75-257.489h-166.145v-41.227
			h221.859V595.905z"/>
		<path fill="#FFFFFF" d="M7741.412,892.863h-59.029l-96.963-207.397l-27.98-66.657V786.49v106.373h-42.242V560.273h58.289
			l92.355,196.454l33.33,76.066V654.687v-94.414h42.24V892.863z"/>
	</g>
</g>
<path fill="#4F1D70" d="M4425.152,5009.778c-53.93-58.361-132.991-22.16-157.355-2.229c-24.391,19.982-29.739,33.031-67.153,35.26
	c-1.843,0.108-3.675,0.112-5.497,0.039v-880.34H2262.753v862.14c24.687-5.597,32.857-12.72,55.068-30.919
	c27.422-22.434,113.57-57.024,174.247,8.617c60.677,65.616,44.377,210.07-2,251c-46.34,40.98-99.871,48.686-137,29
	c-35.086-18.545-52.778-50.883-90.315-54.92v867.5h562.315v0.403h730.831v-0.403h639.249v-881.708
	c5.308-0.657,11.063-0.97,17.63-0.97c37.39,0,55.02,35.358,88.025,52.814c33.007,17.482,82.058,16.59,123.235-19.809
	C4465.266,5208.882,4479.081,5068.091,4425.152,5009.778z"/>
<g>
	<path fill="#7F1A7F" d="M1411.688,4249.72c0,0-56.963-40.037-54.239-86.316c2.204-37.439,15.253-42.737,35.198-67.127
		c19.957-24.389,56.133-103.427-2.167-157.381c-58.337-53.904-199.115-40.088-235.502,1.09
		c-36.422,41.251-37.277,90.278-19.82,123.26c17.481,33.031,52.803,50.637,52.803,88.05c0,37.438-9.88,48.804-38.491,98.302
		C1196.762,4250.71,1411.688,4249.72,1411.688,4249.72z"/>
	<path fill="#7F1A7F" d="M2475.367,5010.698c-53.93-58.361-132.991-22.16-157.355-2.229c-24.391,19.982-29.739,33.031-67.153,35.26
		c-1.843,0.108-3.675,0.112-5.497,0.039v-880.34H312.968v862.14c24.687-5.597,32.857-12.72,55.068-30.919
		c27.422-22.434,113.57-57.024,174.247,8.617c60.677,65.616,44.377,210.07-2,251c-46.34,40.98-99.871,48.686-137,29
		c-35.086-18.545-52.778-50.883-90.315-54.92v867.5h562.315v0.403h730.831v-0.403h639.249V5214.14
		c5.308-0.658,11.063-0.971,17.63-0.971c37.39,0,55.02,35.358,88.025,52.814c33.007,17.482,82.058,16.59,123.235-19.809
		C2515.48,5209.802,2529.296,5069.011,2475.367,5010.698z"/>
</g>
<g>
	<g>
		<path fill="#FFFFFF" d="M3328.988,5105.52c0,15.699-1.2,30.754-3.628,45.139c-2.426,14.387-6.313,27.758-11.674,40.139
			c-5.386,12.381-12.281,23.646-20.824,33.75c-8.53,10.127-18.979,18.768-31.335,25.973c-12.394,7.182-26.792,12.777-43.171,16.664
			c-16.416,3.963-35.037,5.918-55.973,5.918h-70.234v-327.934h84.559c51.169,0,89.363,13.174,114.52,39.543
			C3316.409,5011.033,3328.988,5051.293,3328.988,5105.52z M3282.079,5108.765c0-23.25-2.18-42.911-6.513-58.981
			c-4.37-16.021-10.956-29.019-19.833-38.875c-8.877-9.855-20.008-17.035-33.353-21.443c-13.396-4.432-29.131-6.659-47.182-6.659
			h-38.38v251.669h33.353C3244.788,5234.475,3282.079,5192.58,3282.079,5108.765z"/>
		<path fill="#FFFFFF" d="M3616.018,5107.006c0,29.439-3.467,54.869-10.399,76.264c-6.934,21.443-16.293,39.098-28.129,53.088
			c-11.736,13.939-25.578,24.314-41.375,31.1c-15.822,6.785-32.512,10.15-50.042,10.15c-21.097,0-39.47-3.787-55.069-11.414
			c-15.648-7.602-28.623-18.595-38.924-32.98c-10.301-14.387-17.927-31.918-22.929-52.594c-5.026-20.647-7.526-43.9-7.526-69.85
			c0-29.119,3.416-54.35,10.3-75.793c6.833-21.395,16.144-39.098,27.979-53.039c11.762-13.99,25.529-24.339,41.252-31.125
			c15.724-6.757,32.338-10.15,49.943-10.15c21.071,0,39.395,3.863,55.043,11.537c15.649,7.676,28.674,18.695,39.023,32.983
			c10.375,14.337,18.125,31.741,23.227,52.345C3613.442,5058.104,3616.018,5081.254,3616.018,5107.006z M3569.616,5110.25
			c0-19.215-1.46-36.819-4.408-52.791c-2.922-15.971-7.627-29.737-14.163-41.275c-6.513-11.541-14.931-20.479-25.206-26.842
			c-10.277-6.363-22.732-9.533-37.242-9.533c-14.089,0-26.173,3.367-36.274,10.152c-10.127,6.783-18.447,15.945-24.959,27.607
			c-6.537,11.59-11.365,25.256-14.561,40.906c-3.193,15.6-4.778,32.238-4.778,49.77c0,19.412,1.511,37.092,4.531,53.088
			c3.021,15.994,7.75,29.688,14.139,41.152c6.487,11.439,14.807,20.328,25.009,26.691c10.176,6.365,22.482,9.533,36.894,9.533
			c14.015,0,26.147-3.342,36.349-10.152c10.202-6.783,18.62-15.945,25.207-27.583c6.636-11.612,11.489-25.231,14.708-40.782
			C3568.03,5144.643,3569.616,5128.004,3569.616,5110.25z"/>
		<path fill="#FFFFFF" d="M3890.79,4983.301h-97.113v289.801h-45.188v-289.801h-97.063v-38.133h239.364V4983.301z"/>
	</g>
	<g>
		<path fill="#FFFFFF" d="M3320,5748.314h-58.176l-95.602-204.477l-27.607-65.739v165.329v104.887h-41.674v-327.934h57.471
			l91.083,193.68l32.858,75.025v-175.604v-93.102H3320V5748.314z"/>
		<path fill="#FFFFFF" d="M3586.452,5748.314h-186.4v-327.934h186.4v37.637h-141.73v101.619h136.234v37.637h-136.234v112.909h141.73
			V5748.314z"/>
		<path fill="#FFFFFF" d="M3893.044,5458.537h-97.064v289.777h-45.164v-289.777h-97.112v-38.156h239.34V5458.537z"/>
	</g>
	<g>
		<path fill="#FFFFFF" d="M3346.346,4640.137c0,29.59-3.479,55.119-10.449,76.587c-6.97,21.517-16.38,39.271-28.228,53.31
			c-11.811,14.016-25.678,24.414-41.549,31.225c-15.859,6.785-32.61,10.201-50.24,10.201c-21.159,0-39.569-3.813-55.291-11.49
			c-15.711-7.65-28.723-18.668-39.048-33.129c-10.338-14.412-17.989-32.016-23.028-52.741c-5.051-20.726-7.564-44.124-7.564-70.147
			c0-29.219,3.455-54.574,10.326-76.066c6.883-21.492,16.242-39.245,28.066-53.26c11.86-14.041,25.665-24.439,41.449-31.25
			c15.761-6.783,32.486-10.201,50.142-10.201c21.134,0,39.556,3.889,55.267,11.591c15.711,7.724,28.747,18.767,39.146,33.128
			c10.449,14.338,18.188,31.842,23.325,52.494C3343.771,4591.037,3346.346,4614.313,3346.346,4640.137z M3299.771,4643.455
			c0-19.313-1.473-36.992-4.433-53.037c-2.921-16.045-7.676-29.838-14.237-41.426s-14.98-20.576-25.293-26.965
			c-10.338-6.363-22.805-9.557-37.401-9.557c-14.126,0-26.271,3.416-36.399,10.176c-10.176,6.809-18.534,16.07-25.071,27.707
			c-6.562,11.662-11.427,25.381-14.596,41.08c-3.207,15.697-4.792,32.361-4.792,49.967c0,19.486,1.498,37.266,4.531,53.311
			c3.021,16.045,7.774,29.813,14.2,41.301c6.488,11.514,14.845,20.428,25.083,26.816c10.251,6.389,22.595,9.559,37.043,9.559
			c14.076,0,26.246-3.369,36.51-10.178c10.251-6.809,18.694-16.021,25.306-27.707c6.648-11.688,11.576-25.33,14.758-40.903
			C3298.173,4677.947,3299.771,4661.234,3299.771,4643.455z"/>
		<path fill="#FFFFFF" d="M3631.468,4806.902h-43.826l-6.537-205.268l-2.773-78.84l-15.352,45.832l-48.631,130.986h-31
			l-46.354-125.934l-15.351-50.885l-0.991,82.381l-5.793,201.727h-42.316l16.119-329.197h53.138l44.322,123.93l14.361,41.82
			l13.865-41.82l46.6-123.93h54.623L3631.468,4806.902z"/>
		<path fill="#FFFFFF" d="M3894.924,4717.738c0,15.648-3.169,29.317-9.557,41.078c-6.339,11.762-15.277,21.518-26.693,29.342
			c-11.414,7.801-25.132,13.619-41.202,17.506c-15.995,3.887-33.7,5.795-52.989,5.795c-8.765,0-17.431-0.348-26.098-1.016
			c-8.617-0.668-16.936-1.51-24.909-2.525c-7.997-1.016-15.501-2.18-22.532-3.516c-7.057-1.361-13.42-2.799-19.165-4.283v-43.357
			c12.628,4.729,26.741,8.443,42.44,11.117c15.698,2.699,33.55,4.012,53.508,4.012c14.461,0,26.742-1.139,36.919-3.416
			c10.151-2.229,18.472-5.598,24.935-10.078c6.463-4.434,11.167-9.83,14.113-16.219c2.921-6.389,4.383-13.668,4.383-21.913
			c0-8.89-2.451-16.491-7.379-22.78c-4.977-6.289-11.514-11.936-19.561-16.912c-8.072-4.902-17.235-9.459-27.56-13.594
			c-10.35-4.109-20.897-8.32-31.621-12.703c-10.746-4.357-21.293-9.111-31.643-14.211c-10.301-5.15-19.487-11.193-27.559-18.15
			c-8.097-6.981-14.535-15.154-19.487-24.563c-5.002-9.387-7.479-20.553-7.479-33.502c0-11.242,2.377-22.359,7.082-33.254
			c4.705-10.896,11.984-20.627,21.914-29.094c9.879-8.469,22.606-15.328,38.156-20.504c15.525-5.225,34.022-7.824,55.539-7.824
			c5.521,0,11.538,0.248,17.976,0.744c6.462,0.494,13.024,1.236,19.685,2.129c6.635,0.965,13.147,2.006,19.635,3.193
			c6.487,1.164,12.479,2.428,18.025,3.766v40.285c-12.974-3.689-25.899-6.488-38.8-8.445c-12.925-1.904-25.454-2.871-37.538-2.871
			c-25.701,0-44.594,4.283-56.652,12.826c-12.084,8.566-18.176,20.057-18.176,34.518c0,8.889,2.477,16.539,7.429,22.928
			c5.002,6.363,11.489,12.059,19.536,17.109c8.098,5.053,17.259,9.633,27.584,13.719c10.326,4.135,20.873,8.369,31.619,12.727
			c10.722,4.408,21.295,9.162,31.62,14.336c10.325,5.225,19.487,11.416,27.584,18.547c8.047,7.131,14.534,15.477,19.512,25.059
			C3892.448,4693.324,3894.924,4704.641,3894.924,4717.738z"/>
	</g>
</g>
<g>
	<g>
		<path fill="#FFFFFF" d="M1332.14,5101.747c0,15.46-1.189,30.252-3.563,44.391c-2.373,14.145-6.181,27.295-11.414,39.461
			c-5.244,12.169-12.03,23.226-20.377,33.17c-8.347,9.949-18.58,18.459-30.689,25.525c-12.112,7.072-26.188,12.54-42.227,16.402
			c-16.043,3.863-34.292,5.793-54.748,5.793h-68.742v-322.331h82.734c50.084,0,87.438,12.946,112.075,38.843
			C1319.823,5008.897,1332.14,5048.479,1332.14,5101.747z M1286.23,5104.954c0-22.852-2.13-42.172-6.383-57.955
			c-4.259-15.783-10.724-28.523-19.396-38.227c-8.675-9.699-19.561-16.727-32.651-21.086c-13.096-4.354-28.478-6.535-46.158-6.535
			h-37.56v247.359h32.652C1249.73,5228.511,1286.23,5187.324,1286.23,5104.954z"/>
		<path fill="#FFFFFF" d="M1612.995,5103.228c0,28.939-3.397,53.93-10.188,74.971c-6.795,21.051-15.959,38.438-27.495,52.161
			c-11.539,13.731-25.042,23.923-40.508,30.581c-15.466,6.662-31.792,9.988-48.98,9.988c-20.621,0-38.583-3.74-53.888-11.221
			c-15.306-7.48-27.984-18.289-38.052-32.431c-10.066-14.136-17.555-31.358-22.466-51.665c-4.908-20.306-7.364-43.197-7.364-68.686
			c0-28.607,3.354-53.431,10.066-74.479c6.711-21.043,15.833-38.432,27.374-52.16c11.541-13.726,25-23.921,40.385-30.581
			c15.383-6.657,31.668-9.988,48.858-9.988c20.618,0,38.578,3.784,53.886,11.345c15.303,7.564,28.026,18.373,38.177,32.432
			c10.144,14.055,17.713,31.197,22.708,51.42C1610.501,5055.136,1612.995,5077.913,1612.995,5103.228z M1567.579,5106.435
			c0-18.904-1.436-36.211-4.297-51.914c-2.863-15.697-7.487-29.223-13.872-40.567c-6.382-11.345-14.606-20.14-24.672-26.39
			c-10.064-6.246-22.218-9.372-36.458-9.372c-13.75,0-25.572,3.329-35.476,9.987c-9.905,6.66-18.043,15.703-24.425,27.131
			c-6.386,11.43-11.133,24.826-14.241,40.197c-3.111,15.374-4.665,31.691-4.665,48.955c0,19.072,1.472,36.459,4.421,52.156
			c2.943,15.705,7.565,29.188,13.868,40.449c6.3,11.262,14.445,20.02,24.427,26.262c9.984,6.253,22.011,9.374,36.092,9.374
			c13.75,0,25.613-3.329,35.599-9.987c9.979-6.662,18.205-15.699,24.674-27.129c6.464-11.426,11.25-24.785,14.36-40.075
			C1566.021,5140.22,1567.579,5123.862,1567.579,5106.435z"/>
		<path fill="#FFFFFF" d="M1881.824,4981.646h-95.01v284.844h-44.19v-284.844h-95.01v-37.487h234.21V4981.646z"/>
	</g>
	<g>
		<path fill="#FFFFFF" d="M1319.832,5733.597h-57.215l-93.961-200.994l-27.131-64.615v162.523v103.086h-40.937v-322.33h56.474
			l89.522,190.391l32.308,73.736v-172.633v-91.494h40.94V5733.597z"/>
		<path fill="#FFFFFF" d="M1581.74,5733.597H1398.5v-322.33h183.239v36.992H1442.4v99.881h133.915v36.992H1442.4v110.979h139.34
			V5733.597z"/>
		<path fill="#FFFFFF" d="M1883.11,5448.751h-95.441v284.846h-44.392v-284.846h-95.442v-37.484h235.274V5448.751z"/>
	</g>
	<g>
		<path fill="#FFFFFF" d="M1313.22,4808.26h-55.642l-91.377-201.776l-26.383-64.867v163.156v103.487h-39.812v-323.586h54.924
			l87.059,191.132l31.417,74.025v-173.305v-91.853h39.814V4808.26z"/>
		<path fill="#FFFFFF" d="M1583.277,4808.26h-55.643l-91.378-201.776l-26.383-64.867v163.156v103.487h-39.812v-323.586h54.923
			l87.059,191.132l31.419,74.025v-173.305v-91.853h39.813V4808.26z"/>
		<path fill="#FFFFFF" d="M1880.67,4484.674l-106.486,323.586h-57.559l-104.09-323.586h48.207l67.634,218.117l19.187,63.876
			l19.666-63.876l67.873-218.117H1880.67z"/>
	</g>
</g>
</svg>
