<svg width="8503.9px" height="8503.9px" enable-background="new 0 0 8503.94 8503.94" version="1.1" viewBox="0 0 8503.9 8503.9" xmlns="http://www.w3.org/2000/svg">
  <g fill="#7F1A7F">
    <path d="m5519.9 5488.1h2477.5v-2477.5h-1115.3c10.826 40.667 51.778 65.238 73.524 106.35 25.206 47.587 23.937 118.35-28.603 177.78-52.477 59.492-255.59 79.396-339.75 1.619-84.127-77.81-31.968-191.9-3.175-227.05 20.159-24.572 35.365-35.81 43.811-58.699h-1108.1v1112.2c48.127-5.143 73.301-51.873 118.25-75.715 47.587-25.238 118.38-23.904 177.81 28.572 59.43 52.508 79.365 255.59 1.588 339.75-77.81 84.191-191.87 31.969-227.05 3.176-28.476-23.303-38.983-40.096-70.603-47.334v1116.9z"/>
    <path d="m7886.8 4426.9s51.365-73.016 110.64-69.524c48 2.825 54.825 19.587 86.096 45.144 31.238 25.555 132.64 71.968 201.78-2.794 69.111-74.794 51.396-255.33-1.429-301.94-52.857-46.699-115.71-47.841-158.06-25.428-42.285 22.412-64.857 67.714-112.83 67.714-47.968 0-62.539-12.667-126.03-49.365-1.429 60.665-0.159 336.19-0.159 336.19z"/>
    <path d="m6579 5384.5s72.984 51.396 69.492 110.73c-2.826 47.904-19.556 54.793-45.143 86.031-25.588 31.27-71.969 132.64 2.825 201.75 74.762 69.143 255.27 51.429 301.94-1.428 46.666-52.826 47.81-115.72 25.365-157.97-22.381-42.35-67.683-64.921-67.683-112.92 0-47.968 12.635-62.509 49.365-126-60.666-1.427-336.16-0.189-336.16-0.189z"/>
  </g>
  <g fill="#692080">
    <path d="m5500.5 5488.1v-2477.6h-2477.5v1115.3c40.667-10.825 65.238-51.778 106.35-73.523 47.619-25.238 118.35-23.937 177.81 28.571s79.365 255.59 1.587 339.75c-77.81 84.159-191.87 31.968-227.05 3.206-24.572-20.127-35.81-35.365-58.699-43.809v1108.1h1112.2c-5.174-48.127-51.905-73.302-75.746-118.25-25.206-47.684-23.904-118.38 28.604-177.84 52.476-59.429 255.62-79.429 339.71-1.556 84.191 77.778 32 191.84 3.176 227.02-23.271 28.476-40.064 38.952-47.303 70.635h1116.9z"/>
    <path d="m4439.1 3131.1s-73.016-52.921-69.523-113.94c2.825-49.396 19.556-56.413 45.143-88.635 25.588-32.19 72.477-136.51-2.254-207.68-74.793-71.175-255.3-52.953-301.94 1.46-46.698 54.381-48.317 119.08-25.937 162.64 22.413 43.587 67.683 66.826 67.683 116.19 0 49.46-12.667 64.444-49.333 129.81 60.634 1.43 336.16 0.16 336.16 0.16z"/>
    <path d="m5396.9 4429s52.539-72.983 113.18-69.492c49.079 2.826 56.032 19.557 88.032 45.144 31.968 25.556 135.59 71.937 206.32-2.856 70.667-74.763 52.603-255.21-1.429-301.91-54.063-46.635-118.35-47.778-161.62-25.397-43.27 22.413-66.35 67.714-115.43 67.714-49.048 0-63.937-12.667-128.86-49.365-1.491 60.635-0.19 336.16-0.19 336.16z"/>
  </g>
  <g fill="#fff">
    <path d="m4329.5 3704.4c0 20.571-4.189 38.508-12.539 53.937-8.381 15.428-20.096 28.285-35.048 38.507-15.017 10.222-33.016 17.905-54.032 22.984-21.08 5.08-44.286 7.619-69.651 7.619-11.397 0-22.889-0.444-34.222-1.333s-22.254-1.968-32.699-3.333c-10.476-1.301-20.349-2.857-29.619-4.603-9.238-1.778-17.619-3.651-25.079-5.619v-56.889c16.476 6.222 35.079 11.047 55.714 14.54 20.604 3.555 44 5.301 70.223 5.301 18.984 0 35.08-1.46 48.445-4.476 13.333-2.92 24.222-7.365 32.73-13.207 8.444-5.841 14.666-12.92 18.508-21.301 3.873-8.381 5.746-17.968 5.746-28.793 0-11.651-3.238-21.651-9.715-29.905-6.507-8.254-15.016-15.619-25.619-22.158-10.603-6.477-22.635-12.445-36.222-17.842-13.556-5.396-27.365-10.984-41.492-16.698-14.063-5.746-27.905-11.968-41.46-18.667-13.587-6.762-25.651-14.666-36.222-23.809s-19.175-19.873-25.619-32.222c-6.54-12.35-9.746-27.016-9.746-44 0-14.73 3.111-29.302 9.238-43.619 6.19-14.317 15.746-27.048 28.73-38.19 13.016-11.143 29.746-20.096 50.127-26.984 20.381-6.794 44.667-10.222 72.92-10.222 7.27 0 15.143 0.349 23.651 0.984 8.413 0.698 17.048 1.619 25.778 2.825 8.667 1.238 17.301 2.572 25.778 4.159 8.477 1.523 16.35 3.175 23.619 4.952v52.857c-16.953-4.825-33.937-8.508-50.921-11.048s-33.396-3.777-49.238-3.777c-33.714 0-58.54 5.587-74.413 16.825-15.841 11.238-23.81 26.381-23.81 45.302 0 11.683 3.238 21.714 9.778 30.095 6.508 8.381 15.016 15.842 25.619 22.477 10.571 6.604 22.635 12.635 36.19 18.032 13.587 5.365 27.397 10.953 41.492 16.667 14.127 5.778 27.937 12.063 41.492 18.857 13.587 6.825 25.619 14.921 36.19 24.286 10.604 9.365 19.143 20.317 25.65 32.889 6.509 12.6 9.748 27.457 9.748 44.6z"/>
    <path d="m4646.9 3524.3c0-27.746-9.079-49.016-27.238-63.81-18.189-14.762-43.619-22.127-76.222-22.127h-60.159v177.9h54.857c34.826 0 61.65-7.65 80.508-22.825 18.858-15.238 28.254-38.254 28.254-69.142zm61.207-2.604c0 17.587-3.334 35.111-9.969 52.413-6.571 17.27-16.857 32.762-30.73 46.381-13.873 13.714-31.619 24.762-53.238 33.27-21.555 8.508-47.396 12.73-77.332 12.73h-53.557v155.05h-58.857v-432.1h121.68c21.365 0 41.873 2.349 61.46 7.048 19.587 4.825 36.857 12.476 51.746 23.016 14.857 10.603 26.73 24.254 35.556 40.984 8.792 16.762 13.237 37.143 13.237 61.206z"/>
    <path d="m5017.8 3694.2c0-11.016-2.317-20.952-6.953-29.745-4.603-8.857-11.332-16.286-20.158-22.35-8.793-6.063-19.555-10.73-32.223-14.032-12.697-3.333-26.951-4.952-42.793-4.952h-60.19v148.76h62.159c33.714 0 58.824-6.285 75.365-18.857 16.539-12.572 24.793-32.191 24.793-58.826zm-14.223-191.78c0-8.794-1.301-17.143-3.968-24.921-2.635-7.873-7.271-14.571-13.873-20.222-6.603-5.587-15.556-10.063-26.794-13.365-11.238-3.301-25.428-4.984-42.635-4.984h-60.825v135.27h58.825c13.461 0 25.619-1.46 36.571-4.317 10.89-2.857 20.255-7.27 28.063-13.238 7.842-5.937 13.904-13.396 18.191-22.317 4.319-8.922 6.445-19.557 6.445-31.906zm76.731 189.75c0 20.762-4.031 39.079-12.096 55.079-8.031 15.969-19.492 29.46-34.349 40.477-14.889 11.047-32.856 19.429-53.937 25.143-21.048 5.746-44.444 8.604-70.223 8.604h-113.08v-432.1h123.62c96.349 0 144.51 35.016 144.51 105.11 0 23.365-5.557 43.46-16.699 60.19-11.143 16.73-29.238 29.206-54.412 37.333 11.714 2.223 22.793 5.969 33.27 11.238 10.477 5.302 19.65 12.127 27.619 20.508 7.904 8.381 14.223 18.286 18.825 29.746 4.603 11.493 6.953 24.413 6.953 38.667z"/>
    <path d="m4286.2 4225.1c0-30.603-2.889-56.54-8.635-77.651-5.777-21.207-14.445-38.286-26.127-51.27-11.651-13.016-26.318-22.444-43.937-28.286-17.683-5.81-38.381-8.762-62.159-8.762h-50.571v331.62h43.937c98.349 1e-3 147.49-55.237 147.49-165.65zm61.778-4.285c0 20.73-1.587 40.508-4.793 59.492-3.207 18.952-8.318 36.635-15.365 52.889-7.048 16.35-16.223 31.143-27.461 44.477-11.205 13.333-25.016 24.762-41.301 34.223-16.318 9.491-35.27 16.793-56.889 21.968-21.587 5.175-46.19 7.81-73.683 7.81h-92.603v-432.13h111.43c67.429 0 117.75 17.365 150.92 52.063 33.144 34.728 49.747 87.808 49.747 159.2z"/>
    <path d="m4665.1 4227.1c0-25.333-1.938-48.54-5.778-69.587-3.841-21.08-10.063-39.207-18.698-54.381-8.54-15.207-19.65-27.016-33.175-35.397-13.587-8.413-29.937-12.572-49.111-12.572-18.54 0-34.444 4.477-47.777 13.365-13.333 8.953-24.286 21.08-32.921 36.413-8.539 15.301-14.952 33.238-19.143 53.873-4.223 20.635-6.286 42.476-6.286 65.587 0 25.619 1.968 48.92 5.968 70 3.938 21.016 10.159 39.11 18.668 54.222 8.476 15.079 19.428 26.825 32.889 35.144 13.428 8.381 29.65 12.603 48.603 12.603 18.54 0 34.477-4.476 47.937-13.397 13.396-8.92 24.508-21.016 33.207-36.412 8.73-15.238 15.174-33.175 19.365-53.683 4.157-20.508 6.252-42.444 6.252-65.778zm61.174-4.317c0 38.793-4.604 72.317-13.746 100.51-9.143 28.222-21.46 51.523-36.984 69.904-15.555 18.413-33.746 32.096-54.57 41.016-20.826 8.953-42.826 13.397-65.938 13.397-27.809 0-51.968-5.017-72.571-15.048-20.635-10-37.683-24.508-51.237-43.492-13.557-18.92-23.684-42.031-30.254-69.238-6.604-27.238-9.938-57.937-9.938-92.095 0-38.317 4.508-71.556 13.556-99.841 9.048-28.19 21.333-51.492 36.857-69.905 15.524-18.381 33.683-32.063 54.413-40.984 20.698-8.921 42.635-13.46 65.777-13.46 27.746 0 51.969 5.143 72.572 15.27 20.57 10.127 37.745 24.635 51.428 43.492 13.619 18.793 23.842 41.809 30.54 68.92 6.73 27.111 10.095 57.62 10.095 91.556z"/>
    <polygon points="5088.3 4059.8 4960.3 4059.8 4960.3 4441.7 4900.8 4441.7 4900.8 4059.8 4772.8 4059.8 4772.8 4009.5 5088.3 4009.5"/>
    <polygon points="4330.1 5064.8 4253.4 5064.8 4127.4 4795.3 4091.1 4708.7 4091.1 5064.8 4036.2 5064.8 4036.2 4632.7 4112 4632.7 4232 4887.9 4275.2 4986.8 4275.2 4632.7 4330.1 4632.7"/>
    <polygon points="4681.2 5064.8 4435.6 5064.8 4435.6 4632.7 4681.2 4632.7 4681.2 4682.3 4494.4 4682.3 4494.4 4816.2 4674 4816.2 4674 4865.8 4494.4 4865.8 4494.4 5014.5 4681.2 5014.5"/>
    <polygon points="5085.2 4682.9 4957.3 4682.9 4957.3 5064.8 4897.8 5064.8 4897.8 4682.9 4769.8 4682.9 4769.8 4632.7 5085.2 4632.7"/>
  </g>
  <g fill="#fff">
    <path d="m6801.3 4250c0-30.889-2.921-57.016-8.698-78.381-5.777-21.333-14.539-38.571-26.35-51.651-11.777-13.174-26.57-22.667-44.349-28.54s-38.698-8.857-62.73-8.857h-51.016v334.57h44.349c99.176 1e-3 148.79-55.714 148.79-167.14zm62.318-4.318c0 20.889-1.555 40.921-4.793 60.032-3.238 19.144-8.381 36.89-15.523 53.365-7.144 16.476-16.318 31.429-27.651 44.857-11.365 13.46-25.271 24.983-41.714 34.508-16.477 9.587-35.619 16.984-57.397 22.19-21.81 5.238-46.54 7.873-74.381 7.873h-93.365v-435.94h112.41c68 0 118.73 17.46 152.25 52.508 33.458 34.985 50.157 88.573 50.157 160.6z"/>
    <path d="m7183.5 4252.1c0-25.587-1.937-48.984-5.841-70.222-3.873-21.206-10.127-39.556-18.857-54.857-8.635-15.365-19.81-27.238-33.492-35.714-13.683-8.445-30.158-12.667-49.523-12.667-18.699 0-34.762 4.508-48.254 13.492-13.397 9.016-24.477 21.27-33.144 36.73-8.729 15.428-15.11 33.556-19.333 54.349-4.254 20.793-6.381 42.857-6.381 66.19 0 25.841 2.031 49.333 6.031 70.571 4 21.27 10.286 39.492 18.826 54.667 8.603 15.271 19.65 27.079 33.206 35.556 13.587 8.477 29.873 12.666 49.048 12.666 18.635 0 34.793-4.476 48.381-13.492 13.523-9.016 24.698-21.205 33.492-36.697 8.793-15.461 15.27-33.524 19.523-54.223 4.192-20.666 6.318-42.793 6.318-66.349zm61.714-4.317c0 39.111-4.635 72.952-13.873 101.36-9.205 28.476-21.65 52-37.301 70.571-15.683 18.572-34.032 32.318-55.048 41.365-21.017 8.984-43.206 13.492-66.571 13.492-28 0-52.413-5.079-73.207-15.175-20.825-10.127-38-24.729-51.714-43.873-13.651-19.11-23.841-42.381-30.508-69.873-6.667-27.46-9.968-58.413-9.968-92.889 0-38.699 4.539-72.286 13.65-100.76 9.143-28.444 21.492-51.937 37.174-70.54 15.684-18.571 33.969-32.317 54.857-41.333 20.921-9.016 43.016-13.524 66.35-13.524 28.063 0 52.477 5.143 73.238 15.333 20.825 10.254 38.063 24.857 51.904 43.841 13.746 19.048 24.032 42.222 30.857 69.587 6.763 27.336 10.16 58.129 10.16 92.415z"/>
    <polygon points="7610.5 4083.3 7481.4 4083.3 7481.4 4468.5 7421.4 4468.5 7421.4 4083.3 7292.3 4083.3 7292.3 4032.6 7610.5 4032.6"/>
    <polygon points="6848.7 5090.6 6771.3 5090.6 6644.2 4818.7 6607.5 4731.3 6607.5 5090.6 6552.1 5090.6 6552.1 4654.6 6628.5 4654.6 6749.6 4912.1 6793.3 5011.8 6793.3 4654.6 6848.7 4654.6"/>
    <polygon points="7202.9 5090.6 6955.1 5090.6 6955.1 4654.6 7202.9 4654.6 7202.9 4704.6 7014.5 4704.6 7014.5 4839.7 7195.6 4839.7 7195.6 4889.8 7014.5 4889.8 7014.5 5039.9 7202.9 5039.9"/>
    <polygon points="7610.5 4705.3 7481.4 4705.3 7481.4 5090.6 7421.4 5090.6 7421.4 4705.3 7292.3 4705.3 7292.3 4654.6 7610.5 4654.6"/>
    <path d="m6867.4 3848.8h-58.254l-8.73-272.89-3.683-104.79-20.413 60.921-64.635 174.13h-41.206l-61.587-167.43-20.445-67.619-1.333 109.49-7.683 268.19h-56.254l21.429-437.62h70.635l58.952 164.73 19.08 55.587 18.412-55.587 61.969-164.73h72.666l21.08 437.62z"/>
    <path d="m7217.6 3730.3c0 20.762-4.254 38.952-12.73 54.571-8.508 15.619-20.316 28.635-35.492 39.016-15.174 10.381-33.428 18.127-54.762 23.271-21.301 5.143-44.793 7.714-70.477 7.714-11.619 0-23.143-0.476-34.635-1.333-11.523-0.921-22.57-2.032-33.174-3.397-10.604-1.333-20.572-2.857-29.969-4.635-9.365-1.81-17.873-3.714-25.429-5.714v-57.587c16.73 6.222 35.556 11.143 56.413 14.73 20.889 3.556 44.571 5.365 71.174 5.365 19.176 0 35.524-1.524 49.049-4.54 13.492-3.016 24.539-7.46 33.111-13.396 8.603-5.873 14.856-13.111 18.762-21.619 3.936-8.444 5.873-18.159 5.873-29.111 0-11.81-3.271-21.937-9.873-30.285-6.604-8.381-15.238-15.842-25.969-22.477-10.698-6.571-22.92-12.571-36.635-18.032-13.746-5.46-27.746-11.111-42.031-16.953-14.318-5.746-28.318-12.095-42.032-18.889-13.746-6.825-25.968-14.857-36.667-24.127-10.73-9.27-19.365-20.127-25.937-32.635-6.603-12.508-9.873-27.333-9.873-44.54 0-14.952 3.112-29.683 9.365-44.19 6.222-14.508 15.968-27.429 29.11-38.667 13.207-11.27 30.096-20.349 50.763-27.301 20.635-6.92 45.238-10.381 73.81-10.381 7.365 0 15.365 0.318 23.937 1.016 8.603 0.635 17.302 1.587 26.128 2.857 8.824 1.207 17.523 2.604 26.126 4.159 8.603 1.587 16.571 3.238 23.937 5.048v53.555c-17.206-4.92-34.381-8.667-51.556-11.238-17.206-2.572-33.841-3.842-49.905-3.842-34.158 0-59.27 5.715-75.332 17.08-16.096 11.397-24.128 26.667-24.128 45.873 0 11.841 3.302 22 9.873 30.476 6.571 8.477 15.271 16.063 25.968 22.794 10.73 6.698 22.922 12.762 36.668 18.222s27.746 11.111 42 16.92c14.285 5.778 28.316 12.159 42.031 19.08s25.969 15.111 36.666 24.603c10.699 9.492 19.365 20.604 25.969 33.333 6.573 12.729 9.873 27.777 9.873 45.206z"/>
    <path d="m7611.4 3848.8h-74.984l-163.75-214.6v214.6h-59.619v-437.62h59.619v203.27l160.38-203.27h70.667l-172.79 207.9 180.48 229.71z"/>
  </g>
  <g fill="#7F1A7F">
    <path d="m3026.5 5509.1h2477.5v2477.5h-1115.3c10.857-40.636 51.777-65.206 73.523-106.32 25.207-47.588 23.938-118.38-28.57-177.81-52.508-59.46-255.59-79.365-339.78-1.586-84.127 77.809-32 191.87-3.175 227.05 20.127 24.571 35.365 35.777 43.81 58.667h-1108v-1102.5c48.064 5.143 73.397 50.285 118.22 66.063 50.826 17.905 118.35 23.937 177.81-28.54 59.492-52.539 79.397-255.62 1.619-339.78-77.841-84.158-191.9-31.969-227.05-3.176-28.476 23.303-38.984 40.064-70.603 47.365v-1116.9z"/>
    <path d="m5393.4 6570.2s51.43 73.017 110.7 69.524c47.969-2.794 54.826-19.556 86.063-45.144 31.271-25.586 132.64-71.936 201.75 2.826 69.175 74.793 51.429 255.27-1.397 301.94-52.824 46.667-115.71 47.778-158.03 25.397-42.285-22.413-64.857-67.715-112.86-67.715-47.968 0-62.539 12.698-126.03 49.334-1.398-60.603-0.192-336.16-0.192-336.16z"/>
    <path d="m4085.6 5612.6s72.984-52.57 69.492-113.27c-2.825-49.08-19.524-56.096-45.143-88.063-25.587-31.968-71.937-135.75 2.825-206.44 74.794-70.762 255.24-52.635 301.97 1.428 46.635 54.064 47.746 118.35 25.365 161.75-22.412 43.271-67.746 66.318-67.746 115.46 0 49.08 12.73 63.969 49.365 128.95-60.633 1.427-336.13 0.189-336.13 0.189z"/>
  </g>
  <g fill="#fff">
    <path d="m4306 6734c0-29.873-2.73-55.143-8.35-75.746-5.619-20.635-14.063-37.302-25.461-49.969-11.428-12.73-25.682-21.904-42.889-27.588-17.174-5.682-37.428-8.57-60.635-8.57h-49.333v323.4h42.921c95.842 1e-3 143.75-53.809 143.75-161.52zm60.316-4.191c0 20.191-1.523 39.557-4.666 58.064-3.111 18.477-8.127 35.682-14.984 51.588-6.889 15.872-15.81 30.316-26.73 43.301-11.016 13.048-24.443 24.158-40.349 33.429-15.905 9.237-34.381 16.413-55.46 21.429-21.048 5.047-44.984 7.555-71.905 7.555h-90.254v-421.4h108.67c65.778 0 114.79 16.952 147.17 50.793 32.349 33.871 48.507 85.586 48.507 155.24z"/>
    <path d="m4675.5 6736c0-24.697-1.873-47.332-5.65-67.841-3.715-20.507-9.81-38.222-18.223-53.048-8.35-14.857-19.174-26.317-32.381-34.508-13.238-8.19-29.207-12.254-47.873-12.254-18.031 0-33.588 4.381-46.604 13.048-13.016 8.698-23.714 20.508-32.095 35.492-8.382 14.921-14.604 32.444-18.667 52.54-4.127 20.096-6.158 41.428-6.158 64 0 24.92 1.968 47.682 5.841 68.189 3.841 20.541 9.905 38.159 18.19 52.857 8.285 14.762 18.953 26.191 32.096 34.35 13.111 8.223 28.889 12.254 47.396 12.254 18.063 0 33.619-4.317 46.73-13.079 13.143-8.667 23.904-20.476 32.412-35.46 8.508-14.889 14.794-32.381 18.857-52.35 4.097-19.999 6.129-41.364 6.129-64.19zm59.682-4.19c0 37.842-4.476 70.508-13.397 98-8.951 27.555-20.951 50.254-36.127 68.223-15.143 17.936-32.856 31.27-53.205 40-20.318 8.666-41.746 13.047-64.318 13.047-27.079 0-50.666-4.889-70.762-14.666-20.127-9.778-36.762-23.938-50-42.413-13.207-18.476-23.016-40.984-29.461-67.587-6.476-26.509-9.714-56.445-9.714-89.746 0-37.43 4.413-69.842 13.238-97.365 8.794-27.524 20.794-50.286 35.937-68.223s32.825-31.27 53.047-39.969c20.191-8.698 41.619-13.079 64.16-13.079 27.078 0 50.666 4.952 70.793 14.856 20.063 9.873 36.762 24 50.127 42.382 13.334 18.413 23.27 40.794 29.81 67.27 6.539 26.413 9.872 56.19 9.872 89.27z"/>
    <polygon points="5088.2 6572.8 4963.4 6572.8 4963.4 6945.2 4905.4 6945.2 4905.4 6572.8 4780.6 6572.8 4780.6 6523.8 5088.2 6523.8"/>
    <polygon points="4354.7 7555.9 4279.9 7555.9 4157.1 7293.1 4121.6 7208.7 4121.6 7555.9 4068.1 7555.9 4068.1 7134.5 4141.9 7134.5 4258.9 7383.4 4301.2 7479.8 4301.2 7134.5 4354.7 7134.5"/>
    <polygon points="4697.1 7555.9 4457.5 7555.9 4457.5 7134.5 4697.1 7134.5 4697.1 7182.9 4515 7182.9 4515 7313.5 4690 7313.5 4690 7361.8 4515 7361.8 4515 7506.9 4697.1 7506.9"/>
    <polygon points="5091.2 7183.5 4966.4 7183.5 4966.4 7555.9 4908.3 7555.9 4908.3 7183.5 4783.6 7183.5 4783.6 7134.5 5091.2 7134.5"/>
    <path d="m4351.3 6346.2h-72.508l-158.29-207.49v207.49h-57.587v-423.08h57.587v196.48l155.05-196.48h68.318l-167.05 200.98 174.48 222.1z"/>
    <path d="m4717 6346.2h-65.047l-63.111-135.33c-4.794-10.349-9.619-18.92-14.572-25.746-5.016-6.762-10.316-12.158-16.031-16.158-5.746-3.969-11.969-6.825-18.793-8.571-6.794-1.746-14.381-2.604-22.826-2.604h-27.174v188.41h-57.588v-423.08h113.24c24.635 0 45.777 2.73 63.461 8.096 17.714 5.396 32.222 12.984 43.523 22.666 11.333 9.684 19.65 21.397 24.92 35.111 5.271 13.715 7.969 28.857 7.969 45.492 0 13.175-1.969 25.65-5.842 37.365-3.904 11.777-9.65 22.445-17.333 32.063-7.618 9.587-17.11 17.905-28.476 24.921-11.334 7.016-24.35 12.223-39.016 15.683 11.873 4.095 21.968 11.27 30.285 21.523 8.317 10.255 16.762 23.937 25.396 40.952l67.017 139.21zm-92.254-306.86c0-22.666-7.079-39.588-21.174-50.826-14.159-11.237-34.064-16.856-59.746-16.856h-54.381v139.84h46.635c13.555 0 25.809-1.523 36.73-4.697 10.889-3.144 20.158-7.746 27.841-13.905 7.619-6.159 13.556-13.683 17.778-22.636 4.222-8.985 6.317-19.271 6.317-30.921z"/>
    <path d="m5105.7 5923.1-153.11 271.9v151.18h-58.254v-152.48l-153.11-270.6h69.588l84.158 154.73 31.08 62.158 28.508-56.349 85.111-160.54h66.031z"/>
  </g>
  <path d="m1581.3 5377.4s73 51.365 69.508 110.7c-2.826 47.969-19.572 54.793-45.159 86.063s-71.937 132.64 2.793 201.75c74.793 69.11 255.27 51.46 301.94-1.397 46.699-52.856 47.841-115.68 25.429-158.03-22.413-42.317-67.698-64.921-67.698-112.89 0-47.938 12.635-62.477 49.349-126-60.651-1.397-336.16-0.191-336.16-0.191z" fill="#4F1D70"/>
  <g fill="#692080">
    <path d="m520.05 6881.4v1108.1h1112.2c-5.159-48.096-51.905-73.271-75.73-118.25-25.206-47.619-23.92-118.35 28.587-177.84 52.476-59.429 255.62-79.365 339.75-1.556 84.159 77.778 32 191.84 3.174 227.02-23.301 28.508-40.095 38.983-47.317 70.635h1116.9v-2477.5h-2477.5v1115.2"/>
    <path d="m1936.4 5622.6s-73.032-51.396-69.54-110.7c2.825-47.968 19.571-54.793 45.127-86.063 25.619-31.27 71.968-132.6-2.762-201.75-74.794-69.144-255.3-51.43-301.94 1.396-46.699 52.857-47.81 115.68-25.413 158.03 22.413 42.318 67.683 64.922 67.683 112.83 0 48.031-12.667 62.604-49.349 126.06 60.651 1.399 336.19 0.192 336.19 0.192z"/>
    <path d="m2894 6930.4s53.397-72.984 115.02-69.492c49.841 2.794 56.92 19.556 89.492 45.144 32.476 25.555 137.81 71.936 209.65-2.826 71.873-74.825 53.492-255.27-1.46-301.97-54.921-46.604-120.25-47.746-164.22-25.365-43.968 22.413-67.492 67.779-117.33 67.779-49.873 0-64.953-12.73-130.95-49.43-1.492 60.667-0.19 336.16-0.19 336.16z"/>
    <path d="m623.67 6573.8s-51.397 73.017-110.7 69.524c-47.984-2.857-54.826-19.556-86.08-45.144-31.254-25.587-132.62-71.968-201.76 2.826-69.143 74.762-51.413 255.27 1.429 301.9 52.81 46.699 115.7 47.842 158 25.365 42.333-22.349 64.921-67.682 112.87-67.682 47.968 0 62.524 12.697 126.03 49.428 1.428-60.729 0.206-336.22 0.206-336.22z"/>
  </g>
  <g fill="#4F1D70">
    <path d="m520.05 3020.5h2477.5v2477.6h-1104.8c10.825-40.697 41.27-65.237 63.047-106.38 25.207-47.619 23.905-118.35-28.571-177.78-52.508-59.492-255.62-79.396-339.76-1.619-84.175 77.81-31.968 191.9-3.175 227.05 20.111 24.571 35.35 35.778 43.794 58.729h-1108.1v-1112.2c48.127 5.175 73.27 51.969 118.25 75.746 47.604 25.238 118.38 23.938 177.79-28.604 59.46-52.476 79.397-255.59 1.603-339.71-77.793-84.159-191.89-31.968-227.05-3.207-28.477 23.333-38.953 40.159-70.604 47.333v-1116.9z"/>
    <path d="m2893.9 4079.6s51.396 73.016 110.7 69.524c47.969-2.857 54.825-19.587 86.096-45.207 31.238-25.555 132.6-71.968 201.75 2.857 69.143 74.762 51.429 255.27-1.429 301.9-52.794 46.666-115.68 47.81-158 25.396-42.317-22.381-64.921-67.714-112.86-67.714-48 0-62.54 12.698-126.03 49.397-1.429-60.697-0.222-336.16-0.222-336.16z"/>
    <path d="m1935.1 3131.1s-73.032-51.333-69.54-110.67c2.825-48 19.555-54.793 45.127-86.064 25.587-31.27 71.968-132.6-2.778-201.78-74.794-69.111-255.29-51.397-301.94 1.396-46.698 52.889-47.793 115.75-25.413 158.03 22.413 42.349 67.699 64.92 67.699 112.89 0 48-12.667 62.571-49.35 126.03 60.636 1.429 336.19 0.159 336.19 0.159z"/>
  </g>
  <g fill="#fff">
    <path d="m1803.8 4226.4c0-29.238-2.714-54.032-8.222-74.254-5.46-20.222-13.793-36.54-24.968-48.984-11.159-12.413-25.159-21.46-42.016-27.016-16.889-5.587-36.683-8.381-59.444-8.381h-48.333v316.98h42.047c93.936 0 140.94-52.762 140.94-158.35zm59.127-4.096c0 19.81-1.54 38.794-4.571 56.889-3.095 18.095-7.984 34.984-14.73 50.604-6.762 15.556-15.492 29.745-26.238 42.508-10.746 12.762-23.905 23.651-39.508 32.698-15.603 9.048-33.714 16.096-54.381 21.016-20.635 4.984-44.127 7.429-70.429 7.429h-88.556v-413.08h106.56c64.476 0 112.56 16.571 144.25 49.777 31.698 33.174 47.603 83.904 47.603 152.16z"/>
    <path d="m2166 4228.4c0-24.223-1.873-46.413-5.587-66.508-3.619-20.127-9.619-37.46-17.81-52-8.222-14.54-18.825-25.81-31.778-33.841-12.953-8-28.635-12-46.92-12-17.715 0-32.953 4.286-45.715 12.794-12.73 8.54-23.238 20.127-31.396 34.762-8.223 14.667-14.35 31.841-18.381 51.524-4 19.746-5.969 40.635-5.969 62.762 0 24.445 1.905 46.73 5.715 66.857 3.809 20.096 9.714 37.365 17.841 51.811 8.063 14.443 18.54 25.682 31.429 33.65 12.857 8 28.349 12 46.477 12 17.714 0 32.952-4.254 45.81-12.762 12.857-8.54 23.46-20.127 31.777-34.762 8.317-14.667 14.477-31.778 18.477-51.365 3.999-19.588 6.03-40.572 6.03-62.922zm58.445-4.063c0 37.016-4.349 69.111-13.111 96.031-8.762 26.984-20.508 49.302-35.397 66.889-14.889 17.557-32.222 30.668-52.158 39.176-19.937 8.57-40.953 12.793-63.048 12.793-26.571 0-49.683-4.762-69.397-14.381-19.683-9.556-36-23.429-48.953-41.556-12.952-18.127-22.635-40.19-28.92-66.222-6.317-26-9.524-55.365-9.524-88.032 0-36.667 4.333-68.476 12.984-95.429 8.635-26.984 20.381-49.27 35.238-66.857 14.857-17.556 32.19-30.635 52.063-39.174 19.746-8.572 40.698-12.793 62.794-12.793 26.571 0 49.714 4.825 69.396 14.508 19.746 9.714 36.095 23.556 49.175 41.556 13.047 18.031 22.793 40 29.174 65.905 6.477 25.903 9.684 55.141 9.684 87.586z"/>
    <polygon points="2570.6 4068.4 2448.3 4068.4 2448.3 4433.5 2391.4 4433.5 2391.4 4068.4 2269.1 4068.4 2269.1 4020.4 2570.6 4020.4"/>
    <polygon points="1848.7 5032.1 1775.4 5032.1 1655 4774.5 1620.2 4691.7 1620.2 5032.1 1567.7 5032.1 1567.7 4619 1640.1 4619 1754.8 4863 1796.2 4957.5 1796.2 4619 1848.7 4619"/>
    <polygon points="2184.4 5032.1 1949.5 5032.1 1949.5 4619 2184.4 4619 2184.4 4666.4 2005.8 4666.4 2005.8 4794.4 2177.4 4794.4 2177.4 4841.8 2005.8 4841.8 2005.8 4984.1 2184.4 4984.1"/>
    <polygon points="2570.6 4667.1 2448.3 4667.1 2448.3 5032.1 2391.4 5032.1 2391.4 4667.1 2269.1 4667.1 2269.1 4619 2570.6 4619"/>
    <path d="m1835.2 3731.1c0 19.651-4.016 36.889-12.063 51.683-8.063 14.793-19.27 27.143-33.651 36.984-14.381 9.842-31.667 17.175-51.857 22.032s-42.476 7.302-66.81 7.302c-10.968 0-21.92-0.413-32.841-1.271-10.889-0.856-21.365-1.936-31.413-3.174-10.047-1.238-19.508-2.73-28.381-4.444-8.889-1.682-16.921-3.492-24.111-5.397v-54.571c15.873 5.937 33.683 10.571 53.46 13.968 19.762 3.365 42.238 5.047 67.429 5.047 18.19 0 33.683-1.396 46.492-4.254 12.777-2.825 23.254-7.079 31.413-12.667 8.111-5.619 14.063-12.445 17.762-20.508 3.683-8.031 5.556-17.238 5.556-27.587 0-11.207-3.143-20.794-9.381-28.73-6.222-7.904-14.429-15.016-24.572-21.238-10.158-6.222-21.746-11.937-34.762-17.111-13.016-5.207-26.286-10.54-39.825-16.063-13.54-5.492-26.81-11.46-39.794-17.937-13.016-6.413-24.603-14.063-34.762-22.826-10.159-8.793-18.35-19.079-24.571-30.92-6.254-11.873-9.381-25.937-9.381-42.222 0-14.159 2.968-28.127 8.889-41.873 5.937-13.746 15.127-25.968 27.587-36.667 12.492-10.667 28.508-19.301 48.096-25.841 19.571-6.54 42.889-9.842 69.968-9.842 6.952 0 14.524 0.318 22.683 0.953 8.143 0.667 16.381 1.524 24.746 2.699 8.35 1.143 16.587 2.508 24.746 3.968 8.143 1.492 15.714 3.08 22.683 4.762v50.762c-16.286-4.635-32.587-8.191-48.857-10.635-16.302-2.413-32.063-3.619-47.286-3.619-32.365 0-56.159 5.365-71.381 16.158-15.222 10.794-22.857 25.302-22.857 43.46 0 11.238 3.111 20.857 9.381 28.889 6.222 8.031 14.429 15.206 24.571 21.556 10.159 6.349 21.746 12.127 34.762 17.301s26.254 10.508 39.825 16.032c13.508 5.492 26.778 11.556 39.794 18.063 13.016 6.571 24.603 14.35 34.762 23.365 10.127 8.952 18.349 19.492 24.572 31.556 6.252 12.032 9.379 26.318 9.379 42.857z"/>
    <path d="m2230.2 3843.4h-61.556l-28.857-90.445h-172.6l-29.207 90.445h-58.698l137.71-414.73h77.396l135.81 414.73zm-106.6-140.92-70.127-221.78-70.095 221.78h140.22z"/>
    <path d="m2566.9 3843.4h-63.777l-61.842-132.67c-4.666-10.159-9.46-18.571-14.285-25.206-4.889-6.699-10.127-11.969-15.715-15.905-5.619-3.873-11.777-6.667-18.444-8.381-6.603-1.683-14.095-2.54-22.349-2.54h-26.635v184.7h-56.476v-414.73h111.05c24.127 0 44.826 2.635 62.159 7.937 17.365 5.301 31.619 12.698 42.699 22.19 11.111 9.556 19.238 21.016 24.413 34.444 5.206 13.429 7.778 28.286 7.778 44.571 0 12.921-1.873 25.111-5.683 36.667-3.841 11.523-9.492 22-16.984 31.396-7.524 9.429-16.794 17.556-27.937 24.444-11.08 6.889-23.842 12-38.223 15.397 11.619 4 21.524 11.047 29.683 21.079 8.127 10.063 16.444 23.46 24.889 40.127l65.682 136.48zm-90.444-300.83c0-22.19-6.92-38.825-20.762-49.841-13.873-10.953-33.397-16.477-58.54-16.477h-53.301v137.08h45.682c13.334 0 25.334-1.524 36-4.603 10.698-3.048 19.778-7.619 27.301-13.619 7.492-6.063 13.333-13.46 17.46-22.254 4.096-8.762 6.16-18.857 6.16-30.286z"/>
  </g>
  <g fill="#692080">
    <path d="m6886.8 2992.7h1108.1v-1112.2c-48.095 5.143-73.239 51.905-118.19 75.714-47.683 25.207-118.41 23.937-177.87-28.603-59.429-52.508-79.365-255.62-1.588-339.75 77.811-84.127 191.87-32 227.05-3.206 28.508 23.333 38.983 40.127 70.603 47.396v-1116.9h-2477.5v2477.5h1115.3"/>
    <path d="m5628 1576.4s-52.984 72.984-114.25 69.523c-49.492-2.857-56.571-19.556-88.857-45.174-32.254-25.587-136.89-71.968-208.25 2.825-71.428 74.762-53.111 255.27 1.429 301.9 54.571 46.699 119.46 47.81 163.14 25.397 43.682-22.381 67.016-67.714 116.57-67.714 49.491 0 64.54 12.73 130.06 49.365 1.492-60.635 0.158-336.13 0.158-336.13z"/>
    <path d="m6579 2880.3s72.984 51.365 69.492 110.73c-2.826 47.905-19.556 54.762-45.143 86.032-25.588 31.238-71.969 132.64 2.825 201.75 74.762 69.143 255.27 51.428 301.94-1.429 46.666-52.826 47.81-115.72 25.365-157.97-22.381-42.349-67.683-64.92-67.683-112.92 0-47.968 12.635-62.508 49.365-126-60.666-1.428-336.16-0.19-336.16-0.19z"/>
  </g>
  <g fill="#fff">
    <path d="m6780.5 1717.7c0-30.095-2.857-55.556-8.444-76.317-5.683-20.825-14.19-37.587-25.714-50.413-11.43-12.762-25.873-22.032-43.207-27.778-17.301-5.714-37.683-8.604-61.079-8.604h-49.746v325.94h43.237c96.636 0 144.95-54.254 144.95-162.82zm60.731-4.223c0 20.381-1.556 39.905-4.699 58.54-3.143 18.604-8.158 35.969-15.109 51.969-6.922 16.032-15.906 30.571-26.985 43.714-11.015 13.111-24.571 24.318-40.603 33.619-16 9.333-34.636 16.54-55.873 21.619-21.271 5.08-45.43 7.651-72.509 7.651h-90.983v-424.73h109.52c66.285 0 115.72 17.048 148.35 51.175 32.601 34.126 48.888 86.285 48.888 156.44z"/>
    <path d="m7152.9 1719.7c0-24.889-1.905-47.714-5.714-68.413-3.777-20.698-9.905-38.508-18.381-53.46-8.413-14.92-19.271-26.508-32.604-34.762-13.334-8.222-29.429-12.349-48.254-12.349-18.254 0-33.873 4.381-46.984 13.143-13.143 8.794-23.904 20.73-32.35 35.778-8.444 15.048-14.73 32.699-18.793 52.984-4.159 20.222-6.223 41.746-6.223 64.508 0 25.08 1.969 48.032 5.873 68.699 3.904 20.698 10 38.444 18.317 53.301 8.381 14.857 19.144 26.349 32.349 34.635 13.238 8.19 29.144 12.349 47.811 12.349 18.189 0 33.873-4.381 47.111-13.175 13.205-8.793 24.095-20.698 32.666-35.746 8.572-15.047 14.889-32.667 18.984-52.825 4.129-20.127 6.192-41.683 6.192-64.667zm60.127-4.191c0 38.095-4.54 71.048-13.524 98.762-8.983 27.746-21.078 50.667-36.412 68.73-15.238 18.063-33.111 31.524-53.556 40.318-20.476 8.793-42.095 13.143-64.856 13.143-27.303 0-51.08-4.952-71.334-14.793s-37.048-24.095-50.381-42.73c-13.334-18.635-23.27-41.301-29.715-68.063-6.539-26.793-9.746-56.953-9.746-90.508 0-37.714 4.445-70.413 13.302-98.159 8.857-27.715 20.952-50.604 36.223-68.73 15.302-18.063 33.079-31.524 53.491-40.286 20.35-8.762 41.905-13.207 64.636-13.207 27.302 0 51.079 5.016 71.365 14.984 20.222 9.937 37.048 24.222 50.54 42.73 13.396 18.54 23.428 41.143 30.063 67.778 6.571 26.634 9.904 56.667 9.904 90.031z"/>
    <polygon points="7568.8 1555.2 7443.1 1555.2 7443.1 1930.6 7384.6 1930.6 7384.6 1555.2 7258.8 1555.2 7258.8 1505.8 7568.8 1505.8"/>
    <polygon points="6829.6 2546.1 6754.2 2546.1 6630.4 2281.2 6594.6 2196.1 6594.6 2546.1 6540.7 2546.1 6540.7 2121.3 6615.1 2121.3 6733.1 2372.2 6775.6 2469.4 6775.6 2121.3 6829.6 2121.3"/>
    <polygon points="7174.7 2546.1 6933.3 2546.1 6933.3 2121.3 7174.7 2121.3 7174.7 2170.1 6991.1 2170.1 6991.1 2301.7 7167.6 2301.7 7167.6 2350.4 6991.1 2350.4 6991.1 2496.7 7174.7 2496.7"/>
    <polygon points="7571.8 2170.7 7446.1 2170.7 7446.1 2546.1 7387.6 2546.1 7387.6 2170.7 7261.8 2170.7 7261.8 2121.3 7571.8 2121.3"/>
    <path d="m6826.1 1326.8h-73.08l-159.49-209.14v209.14h-58.096v-426.41h58.096v198.03l156.25-198.03h68.826l-168.32 202.6 175.81 223.81z"/>
    <path d="m7178.4 946.03-217.59 326.57h221.84v54.159h-294.6v-43.429l218.92-330.13h-213.02v-52.857h284.44v45.682z"/>
    <path d="m7548.1 1326.8h-75.683l-124.32-265.9-35.873-85.46v351.36h-54.158v-426.41h74.729l118.41 251.87 42.73 97.524v-349.4h54.158v426.41z"/>
  </g>
  <g fill="#4F1D70">
    <path d="m5497.4 515.14h-2477.6v2477.5h1115.3c-10.825-40.667-51.777-65.238-73.523-106.32-25.238-47.651-23.937-118.38 28.571-177.84 52.508-59.46 255.62-79.365 339.75-1.556 84.158 77.778 32 191.81 3.175 226.98-20.127 24.604-35.333 35.778-43.778 58.73h1108.1v-1112.2c-48.096 5.143-73.27 51.905-118.22 75.714-47.65 25.207-118.38 23.937-177.84-28.603-59.46-52.508-79.365-255.62-1.619-339.75 77.841-84.127 191.9-32 227.08-3.206 28.477 23.333 38.984 40.127 70.604 47.396v-1116.9z"/>
    <path d="m3111.7 1580s-51.333 73.016-110.67 69.524c-47.937-2.857-54.794-19.556-86.063-45.174-31.238-25.556-132.6-71.937-201.75 2.857-69.143 74.762-51.428 255.27 1.429 301.9 52.826 46.667 115.68 47.81 158 25.397 42.318-22.413 64.92-67.714 112.89-67.714 47.968 0 62.508 12.698 126 49.365 1.429-60.636 0.159-336.16 0.159-336.16z"/>
  </g>
  <g fill="#fff">
    <path d="m4259.9 1712.1c0-31.111-2.857-57.333-8.699-78.825-5.809-21.492-14.635-38.794-26.476-52-11.905-13.207-26.73-22.762-44.603-28.698-17.937-5.905-38.953-8.857-63.08-8.857h-51.333v336.44h44.603c99.747-1e-3 149.59-56.032 149.59-168.06zm62.762-4.38c0 21.048-1.651 41.143-4.889 60.413-3.206 19.206-8.413 37.079-15.556 53.65-7.175 16.572-16.412 31.588-27.873 45.08-11.365 13.556-25.333 25.143-41.937 34.762-16.54 9.587-35.746 17.047-57.651 22.317-21.937 5.238-46.889 7.841-74.825 7.841h-93.905v-438.41h113.02c68.445 0 119.46 17.619 153.14 52.857 33.65 35.207 50.476 89.016 50.476 161.49z"/>
    <path d="m4644.4 1714.1c0-25.682-1.968-49.27-5.873-70.571-3.904-21.396-10.254-39.778-18.984-55.206-8.666-15.429-19.904-27.397-33.714-35.905-13.746-8.508-30.317-12.762-49.778-12.762-18.793 0-34.92 4.54-48.476 13.587-13.524 9.047-24.667 21.397-33.397 36.953-8.697 15.523-15.174 33.714-19.396 54.635-4.285 20.92-6.381 43.111-6.381 66.571 0 25.968 2 49.587 6.031 70.984 4.032 21.302 10.318 39.651 18.953 54.984 8.604 15.333 19.715 27.238 33.334 35.746 13.682 8.476 30.127 12.73 49.332 12.73 18.795 0 34.984-4.54 48.636-13.556 13.651-9.08 24.889-21.365 33.714-36.921 8.826-15.555 15.396-33.746 19.619-54.54 4.253-20.792 6.38-43.046 6.38-66.729zm62.065-4.349c0 39.333-4.636 73.333-13.969 101.97-9.238 28.604-21.777 52.254-37.556 70.921-15.778 18.698-34.159 32.571-55.302 41.619s-43.429 13.556-66.92 13.556c-28.191 0-52.73-5.048-73.651-15.207-20.89-10.19-38.254-24.92-52-44.159-13.714-19.207-23.968-42.604-30.667-70.254-6.73-27.651-10.096-58.73-10.096-93.397 0-38.953 4.604-72.667 13.746-101.33 9.207-28.635 21.684-52.286 37.461-70.921 15.715-18.698 34.096-32.54 55.143-41.619 21.016-9.016 43.238-13.587 66.762-13.587 28.159 0 52.699 5.143 73.619 15.429 20.921 10.286 38.286 24.984 52.159 44.127 13.873 19.111 24.222 42.413 31.048 69.968 6.793 27.461 10.223 58.445 10.223 92.889z"/>
    <polygon points="5073.7 1544.4 4943.9 1544.4 4943.9 1931.8 4883.5 1931.8 4883.5 1544.4 4753.7 1544.4 4753.7 1493.3 5073.7 1493.3"/>
    <polygon points="4310.7 2567.1 4232.9 2567.1 4105 2293.7 4068.1 2205.8 4068.1 2567.1 4012.4 2567.1 4012.4 2128.7 4089.3 2128.7 4211.1 2387.6 4255 2487.9 4255 2128.7 4310.7 2128.7"/>
    <polygon points="4666.9 2567.1 4417.6 2567.1 4417.6 2128.7 4666.9 2128.7 4666.9 2179 4477.4 2179 4477.4 2314.9 4659.5 2314.9 4659.5 2365.1 4477.4 2365.1 4477.4 2516.1 4666.9 2516.1"/>
    <polygon points="5076.8 2179.7 4947 2179.7 4947 2567.1 4886.6 2567.1 4886.6 2179.7 4756.8 2179.7 4756.8 2128.7 5076.8 2128.7"/>
    <path d="m4306.2 1308.5h-78.127l-128.29-274.44-37.08-88.191v362.64h-55.905v-440.13h77.143l122.22 259.97 44.127 100.7v-360.67h55.905v440.13z"/>
    <path d="m4681.7 1189.3c0 20.889-4.254 39.207-12.794 54.921-8.54 15.683-20.444 28.762-35.714 39.207-15.238 10.444-33.588 18.254-55.049 23.396-21.459 5.175-45.078 7.714-70.889 7.714-11.65 0-23.301-0.413-34.825-1.333-11.587-0.857-22.698-2-33.364-3.333-10.636-1.365-20.699-2.953-30.127-4.73-9.43-1.81-17.969-3.683-25.588-5.714v-57.937c16.825 6.286 35.746 11.238 56.73 14.825s44.857 5.365 71.555 5.365c19.303 0 35.746-1.524 49.365-4.54 13.557-3.016 24.699-7.523 33.303-13.46 8.635-5.937 14.92-13.175 18.856-21.714 3.937-8.508 5.905-18.286 5.905-29.27 0-11.905-3.334-22.095-9.905-30.508-6.635-8.413-15.365-15.905-26.127-22.54-10.763-6.635-23.079-12.698-36.89-18.19-13.809-5.523-27.873-11.174-42.254-17.016s-28.443-12.159-42.254-19.016c-13.809-6.857-26.127-14.92-36.889-24.254-10.762-9.301-19.46-20.254-26.096-32.826-6.635-12.571-9.904-27.523-9.904-44.825 0-15.016 3.143-29.81 9.429-44.413 6.254-14.603 16.032-27.556 29.271-38.889 13.27-11.365 30.254-20.508 51.047-27.428 20.73-6.984 45.492-10.477 74.223-10.477 7.396 0 15.428 0.349 24.096 1.048 8.635 0.635 17.364 1.619 26.254 2.857 8.889 1.207 17.619 2.604 26.285 4.19 8.635 1.556 16.666 3.238 24.063 5.048v53.873c-17.302-4.921-34.571-8.698-51.873-11.27-17.27-2.603-34-3.873-50.159-3.873-34.349 0-59.619 5.714-75.777 17.175-16.158 11.429-24.254 26.857-24.254 46.127 0 11.937 3.334 22.127 9.969 30.635 6.603 8.54 15.301 16.158 26.063 22.92 10.794 6.73 23.08 12.826 36.889 18.349 13.811 5.492 27.873 11.175 42.255 16.984 14.381 5.841 28.476 12.254 42.286 19.238 13.777 6.921 26.063 15.175 36.856 24.73 10.763 9.555 19.46 20.698 26.063 33.492 6.667 12.796 9.969 27.938 9.969 45.462z"/>
    <path d="m5077.7 1308.5h-75.396l-164.7-215.84v215.84h-59.936v-440.13h59.936v204.41l161.33-204.41h71.016l-173.75 209.14 181.49 230.98z"/>
  </g>
  <g fill="#fff">
    <path d="m1887.1 6727.8c0 20.127-1.54 39.429-4.651 57.873-3.111 18.445-8.095 35.588-14.968 51.461-6.905 15.873-15.746 30.316-26.699 43.27-10.937 12.984-24.333 24.063-40.174 33.301-15.889 9.207-34.349 16.382-55.349 21.365-21.048 5.08-44.921 7.588-71.762 7.588h-90.047v-420.44h108.41c65.603 0 114.57 16.89 146.83 50.699 32.284 33.746 48.411 85.365 48.411 154.89zm-60.143 4.159c0-29.809-2.793-55.016-8.349-75.619-5.603-20.539-14.048-37.205-25.429-49.841-11.381-12.635-25.651-21.841-42.762-27.491-17.175-5.684-37.349-8.541-60.492-8.541h-49.207v322.67h42.762c95.667-1e-3 143.48-53.715 143.48-161.18z"/>
    <path d="m2255.1 6729.7c0 37.746-4.445 70.35-13.334 97.779-8.889 27.491-20.889 50.127-36.063 68.063-15.047 17.873-32.793 31.175-53.047 39.873-20.286 8.699-41.683 13.016-64.159 13.016-27.048 0-50.604-4.857-70.604-14.635-20.063-9.746-36.698-23.841-49.905-42.285-13.206-18.445-22.984-40.921-29.397-67.429-6.444-26.476-9.65-56.286-9.65-89.556 0-37.334 4.381-69.683 13.206-97.175 8.762-27.429 20.699-50.127 35.873-68 15.08-17.937 32.73-31.206 52.889-39.905 20.159-8.666 41.46-13.016 64.032-13.016 27.016 0 50.508 4.953 70.571 14.794s36.762 23.968 50.032 42.286c13.301 18.381 23.238 40.697 29.777 67.111 6.478 26.381 9.779 56.063 9.779 89.079zm-59.492 4.159c0-24.635-1.873-47.206-5.651-67.683-3.746-20.477-9.777-38.127-18.158-52.92-8.35-14.795-19.143-26.254-32.317-34.413-13.175-8.159-29.144-12.223-47.746-12.223-18.063 0-33.556 4.317-46.508 13.017-12.984 8.697-23.651 20.443-32 35.396-8.381 14.857-14.571 32.381-18.667 52.445-4.096 20-6.127 41.332-6.127 63.809 0 24.889 1.937 47.556 5.81 68.063s9.937 38.063 18.127 52.763c8.317 14.666 18.984 26.063 32.063 34.222 13.047 8.159 28.825 12.222 47.302 12.222 17.968 0 33.523-4.285 46.603-13.016 13.08-8.698 23.873-20.444 32.318-35.365 8.508-14.889 14.73-32.35 18.857-52.285 4.062-19.937 6.094-41.269 6.094-64.032z"/>
    <path d="m2607.4 6571.1h-124.51v371.56h-57.937v-371.56h-124.44v-48.89h306.89v48.89z"/>
    <path d="m1875.5 7551.9h-74.587l-122.57-262.16-35.396-84.285v346.44h-53.429v-420.44h73.683l116.78 248.32 42.127 96.191v-344.51h53.397v420.44z"/>
    <path d="m2217.2 7551.9h-238.98v-420.44h238.98v48.254h-181.71v130.28h174.67v48.254h-174.67v144.76h181.71v48.889z"/>
    <path d="m2610.2 7180.4h-124.44v371.52h-57.905v-371.52h-124.51v-48.92h306.86v48.92z"/>
    <path d="m1909.3 6131.1c0 37.937-4.46 70.667-13.397 98.19-8.937 27.588-21 50.35-36.19 68.35-15.143 17.969-32.921 31.301-53.27 40.031-20.333 8.699-41.81 13.08-64.413 13.08-27.127 0-50.73-4.889-70.889-14.73-20.143-9.81-36.826-23.937-50.064-42.477-13.254-18.477-23.063-41.047-29.524-67.619-6.476-26.571-9.698-56.571-9.698-89.937 0-37.46 4.429-69.968 13.238-97.523 8.825-27.556 20.825-50.317 35.984-68.286 15.207-18 32.905-31.333 53.143-40.063 20.206-8.698 41.651-13.079 64.286-13.079 27.095 0 50.714 4.984 70.857 14.857 20.143 9.904 36.857 24.063 50.19 42.476 13.397 18.382 23.317 40.825 29.905 67.302 6.54 26.476 9.842 56.317 9.842 89.428zm-59.714 4.254c0-24.762-1.889-47.429-5.683-68-3.746-20.571-9.841-38.254-18.254-53.11-8.413-14.857-19.207-26.382-32.429-34.572-13.254-8.158-29.238-12.254-47.952-12.254-18.111 0-33.683 4.381-46.667 13.047-13.047 8.73-23.762 20.604-32.143 35.524-8.413 14.952-14.651 32.54-18.714 52.667-4.111 20.127-6.143 41.492-6.143 64.063 0 24.983 1.921 47.778 5.81 68.349 3.873 20.572 9.968 38.223 18.207 52.953 8.317 14.762 19.032 26.19 32.159 34.381 13.143 8.19 28.968 12.254 47.492 12.254 18.047 0 33.65-4.317 46.81-13.048 13.143-8.729 23.968-20.54 32.444-35.523 8.523-14.984 14.841-32.477 18.92-52.444 4.095-20.065 6.143-41.493 6.143-64.287z"/>
    <path d="m2274.9 6345h-56.19l-8.381-263.18-3.556-101.08-19.682 58.762-62.35 167.94h-39.746l-59.429-161.46-19.683-65.238-1.27 105.62-7.429 258.64h-54.254l20.667-422.06h68.127l56.826 158.89 18.413 53.619 17.778-53.619 59.746-158.89h70.032l20.381 422.06z"/>
    <path d="m2612.7 6230.6c0 20.063-4.063 37.587-12.254 52.667-8.127 15.079-19.587 27.587-34.222 37.619-14.635 10-32.223 17.46-52.826 22.443-20.508 4.984-43.207 7.43-67.937 7.43-11.238 0-22.349-0.445-33.46-1.303-11.048-0.856-21.714-1.936-31.937-3.237-10.254-1.302-19.873-2.794-28.889-4.508-9.048-1.746-17.207-3.587-24.572-5.492v-55.587c16.191 6.063 34.286 10.824 54.413 14.254 20.127 3.46 43.016 5.143 68.604 5.143 18.54 0 34.286-1.461 47.333-4.381 13.016-2.857 23.683-7.175 31.969-12.921 8.286-5.683 14.317-12.603 18.095-20.794 3.746-8.19 5.619-17.523 5.619-28.096 0-11.396-3.143-21.143-9.46-29.205-6.381-8.064-14.762-15.303-25.08-21.684-10.349-6.285-22.095-12.127-35.333-17.428-13.27-5.27-26.793-10.667-40.54-16.286-13.778-5.587-27.301-11.683-40.571-18.222-13.207-6.604-24.984-14.35-35.333-23.271-10.381-8.952-18.635-19.429-24.984-31.491-6.412-12.033-9.587-26.35-9.587-42.953 0-14.412 3.047-28.666 9.079-42.635s15.365-26.445 28.096-37.302c12.666-10.857 28.984-19.651 48.92-26.286 19.905-6.698 43.619-10.031 71.207-10.031 7.079 0 14.793 0.317 23.047 0.952 8.286 0.635 16.699 1.587 25.238 2.729 8.508 1.238 16.857 2.572 25.174 4.096 8.317 1.492 16 3.111 23.111 4.826v51.65c-16.635-4.73-33.206-8.317-49.746-10.826-16.571-2.443-32.635-3.682-48.127-3.682-32.952 0-57.175 5.492-72.635 16.444-15.492 10.983-23.302 25.714-23.302 44.254 0 11.397 3.175 21.206 9.523 29.397 6.413 8.158 14.73 15.459 25.048 21.936 10.381 6.477 22.127 12.35 35.365 17.588 13.238 5.301 26.762 10.73 40.54 16.317 13.746 5.651 27.302 11.746 40.54 18.381 13.238 6.698 24.984 14.635 35.365 23.778 10.317 9.143 18.635 19.841 25.016 32.127 6.319 12.288 9.493 26.796 9.493 43.59z"/>
  </g>
</svg>
