<?xml version="1.0" encoding="utf-8"?>
<!-- Generator: Adobe Illustrator 15.0.0, SVG Export Plug-In . SVG Version: 6.00 Build 0)  -->
<!DOCTYPE svg PUBLIC "-//W3C//DTD SVG 1.1//EN" "http://www.w3.org/Graphics/SVG/1.1/DTD/svg11.dtd">
<svg version="1.1" id="Слой_1" xmlns="http://www.w3.org/2000/svg" xmlns:xlink="http://www.w3.org/1999/xlink" x="0px" y="0px"
	 width="8503.94px" height="8503.94px" viewBox="0 0 8503.94 8503.94" enable-background="new 0 0 8503.94 8503.94"
	 xml:space="preserve">
<g>
	<g>
		<path fill="#7F1A7F" d="M5519.893,5488.102h2477.525V3010.576H6882.146c10.826,40.667,51.778,65.238,73.524,106.349
			c25.206,47.587,23.937,118.35-28.603,177.778c-52.477,59.492-255.588,79.396-339.747,1.619
			c-84.127-77.81-31.968-191.905-3.175-227.047c20.159-24.572,35.365-35.81,43.811-58.699H5519.893v1112.16
			c48.127-5.143,73.301-51.873,118.254-75.715c47.587-25.238,118.381-23.904,177.809,28.572
			c59.43,52.508,79.365,255.587,1.588,339.746c-77.81,84.191-191.873,31.969-227.048,3.176
			c-28.476-23.303-38.983-40.096-70.603-47.334V5488.102z"/>
		<path fill="#7F1A7F" d="M7886.783,4426.895c0,0,51.365-73.016,110.635-69.524c48,2.825,54.825,19.587,86.096,45.144
			c31.238,25.555,132.635,71.968,201.777-2.794c69.111-74.794,51.396-255.334-1.429-301.937
			c-52.857-46.699-115.714-47.841-158.063-25.428c-42.285,22.412-64.857,67.714-112.826,67.714
			c-47.968,0-62.539-12.667-126.031-49.365C7885.513,4151.37,7886.783,4426.895,7886.783,4426.895z"/>
		<path fill="#7F1A7F" d="M6579.004,5384.482c0,0,72.984,51.396,69.492,110.73c-2.826,47.904-19.556,54.793-45.143,86.031
			c-25.588,31.27-71.969,132.635,2.825,201.746c74.762,69.143,255.271,51.429,301.937-1.428
			c46.666-52.826,47.81-115.715,25.365-157.969c-22.381-42.35-67.683-64.921-67.683-112.921c0-47.968,12.635-62.509,49.365-126
			C6854.496,5383.244,6579.004,5384.482,6579.004,5384.482z"/>
	</g>
	<g>
		<path fill="#692080" d="M5500.527,5488.102V3010.544H3023.001v1115.271c40.667-10.825,65.238-51.778,106.35-73.523
			c47.619-25.238,118.349-23.937,177.81,28.571s79.365,255.587,1.587,339.746c-77.81,84.159-191.874,31.968-227.048,3.206
			c-24.572-20.127-35.81-35.365-58.699-43.809v1108.096h1112.191c-5.174-48.127-51.905-73.302-75.746-118.254
			c-25.206-47.684-23.904-118.381,28.604-177.842c52.476-59.429,255.619-79.429,339.714-1.556
			c84.191,77.778,32,191.841,3.176,227.017c-23.271,28.476-40.064,38.952-47.303,70.635H5500.527z"/>
		<path fill="#692080" d="M4439.129,3131.115c0,0-73.016-52.921-69.523-113.937c2.825-49.396,19.556-56.413,45.143-88.635
			c25.588-32.19,72.477-136.508-2.254-207.683c-74.793-71.175-255.302-52.953-301.937,1.46
			c-46.698,54.381-48.317,119.08-25.937,162.635c22.413,43.587,67.683,66.826,67.683,116.191c0,49.46-12.667,64.444-49.333,129.809
			C4163.605,3132.385,4439.129,3131.115,4439.129,3131.115z"/>
		<path fill="#692080" d="M5396.939,4428.957c0,0,52.539-72.983,113.175-69.492c49.079,2.826,56.032,19.557,88.032,45.144
			c31.968,25.556,135.587,71.937,206.317-2.856c70.667-74.763,52.603-255.207-1.429-301.906
			c-54.063-46.635-118.35-47.778-161.619-25.397c-43.27,22.413-66.35,67.714-115.429,67.714c-49.048,0-63.937-12.667-128.857-49.365
			C5395.638,4153.434,5396.939,4428.957,5396.939,4428.957z"/>
	</g>
	<g>
		<path fill="#FFFFFF" d="M4329.51,3704.417c0,20.571-4.189,38.508-12.539,53.937c-8.381,15.428-20.096,28.285-35.048,38.507
			c-15.017,10.222-33.016,17.905-54.032,22.984c-21.08,5.08-44.286,7.619-69.651,7.619c-11.397,0-22.889-0.444-34.222-1.333
			c-11.333-0.889-22.254-1.968-32.699-3.333c-10.476-1.301-20.349-2.857-29.619-4.603c-9.238-1.778-17.619-3.651-25.079-5.619
			v-56.889c16.476,6.222,35.079,11.047,55.714,14.54c20.604,3.555,44,5.301,70.223,5.301c18.984,0,35.08-1.46,48.445-4.476
			c13.333-2.92,24.222-7.365,32.73-13.207c8.444-5.841,14.666-12.92,18.508-21.301c3.873-8.381,5.746-17.968,5.746-28.793
			c0-11.651-3.238-21.651-9.715-29.905c-6.507-8.254-15.016-15.619-25.619-22.158c-10.603-6.477-22.635-12.445-36.222-17.842
			c-13.556-5.396-27.365-10.984-41.492-16.698c-14.063-5.746-27.905-11.968-41.46-18.667c-13.587-6.762-25.651-14.666-36.222-23.809
			s-19.175-19.873-25.619-32.222c-6.54-12.35-9.746-27.016-9.746-44c0-14.73,3.111-29.302,9.238-43.619
			c6.19-14.317,15.746-27.048,28.73-38.19c13.016-11.143,29.746-20.096,50.127-26.984c20.381-6.794,44.667-10.222,72.92-10.222
			c7.27,0,15.143,0.349,23.651,0.984c8.413,0.698,17.048,1.619,25.778,2.825c8.667,1.238,17.301,2.572,25.778,4.159
			c8.477,1.523,16.35,3.175,23.619,4.952v52.857c-16.953-4.825-33.937-8.508-50.921-11.048c-16.984-2.54-33.396-3.777-49.238-3.777
			c-33.714,0-58.54,5.587-74.413,16.825c-15.841,11.238-23.81,26.381-23.81,45.302c0,11.683,3.238,21.714,9.778,30.095
			c6.508,8.381,15.016,15.842,25.619,22.477c10.571,6.604,22.635,12.635,36.19,18.032c13.587,5.365,27.397,10.953,41.492,16.667
			c14.127,5.778,27.937,12.063,41.492,18.857c13.587,6.825,25.619,14.921,36.19,24.286c10.604,9.365,19.143,20.317,25.65,32.889
			C4326.271,3672.417,4329.51,3687.274,4329.51,3704.417z"/>
		<path fill="#FFFFFF" d="M4646.875,3524.259c0-27.746-9.079-49.016-27.238-63.81c-18.189-14.762-43.619-22.127-76.222-22.127
			h-60.159v177.904h54.857c34.826,0,61.65-7.65,80.508-22.825C4637.479,3578.163,4646.875,3555.147,4646.875,3524.259z
			 M4708.082,3521.655c0,17.587-3.334,35.111-9.969,52.413c-6.571,17.27-16.857,32.762-30.73,46.381
			c-13.873,13.714-31.619,24.762-53.238,33.27c-21.555,8.508-47.396,12.73-77.332,12.73h-53.557v155.048h-58.857v-432.096h121.684
			c21.365,0,41.873,2.349,61.46,7.048c19.587,4.825,36.857,12.476,51.746,23.016c14.857,10.603,26.73,24.254,35.556,40.984
			C4703.637,3477.211,4708.082,3497.592,4708.082,3521.655z"/>
		<path fill="#FFFFFF" d="M5017.828,3694.227c0-11.016-2.317-20.952-6.953-29.745c-4.603-8.857-11.332-16.286-20.158-22.35
			c-8.793-6.063-19.555-10.73-32.223-14.032c-12.697-3.333-26.951-4.952-42.793-4.952h-60.19v148.762h62.159
			c33.714,0,58.824-6.285,75.365-18.857C5009.574,3740.481,5017.828,3720.862,5017.828,3694.227z M5003.605,3502.449
			c0-8.794-1.301-17.143-3.968-24.921c-2.635-7.873-7.271-14.571-13.873-20.222c-6.603-5.587-15.556-10.063-26.794-13.365
			c-11.238-3.301-25.428-4.984-42.635-4.984h-60.825v135.27h58.825c13.461,0,25.619-1.46,36.571-4.317
			c10.89-2.857,20.255-7.27,28.063-13.238c7.842-5.937,13.904-13.396,18.191-22.317
			C5001.479,3525.433,5003.605,3514.798,5003.605,3502.449z M5080.336,3692.195c0,20.762-4.031,39.079-12.096,55.079
			c-8.031,15.969-19.492,29.46-34.349,40.477c-14.889,11.047-32.856,19.429-53.937,25.143c-21.048,5.746-44.444,8.604-70.223,8.604
			h-113.079v-432.096h123.619c96.349,0,144.509,35.016,144.509,105.111c0,23.365-5.557,43.46-16.699,60.19
			c-11.143,16.73-29.238,29.206-54.412,37.333c11.714,2.223,22.793,5.969,33.27,11.238c10.477,5.302,19.65,12.127,27.619,20.508
			c7.904,8.381,14.223,18.286,18.825,29.746C5077.986,3665.021,5080.336,3677.941,5080.336,3692.195z"/>
		<path fill="#FFFFFF" d="M4286.24,4225.084c0-30.603-2.889-56.54-8.635-77.651c-5.777-21.207-14.445-38.286-26.127-51.27
			c-11.651-13.016-26.318-22.444-43.937-28.286c-17.683-5.81-38.381-8.762-62.159-8.762h-50.571v331.619h43.937
			C4237.097,4390.735,4286.24,4335.497,4286.24,4225.084z M4348.018,4220.799c0,20.73-1.587,40.508-4.793,59.492
			c-3.207,18.952-8.318,36.635-15.365,52.889c-7.048,16.35-16.223,31.143-27.461,44.477c-11.205,13.333-25.016,24.762-41.301,34.223
			c-16.318,9.491-35.27,16.793-56.889,21.968c-21.587,5.175-46.19,7.81-73.683,7.81h-92.603v-432.127h111.428
			c67.429,0,117.747,17.365,150.92,52.063C4331.415,4096.322,4348.018,4149.402,4348.018,4220.799z"/>
		<path fill="#FFFFFF" d="M4665.066,4227.084c0-25.333-1.938-48.54-5.778-69.587c-3.841-21.08-10.063-39.207-18.698-54.381
			c-8.54-15.207-19.65-27.016-33.175-35.397c-13.587-8.413-29.937-12.572-49.111-12.572c-18.54,0-34.444,4.477-47.777,13.365
			c-13.333,8.953-24.286,21.08-32.921,36.413c-8.539,15.301-14.952,33.238-19.143,53.873c-4.223,20.635-6.286,42.476-6.286,65.587
			c0,25.619,1.968,48.92,5.968,70c3.938,21.016,10.159,39.11,18.668,54.222c8.476,15.079,19.428,26.825,32.889,35.144
			c13.428,8.381,29.65,12.603,48.603,12.603c18.54,0,34.477-4.476,47.937-13.397c13.396-8.92,24.508-21.016,33.207-36.412
			c8.73-15.238,15.174-33.175,19.365-53.683C4662.971,4272.354,4665.066,4250.418,4665.066,4227.084z M4726.24,4222.767
			c0,38.793-4.604,72.317-13.746,100.508c-9.143,28.222-21.46,51.523-36.984,69.904c-15.555,18.413-33.746,32.096-54.57,41.016
			c-20.826,8.953-42.826,13.397-65.938,13.397c-27.809,0-51.968-5.017-72.571-15.048c-20.635-10-37.683-24.508-51.237-43.492
			c-13.557-18.92-23.684-42.031-30.254-69.238c-6.604-27.238-9.938-57.937-9.938-92.095c0-38.317,4.508-71.556,13.556-99.841
			c9.048-28.19,21.333-51.492,36.857-69.905c15.524-18.381,33.683-32.063,54.413-40.984c20.698-8.921,42.635-13.46,65.777-13.46
			c27.746,0,51.969,5.143,72.572,15.27c20.57,10.127,37.745,24.635,51.428,43.492c13.619,18.793,23.842,41.809,30.54,68.92
			C4722.875,4158.322,4726.24,4188.831,4726.24,4222.767z"/>
		<polygon fill="#FFFFFF" points="5088.272,4059.783 4960.305,4059.783 4960.305,4441.656 4900.813,4441.656 4900.813,4059.783 
			4772.844,4059.783 4772.844,4009.529 5088.272,4009.529 		"/>
		<polygon fill="#FFFFFF" points="4330.113,5064.799 4253.383,5064.799 4127.446,4795.339 4091.097,4708.736 4091.097,5064.799 
			4036.208,5064.799 4036.208,4632.672 4111.955,4632.672 4231.955,4887.91 4275.225,4986.768 4275.225,4632.672 4330.113,4632.672 
					"/>
		<polygon fill="#FFFFFF" points="4681.225,5064.799 4435.605,5064.799 4435.605,4632.672 4681.225,4632.672 4681.225,4682.291 
			4494.431,4682.291 4494.431,4816.164 4673.955,4816.164 4673.955,4865.752 4494.431,4865.752 4494.431,5014.545 
			4681.225,5014.545 		"/>
		<polygon fill="#FFFFFF" points="5085.225,4682.895 4957.289,4682.895 4957.289,5064.799 4897.765,5064.799 4897.765,4682.895 
			4769.828,4682.895 4769.828,4632.672 5085.225,4632.672 		"/>
	</g>
	<g>
		<path fill="#FFFFFF" d="M6801.321,4250.037c0-30.889-2.921-57.016-8.698-78.381c-5.777-21.333-14.539-38.571-26.35-51.651
			c-11.777-13.174-26.57-22.667-44.349-28.54s-38.698-8.857-62.73-8.857h-51.016v334.571h44.349
			C6751.703,4417.18,6801.321,4361.465,6801.321,4250.037z M6863.639,4245.719c0,20.889-1.555,40.921-4.793,60.032
			c-3.238,19.144-8.381,36.89-15.523,53.365c-7.144,16.476-16.318,31.429-27.651,44.857c-11.365,13.46-25.271,24.983-41.714,34.508
			c-16.477,9.587-35.619,16.984-57.397,22.19c-21.81,5.238-46.54,7.873-74.381,7.873h-93.365v-435.937h112.413
			c68,0,118.73,17.46,152.254,52.508C6846.94,4120.1,6863.639,4173.688,6863.639,4245.719z"/>
		<path fill="#FFFFFF" d="M7183.544,4252.068c0-25.587-1.937-48.984-5.841-70.222c-3.873-21.206-10.127-39.556-18.857-54.857
			c-8.635-15.365-19.81-27.238-33.492-35.714c-13.683-8.445-30.158-12.667-49.523-12.667c-18.699,0-34.762,4.508-48.254,13.492
			c-13.397,9.016-24.477,21.27-33.144,36.73c-8.729,15.428-15.11,33.556-19.333,54.349c-4.254,20.793-6.381,42.857-6.381,66.19
			c0,25.841,2.031,49.333,6.031,70.571c4,21.27,10.286,39.492,18.826,54.667c8.603,15.271,19.65,27.079,33.206,35.556
			c13.587,8.477,29.873,12.666,49.048,12.666c18.635,0,34.793-4.476,48.381-13.492c13.523-9.016,24.698-21.205,33.492-36.697
			c8.793-15.461,15.27-33.524,19.523-54.223C7181.418,4297.751,7183.544,4275.624,7183.544,4252.068z M7245.258,4247.751
			c0,39.111-4.635,72.952-13.873,101.365c-9.205,28.476-21.65,52-37.301,70.571c-15.683,18.572-34.032,32.318-55.048,41.365
			c-21.017,8.984-43.206,13.492-66.571,13.492c-28,0-52.413-5.079-73.207-15.175c-20.825-10.127-38-24.729-51.714-43.873
			c-13.651-19.11-23.841-42.381-30.508-69.873c-6.667-27.46-9.968-58.413-9.968-92.889c0-38.699,4.539-72.286,13.65-100.762
			c9.143-28.444,21.492-51.937,37.174-70.54c15.684-18.571,33.969-32.317,54.857-41.333c20.921-9.016,43.016-13.524,66.35-13.524
			c28.063,0,52.477,5.143,73.238,15.333c20.825,10.254,38.063,24.857,51.904,43.841c13.746,19.048,24.032,42.222,30.857,69.587
			C7241.861,4182.672,7245.258,4213.465,7245.258,4247.751z"/>
		<polygon fill="#FFFFFF" points="7610.496,4083.275 7481.418,4083.275 7481.418,4468.545 7421.354,4468.545 7421.354,4083.275 
			7292.307,4083.275 7292.307,4032.608 7610.496,4032.608 		"/>
		<polygon fill="#FFFFFF" points="6848.687,5090.577 6771.289,5090.577 6644.211,4818.704 6607.512,4731.339 6607.512,5090.577 
			6552.115,5090.577 6552.115,4654.608 6628.496,4654.608 6749.607,4912.102 6793.289,5011.848 6793.289,4654.608 
			6848.687,4654.608 		"/>
		<polygon fill="#FFFFFF" points="7202.909,5090.577 6955.068,5090.577 6955.068,4654.608 7202.909,4654.608 7202.909,4704.641 
			7014.465,4704.641 7014.465,4839.72 7195.576,4839.72 7195.576,4889.783 7014.465,4889.783 7014.465,5039.879 7202.909,5039.879 
					"/>
		<polygon fill="#FFFFFF" points="7610.496,4705.307 7481.418,4705.307 7481.418,5090.577 7421.354,5090.577 7421.354,4705.307 
			7292.307,4705.307 7292.307,4654.608 7610.496,4654.608 		"/>
		<g>
			<path fill="#FFFFFF" d="M6867.354,3848.767H6809.1l-8.73-272.889l-3.683-104.794l-20.413,60.921l-64.635,174.127h-41.206
				l-61.587-167.429l-20.445-67.619l-1.333,109.492l-7.683,268.19h-56.254l21.429-437.619h70.635l58.952,164.73l19.08,55.587
				l18.412-55.587l61.969-164.73h72.666L6867.354,3848.767z"/>
			<path fill="#FFFFFF" d="M7217.607,3730.259c0,20.762-4.254,38.952-12.73,54.571c-8.508,15.619-20.316,28.635-35.492,39.016
				c-15.174,10.381-33.428,18.127-54.762,23.271c-21.301,5.143-44.793,7.714-70.477,7.714c-11.619,0-23.143-0.476-34.635-1.333
				c-11.523-0.921-22.57-2.032-33.174-3.397c-10.604-1.333-20.572-2.857-29.969-4.635c-9.365-1.81-17.873-3.714-25.429-5.714
				v-57.587c16.73,6.222,35.556,11.143,56.413,14.73c20.889,3.556,44.571,5.365,71.174,5.365c19.176,0,35.524-1.524,49.049-4.54
				c13.492-3.016,24.539-7.46,33.111-13.396c8.603-5.873,14.856-13.111,18.762-21.619c3.936-8.444,5.873-18.159,5.873-29.111
				c0-11.81-3.271-21.937-9.873-30.285c-6.604-8.381-15.238-15.842-25.969-22.477c-10.698-6.571-22.92-12.571-36.635-18.032
				c-13.746-5.46-27.746-11.111-42.031-16.953c-14.318-5.746-28.318-12.095-42.032-18.889
				c-13.746-6.825-25.968-14.857-36.667-24.127c-10.73-9.27-19.365-20.127-25.937-32.635c-6.603-12.508-9.873-27.333-9.873-44.54
				c0-14.952,3.112-29.683,9.365-44.19c6.222-14.508,15.968-27.429,29.11-38.667c13.207-11.27,30.096-20.349,50.763-27.301
				c20.635-6.92,45.238-10.381,73.81-10.381c7.365,0,15.365,0.318,23.937,1.016c8.603,0.635,17.302,1.587,26.128,2.857
				c8.824,1.207,17.523,2.604,26.126,4.159c8.603,1.587,16.571,3.238,23.937,5.048v53.555c-17.206-4.92-34.381-8.667-51.556-11.238
				c-17.206-2.572-33.841-3.842-49.905-3.842c-34.158,0-59.27,5.715-75.332,17.08c-16.096,11.397-24.128,26.667-24.128,45.873
				c0,11.841,3.302,22,9.873,30.476c6.571,8.477,15.271,16.063,25.968,22.794c10.73,6.698,22.922,12.762,36.668,18.222
				s27.746,11.111,42,16.92c14.285,5.778,28.316,12.159,42.031,19.08s25.969,15.111,36.666,24.603
				c10.699,9.492,19.365,20.604,25.969,33.333C7214.307,3697.782,7217.607,3712.83,7217.607,3730.259z"/>
			<path fill="#FFFFFF" d="M7611.386,3848.767h-74.984l-163.746-214.604v214.604h-59.619v-437.619h59.619v203.27l160.381-203.27
				h70.667l-172.794,207.905L7611.386,3848.767z"/>
		</g>
	</g>
	<g>
		<path fill="#7F1A7F" d="M3026.525,5509.054h2477.526v2477.494H4388.748c10.857-40.636,51.777-65.206,73.523-106.317
			c25.207-47.588,23.938-118.381-28.57-177.811c-52.508-59.46-255.588-79.365-339.778-1.586
			c-84.127,77.809-32,191.872-3.175,227.047c20.127,24.571,35.365,35.777,43.81,58.667H3026.525V6884.039
			c48.064,5.143,73.397,50.285,118.222,66.063c50.826,17.905,118.35,23.937,177.81-28.54
			c59.492-52.539,79.397-255.619,1.619-339.777c-77.841-84.158-191.904-31.969-227.048-3.176
			c-28.476,23.303-38.984,40.064-70.603,47.365V5509.054z"/>
		<path fill="#7F1A7F" d="M5393.352,6570.229c0,0,51.43,73.017,110.699,69.524c47.969-2.794,54.826-19.556,86.063-45.144
			c31.271-25.586,132.636-71.936,201.746,2.826c69.175,74.793,51.429,255.27-1.397,301.937
			c-52.824,46.667-115.713,47.778-158.031,25.397c-42.285-22.413-64.857-67.715-112.857-67.715
			c-47.968,0-62.539,12.698-126.031,49.334C5392.146,6845.785,5393.352,6570.229,5393.352,6570.229z"/>
		<path fill="#7F1A7F" d="M4085.605,5612.641c0,0,72.984-52.57,69.492-113.27c-2.825-49.08-19.524-56.096-45.143-88.063
			c-25.587-31.968-71.937-135.746,2.825-206.444c74.794-70.762,255.238-52.635,301.968,1.428
			c46.635,54.064,47.746,118.35,25.365,161.746c-22.412,43.271-67.746,66.318-67.746,115.461c0,49.08,12.73,63.969,49.365,128.953
			C4361.098,5613.879,4085.605,5612.641,4085.605,5612.641z"/>
	</g>
	<g>
		<path fill="#FFFFFF" d="M4305.955,6734.039c0-29.873-2.73-55.143-8.35-75.746c-5.619-20.635-14.063-37.302-25.461-49.969
			c-11.428-12.73-25.682-21.904-42.889-27.588c-17.174-5.682-37.428-8.57-60.635-8.57h-49.333v323.396h42.921
			C4258.05,6895.563,4305.955,6841.753,4305.955,6734.039z M4366.271,6729.848c0,20.191-1.523,39.557-4.666,58.064
			c-3.111,18.477-8.127,35.682-14.984,51.588c-6.889,15.872-15.81,30.316-26.73,43.301c-11.016,13.048-24.443,24.158-40.349,33.429
			c-15.905,9.237-34.381,16.413-55.46,21.429c-21.048,5.047-44.984,7.555-71.905,7.555h-90.254v-421.396h108.667
			c65.778,0,114.793,16.952,147.174,50.793C4350.113,6608.482,4366.271,6660.197,4366.271,6729.848z"/>
		<path fill="#FFFFFF" d="M4675.479,6735.975c0-24.697-1.873-47.332-5.65-67.841c-3.715-20.507-9.81-38.222-18.223-53.048
			c-8.35-14.857-19.174-26.317-32.381-34.508c-13.238-8.19-29.207-12.254-47.873-12.254c-18.031,0-33.588,4.381-46.604,13.048
			c-13.016,8.698-23.714,20.508-32.095,35.492c-8.382,14.921-14.604,32.444-18.667,52.54c-4.127,20.096-6.158,41.428-6.158,64
			c0,24.92,1.968,47.682,5.841,68.189c3.841,20.541,9.905,38.159,18.19,52.857c8.285,14.762,18.953,26.191,32.096,34.35
			c13.111,8.223,28.889,12.254,47.396,12.254c18.063,0,33.619-4.317,46.73-13.079c13.143-8.667,23.904-20.476,32.412-35.46
			c8.508-14.889,14.794-32.381,18.857-52.35C4673.447,6780.166,4675.479,6758.801,4675.479,6735.975z M4735.161,6731.785
			c0,37.842-4.476,70.508-13.397,98c-8.951,27.555-20.951,50.254-36.127,68.223c-15.143,17.936-32.856,31.27-53.205,40
			c-20.318,8.666-41.746,13.047-64.318,13.047c-27.079,0-50.666-4.889-70.762-14.666c-20.127-9.778-36.762-23.938-50-42.413
			c-13.207-18.476-23.016-40.984-29.461-67.587c-6.476-26.509-9.714-56.445-9.714-89.746c0-37.43,4.413-69.842,13.238-97.365
			c8.794-27.524,20.794-50.286,35.937-68.223s32.825-31.27,53.047-39.969c20.191-8.698,41.619-13.079,64.16-13.079
			c27.078,0,50.666,4.952,70.793,14.856c20.063,9.873,36.762,24,50.127,42.382c13.334,18.413,23.27,40.794,29.81,67.27
			C4731.828,6668.928,4735.161,6698.705,4735.161,6731.785z"/>
		<polygon fill="#FFFFFF" points="5088.178,6572.832 4963.447,6572.832 4963.447,6945.213 4905.352,6945.213 4905.352,6572.832 
			4780.559,6572.832 4780.559,6523.816 5088.178,6523.816 		"/>
		<polygon fill="#FFFFFF" points="4354.748,7555.912 4279.923,7555.912 4157.065,7293.119 4121.605,7208.674 4121.605,7555.912 
			4068.113,7555.912 4068.113,7134.516 4141.923,7134.516 4258.938,7383.436 4301.193,7479.816 4301.193,7134.516 
			4354.748,7134.516 		"/>
		<polygon fill="#FFFFFF" points="4697.129,7555.912 4457.542,7555.912 4457.542,7134.516 4697.129,7134.516 4697.129,7182.864 
			4514.971,7182.864 4514.971,7313.468 4690.019,7313.468 4690.019,7361.849 4514.971,7361.849 4514.971,7506.896 
			4697.129,7506.896 		"/>
		<polygon fill="#FFFFFF" points="5091.162,7183.531 4966.367,7183.531 4966.367,7555.912 4908.336,7555.912 4908.336,7183.531 
			4783.574,7183.531 4783.574,7134.516 5091.162,7134.516 		"/>
		<g>
			<path fill="#FFFFFF" d="M4351.256,6346.197h-72.508l-158.286-207.492v207.492h-57.587v-423.08h57.587v196.477l155.047-196.477
				h68.318l-167.048,200.984L4351.256,6346.197z"/>
			<path fill="#FFFFFF" d="M4717.002,6346.197h-65.047l-63.111-135.334c-4.794-10.349-9.619-18.92-14.572-25.746
				c-5.016-6.762-10.316-12.158-16.031-16.158c-5.746-3.969-11.969-6.825-18.793-8.571c-6.794-1.746-14.381-2.604-22.826-2.604
				h-27.174v188.413h-57.588v-423.08h113.238c24.635,0,45.777,2.73,63.461,8.096c17.714,5.396,32.222,12.984,43.523,22.666
				c11.333,9.684,19.65,21.397,24.92,35.111c5.271,13.715,7.969,28.857,7.969,45.492c0,13.175-1.969,25.65-5.842,37.365
				c-3.904,11.777-9.65,22.445-17.333,32.063c-7.618,9.587-17.11,17.905-28.476,24.921c-11.334,7.016-24.35,12.223-39.016,15.683
				c11.873,4.095,21.968,11.27,30.285,21.523c8.317,10.255,16.762,23.937,25.396,40.952L4717.002,6346.197z M4624.748,6039.34
				c0-22.666-7.079-39.588-21.174-50.826c-14.159-11.237-34.064-16.856-59.746-16.856h-54.381v139.841h46.635
				c13.555,0,25.809-1.523,36.73-4.697c10.889-3.144,20.158-7.746,27.841-13.905c7.619-6.159,13.556-13.683,17.778-22.636
				C4622.653,6061.276,4624.748,6050.99,4624.748,6039.34z"/>
			<path fill="#FFFFFF" d="M5105.732,5923.117l-153.111,271.905v151.175h-58.254v-152.477l-153.111-270.604h69.588l84.158,154.73
				l31.08,62.158l28.508-56.349l85.111-160.54H5105.732z"/>
		</g>
	</g>
	<path fill="#4F1D70" d="M1581.254,5377.402c0,0,73,51.365,69.508,110.699c-2.826,47.969-19.572,54.793-45.159,86.063
		c-25.587,31.27-71.937,132.635,2.793,201.746c74.793,69.11,255.27,51.46,301.937-1.397
		c46.699-52.856,47.841-115.682,25.429-158.031c-22.413-42.317-67.698-64.921-67.698-112.889c0-47.938,12.635-62.477,49.349-126
		C1856.762,5376.196,1581.254,5377.402,1581.254,5377.402z"/>
	<g>
		<path fill="#692080" d="M520.047,6881.404v1108.064h1112.191c-5.159-48.096-51.905-73.271-75.73-118.254
			c-25.206-47.619-23.92-118.35,28.587-177.842c52.476-59.429,255.62-79.365,339.747-1.556c84.159,77.778,32,191.841,3.174,227.017
			c-23.301,28.508-40.095,38.983-47.317,70.635h1116.874V5511.942H520.047v1115.239"/>
		<path fill="#692080" d="M1936.397,5622.609c0,0-73.032-51.396-69.54-110.699c2.825-47.968,19.571-54.793,45.127-86.063
			c25.619-31.27,71.968-132.604-2.762-201.746c-74.794-69.144-255.302-51.43-301.937,1.396
			c-46.699,52.857-47.81,115.683-25.413,158.031c22.413,42.318,67.683,64.922,67.683,112.826c0,48.031-12.667,62.604-49.349,126.063
			C1660.857,5623.816,1936.397,5622.609,1936.397,5622.609z"/>
		<path fill="#692080" d="M2894.017,6930.356c0,0,53.397-72.984,115.017-69.492c49.841,2.794,56.92,19.556,89.492,45.144
			c32.476,25.555,137.81,71.936,209.65-2.826c71.873-74.825,53.492-255.27-1.46-301.969
			c-54.921-46.604-120.254-47.746-164.223-25.365c-43.968,22.413-67.492,67.779-117.333,67.779
			c-49.873,0-64.953-12.73-130.953-49.43C2892.715,6654.864,2894.017,6930.356,2894.017,6930.356z"/>
		<path fill="#692080" d="M623.666,6573.848c0,0-51.397,73.017-110.698,69.524c-47.984-2.857-54.826-19.556-86.08-45.144
			c-31.254-25.587-132.619-71.968-201.762,2.826c-69.143,74.762-51.413,255.27,1.429,301.904
			c52.81,46.699,115.698,47.842,158,25.365c42.333-22.349,64.921-67.682,112.873-67.682c47.968,0,62.524,12.697,126.032,49.428
			C624.888,6849.34,623.666,6573.848,623.666,6573.848z"/>
	</g>
	<g>
		<g>
			<path fill="#4F1D70" d="M520.047,3020.48h2477.525v2477.557H1892.778c10.825-40.697,41.27-65.237,63.047-106.381
				c25.207-47.619,23.905-118.349-28.571-177.777c-52.508-59.492-255.619-79.396-339.762-1.619
				c-84.175,77.81-31.968,191.904-3.175,227.048c20.111,24.571,35.35,35.778,43.794,58.729H520.047V4385.814
				c48.127,5.175,73.27,51.969,118.254,75.746c47.604,25.238,118.381,23.938,177.794-28.604
				c59.46-52.476,79.397-255.587,1.603-339.714c-77.793-84.159-191.889-31.968-227.047-3.207
				c-28.477,23.333-38.953,40.159-70.604,47.333V3020.48z"/>
			<path fill="#4F1D70" d="M2893.922,4079.592c0,0,51.396,73.016,110.698,69.524c47.969-2.857,54.825-19.587,86.096-45.207
				c31.238-25.555,132.603-71.968,201.746,2.857c69.143,74.762,51.429,255.27-1.429,301.905
				c-52.794,46.666-115.683,47.81-158,25.396c-42.317-22.381-64.921-67.714-112.857-67.714c-48,0-62.54,12.698-126.032,49.397
				C2892.715,4355.053,2893.922,4079.592,2893.922,4079.592z"/>
		</g>
		<path fill="#4F1D70" d="M1935.127,3131.115c0,0-73.032-51.333-69.54-110.667c2.825-48,19.555-54.793,45.127-86.064
			c25.587-31.27,71.968-132.603-2.778-201.777c-74.794-69.111-255.286-51.397-301.937,1.396
			c-46.698,52.889-47.793,115.746-25.413,158.032c22.413,42.349,67.699,64.92,67.699,112.889c0,48-12.667,62.571-49.35,126.032
			C1659.571,3132.385,1935.127,3131.115,1935.127,3131.115z"/>
	</g>
	<g>
		<path fill="#FFFFFF" d="M1803.81,4226.45c0-29.238-2.714-54.032-8.222-74.254c-5.46-20.222-13.793-36.54-24.968-48.984
			c-11.159-12.413-25.159-21.46-42.016-27.016c-16.889-5.587-36.683-8.381-59.444-8.381h-48.333v316.984h42.047
			C1756.81,4384.799,1803.81,4332.037,1803.81,4226.45z M1862.937,4222.354c0,19.81-1.54,38.794-4.571,56.889
			c-3.095,18.095-7.984,34.984-14.73,50.604c-6.762,15.556-15.492,29.745-26.238,42.508c-10.746,12.762-23.905,23.651-39.508,32.698
			c-15.603,9.048-33.714,16.096-54.381,21.016c-20.635,4.984-44.127,7.429-70.429,7.429h-88.556v-413.079h106.556
			c64.476,0,112.556,16.571,144.254,49.777C1847.032,4103.37,1862.937,4154.1,1862.937,4222.354z"/>
		<path fill="#FFFFFF" d="M2166.048,4228.354c0-24.223-1.873-46.413-5.587-66.508c-3.619-20.127-9.619-37.46-17.81-52
			c-8.222-14.54-18.825-25.81-31.778-33.841c-12.953-8-28.635-12-46.92-12c-17.715,0-32.953,4.286-45.715,12.794
			c-12.73,8.54-23.238,20.127-31.396,34.762c-8.223,14.667-14.35,31.841-18.381,51.524c-4,19.746-5.969,40.635-5.969,62.762
			c0,24.445,1.905,46.73,5.715,66.857c3.809,20.096,9.714,37.365,17.841,51.811c8.063,14.443,18.54,25.682,31.429,33.65
			c12.857,8,28.349,12,46.477,12c17.714,0,32.952-4.254,45.81-12.762c12.857-8.54,23.46-20.127,31.777-34.762
			c8.317-14.667,14.477-31.778,18.477-51.365C2164.017,4271.688,2166.048,4250.704,2166.048,4228.354z M2224.493,4224.291
			c0,37.016-4.349,69.111-13.111,96.031c-8.762,26.984-20.508,49.302-35.397,66.889c-14.889,17.557-32.222,30.668-52.158,39.176
			c-19.937,8.57-40.953,12.793-63.048,12.793c-26.571,0-49.683-4.762-69.397-14.381c-19.683-9.556-36-23.429-48.953-41.556
			c-12.952-18.127-22.635-40.19-28.92-66.222c-6.317-26-9.524-55.365-9.524-88.032c0-36.667,4.333-68.476,12.984-95.429
			c8.635-26.984,20.381-49.27,35.238-66.857c14.857-17.556,32.19-30.635,52.063-39.174c19.746-8.572,40.698-12.793,62.794-12.793
			c26.571,0,49.714,4.825,69.396,14.508c19.746,9.714,36.095,23.556,49.175,41.556c13.047,18.031,22.793,40,29.174,65.905
			C2221.286,4162.608,2224.493,4191.846,2224.493,4224.291z"/>
		<polygon fill="#FFFFFF" points="2570.588,4068.449 2448.271,4068.449 2448.271,4433.497 2391.382,4433.497 2391.382,4068.449 
			2269.064,4068.449 2269.064,4020.418 2570.588,4020.418 		"/>
		<polygon fill="#FFFFFF" points="1848.699,5032.133 1775.365,5032.133 1654.953,4774.514 1620.207,4691.72 1620.207,5032.133 
			1567.698,5032.133 1567.698,4618.99 1640.063,4618.99 1754.842,4863.021 1796.238,4957.529 1796.238,4618.99 1848.699,4618.99 		
			"/>
		<polygon fill="#FFFFFF" points="2184.397,5032.133 1949.54,5032.133 1949.54,4618.99 2184.397,4618.99 2184.397,4666.418 
			2005.762,4666.418 2005.762,4794.45 2177.413,4794.45 2177.413,4841.847 2005.762,4841.847 2005.762,4984.069 2184.397,4984.069 
					"/>
		<polygon fill="#FFFFFF" points="2570.588,4667.086 2448.271,4667.086 2448.271,5032.133 2391.382,5032.133 2391.382,4667.086 
			2269.064,4667.086 2269.064,4618.99 2570.588,4618.99 		"/>
		<g>
			<path fill="#FFFFFF" d="M1835.223,3731.052c0,19.651-4.016,36.889-12.063,51.683c-8.063,14.793-19.27,27.143-33.651,36.984
				c-14.381,9.842-31.667,17.175-51.857,22.032c-20.19,4.857-42.476,7.302-66.81,7.302c-10.968,0-21.92-0.413-32.841-1.271
				c-10.889-0.856-21.365-1.936-31.413-3.174c-10.047-1.238-19.508-2.73-28.381-4.444c-8.889-1.682-16.921-3.492-24.111-5.397
				v-54.571c15.873,5.937,33.683,10.571,53.46,13.968c19.762,3.365,42.238,5.047,67.429,5.047c18.19,0,33.683-1.396,46.492-4.254
				c12.777-2.825,23.254-7.079,31.413-12.667c8.111-5.619,14.063-12.445,17.762-20.508c3.683-8.031,5.556-17.238,5.556-27.587
				c0-11.207-3.143-20.794-9.381-28.73c-6.222-7.904-14.429-15.016-24.572-21.238c-10.158-6.222-21.746-11.937-34.762-17.111
				c-13.016-5.207-26.286-10.54-39.825-16.063c-13.54-5.492-26.81-11.46-39.794-17.937c-13.016-6.413-24.603-14.063-34.762-22.826
				c-10.159-8.793-18.35-19.079-24.571-30.92c-6.254-11.873-9.381-25.937-9.381-42.222c0-14.159,2.968-28.127,8.889-41.873
				c5.937-13.746,15.127-25.968,27.587-36.667c12.492-10.667,28.508-19.301,48.096-25.841c19.571-6.54,42.889-9.842,69.968-9.842
				c6.952,0,14.524,0.318,22.683,0.953c8.143,0.667,16.381,1.524,24.746,2.699c8.35,1.143,16.587,2.508,24.746,3.968
				c8.143,1.492,15.714,3.08,22.683,4.762v50.762c-16.286-4.635-32.587-8.191-48.857-10.635
				c-16.302-2.413-32.063-3.619-47.286-3.619c-32.365,0-56.159,5.365-71.381,16.158c-15.222,10.794-22.857,25.302-22.857,43.46
				c0,11.238,3.111,20.857,9.381,28.889c6.222,8.031,14.429,15.206,24.571,21.556c10.159,6.349,21.746,12.127,34.762,17.301
				c13.016,5.174,26.254,10.508,39.825,16.032c13.508,5.492,26.778,11.556,39.794,18.063c13.016,6.571,24.603,14.35,34.762,23.365
				c10.127,8.952,18.349,19.492,24.572,31.556C1832.096,3700.227,1835.223,3714.513,1835.223,3731.052z"/>
			<path fill="#FFFFFF" d="M2230.239,3843.37h-61.556l-28.857-90.445h-172.604l-29.207,90.445h-58.698l137.714-414.73h77.396
				L2230.239,3843.37z M2123.636,3702.449l-70.127-221.778l-70.095,221.778H2123.636z"/>
			<path fill="#FFFFFF" d="M2566.905,3843.37h-63.777l-61.842-132.667c-4.666-10.159-9.46-18.571-14.285-25.206
				c-4.889-6.699-10.127-11.969-15.715-15.905c-5.619-3.873-11.777-6.667-18.444-8.381c-6.603-1.683-14.095-2.54-22.349-2.54
				h-26.635v184.699h-56.476v-414.73h111.047c24.127,0,44.826,2.635,62.159,7.937c17.365,5.301,31.619,12.698,42.699,22.19
				c11.111,9.556,19.238,21.016,24.413,34.444c5.206,13.429,7.778,28.286,7.778,44.571c0,12.921-1.873,25.111-5.683,36.667
				c-3.841,11.523-9.492,22-16.984,31.396c-7.524,9.429-16.794,17.556-27.937,24.444c-11.08,6.889-23.842,12-38.223,15.397
				c11.619,4,21.524,11.047,29.683,21.079c8.127,10.063,16.444,23.46,24.889,40.127L2566.905,3843.37z M2476.461,3542.544
				c0-22.19-6.92-38.825-20.762-49.841c-13.873-10.953-33.397-16.477-58.54-16.477h-53.301v137.08h45.682
				c13.334,0,25.334-1.524,36-4.603c10.698-3.048,19.778-7.619,27.301-13.619c7.492-6.063,13.333-13.46,17.46-22.254
				C2474.397,3564.068,2476.461,3553.973,2476.461,3542.544z"/>
		</g>
	</g>
	<g>
		<path fill="#692080" d="M6886.813,2992.671h1108.064v-1112.16c-48.095,5.143-73.239,51.905-118.19,75.714
			c-47.683,25.207-118.413,23.937-177.873-28.603c-59.429-52.508-79.365-255.62-1.588-339.747
			c77.811-84.127,191.873-32,227.049-3.206c28.508,23.333,38.983,40.127,70.603,47.396V515.145H5517.353v2477.526h1115.271"/>
		<path fill="#692080" d="M5627.955,1576.353c0,0-52.984,72.984-114.254,69.523c-49.492-2.857-56.571-19.556-88.857-45.174
			c-32.254-25.587-136.889-71.968-208.254,2.825c-71.428,74.762-53.111,255.27,1.429,301.905
			c54.571,46.699,119.46,47.81,163.144,25.397c43.682-22.381,67.016-67.714,116.571-67.714c49.491,0,64.54,12.73,130.063,49.365
			C5629.289,1851.845,5627.955,1576.353,5627.955,1576.353z"/>
		<path fill="#692080" d="M6579.004,2880.258c0,0,72.984,51.365,69.492,110.73c-2.826,47.905-19.556,54.762-45.143,86.032
			c-25.588,31.238-71.969,132.635,2.825,201.747c74.762,69.143,255.271,51.428,301.937-1.429
			c46.666-52.826,47.81-115.715,25.365-157.969c-22.381-42.349-67.683-64.92-67.683-112.921c0-47.968,12.635-62.508,49.365-126
			C6854.496,2879.02,6579.004,2880.258,6579.004,2880.258z"/>
	</g>
	<g>
		<path fill="#FFFFFF" d="M6780.496,1717.686c0-30.095-2.857-55.556-8.444-76.317c-5.683-20.825-14.19-37.587-25.714-50.413
			c-11.43-12.762-25.873-22.032-43.207-27.778c-17.301-5.714-37.683-8.604-61.079-8.604h-49.746v325.937h43.237
			C6732.179,1880.511,6780.496,1826.257,6780.496,1717.686z M6841.227,1713.463c0,20.381-1.556,39.905-4.699,58.54
			c-3.143,18.604-8.158,35.969-15.109,51.969c-6.922,16.032-15.906,30.571-26.985,43.714
			c-11.015,13.111-24.571,24.318-40.603,33.619c-16,9.333-34.636,16.54-55.873,21.619c-21.271,5.08-45.43,7.651-72.509,7.651
			h-90.983v-424.73h109.523c66.285,0,115.715,17.048,148.35,51.175C6824.94,1591.146,6841.227,1643.305,6841.227,1713.463z"/>
		<path fill="#FFFFFF" d="M7152.909,1719.654c0-24.889-1.905-47.714-5.714-68.413c-3.777-20.698-9.905-38.508-18.381-53.46
			c-8.413-14.92-19.271-26.508-32.604-34.762c-13.334-8.222-29.429-12.349-48.254-12.349c-18.254,0-33.873,4.381-46.984,13.143
			c-13.143,8.794-23.904,20.73-32.35,35.778c-8.444,15.048-14.73,32.699-18.793,52.984c-4.159,20.222-6.223,41.746-6.223,64.508
			c0,25.08,1.969,48.032,5.873,68.699c3.904,20.698,10,38.444,18.317,53.301c8.381,14.857,19.144,26.349,32.349,34.635
			c13.238,8.19,29.144,12.349,47.811,12.349c18.189,0,33.873-4.381,47.111-13.175c13.205-8.793,24.095-20.698,32.666-35.746
			c8.572-15.047,14.889-32.667,18.984-52.825C7150.846,1764.194,7152.909,1742.638,7152.909,1719.654z M7213.036,1715.463
			c0,38.095-4.54,71.048-13.524,98.762c-8.983,27.746-21.078,50.667-36.412,68.73c-15.238,18.063-33.111,31.524-53.556,40.318
			c-20.476,8.793-42.095,13.143-64.856,13.143c-27.303,0-51.08-4.952-71.334-14.793s-37.048-24.095-50.381-42.73
			c-13.334-18.635-23.27-41.301-29.715-68.063c-6.539-26.793-9.746-56.953-9.746-90.508c0-37.714,4.445-70.413,13.302-98.159
			c8.857-27.715,20.952-50.604,36.223-68.73c15.302-18.063,33.079-31.524,53.491-40.286c20.35-8.762,41.905-13.207,64.636-13.207
			c27.302,0,51.079,5.016,71.365,14.984c20.222,9.937,37.048,24.222,50.54,42.73c13.396,18.54,23.428,41.143,30.063,67.778
			C7209.703,1652.066,7213.036,1682.099,7213.036,1715.463z"/>
		<polygon fill="#FFFFFF" points="7568.846,1555.209 7443.1,1555.209 7443.1,1930.575 7384.592,1930.575 7384.592,1555.209 
			7258.846,1555.209 7258.846,1505.844 7568.846,1505.844 		"/>
		<polygon fill="#FFFFFF" points="6829.607,2546.099 6754.211,2546.099 6630.4,2281.21 6594.623,2196.099 6594.623,2546.099 
			6540.719,2546.099 6540.719,2121.337 6615.131,2121.337 6733.1,2372.194 6775.639,2469.369 6775.639,2121.337 6829.607,2121.337 
					"/>
		<polygon fill="#FFFFFF" points="7174.719,2546.099 6933.258,2546.099 6933.258,2121.337 7174.719,2121.337 7174.719,2170.099 
			6991.1,2170.099 6991.1,2301.687 7167.576,2301.687 7167.576,2350.416 6991.1,2350.416 6991.1,2496.67 7174.719,2496.67 		"/>
		<polygon fill="#FFFFFF" points="7571.83,2170.733 7446.115,2170.733 7446.115,2546.099 7387.607,2546.099 7387.607,2170.733 
			7261.83,2170.733 7261.83,2121.337 7571.83,2121.337 		"/>
		<g>
			<path fill="#FFFFFF" d="M6826.084,1326.765h-73.08l-159.492-209.143v209.143h-58.096V900.352h58.096v198.032l156.254-198.032
				h68.826l-168.318,202.604L6826.084,1326.765z"/>
			<path fill="#FFFFFF" d="M7178.434,946.034l-217.588,326.572h221.842v54.159h-294.604v-43.429l218.92-330.127h-213.016v-52.857
				h284.445V946.034z"/>
			<path fill="#FFFFFF" d="M7548.084,1326.765h-75.683l-124.317-265.905l-35.873-85.46v214.984v136.381h-54.158V900.352h74.729
				l118.413,251.874l42.73,97.524v-228.35V900.352h54.158V1326.765z"/>
		</g>
	</g>
	<g>
		<path fill="#4F1D70" d="M5497.447,515.145H3019.89v2477.526h1115.302c-10.825-40.667-51.777-65.238-73.523-106.317
			c-25.238-47.651-23.937-118.381,28.571-177.842c52.508-59.46,255.619-79.365,339.746-1.556c84.158,77.778,32,191.81,3.175,226.984
			c-20.127,24.604-35.333,35.778-43.778,58.73h1108.064v-1112.16c-48.096,5.143-73.27,51.905-118.223,75.714
			c-47.65,25.207-118.381,23.937-177.841-28.603c-59.46-52.508-79.365-255.62-1.619-339.747c77.841-84.127,191.905-32,227.079-3.206
			c28.477,23.333,38.984,40.127,70.604,47.396V515.145z"/>
		<path fill="#4F1D70" d="M3111.7,1580.003c0,0-51.333,73.016-110.667,69.524c-47.937-2.857-54.794-19.556-86.063-45.174
			c-31.238-25.556-132.604-71.937-201.747,2.857c-69.143,74.762-51.428,255.27,1.429,301.905
			c52.826,46.667,115.683,47.81,158,25.397c42.318-22.413,64.92-67.714,112.889-67.714c47.968,0,62.508,12.698,126,49.365
			C3112.97,1855.527,3111.7,1580.003,3111.7,1580.003z"/>
	</g>
	<g>
		<path fill="#FFFFFF" d="M4259.923,1712.066c0-31.111-2.857-57.333-8.699-78.825c-5.809-21.492-14.635-38.794-26.476-52
			c-11.905-13.207-26.73-22.762-44.603-28.698c-17.937-5.905-38.953-8.857-63.08-8.857h-51.333v336.445h44.603
			C4210.082,1880.13,4259.923,1824.099,4259.923,1712.066z M4322.685,1707.686c0,21.048-1.651,41.143-4.889,60.413
			c-3.206,19.206-8.413,37.079-15.556,53.65c-7.175,16.572-16.412,31.588-27.873,45.08c-11.365,13.556-25.333,25.143-41.937,34.762
			c-16.54,9.587-35.746,17.047-57.651,22.317c-21.937,5.238-46.889,7.841-74.825,7.841h-93.905v-438.413h113.016
			c68.445,0,119.46,17.619,153.144,52.857C4305.859,1581.4,4322.685,1635.209,4322.685,1707.686z"/>
		<path fill="#FFFFFF" d="M4644.367,1714.066c0-25.682-1.968-49.27-5.873-70.571c-3.904-21.396-10.254-39.778-18.984-55.206
			c-8.666-15.429-19.904-27.397-33.714-35.905c-13.746-8.508-30.317-12.762-49.778-12.762c-18.793,0-34.92,4.54-48.476,13.587
			c-13.524,9.047-24.667,21.397-33.397,36.953c-8.697,15.523-15.174,33.714-19.396,54.635c-4.285,20.92-6.381,43.111-6.381,66.571
			c0,25.968,2,49.587,6.031,70.984c4.032,21.302,10.318,39.651,18.953,54.984c8.604,15.333,19.715,27.238,33.334,35.746
			c13.682,8.476,30.127,12.73,49.332,12.73c18.795,0,34.984-4.54,48.636-13.556c13.651-9.08,24.889-21.365,33.714-36.921
			c8.826-15.555,15.396-33.746,19.619-54.54C4642.24,1760.003,4644.367,1737.749,4644.367,1714.066z M4706.432,1709.717
			c0,39.333-4.636,73.333-13.969,101.968c-9.238,28.604-21.777,52.254-37.556,70.921c-15.778,18.698-34.159,32.571-55.302,41.619
			s-43.429,13.556-66.92,13.556c-28.191,0-52.73-5.048-73.651-15.207c-20.89-10.19-38.254-24.92-52-44.159
			c-13.714-19.207-23.968-42.604-30.667-70.254c-6.73-27.651-10.096-58.73-10.096-93.397c0-38.953,4.604-72.667,13.746-101.333
			c9.207-28.635,21.684-52.286,37.461-70.921c15.715-18.698,34.096-32.54,55.143-41.619c21.016-9.016,43.238-13.587,66.762-13.587
			c28.159,0,52.699,5.143,73.619,15.429c20.921,10.286,38.286,24.984,52.159,44.127c13.873,19.111,24.222,42.413,31.048,69.968
			C4703.002,1644.289,4706.432,1675.273,4706.432,1709.717z"/>
		<polygon fill="#FFFFFF" points="5073.732,1544.353 4943.892,1544.353 4943.892,1931.75 4883.543,1931.75 4883.543,1544.353 
			4753.732,1544.353 4753.732,1493.336 5073.732,1493.336 		"/>
		<polygon fill="#FFFFFF" points="4310.685,2567.115 4232.875,2567.115 4105.034,2293.718 4068.145,2205.845 4068.145,2567.083 
			4012.431,2567.083 4012.431,2128.702 4089.256,2128.702 4211.065,2387.623 4255.002,2487.908 4255.002,2128.702 
			4310.685,2128.702 		"/>
		<polygon fill="#FFFFFF" points="4666.907,2567.115 4417.637,2567.115 4417.637,2128.702 4666.907,2128.702 4666.907,2178.987 
			4477.383,2178.987 4477.383,2314.861 4659.51,2314.861 4659.51,2365.146 4477.383,2365.146 4477.383,2516.099 4666.907,2516.099 
					"/>
		<polygon fill="#FFFFFF" points="5076.813,2179.654 4946.971,2179.654 4946.971,2567.083 4886.59,2567.083 4886.59,2179.654 
			4756.78,2179.654 4756.78,2128.702 5076.813,2128.702 		"/>
		<g>
			<path fill="#FFFFFF" d="M4306.24,1308.511h-78.127l-128.286-274.444l-37.08-88.191v221.905v140.73h-55.905V868.383h77.143
				l122.222,259.969l44.127,100.698V993.336V868.383h55.905V1308.511z"/>
			<path fill="#FFFFFF" d="M4681.701,1189.304c0,20.889-4.254,39.207-12.794,54.921c-8.54,15.683-20.444,28.762-35.714,39.207
				c-15.238,10.444-33.588,18.254-55.049,23.396c-21.459,5.175-45.078,7.714-70.889,7.714c-11.65,0-23.301-0.413-34.825-1.333
				c-11.587-0.857-22.698-2-33.364-3.333c-10.636-1.365-20.699-2.953-30.127-4.73c-9.43-1.81-17.969-3.683-25.588-5.714v-57.937
				c16.825,6.286,35.746,11.238,56.73,14.825s44.857,5.365,71.555,5.365c19.303,0,35.746-1.524,49.365-4.54
				c13.557-3.016,24.699-7.523,33.303-13.46c8.635-5.937,14.92-13.175,18.856-21.714c3.937-8.508,5.905-18.286,5.905-29.27
				c0-11.905-3.334-22.095-9.905-30.508c-6.635-8.413-15.365-15.905-26.127-22.54c-10.763-6.635-23.079-12.698-36.89-18.19
				c-13.809-5.523-27.873-11.174-42.254-17.016s-28.443-12.159-42.254-19.016c-13.809-6.857-26.127-14.92-36.889-24.254
				c-10.762-9.301-19.46-20.254-26.096-32.826c-6.635-12.571-9.904-27.523-9.904-44.825c0-15.016,3.143-29.81,9.429-44.413
				c6.254-14.603,16.032-27.556,29.271-38.889c13.27-11.365,30.254-20.508,51.047-27.428c20.73-6.984,45.492-10.477,74.223-10.477
				c7.396,0,15.428,0.349,24.096,1.048c8.635,0.635,17.364,1.619,26.254,2.857c8.889,1.207,17.619,2.604,26.285,4.19
				c8.635,1.556,16.666,3.238,24.063,5.048v53.873c-17.302-4.921-34.571-8.698-51.873-11.27c-17.27-2.603-34-3.873-50.159-3.873
				c-34.349,0-59.619,5.714-75.777,17.175c-16.158,11.429-24.254,26.857-24.254,46.127c0,11.937,3.334,22.127,9.969,30.635
				c6.603,8.54,15.301,16.158,26.063,22.92c10.794,6.73,23.08,12.826,36.889,18.349c13.811,5.492,27.873,11.175,42.255,16.984
				c14.381,5.841,28.476,12.254,42.286,19.238c13.777,6.921,26.063,15.175,36.856,24.73c10.763,9.555,19.46,20.698,26.063,33.492
				C4678.399,1156.638,4681.701,1171.78,4681.701,1189.304z"/>
			<path fill="#FFFFFF" d="M5077.701,1308.511h-75.396l-164.699-215.841v215.841h-59.936V868.383h59.936v204.413l161.334-204.413
				h71.016l-173.746,209.143L5077.701,1308.511z"/>
		</g>
	</g>
	<g>
		<g>
			<path fill="#FFFFFF" d="M1887.064,6727.816c0,20.127-1.54,39.429-4.651,57.873c-3.111,18.445-8.095,35.588-14.968,51.461
				c-6.905,15.873-15.746,30.316-26.699,43.27c-10.937,12.984-24.333,24.063-40.174,33.301
				c-15.889,9.207-34.349,16.382-55.349,21.365c-21.048,5.08-44.921,7.588-71.762,7.588h-90.047v-420.445h108.413
				c65.603,0,114.571,16.89,146.826,50.699C1870.937,6606.674,1887.064,6658.293,1887.064,6727.816z M1826.921,6731.975
				c0-29.809-2.793-55.016-8.349-75.619c-5.603-20.539-14.048-37.205-25.429-49.841c-11.381-12.635-25.651-21.841-42.762-27.491
				c-17.175-5.684-37.349-8.541-60.492-8.541h-49.207v322.668h42.762C1779.111,6893.15,1826.921,6839.436,1826.921,6731.975z"/>
			<path fill="#FFFFFF" d="M2255.064,6729.721c0,37.746-4.445,70.35-13.334,97.779c-8.889,27.491-20.889,50.127-36.063,68.063
				c-15.047,17.873-32.793,31.175-53.047,39.873c-20.286,8.699-41.683,13.016-64.159,13.016c-27.048,0-50.604-4.857-70.604-14.635
				c-20.063-9.746-36.698-23.841-49.905-42.285c-13.206-18.445-22.984-40.921-29.397-67.429c-6.444-26.476-9.65-56.286-9.65-89.556
				c0-37.334,4.381-69.683,13.206-97.175c8.762-27.429,20.699-50.127,35.873-68c15.08-17.937,32.73-31.206,52.889-39.905
				c20.159-8.666,41.46-13.016,64.032-13.016c27.016,0,50.508,4.953,70.571,14.794s36.762,23.968,50.032,42.286
				c13.301,18.381,23.238,40.697,29.777,67.111C2251.763,6667.023,2255.064,6696.705,2255.064,6729.721z M2195.572,6733.88
				c0-24.635-1.873-47.206-5.651-67.683c-3.746-20.477-9.777-38.127-18.158-52.92c-8.35-14.795-19.143-26.254-32.317-34.413
				c-13.175-8.159-29.144-12.223-47.746-12.223c-18.063,0-33.556,4.317-46.508,13.017c-12.984,8.697-23.651,20.443-32,35.396
				c-8.381,14.857-14.571,32.381-18.667,52.445c-4.096,20-6.127,41.332-6.127,63.809c0,24.889,1.937,47.556,5.81,68.063
				s9.937,38.063,18.127,52.763c8.317,14.666,18.984,26.063,32.063,34.222c13.047,8.159,28.825,12.222,47.302,12.222
				c17.968,0,33.523-4.285,46.603-13.016c13.08-8.698,23.873-20.444,32.318-35.365c8.508-14.889,14.73-32.35,18.857-52.285
				C2193.54,6777.975,2195.572,6756.643,2195.572,6733.88z"/>
			<path fill="#FFFFFF" d="M2607.35,6571.118h-124.508v371.556h-57.937v-371.556h-124.444v-48.89h306.889V6571.118z"/>
		</g>
		<g>
			<path fill="#FFFFFF" d="M1875.54,7551.944h-74.587l-122.572-262.159l-35.396-84.285v211.968v134.477h-53.429V7131.5h73.683
				l116.778,248.316l42.127,96.191v-225.143V7131.5h53.397V7551.944z"/>
			<path fill="#FFFFFF" d="M2217.159,7551.944h-238.984V7131.5h238.984v48.254h-181.714v130.285h174.667v48.254h-174.667v144.762
				h181.714V7551.944z"/>
			<path fill="#FFFFFF" d="M2610.239,7180.42h-124.445v371.524h-57.905V7180.42h-124.508v-48.92h306.857V7180.42z"/>
		</g>
		<g>
			<path fill="#FFFFFF" d="M1909.318,6131.149c0,37.937-4.46,70.667-13.397,98.19c-8.937,27.588-21,50.35-36.19,68.35
				c-15.143,17.969-32.921,31.301-53.27,40.031c-20.333,8.699-41.81,13.08-64.413,13.08c-27.127,0-50.73-4.889-70.889-14.73
				c-20.143-9.81-36.826-23.937-50.064-42.477c-13.254-18.477-23.063-41.047-29.524-67.619c-6.476-26.571-9.698-56.571-9.698-89.937
				c0-37.46,4.429-69.968,13.238-97.523c8.825-27.556,20.825-50.317,35.984-68.286c15.207-18,32.905-31.333,53.143-40.063
				c20.206-8.698,41.651-13.079,64.286-13.079c27.095,0,50.714,4.984,70.857,14.857c20.143,9.904,36.857,24.063,50.19,42.476
				c13.397,18.382,23.317,40.825,29.905,67.302C1906.016,6068.197,1909.318,6098.038,1909.318,6131.149z M1849.604,6135.403
				c0-24.762-1.889-47.429-5.683-68c-3.746-20.571-9.841-38.254-18.254-53.11c-8.413-14.857-19.207-26.382-32.429-34.572
				c-13.254-8.158-29.238-12.254-47.952-12.254c-18.111,0-33.683,4.381-46.667,13.047c-13.047,8.73-23.762,20.604-32.143,35.524
				c-8.413,14.952-14.651,32.54-18.714,52.667c-4.111,20.127-6.143,41.492-6.143,64.063c0,24.983,1.921,47.778,5.81,68.349
				c3.873,20.572,9.968,38.223,18.207,52.953c8.317,14.762,19.032,26.19,32.159,34.381c13.143,8.19,28.968,12.254,47.492,12.254
				c18.047,0,33.65-4.317,46.81-13.048c13.143-8.729,23.968-20.54,32.444-35.523c8.523-14.984,14.841-32.477,18.92-52.444
				C1847.556,6179.625,1849.604,6158.197,1849.604,6135.403z"/>
			<path fill="#FFFFFF" d="M2274.874,6344.959h-56.19l-8.381-263.175l-3.556-101.079l-19.682,58.762l-62.35,167.937h-39.746
				l-59.429-161.46l-19.683-65.238l-1.27,105.619l-7.429,258.635h-54.254l20.667-422.063h68.127l56.826,158.889l18.413,53.619
				l17.778-53.619l59.746-158.889h70.032L2274.874,6344.959z"/>
			<path fill="#FFFFFF" d="M2612.651,6230.642c0,20.063-4.063,37.587-12.254,52.667c-8.127,15.079-19.587,27.587-34.222,37.619
				c-14.635,10-32.223,17.46-52.826,22.443c-20.508,4.984-43.207,7.43-67.937,7.43c-11.238,0-22.349-0.445-33.46-1.303
				c-11.048-0.856-21.714-1.936-31.937-3.237c-10.254-1.302-19.873-2.794-28.889-4.508c-9.048-1.746-17.207-3.587-24.572-5.492
				v-55.587c16.191,6.063,34.286,10.824,54.413,14.254c20.127,3.46,43.016,5.143,68.604,5.143c18.54,0,34.286-1.461,47.333-4.381
				c13.016-2.857,23.683-7.175,31.969-12.921c8.286-5.683,14.317-12.603,18.095-20.794c3.746-8.19,5.619-17.523,5.619-28.096
				c0-11.396-3.143-21.143-9.46-29.205c-6.381-8.064-14.762-15.303-25.08-21.684c-10.349-6.285-22.095-12.127-35.333-17.428
				c-13.27-5.27-26.793-10.667-40.54-16.286c-13.778-5.587-27.301-11.683-40.571-18.222c-13.207-6.604-24.984-14.35-35.333-23.271
				c-10.381-8.952-18.635-19.429-24.984-31.491c-6.412-12.033-9.587-26.35-9.587-42.953c0-14.412,3.047-28.666,9.079-42.635
				c6.032-13.969,15.365-26.445,28.096-37.302c12.666-10.857,28.984-19.651,48.92-26.286c19.905-6.698,43.619-10.031,71.207-10.031
				c7.079,0,14.793,0.317,23.047,0.952c8.286,0.635,16.699,1.587,25.238,2.729c8.508,1.238,16.857,2.572,25.174,4.096
				c8.317,1.492,16,3.111,23.111,4.826v51.65c-16.635-4.73-33.206-8.317-49.746-10.826c-16.571-2.443-32.635-3.682-48.127-3.682
				c-32.952,0-57.175,5.492-72.635,16.444c-15.492,10.983-23.302,25.714-23.302,44.254c0,11.397,3.175,21.206,9.523,29.397
				c6.413,8.158,14.73,15.459,25.048,21.936c10.381,6.477,22.127,12.35,35.365,17.588c13.238,5.301,26.762,10.73,40.54,16.317
				c13.746,5.651,27.302,11.746,40.54,18.381c13.238,6.698,24.984,14.635,35.365,23.778c10.317,9.143,18.635,19.841,25.016,32.127
				C2609.477,6199.34,2612.651,6213.848,2612.651,6230.642z"/>
		</g>
	</g>
</g>
</svg>
