<svg width="850.39px" height="850.39px" enable-background="new 0 0 850.39 850.39" version="1.1" viewBox="0 0 850.39 850.39" xmlns="http://www.w3.org/2000/svg">
  <g fill="#692080">
    <path d="m498.35 489.5v-132.08h-132.08v59.457c2.168-0.576 3.479-2.761 5.671-3.919 2.538-1.346 6.311-1.274 9.48 1.523 3.169 2.801 4.231 13.628 0.083 18.114s-10.229 1.703-12.106 0.168c-1.308-1.07-1.906-1.883-3.128-2.334v59.076h59.293c-0.202-1.881-2.362-4.051-3.559-6.305-1.342-2.543-1-6.244 1.797-9.414 2.798-3.17 12.876-4.303 17.359-0.15 4.489 4.148 1.706 10.229 0.17 12.102-1.241 1.52-2.136 2.076-2.521 3.768h59.543z"/>
    <path d="m441.76 363.84s-3.895-2.824-3.705-6.077c0.149-2.632 1.04-3.008 2.406-4.723 1.364-1.719 3.863-7.28-0.121-11.075-3.985-3.794-13.61-2.82-16.096 0.079-2.492 2.899-2.577 6.348-1.382 8.672 1.193 2.324 3.606 3.562 3.606 6.193 0 2.636-0.673 3.438-2.628 6.919 3.231 0.08 17.92 0.012 17.92 0.012z"/>
    <path d="m492.23 433.03s2.802-3.889 6.033-3.703c2.618 0.15 2.988 1.041 4.693 2.406 1.704 1.361 7.229 3.836 11-0.154 3.768-3.982 2.805-13.605-0.075-16.095-2.885-2.485-6.311-2.546-8.617-1.354-2.308 1.195-3.537 3.61-6.154 3.61-2.615 0-3.407-0.673-6.871-2.633-0.079 3.235-9e-3 17.923-9e-3 17.923z"/>
  </g>
  <g fill="#fff">
    <path d="m437.85 394.4c0 1.098-0.226 2.053-0.669 2.876-0.448 0.824-1.071 1.508-1.868 2.053-0.802 0.545-1.762 0.956-2.882 1.226-1.124 0.271-2.36 0.406-3.714 0.406-0.607 0-1.219-0.026-1.824-0.071-0.602-0.049-1.185-0.105-1.741-0.177-0.561-0.071-1.087-0.155-1.581-0.249-0.492-0.094-0.94-0.191-1.338-0.297v-3.035c0.88 0.331 1.873 0.59 2.972 0.774 1.097 0.192 2.346 0.282 3.743 0.282 1.014 0 1.871-0.075 2.583-0.237 0.71-0.154 1.292-0.391 1.745-0.703 0.449-0.313 0.782-0.688 0.987-1.136 0.207-0.447 0.304-0.959 0.304-1.535 0-0.624-0.171-1.154-0.517-1.594-0.347-0.44-0.798-0.834-1.364-1.185-0.566-0.342-1.208-0.662-1.932-0.951-0.722-0.286-1.459-0.583-2.213-0.887-0.75-0.309-1.487-0.64-2.209-0.997-0.726-0.36-1.37-0.782-1.934-1.267-0.563-0.489-1.021-1.061-1.364-1.719-0.348-0.658-0.52-1.44-0.52-2.346 0-0.786 0.166-1.561 0.493-2.324 0.332-0.763 0.839-1.444 1.531-2.039 0.695-0.594 1.587-1.072 2.674-1.436 1.087-0.365 2.38-0.546 3.886-0.546 0.39 0 0.809 0.019 1.262 0.053 0.447 0.038 0.91 0.087 1.375 0.151 0.461 0.064 0.923 0.135 1.374 0.221 0.451 0.08 0.873 0.169 1.26 0.264v2.816c-0.903-0.255-1.811-0.451-2.715-0.586-0.906-0.135-1.782-0.203-2.624-0.203-1.799 0-3.122 0.297-3.969 0.899-0.846 0.598-1.271 1.406-1.271 2.414 0 0.621 0.173 1.158 0.522 1.602 0.346 0.448 0.801 0.846 1.366 1.2 0.563 0.354 1.206 0.673 1.929 0.962 0.725 0.286 1.46 0.583 2.211 0.887 0.756 0.309 1.49 0.643 2.215 1.004 0.724 0.365 1.364 0.797 1.93 1.297 0.563 0.497 1.019 1.083 1.364 1.752 0.349 0.678 0.523 1.467 0.523 2.381z"/>
    <path d="m454.76 384.8c0-1.478-0.485-2.613-1.451-3.399-0.971-0.79-2.328-1.181-4.065-1.181h-3.207v9.484h2.926c1.855 0 3.286-0.406 4.291-1.219 1.007-0.812 1.506-2.038 1.506-3.685zm3.264-0.139c0 0.94-0.181 1.873-0.534 2.794-0.35 0.921-0.898 1.749-1.638 2.474-0.738 0.729-1.687 1.32-2.837 1.775-1.151 0.451-2.527 0.677-4.124 0.677h-2.855v8.266h-3.136v-23.037h6.486c1.14 0 2.231 0.128 3.275 0.376 1.045 0.26 1.967 0.666 2.76 1.226 0.792 0.568 1.426 1.293 1.896 2.188 0.468 0.892 0.707 1.978 0.707 3.261z"/>
    <path d="m474.54 393.86c0-0.587-0.124-1.117-0.373-1.587-0.244-0.47-0.604-0.869-1.073-1.192-0.468-0.323-1.044-0.571-1.717-0.748-0.679-0.177-1.438-0.263-2.282-0.263h-3.208v7.931h3.313c1.798 0 3.137-0.334 4.016-1.004 0.883-0.674 1.324-1.72 1.324-3.137zm-0.76-10.225c0-0.47-0.068-0.914-0.211-1.328-0.14-0.421-0.387-0.778-0.741-1.079-0.349-0.297-0.827-0.538-1.427-0.714-0.6-0.173-1.355-0.263-2.272-0.263h-3.242v7.212h3.137c0.716 0 1.364-0.079 1.947-0.233 0.581-0.15 1.079-0.387 1.497-0.703 0.417-0.316 0.74-0.715 0.971-1.192 0.228-0.474 0.341-1.042 0.341-1.7zm4.091 10.115c0 1.106-0.214 2.084-0.645 2.937-0.427 0.85-1.04 1.572-1.83 2.159-0.795 0.587-1.752 1.034-2.876 1.339-1.122 0.308-2.369 0.459-3.743 0.459h-6.03v-23.037h6.592c5.137 0 7.704 1.869 7.704 5.604 0 1.249-0.296 2.32-0.89 3.211-0.595 0.891-1.561 1.557-2.901 1.989 0.622 0.12 1.214 0.319 1.773 0.598 0.558 0.286 1.047 0.647 1.471 1.094 0.422 0.448 0.759 0.974 1.005 1.587s0.37 1.301 0.37 2.06z"/>
    <path d="m435.54 422.16c0-1.632-0.154-3.015-0.459-4.139-0.308-1.133-0.771-2.042-1.395-2.735-0.621-0.692-1.403-1.196-2.341-1.508-0.942-0.308-2.048-0.466-3.315-0.466h-2.696v17.679h2.344c5.241-1e-3 7.862-2.946 7.862-8.831zm3.294-0.229c0 1.105-0.085 2.158-0.256 3.169s-0.443 1.957-0.819 2.82c-0.376 0.873-0.865 1.664-1.463 2.373-0.598 0.711-1.335 1.32-2.204 1.824-0.868 0.508-1.88 0.895-3.03 1.17-1.15 0.277-2.464 0.418-3.93 0.418h-4.938v-23.037h5.942c3.596 0 6.277 0.925 8.048 2.776 1.764 1.849 2.65 4.68 2.65 8.487z"/>
    <path d="m455.73 422.27c0-1.35-0.103-2.587-0.309-3.708-0.207-1.124-0.537-2.09-0.996-2.899-0.455-0.813-1.049-1.441-1.77-1.887-0.724-0.448-1.596-0.669-2.619-0.669-0.987 0-1.835 0.237-2.546 0.71-0.711 0.477-1.296 1.124-1.756 1.94-0.455 0.816-0.798 1.775-1.02 2.873-0.226 1.102-0.336 2.264-0.336 3.497 0 1.366 0.105 2.606 0.317 3.731 0.211 1.122 0.542 2.086 0.997 2.891 0.451 0.805 1.033 1.428 1.752 1.873 0.717 0.447 1.581 0.672 2.591 0.672 0.989 0 1.839-0.236 2.558-0.713 0.714-0.475 1.305-1.121 1.77-1.941 0.466-0.811 0.81-1.77 1.031-2.861 0.224-1.094 0.336-2.264 0.336-3.509zm3.26-0.228c0 2.067-0.243 3.854-0.732 5.358-0.487 1.504-1.144 2.746-1.971 3.727-0.831 0.98-1.799 1.711-2.91 2.189-1.11 0.473-2.282 0.709-3.515 0.709-1.484 0-2.771-0.268-3.869-0.801-1.1-0.533-2.009-1.305-2.731-2.316s-1.264-2.244-1.614-3.691c-0.352-1.453-0.53-3.091-0.53-4.912 0-2.042 0.24-3.813 0.725-5.321 0.483-1.504 1.137-2.745 1.965-3.727 0.826-0.981 1.795-1.711 2.901-2.185 1.103-0.478 2.272-0.718 3.506-0.718 1.479 0 2.771 0.274 3.87 0.813 1.096 0.541 2.012 1.315 2.74 2.32 0.727 1 1.272 2.229 1.628 3.674 0.357 1.444 0.537 3.071 0.537 4.881z"/>
    <polygon points="478.3 413.35 471.48 413.35 471.48 433.71 468.3 433.71 468.3 413.35 461.48 413.35 461.48 410.67 478.3 410.67"/>
    <polygon points="437.88 466.93 433.78 466.93 427.07 452.56 425.13 447.94 425.13 466.93 422.21 466.93 422.21 443.89 426.25 443.89 432.64 457.5 434.95 462.77 434.95 443.89 437.88 443.89"/>
    <polygon points="456.6 466.93 443.5 466.93 443.5 443.89 456.6 443.89 456.6 446.54 446.64 446.54 446.64 453.68 456.21 453.68 456.21 456.32 446.64 456.32 446.64 464.25 456.6 464.25"/>
    <polygon points="478.13 446.57 471.31 446.57 471.31 466.93 468.14 466.93 468.14 446.57 461.32 446.57 461.32 443.89 478.13 443.89"/>
  </g>
  <g fill="#4F1D70">
    <path d="m233.17 357.94h132.08v132.09h-58.898c0.576-2.176 2.2-3.48 3.359-5.676 1.345-2.537 1.275-6.307-1.522-9.477-2.799-3.168-13.628-4.232-18.112-0.086-4.49 4.146-1.705 10.232-0.169 12.105 1.071 1.309 1.884 1.906 2.333 3.133h-59.073v-59.298c2.566 0.277 3.905 2.771 6.304 4.037 2.538 1.348 6.31 1.279 9.478-1.521 3.17-2.799 4.232-13.627 0.086-18.11-4.15-4.486-10.23-1.703-12.104-0.173-1.518 1.245-2.078 2.144-3.764 2.524v-59.544z"/>
    <path d="m359.73 414.41s2.741 3.892 5.902 3.708c2.557-0.155 2.924-1.045 4.589-2.411 1.666-1.361 7.07-3.835 10.754 0.151 3.686 3.985 2.742 13.608-0.075 16.099-2.814 2.484-6.167 2.545-8.423 1.354-2.256-1.197-3.46-3.611-6.017-3.611-2.559 0-3.335 0.678-6.72 2.633-0.074-3.236-0.01-17.923-0.01-17.923z"/>
    <path d="m308.61 363.84s-3.892-2.738-3.706-5.9c0.15-2.562 1.042-2.922 2.405-4.592 1.365-1.666 3.837-7.066-0.147-10.755-3.99-3.686-13.611-2.741-16.098 0.075-2.489 2.82-2.547 6.17-1.354 8.423 1.194 2.256 3.608 3.463 3.608 6.021s-0.675 3.335-2.631 6.716c3.235 0.08 17.923 0.012 17.923 0.012z"/>
  </g>
  <g fill="#fff">
    <path d="m301.27 422.24c0-1.557-0.146-2.88-0.44-3.96-0.291-1.075-0.735-1.947-1.331-2.609-0.594-0.661-1.34-1.143-2.241-1.439-0.898-0.298-1.955-0.448-3.168-0.448h-2.576v16.899h2.242c5.005 0 7.514-2.813 7.514-8.443zm3.15-0.218c0 1.057-0.083 2.069-0.244 3.034-0.166 0.962-0.425 1.863-0.786 2.697-0.361 0.83-0.825 1.586-1.398 2.268-0.572 0.68-1.275 1.26-2.106 1.74-0.831 0.482-1.798 0.857-2.899 1.121-1.1 0.268-2.353 0.398-3.753 0.398h-4.723v-22.024h5.682c3.437 0 6.002 0.884 7.691 2.655 1.689 1.768 2.536 4.471 2.536 8.111z"/>
    <path d="m320.58 422.34c0-1.29-0.1-2.475-0.297-3.546-0.193-1.072-0.514-1.997-0.95-2.771-0.438-0.775-1.004-1.376-1.694-1.805-0.692-0.425-1.527-0.639-2.501-0.639-0.945 0-1.758 0.229-2.438 0.683-0.679 0.456-1.239 1.073-1.673 1.851-0.438 0.782-0.765 1.7-0.98 2.749-0.214 1.053-0.319 2.165-0.319 3.347 0 1.301 0.102 2.488 0.305 3.562 0.203 1.071 0.519 1.993 0.952 2.762 0.43 0.771 0.989 1.369 1.677 1.795 0.685 0.428 1.51 0.639 2.478 0.639 0.944 0 1.757-0.227 2.44-0.682 0.685-0.453 1.253-1.07 1.696-1.852 0.442-0.779 0.771-1.693 0.983-2.739 0.212-1.041 0.321-2.162 0.321-3.354zm3.118-0.214c0 1.97-0.233 3.682-0.7 5.118-0.466 1.441-1.094 2.629-1.887 3.564-0.794 0.938-1.719 1.637-2.781 2.092s-2.183 0.68-3.362 0.68c-1.416 0-2.649-0.25-3.699-0.768-1.049-0.506-1.919-1.248-2.609-2.213-0.692-0.967-1.208-2.145-1.542-3.533-0.338-1.382-0.508-2.951-0.508-4.691 0-1.956 0.23-3.652 0.692-5.088 0.459-1.437 1.086-2.625 1.878-3.564 0.792-0.933 1.717-1.633 2.775-2.088 1.053-0.455 2.17-0.681 3.349-0.681 1.416 0 2.649 0.256 3.698 0.771 1.053 0.519 1.923 1.256 2.623 2.219 0.696 0.959 1.214 2.132 1.555 3.512 0.345 1.379 0.518 2.94 0.518 4.67z"/>
    <polygon points="342.15 413.81 335.63 413.81 335.63 433.28 332.59 433.28 332.59 413.81 326.07 413.81 326.07 411.25 342.15 411.25"/>
    <polygon points="303.66 465.19 299.75 465.19 293.33 451.45 291.48 447.04 291.48 465.19 288.68 465.19 288.68 443.16 292.54 443.16 298.66 456.17 300.86 461.21 300.86 443.16 303.66 443.16"/>
    <polygon points="321.56 465.19 309.04 465.19 309.04 443.16 321.56 443.16 321.56 445.69 312.04 445.69 312.04 452.52 321.19 452.52 321.19 455.04 312.04 455.04 312.04 462.63 321.56 462.63"/>
    <polygon points="342.15 445.73 335.63 445.73 335.63 465.19 332.59 465.19 332.59 445.73 326.07 445.73 326.07 443.16 342.15 443.16"/>
    <path d="m302.94 395.83c0 1.045-0.214 1.966-0.643 2.756-0.431 0.786-1.027 1.444-1.794 1.97s-1.688 0.914-2.764 1.174c-1.077 0.259-2.266 0.391-3.563 0.391-0.585 0-1.167-0.022-1.751-0.067-0.581-0.045-1.139-0.105-1.673-0.169-0.537-0.068-1.042-0.146-1.515-0.237-0.474-0.09-0.901-0.188-1.287-0.29v-2.907c0.849 0.316 1.798 0.56 2.851 0.745 1.055 0.177 2.252 0.267 3.595 0.267 0.97 0 1.798-0.075 2.478-0.226 0.683-0.15 1.241-0.375 1.678-0.677 0.432-0.297 0.748-0.662 0.945-1.09 0.197-0.429 0.295-0.921 0.295-1.474 0-0.594-0.166-1.105-0.5-1.53-0.331-0.421-0.767-0.801-1.309-1.132s-1.16-0.635-1.854-0.914c-0.694-0.274-1.403-0.56-2.123-0.853s-1.429-0.613-2.123-0.959c-0.691-0.338-1.311-0.749-1.852-1.214-0.542-0.47-0.98-1.02-1.311-1.651-0.333-0.632-0.5-1.379-0.5-2.249 0-0.755 0.158-1.5 0.474-2.233 0.318-0.733 0.809-1.384 1.47-1.956 0.666-0.568 1.521-1.026 2.565-1.376 1.043-0.35 2.286-0.523 3.73-0.523 0.373 0 0.775 0.015 1.209 0.049 0.435 0.033 0.875 0.083 1.32 0.143 0.446 0.064 0.886 0.135 1.318 0.214 0.436 0.079 0.838 0.162 1.211 0.252v2.708c-0.869-0.248-1.737-0.436-2.606-0.567-0.869-0.128-1.708-0.192-2.52-0.192-1.726 0-2.994 0.286-3.806 0.862-0.813 0.575-1.219 1.35-1.219 2.316 0 0.598 0.166 1.113 0.5 1.542 0.331 0.425 0.768 0.809 1.309 1.147 0.542 0.338 1.16 0.647 1.854 0.921 0.694 0.278 1.399 0.56 2.125 0.857 0.718 0.29 1.425 0.613 2.121 0.962 0.691 0.35 1.311 0.764 1.852 1.245 0.539 0.478 0.979 1.038 1.311 1.681 0.336 0.641 0.502 1.4 0.502 2.284z"/>
    <path d="m324 401.81h-3.28l-1.538-4.821h-9.204l-1.557 4.821h-3.129l7.343-22.107h4.126l7.239 22.107zm-5.682-7.513-3.74-11.823-3.736 11.823h7.476z"/>
    <path d="m341.95 401.81h-3.399l-3.297-7.073c-0.249-0.542-0.504-0.989-0.762-1.342-0.261-0.357-0.539-0.639-0.836-0.846-0.301-0.207-0.628-0.357-0.985-0.447-0.35-0.09-0.75-0.135-1.19-0.135h-1.419v9.844h-3.012v-22.107h5.921c1.288 0 2.39 0.139 3.314 0.421 0.925 0.283 1.685 0.677 2.275 1.185 0.594 0.508 1.027 1.12 1.301 1.835 0.278 0.714 0.416 1.508 0.416 2.376 0 0.688-0.1 1.339-0.303 1.955-0.205 0.613-0.506 1.174-0.906 1.674s-0.895 0.937-1.489 1.301c-0.59 0.369-1.271 0.643-2.038 0.824 0.621 0.211 1.147 0.587 1.583 1.125 0.432 0.534 0.876 1.249 1.327 2.136l3.499 7.274zm-4.821-16.038c0-1.181-0.37-2.068-1.107-2.654-0.739-0.583-1.781-0.88-3.122-0.88h-2.841v7.311h2.436c0.71 0 1.35-0.083 1.919-0.249 0.57-0.162 1.053-0.406 1.456-0.726 0.398-0.324 0.71-0.719 0.931-1.185 0.217-0.466 0.328-1.008 0.328-1.617z"/>
  </g>
  <path d="m779.93 282.64c-2.815-2.486-6.167-2.546-8.424-1.354-2.256 1.196-3.461 3.61-6.017 3.61-0.449 0-0.842-0.019-1.205-0.064v-60.269h-40.238v-0.045h-56.396v0.045h-35.449v59.299c2.567-0.278 3.908-2.771 6.305-4.039 2.539-1.346 6.039-0.936 9.207 1.866 3.17 2.797 4.506 12.601 0.358 17.083-4.147 4.486-10.23 2.388-12.104 0.857-1.519-1.245-2.076-2.144-3.766-2.524v59.544h60.122c0.021 0.255 0.027 0.53 0.027 0.827 0 2.557-2.414 3.761-3.608 6.021-1.194 2.252-1.134 5.603 1.355 8.423 2.486 2.817 12.109 3.761 16.097 0.076 3.984-3.689 1.512-9.089 0.149-10.759-1.366-1.666-2.257-2.027-2.408-4.587h60.349v-60.175c0.125-4e-3 0.25-4e-3 0.376 3e-3 2.557 0.154 2.921 1.045 4.59 2.411 1.665 1.361 7.069 3.835 10.755-0.154 3.686-3.983 2.743-13.606-0.075-16.095z" fill="#4F1D70"/>
  <g fill="#fff">
    <path d="m700.7 287.98c0 1.091-0.085 2.14-0.254 3.136-0.167 1-0.438 1.933-0.81 2.79-0.373 0.861-0.854 1.644-1.447 2.347-0.594 0.703-1.32 1.305-2.18 1.805-0.861 0.501-1.861 0.888-3 1.163-1.14 0.271-2.436 0.41-3.89 0.41h-4.883v-22.797h5.877c3.559 0 6.211 0.914 7.961 2.745 1.753 1.831 2.626 4.633 2.626 8.401zm-3.259 0.226c0-1.617-0.153-2.982-0.455-4.099-0.303-1.117-0.761-2.016-1.379-2.704-0.614-0.685-1.389-1.181-2.317-1.489-0.931-0.309-2.023-0.463-3.28-0.463h-2.668v17.49h2.319c5.186 1e-3 7.78-2.91 7.78-8.735z"/>
    <path d="m720.65 288.08c0 2.05-0.24 3.817-0.723 5.302-0.482 1.49-1.133 2.719-1.952 3.689-0.822 0.97-1.78 1.692-2.879 2.162-1.099 0.474-2.258 0.708-3.479 0.708-1.465 0-2.741-0.264-3.828-0.794-1.089-0.53-1.987-1.293-2.703-2.294-0.715-1-1.247-2.218-1.597-3.651-0.349-1.436-0.523-3.057-0.523-4.858 0-2.023 0.237-3.779 0.715-5.268 0.478-1.486 1.125-2.716 1.944-3.689 0.821-0.97 1.777-1.689 2.868-2.163 1.095-0.47 2.251-0.707 3.472-0.707 1.465 0 2.741 0.27 3.828 0.804s1.991 1.297 2.712 2.294c0.722 0.993 1.26 2.204 1.612 3.636 0.357 1.429 0.533 3.039 0.533 4.829zm-3.225 0.229c0-1.339-0.103-2.561-0.305-3.674-0.203-1.109-0.532-2.064-0.986-2.865-0.452-0.805-1.037-1.425-1.752-1.869-0.714-0.44-1.579-0.662-2.591-0.662-0.976 0-1.816 0.236-2.52 0.707s-1.282 1.109-1.736 1.918c-0.452 0.808-0.789 1.756-1.01 2.843-0.223 1.086-0.332 2.241-0.332 3.463 0 1.346 0.104 2.576 0.314 3.689 0.208 1.109 0.538 2.061 0.985 2.858 0.446 0.797 1.026 1.418 1.735 1.857 0.709 0.44 1.564 0.662 2.563 0.662 0.978 0 1.82-0.233 2.53-0.708 0.707-0.47 1.292-1.109 1.753-1.917 0.458-0.808 0.8-1.752 1.019-2.832 0.222-1.082 0.333-2.24 0.333-3.47z"/>
    <path d="m739.75 279.48h-6.75v20.145h-3.139v-20.145h-6.749v-2.651h16.638v2.651z"/>
    <path d="m699.91 332.5h-4.047l-6.645-14.211-1.92-4.572v18.784h-2.896v-22.792h3.995l6.331 13.462 2.285 5.216v-18.678h2.896v22.791z"/>
    <path d="m718.44 332.5h-12.957v-22.792h12.957v2.613h-9.855v7.066h9.471v2.614h-9.471v7.848h9.855v2.651z"/>
    <path d="m739.75 312.36h-6.75v20.141h-3.139v-20.141h-6.749v-2.651h16.638v2.651z"/>
    <path d="m699.58 259.17c0 1.248-0.172 2.376-0.518 3.388-0.349 1.012-0.858 1.873-1.527 2.583-0.671 0.711-1.493 1.26-2.465 1.647-0.973 0.388-2.089 0.583-3.352 0.583-1.387 0-2.563-0.185-3.528-0.557-0.967-0.369-1.755-0.891-2.361-1.568-0.607-0.677-1.052-1.489-1.33-2.437-0.277-0.947-0.417-2.004-0.417-3.174v-15.241h3.035v15c0 0.887 0.082 1.669 0.246 2.338 0.165 0.669 0.434 1.234 0.81 1.681 0.377 0.451 0.862 0.793 1.457 1.023 0.599 0.233 1.328 0.35 2.192 0.35 1.614 0 2.807-0.474 3.573-1.421s1.151-2.286 1.151-4.008v-14.963h3.033v14.776z"/>
    <path d="m717.49 247.03h-9.463v7.351h8.968v2.583h-8.968v10.093h-3.103v-22.664h12.565v2.637z"/>
    <path d="m739.65 267.06h-3.31l-1.551-4.941h-9.275l-1.57 4.941h-3.154l7.4-22.664h4.16l7.3 22.664zm-5.728-7.702-3.771-12.121-3.769 12.121h7.54z"/>
  </g>
  <g fill="#7F1A7F">
    <path d="m175 497.67s-3.892-2.732-3.708-5.891c0.15-2.557 1.044-2.916 2.406-4.58 1.365-1.664 3.836-7.059-0.146-10.742-3.99-3.68-13.611-2.736-16.098 0.076-2.489 2.816-2.548 6.16-1.354 8.408 1.194 2.258 3.608 3.459 3.608 6.012 0 2.555-0.674 3.33-2.63 6.709 3.232 0.076 17.922 8e-3 17.922 8e-3z"/>
    <path d="m247.7 549.04c-3.685-3.984-9.089-1.512-10.755-0.152-1.667 1.361-2.035 2.256-4.591 2.404-0.124 8e-3 -0.25 8e-3 -0.376 4e-3v-60.078h-132.08v58.836c1.687-0.383 2.245-0.867 3.762-2.111 1.876-1.529 7.766-3.893 11.911 0.592 4.148 4.475 3.033 14.334-0.137 17.127-3.166 2.799-6.825 3.322-9.363 1.979-2.399-1.266-3.606-3.473-6.173-3.746v59.201h38.434v0.025h49.954v-0.025h43.692v-60.175c0.364-0.041 0.758-0.064 1.207-0.064 2.556 0 3.761 2.414 6.017 3.605 2.256 1.193 5.607 1.129 8.423-1.352 2.817-2.482 3.761-12.091 0.076-16.07z"/>
  </g>
  <g fill="#fff">
    <path d="m169.56 555.33c0 1.059-0.079 2.064-0.243 3.031-0.162 0.971-0.423 1.869-0.78 2.701-0.357 0.83-0.822 1.586-1.392 2.266-0.571 0.678-1.271 1.262-2.098 1.742-0.828 0.484-1.79 0.861-2.888 1.125-1.095 0.262-2.343 0.395-3.742 0.395h-4.697v-22.033h5.654c3.424 0 5.977 0.887 7.662 2.654 1.683 1.771 2.524 4.476 2.524 8.119zm-3.137 0.219c0-1.564-0.146-2.885-0.436-3.961-0.291-1.078-0.733-1.951-1.328-2.611-0.592-0.666-1.335-1.145-2.23-1.445-0.895-0.297-1.948-0.443-3.155-0.443h-2.568v16.906h2.231c4.99-1e-3 7.486-2.817 7.486-8.446z"/>
    <path d="m188.76 555.43c0 1.975-0.231 3.686-0.695 5.123-0.465 1.439-1.091 2.627-1.88 3.564-0.788 0.939-1.711 1.635-2.768 2.092-1.057 0.453-2.174 0.684-3.347 0.684-1.41 0-2.638-0.256-3.686-0.768-1.045-0.512-1.912-1.252-2.6-2.219-0.689-0.967-1.2-2.143-1.537-3.531-0.334-1.389-0.504-2.951-0.504-4.691 0-1.957 0.229-3.652 0.688-5.094 0.459-1.436 1.083-2.625 1.873-3.564 0.791-0.939 1.708-1.635 2.76-2.092 1.052-0.453 2.165-0.68 3.34-0.68 1.41 0 2.636 0.256 3.683 0.775 1.047 0.514 1.916 1.256 2.607 2.215 0.696 0.963 1.211 2.133 1.553 3.516 0.343 1.381 0.513 2.937 0.513 4.67zm-3.102 0.218c0-1.293-0.1-2.475-0.295-3.551-0.196-1.07-0.512-1.996-0.948-2.771-0.436-0.777-0.999-1.375-1.687-1.805-0.688-0.424-1.519-0.639-2.493-0.639-0.938 0-1.747 0.227-2.424 0.682-0.677 0.453-1.234 1.074-1.67 1.855-0.436 0.779-0.761 1.697-0.972 2.746-0.214 1.053-0.32 2.166-0.32 3.348 0 1.305 0.102 2.492 0.301 3.564 0.203 1.072 0.519 1.994 0.947 2.764 0.432 0.771 0.989 1.369 1.669 1.799 0.685 0.424 1.506 0.639 2.467 0.639 0.94 0 1.752-0.23 2.435-0.686 0.683-0.455 1.243-1.07 1.687-1.854 0.442-0.777 0.767-1.691 0.981-2.738 0.212-1.044 0.322-2.165 0.322-3.353z"/>
    <path d="m207.13 547.12h-6.494v19.473h-3.02v-19.473h-6.495v-2.561h16.008v2.561z"/>
    <path d="m168.72 598.52h-3.911l-6.421-13.736-1.856-4.416v18.152h-2.797v-22.029h3.86l6.118 13.012 2.209 5.043v-18.055h2.798v22.029z"/>
    <path d="m186.62 598.52h-12.524v-22.029h12.524v2.527h-9.523v6.826h9.153v2.531h-9.153v7.584h9.523v2.561z"/>
    <path d="m207.22 579.05h-6.524v19.469h-3.035v-19.469h-6.522v-2.561h16.081v2.561z"/>
    <path d="m168.27 535.27h-3.804l-6.246-13.795-1.803-4.434v18.228h-2.721v-22.117h3.753l5.954 13.061 2.147 5.063v-18.123h2.721v22.117z"/>
    <path d="m186.73 535.27h-3.802l-6.246-13.795-1.805-4.434v18.228h-2.72v-22.117h3.754l5.949 13.061 2.149 5.063v-18.123h2.721v22.117z"/>
    <path d="m207.05 513.15-7.278 22.117h-3.934l-7.115-22.117h3.294l4.624 14.906 1.311 4.367 1.344-4.367 4.639-14.906h3.115z"/>
  </g>
  <g fill="#4F1D70">
    <path d="m233.1 224.38h132.08v132.09h-58.898c0.577-2.17 2.2-3.479 3.362-5.671 1.343-2.542 1.273-6.31-1.522-9.48-2.8-3.169-13.628-4.23-18.114-0.086-4.488 4.147-1.704 10.232-0.169 12.104 1.072 1.309 1.884 1.907 2.335 3.133h-59.073v-59.295c2.565 0.274 3.905 2.768 6.303 4.039 2.539 1.342 6.312 1.274 9.48-1.527 3.17-2.798 4.23-13.625 0.085-18.111-4.148-4.486-10.23-1.703-12.105-0.173-1.517 1.245-2.075 2.144-3.762 2.527v-59.546z"/>
    <path d="m360.33 280.96s2.74 3.892 5.902 3.704c2.557-0.15 2.921-1.042 4.589-2.407 1.666-1.365 7.07-3.839 10.755 0.15 3.685 3.986 2.741 13.609-0.075 16.095-2.817 2.489-6.168 2.55-8.424 1.354-2.257-1.192-3.462-3.61-6.017-3.61-2.559 0-3.335 0.677-6.719 2.632-0.076-3.233-0.011-17.918-0.011-17.918z"/>
    <path d="m289.75 230.25s3.892-2.739 3.704-5.902c-0.15-2.557-1.042-2.921-2.406-4.589-1.365-1.666-3.84-7.07 0.15-10.755 3.986-3.685 13.609-2.741 16.095 0.075 2.489 2.817 2.55 6.168 1.354 8.424-1.192 2.257-3.61 3.462-3.61 6.017 0 2.559 0.677 3.335 2.632 6.719-3.234 0.075-17.919 0.011-17.919 0.011z"/>
  </g>
  <g fill="#4F1D70">
    <path d="m366.28 224.38h132.08v132.08h-58.899c0.577-2.17 2.201-3.479 3.36-5.67 1.345-2.539 1.275-6.311-1.522-9.477-2.799-3.174-13.627-4.234-18.113-0.087-4.489 4.148-1.705 10.229-0.17 12.101 1.074 1.313 1.886 1.911 2.335 3.133h-59.073v-59.295c2.567 0.278 3.906 2.772 6.304 4.039 2.539 1.346 6.31 1.275 9.479-1.527 3.169-2.798 4.231-13.625 0.084-18.111s-10.228-1.703-12.105-0.168c-1.517 1.244-2.076 2.139-3.763 2.523v-59.543z"/>
    <path d="m492.83 280.84s2.74 3.892 5.902 3.705c2.557-0.151 2.922-1.042 4.59-2.407 1.665-1.365 7.069-3.84 10.755 0.15 3.685 3.986 2.741 13.609-0.075 16.095-2.816 2.489-6.168 2.549-8.424 1.354-2.256-1.192-3.461-3.61-6.017-3.61-2.56 0-3.335 0.677-6.72 2.632-0.075-3.234-0.011-17.919-0.011-17.919z"/>
    <path d="m428.54 230.25s3.892-2.739 3.704-5.902c-0.15-2.557-1.044-2.921-2.408-4.589-1.364-1.666-3.839-7.07 0.15-10.755 3.987-3.685 13.609-2.741 16.095 0.075 2.489 2.817 2.551 6.168 1.354 8.424-1.193 2.257-3.61 3.462-3.61 6.017 0 2.559 0.678 3.335 2.633 6.719-3.235 0.075-17.918 0.011-17.918 0.011z"/>
  </g>
  <g fill="#fff">
    <path d="m302.4 288.75c0 1.132-0.086 2.218-0.253 3.252-0.171 1.038-0.444 2.002-0.816 2.896-0.375 0.891-0.859 1.701-1.456 2.429-0.594 0.73-1.323 1.354-2.188 1.873-0.863 0.52-1.867 0.92-3.01 1.204-1.146 0.282-2.448 0.425-3.905 0.425h-4.905v-23.632h5.901c3.573 0 6.239 0.949 7.995 2.849 1.758 1.898 2.637 4.799 2.637 8.704zm-3.277 0.235c0-1.676-0.15-3.093-0.453-4.25-0.305-1.156-0.767-2.093-1.386-2.803-0.618-0.711-1.395-1.226-2.329-1.545-0.934-0.318-2.031-0.479-3.291-0.479h-2.681v18.134h2.329c5.207 0 7.811-3.02 7.811-9.057z"/>
    <path d="m322.43 288.86c0 2.121-0.24 3.952-0.726 5.496-0.484 1.544-1.138 2.818-1.961 3.824-0.822 1.006-1.788 1.754-2.89 2.242-1.104 0.487-2.27 0.731-3.494 0.731-1.472 0-2.752-0.274-3.845-0.822-1.093-0.547-1.996-1.341-2.713-2.378-0.72-1.036-1.253-2.298-1.604-3.787-0.352-1.489-0.526-3.167-0.526-5.035 0-2.099 0.239-3.919 0.718-5.462 0.481-1.54 1.128-2.817 1.954-3.822 0.822-1.008 1.782-1.754 2.88-2.243 1.096-0.487 2.26-0.731 3.486-0.731 1.471 0 2.753 0.278 3.843 0.831 1.092 0.554 2 1.348 2.723 2.376 0.726 1.031 1.265 2.29 1.623 3.772 0.355 1.481 0.532 3.15 0.532 5.008zm-3.24 0.235c0-1.386-0.102-2.657-0.305-3.807-0.205-1.151-0.534-2.142-0.991-2.975-0.455-0.831-1.042-1.476-1.762-1.933-0.715-0.459-1.583-0.688-2.599-0.688-0.981 0-1.826 0.244-2.531 0.733-0.707 0.487-1.288 1.151-1.743 1.99-0.455 0.838-0.793 1.818-1.015 2.944-0.222 1.128-0.333 2.324-0.333 3.589 0 1.399 0.105 2.676 0.316 3.827s0.54 2.14 0.989 2.963c0.45 0.828 1.029 1.469 1.742 1.926 0.712 0.458 1.572 0.688 2.576 0.688 0.981 0 1.826-0.245 2.538-0.733 0.713-0.487 1.299-1.15 1.762-1.989 0.459-0.834 0.801-1.816 1.023-2.937 0.223-1.121 0.333-2.321 0.333-3.598z"/>
    <path d="m341.61 279.94h-6.778v20.883h-3.152v-20.883h-6.78v-2.749h16.71v2.749z"/>
    <path d="m301.77 335.07h-4.065l-6.673-14.735-1.926-4.738v19.474h-2.906v-23.63h4.01l6.357 13.958 2.294 5.406v-19.365h2.909v23.63z"/>
    <path d="m320.37 335.07h-13.011v-23.63h13.011v2.711h-9.896v7.323h9.511v2.711h-9.511v8.138h9.896v2.747z"/>
    <path d="m341.77 314.19h-6.778v20.883h-3.153v-20.883h-6.778v-2.747h16.709v2.747z"/>
    <path d="m301.03 250.77c0 0.967-0.176 1.927-0.528 2.877-0.35 0.949-0.897 1.801-1.636 2.549-0.737 0.752-1.681 1.358-2.83 1.824s-2.519 0.699-4.116 0.699h-2.847v8.514h-3.129v-23.725h6.469c1.137 0 2.228 0.132 3.271 0.391 1.044 0.259 1.961 0.681 2.75 1.26 0.794 0.583 1.424 1.335 1.892 2.252 0.469 0.922 0.704 2.039 0.704 3.359zm-3.253 0.145c0-1.525-0.485-2.691-1.452-3.503-0.968-0.812-2.316-1.217-4.052-1.217h-3.2v9.765h2.918c1.852 0 3.281-0.417 4.281-1.249 1.003-0.837 1.505-2.103 1.505-3.796z"/>
    <path d="m320.69 267.23h-4.08l-6.699-14.793-1.933-4.757v19.55h-2.919v-23.725h4.025l6.383 14.014 2.303 5.428v-19.442h2.92v23.725z"/>
    <path d="m340.36 246.05-11.729 18.168h11.957v3.014h-15.877v-2.415l11.799-18.37h-11.483v-2.94h15.333v2.543z"/>
  </g>
  <g fill="#7F1A7F">
    <path d="m499.42 224.38h132.08v132.09h-58.897c0.576-2.17 2.198-3.479 3.361-5.671 1.343-2.542 1.273-6.31-1.523-9.48-2.8-3.169-13.628-4.23-18.113-0.086-4.487 4.147-1.705 10.232-0.169 12.104 1.071 1.309 1.883 1.907 2.335 3.133h-59.074v-59.295c2.564 0.274 3.906 2.768 6.303 4.039 2.538 1.342 6.313 1.274 9.48-1.527 3.17-2.798 4.23-13.625 0.084-18.111-4.147-4.486-10.229-1.703-12.104-0.173-1.517 1.245-2.074 2.144-3.763 2.527v-59.546z"/>
    <path d="m625.45 280.96s2.739 3.892 5.902 3.704c2.557-0.15 2.921-1.042 4.59-2.407 1.665-1.365 7.069-3.839 10.755 0.15 3.685 3.986 2.74 13.609-0.075 16.095-2.816 2.489-6.168 2.55-8.424 1.354-2.256-1.192-3.461-3.61-6.017-3.61-2.56 0-3.335 0.677-6.72 2.632-0.075-3.233-0.011-17.918-0.011-17.918z"/>
    <path d="m555.72 230.25s3.892-2.739 3.704-5.902c-0.15-2.557-1.042-2.921-2.407-4.589-1.365-1.666-3.839-7.07 0.15-10.755 3.986-3.685 13.608-2.741 16.095 0.075 2.489 2.817 2.55 6.168 1.354 8.424-1.192 2.257-3.611 3.462-3.611 6.017 0 2.559 0.678 3.335 2.633 6.719-3.234 0.075-17.918 0.011-17.918 0.011z"/>
  </g>
  <g fill="#fff">
    <path d="m566.72 288.49c0-1.602-0.152-2.959-0.45-4.068-0.304-1.109-0.755-2.001-1.373-2.685-0.608-0.681-1.377-1.177-2.301-1.481-0.922-0.305-2.009-0.459-3.257-0.459h-2.65v17.377h2.305c5.151-1e-3 7.726-2.897 7.726-8.684zm3.238-0.221c0 1.083-0.084 2.125-0.252 3.118-0.166 0.992-0.434 1.918-0.804 2.771-0.37 0.857-0.85 1.632-1.44 2.332-0.586 0.699-1.309 1.297-2.164 1.794-0.852 0.496-1.847 0.88-2.978 1.151-1.135 0.27-2.422 0.406-3.866 0.406h-4.85v-22.642h5.837c3.534 0 6.171 0.91 7.91 2.726 1.739 1.82 2.607 4.602 2.607 8.344z"/>
    <path d="m586.58 288.59c0-1.328-0.103-2.542-0.306-3.647-0.199-1.102-0.526-2.053-0.978-2.85-0.449-0.794-1.026-1.411-1.739-1.851-0.71-0.44-1.569-0.658-2.572-0.658-0.972 0-1.806 0.233-2.506 0.7-0.7 0.47-1.273 1.105-1.722 1.906-0.452 0.801-0.787 1.745-1.005 2.824-0.222 1.079-0.331 2.226-0.331 3.441 0 1.335 0.105 2.561 0.313 3.663 0.211 1.102 0.534 2.05 0.978 2.839 0.447 0.794 1.02 1.407 1.724 1.847 0.706 0.437 1.556 0.658 2.55 0.658 0.969 0 1.806-0.233 2.51-0.699 0.706-0.47 1.287-1.106 1.743-1.907 0.457-0.801 0.794-1.742 1.012-2.817 0.22-1.073 0.329-2.223 0.329-3.449zm3.207-0.222c0 2.03-0.243 3.787-0.723 5.265-0.477 1.478-1.124 2.7-1.939 3.663-0.813 0.962-1.768 1.681-2.854 2.151-1.093 0.47-2.245 0.699-3.46 0.699-1.455 0-2.723-0.263-3.801-0.786-1.08-0.526-1.975-1.286-2.688-2.279-0.711-0.993-1.238-2.204-1.585-3.629-0.348-1.429-0.519-3.039-0.519-4.825 0-2.012 0.236-3.756 0.71-5.235 0.47-1.478 1.117-2.696 1.93-3.663 0.815-0.962 1.763-1.68 2.852-2.147 1.086-0.47 2.234-0.707 3.446-0.707 1.456 0 2.724 0.267 3.807 0.801 1.077 0.53 1.975 1.29 2.691 2.279 0.715 0.985 1.251 2.193 1.605 3.61 0.349 1.422 0.528 3.024 0.528 4.803z"/>
    <polygon points="608.75 279.83 602.05 279.83 602.05 299.84 598.93 299.84 598.93 279.83 592.22 279.83 592.22 277.2 608.75 277.2"/>
    <polygon points="569.34 332.65 565.32 332.65 558.72 318.53 556.81 314 556.81 332.65 553.94 332.65 553.94 310.01 557.91 310.01 564.2 323.38 566.46 328.56 566.46 310.01 569.34 310.01"/>
    <polygon points="587.74 332.65 574.87 332.65 574.87 310.01 587.74 310.01 587.74 312.61 577.95 312.61 577.95 319.62 587.36 319.62 587.36 322.22 577.95 322.22 577.95 330.02 587.74 330.02"/>
    <polygon points="608.91 312.64 602.21 312.64 602.21 332.65 599.09 332.65 599.09 312.64 592.38 312.64 592.38 310.01 608.91 310.01"/>
    <path d="m569.15 267.65h-3.896l-8.502-11.149v11.149h-3.099v-22.732h3.099v10.556l8.33-10.556h3.67l-8.975 10.8 9.373 11.932z"/>
    <path d="m587.94 247.35-11.6 17.407h11.827v2.888h-15.706v-2.313l11.671-17.603h-11.354v-2.817h15.162v2.438z"/>
    <path d="m607.65 267.65h-4.035l-6.628-14.177-1.911-4.554v18.73h-2.889v-22.732h3.984l6.312 13.429 2.278 5.197v-18.625h2.889v22.732z"/>
  </g>
  <g fill="#7F1A7F">
    <path d="m499.14 91.231h132.08v132.09h-58.898c0.578-2.17 2.2-3.479 3.362-5.671 1.342-2.542 1.273-6.31-1.522-9.48-2.802-3.169-13.628-4.23-18.115-0.086-4.487 4.147-1.703 10.232-0.169 12.104 1.072 1.309 1.884 1.907 2.336 3.133h-59.073v-59.295c2.564 0.274 3.906 2.768 6.303 4.039 2.538 1.342 6.312 1.274 9.48-1.527 3.17-2.798 4.23-13.625 0.084-18.111s-10.229-1.703-12.104-0.173c-1.519 1.245-2.077 2.144-3.764 2.527v-59.546z"/>
    <path d="m625.45 147.81s2.739 3.892 5.902 3.704c2.557-0.15 2.921-1.043 4.59-2.408 1.665-1.364 7.069-3.838 10.755 0.15 3.685 3.988 2.74 13.609-0.075 16.095-2.816 2.49-6.168 2.551-8.424 1.355-2.256-1.193-3.461-3.61-6.017-3.61-2.56 0-3.335 0.677-6.72 2.633-0.075-3.235-0.011-17.919-0.011-17.919z"/>
  </g>
  <g fill="#7F1A7F">
    <path d="m631.51 489.6v-132.08h-132.08v59.457c2.169-0.576 3.479-2.761 5.671-3.919 2.538-1.346 6.311-1.274 9.48 1.522 3.169 2.802 4.23 13.629 0.083 18.114-4.148 4.486-10.229 1.705-12.105 0.17-1.309-1.072-1.906-1.885-3.129-2.336v59.076h59.293c-0.201-1.881-2.361-4.049-3.559-6.305-1.342-2.543-1-6.242 1.797-9.412 2.798-3.17 12.876-4.303 17.36-0.15 4.488 4.146 1.705 10.227 0.17 12.1-1.242 1.52-2.137 2.078-2.521 3.768h59.543z"/>
    <path d="m574.92 363.94s-3.895-2.824-3.705-6.077c0.149-2.632 1.041-3.009 2.406-4.723 1.364-1.718 3.864-7.28-0.121-11.075-3.985-3.794-13.61-2.82-16.096 0.079-2.492 2.899-2.576 6.348-1.382 8.672 1.193 2.324 3.605 3.561 3.605 6.193 0 2.636-0.673 3.437-2.628 6.919 3.232 0.081 17.921 0.012 17.921 0.012z"/>
    <path d="m624.78 433.13s2.802-3.889 6.034-3.703c2.617 0.15 2.987 1.041 4.693 2.406 1.703 1.361 7.229 3.836 10.999-0.154 3.768-3.982 2.806-13.604-0.075-16.094-2.885-2.485-6.31-2.546-8.617-1.354-2.307 1.196-3.536 3.611-6.154 3.611-2.615 0-3.406-0.673-6.87-2.633-0.079 3.233-0.01 17.921-0.01 17.921z"/>
  </g>
  <g fill="#fff">
    <path d="m567.7 423.5c0-1.647-0.156-3.042-0.465-4.182-0.309-1.136-0.773-2.057-1.402-2.752-0.629-0.703-1.417-1.207-2.365-1.519-0.947-0.316-2.064-0.475-3.345-0.475h-2.721v17.837h2.364c5.289 0 7.934-2.972 7.934-8.909zm3.323-0.233c0 1.117-0.083 2.185-0.255 3.199-0.174 1.023-0.448 1.969-0.828 2.848s-0.871 1.674-1.475 2.393c-0.604 0.717-1.346 1.33-2.222 1.838-0.88 0.512-1.901 0.906-3.062 1.186-1.164 0.277-2.481 0.416-3.967 0.416h-4.975v-23.239h5.992c3.624 0 6.329 0.933 8.116 2.798 1.785 1.867 2.676 4.722 2.676 8.561z"/>
    <path d="m588.07 423.6c0-1.361-0.102-2.609-0.311-3.742-0.206-1.132-0.539-2.11-1.006-2.926-0.458-0.819-1.057-1.451-1.786-1.902s-1.606-0.676-2.64-0.676c-0.997 0-1.854 0.24-2.572 0.717-0.715 0.482-1.305 1.136-1.766 1.96-0.466 0.823-0.807 1.79-1.032 2.899s-0.338 2.282-0.338 3.527c0 1.377 0.106 2.632 0.319 3.761 0.214 1.135 0.55 2.104 1.004 2.916 0.459 0.813 1.05 1.441 1.771 1.896 0.724 0.451 1.592 0.672 2.613 0.672 0.995 0 1.855-0.236 2.58-0.717 0.722-0.482 1.317-1.133 1.786-1.957 0.468-0.822 0.813-1.785 1.041-2.891 0.224-1.101 0.337-2.282 0.337-3.537zm3.291-0.23c0 2.088-0.248 3.889-0.74 5.405-0.489 1.518-1.154 2.773-1.986 3.764-0.839 0.988-1.817 1.721-2.938 2.203-1.119 0.482-2.302 0.723-3.548 0.723-1.493 0-2.794-0.275-3.901-0.813-1.111-0.539-2.026-1.316-2.758-2.338-0.729-1.018-1.271-2.258-1.627-3.725-0.355-1.465-0.532-3.113-0.532-4.952 0-2.064 0.242-3.854 0.728-5.374 0.489-1.516 1.146-2.768 1.982-3.761 0.838-0.989 1.813-1.722 2.925-2.204 1.115-0.477 2.294-0.719 3.539-0.719 1.494 0 2.796 0.271 3.903 0.817 1.109 0.545 2.028 1.324 2.768 2.339 0.733 1.012 1.28 2.249 1.644 3.708 0.361 1.459 0.541 3.099 0.541 4.927z"/>
    <polygon points="610.83 414.6 603.95 414.6 603.95 435.14 600.75 435.14 600.75 414.6 593.87 414.6 593.87 411.9 610.83 411.9"/>
    <polygon points="570.22 468.3 566.1 468.3 559.32 453.81 557.36 449.15 557.36 468.3 554.41 468.3 554.41 445.06 558.48 445.06 564.94 458.79 567.27 464.11 567.27 445.06 570.22 445.06"/>
    <polygon points="589.11 468.3 575.89 468.3 575.89 445.06 589.11 445.06 589.11 447.73 579.06 447.73 579.06 454.93 588.72 454.93 588.72 457.6 579.06 457.6 579.06 465.6 589.11 465.6"/>
    <polygon points="610.83 447.77 603.95 447.77 603.95 468.3 600.75 468.3 600.75 447.77 593.87 447.77 593.87 445.06 610.83 445.06"/>
    <path d="m571.22 402.1h-3.106l-0.466-14.549-0.195-5.588-1.089 3.249-3.446 9.285h-2.196l-3.283-8.927-1.091-3.606-0.07 5.84-0.41 14.296h-2.998l1.143-23.33h3.766l3.142 8.781 1.018 2.963 0.981-2.963 3.305-8.781h3.874l1.121 23.33z"/>
    <path d="m589.89 395.78c0 1.105-0.226 2.076-0.677 2.907-0.455 0.835-1.083 1.527-1.892 2.08-0.811 0.557-1.782 0.966-2.922 1.241-1.136 0.274-2.389 0.414-3.757 0.414-0.62 0-1.233-0.026-1.846-0.072-0.613-0.048-1.204-0.109-1.769-0.18-0.567-0.072-1.098-0.154-1.598-0.248-0.5-0.098-0.954-0.199-1.356-0.305v-3.068c0.892 0.331 1.896 0.59 3.007 0.782 1.113 0.192 2.377 0.286 3.795 0.286 1.022 0 1.895-0.079 2.615-0.24 0.72-0.162 1.309-0.399 1.766-0.715 0.458-0.312 0.791-0.699 1-1.15 0.211-0.451 0.312-0.97 0.312-1.553 0-0.628-0.172-1.17-0.526-1.614-0.352-0.447-0.813-0.846-1.383-1.2-0.572-0.349-1.223-0.669-1.952-0.962-0.733-0.29-1.481-0.59-2.241-0.902-0.764-0.309-1.51-0.643-2.241-1.008-0.732-0.365-1.384-0.79-1.955-1.286-0.572-0.493-1.033-1.072-1.383-1.742-0.352-0.666-0.526-1.455-0.526-2.373 0-0.797 0.166-1.583 0.498-2.358 0.333-0.771 0.853-1.459 1.554-2.061 0.703-0.598 1.604-1.083 2.706-1.455 1.099-0.369 2.412-0.553 3.935-0.553 0.392 0 0.819 0.019 1.275 0.053 0.458 0.038 0.923 0.086 1.396 0.154 0.47 0.063 0.932 0.139 1.391 0.221 0.459 0.083 0.885 0.174 1.277 0.271v2.854c-0.918-0.263-1.834-0.462-2.749-0.598-0.918-0.139-1.803-0.207-2.661-0.207-1.819 0-3.158 0.305-4.017 0.91-0.856 0.609-1.285 1.421-1.285 2.444 0 0.632 0.177 1.174 0.526 1.628 0.349 0.451 0.814 0.854 1.384 1.214 0.571 0.358 1.222 0.681 1.955 0.971s1.478 0.594 2.237 0.902c0.764 0.309 1.512 0.647 2.241 1.016 0.733 0.368 1.385 0.808 1.955 1.312 0.572 0.508 1.035 1.098 1.385 1.778 0.348 0.679 0.526 1.483 0.526 2.412z"/>
    <path d="m610.88 402.1h-3.997l-8.729-11.443v11.443h-3.181v-23.33h3.181v10.834l8.549-10.834h3.768l-9.212 11.082 9.621 12.248z"/>
  </g>
  <g fill="#7F1A7F">
    <path d="m498.35 622.27v-132.08h-132.08v59.457c2.169-0.576 3.479-2.76 5.671-3.918 2.538-1.346 6.311-1.275 9.48 1.521 3.168 2.803 4.231 13.629 0.083 18.115-4.149 4.486-10.229 1.703-12.106 0.17-1.308-1.072-1.906-1.885-3.129-2.336v59.076h59.293c-0.202-1.881-2.362-4.051-3.559-6.305-1.342-2.543-1-6.244 1.797-9.414s12.875-4.303 17.36-0.15c4.487 4.148 1.705 10.229 0.169 12.102-1.24 1.52-2.136 2.076-2.521 3.768h59.545z"/>
    <path d="m441.76 496.62s-3.894-2.824-3.704-6.078c0.15-2.633 1.041-3.008 2.405-4.723 1.365-1.719 3.864-7.281-0.119-11.074-3.985-3.795-13.611-2.82-16.097 0.078-2.492 2.898-2.577 6.348-1.382 8.672 1.193 2.324 3.605 3.561 3.605 6.193 0 2.635-0.673 3.438-2.628 6.92 3.232 0.079 17.92 0.012 17.92 0.012z"/>
    <path d="m492.6 565.81s2.802-3.889 6.035-3.703c2.616 0.15 2.987 1.041 4.693 2.406 1.702 1.361 7.229 3.836 10.998-0.154 3.768-3.982 2.807-13.605-0.075-16.096-2.884-2.484-6.309-2.545-8.615-1.354-2.308 1.195-3.538 3.611-6.154 3.611-2.617 0-3.407-0.674-6.872-2.633-0.078 3.235-0.01 17.923-0.01 17.923z"/>
  </g>
  <g fill="#fff">
    <path d="m435 555.92c0-1.59-0.145-2.938-0.445-4.035-0.3-1.102-0.748-1.988-1.358-2.666-0.609-0.678-1.369-1.166-2.285-1.471s-1.995-0.459-3.232-0.459h-2.63v17.242h2.288c5.107 0 7.662-2.867 7.662-8.611zm3.215-0.223c0 1.076-0.08 2.109-0.249 3.094-0.164 0.986-0.433 1.904-0.798 2.75-0.369 0.846-0.843 1.617-1.425 2.309-0.588 0.697-1.304 1.289-2.151 1.783-0.848 0.492-1.831 0.875-2.955 1.143-1.123 0.271-2.399 0.402-3.835 0.402h-4.811v-22.465h5.792c3.508 0 6.12 0.902 7.848 2.709 1.723 1.803 2.584 4.564 2.584 8.275z"/>
    <path d="m454.7 556.02c0-1.314-0.098-2.521-0.301-3.617-0.197-1.094-0.523-2.037-0.97-2.826-0.445-0.795-1.023-1.404-1.727-1.84-0.707-0.436-1.557-0.654-2.554-0.654-0.961 0-1.79 0.232-2.485 0.695-0.692 0.463-1.264 1.094-1.711 1.893-0.445 0.797-0.778 1.729-0.993 2.801-0.222 1.072-0.33 2.211-0.33 3.414 0 1.328 0.105 2.539 0.312 3.633s0.528 2.035 0.971 2.816c0.441 0.791 1.012 1.4 1.71 1.836 0.7 0.436 1.541 0.65 2.527 0.65 0.963 0 1.794-0.23 2.491-0.697 0.702-0.461 1.275-1.092 1.728-1.891 0.456-0.793 0.79-1.727 1.005-2.789 0.221-1.068 0.327-2.203 0.327-3.424zm3.183-0.224c0 2.02-0.238 3.762-0.714 5.227-0.478 1.467-1.117 2.678-1.927 3.637-0.807 0.955-1.75 1.666-2.836 2.133-1.083 0.461-2.227 0.695-3.429 0.695-1.444 0-2.701-0.26-3.772-0.783-1.074-0.518-1.959-1.273-2.666-2.26-0.703-0.984-1.226-2.184-1.57-3.605-0.344-1.41-0.518-3.01-0.518-4.783 0-1.994 0.233-3.723 0.706-5.189 0.468-1.467 1.106-2.682 1.916-3.637 0.806-0.959 1.749-1.67 2.827-2.133 1.076-0.461 2.219-0.695 3.421-0.695 1.441 0 2.701 0.264 3.773 0.791 1.069 0.525 1.96 1.281 2.674 2.26 0.71 0.98 1.241 2.178 1.588 3.588 0.349 1.404 0.527 2.994 0.527 4.754z"/>
    <polygon points="476.71 547.33 470.06 547.33 470.06 567.18 466.96 567.18 466.96 547.33 460.31 547.33 460.31 544.71 476.71 544.71"/>
    <polygon points="437.6 599.74 433.62 599.74 427.07 585.72 425.18 581.22 425.18 599.74 422.33 599.74 422.33 577.27 426.26 577.27 432.5 590.54 434.75 595.68 434.75 577.27 437.6 577.27"/>
    <polygon points="455.86 599.74 443.09 599.74 443.09 577.27 455.86 577.27 455.86 579.85 446.15 579.85 446.15 586.81 455.48 586.81 455.48 589.39 446.15 589.39 446.15 597.12 455.86 597.12"/>
    <polygon points="476.87 579.88 470.21 579.88 470.21 599.74 467.12 599.74 467.12 579.88 460.47 579.88 460.47 577.27 476.87 577.27"/>
    <path d="m437.42 535.24h-3.865l-8.439-11.063v11.063h-3.072v-22.555h3.072v10.473l8.266-10.473h3.642l-8.907 10.713 9.303 11.842z"/>
    <path d="m456.92 535.24h-3.467l-3.365-7.215c-0.256-0.551-0.514-1.008-0.777-1.373-0.268-0.361-0.551-0.646-0.855-0.861-0.307-0.211-0.637-0.361-1-0.455-0.362-0.094-0.767-0.141-1.218-0.141h-1.448v10.045h-3.071v-22.555h6.038c1.312 0 2.44 0.146 3.382 0.432 0.944 0.287 1.718 0.693 2.321 1.207 0.603 0.516 1.047 1.141 1.329 1.873 0.28 0.73 0.425 1.539 0.425 2.426 0 0.699-0.105 1.365-0.312 1.99-0.209 0.627-0.517 1.199-0.926 1.709-0.406 0.514-0.911 0.957-1.518 1.328-0.604 0.377-1.297 0.654-2.08 0.84 0.635 0.217 1.173 0.598 1.616 1.145 0.444 0.547 0.893 1.277 1.354 2.182l3.572 7.423zm-4.918-16.357c0-1.211-0.376-2.113-1.129-2.711-0.756-0.6-1.815-0.898-3.185-0.898h-2.899v7.457h2.485c0.722 0 1.376-0.084 1.959-0.252 0.579-0.166 1.073-0.414 1.483-0.742 0.406-0.326 0.725-0.729 0.947-1.207 0.226-0.477 0.339-1.028 0.339-1.647z"/>
    <path d="m477.64 512.69-8.163 14.496v8.059h-3.104v-8.129l-8.162-14.426h3.708l4.488 8.246 1.656 3.316 1.52-3.004 4.539-8.559h3.518z"/>
  </g>
  <g fill="#4F1D70">
    <path d="m365.1 623.12v-132.09h-132.08v59.457c2.169-0.574 3.479-2.76 5.671-3.918 2.538-1.346 6.31-1.275 9.48 1.521 3.168 2.803 4.23 13.629 0.083 18.115-4.148 4.486-10.229 1.703-12.105 0.17-1.308-1.072-1.906-1.885-3.129-2.336v59.076h59.293c-0.202-1.879-2.362-4.051-3.559-6.307-1.342-2.541-1-6.242 1.797-9.412 2.798-3.17 12.875-4.303 17.36-0.15 4.487 4.146 1.705 10.229 0.169 12.102-1.24 1.52-2.136 2.076-2.521 3.768h59.544z"/>
    <path d="m308.51 497.46s-3.895-2.824-3.705-6.078c0.15-2.633 1.041-3.008 2.406-4.723 1.364-1.719 3.864-7.281-0.12-11.074-3.986-3.795-13.612-2.82-16.097 0.078-2.492 2.9-2.577 6.348-1.382 8.672 1.193 2.324 3.606 3.561 3.606 6.193 0 2.635-0.673 3.438-2.628 6.92 3.232 0.078 17.92 0.012 17.92 0.012z"/>
    <path d="m359.05 565.7s2.802-3.891 6.035-3.705c2.616 0.15 2.987 1.041 4.694 2.408 1.702 1.359 7.228 3.836 10.998-0.154 3.768-3.984 2.807-13.605-0.075-16.096-2.884-2.484-6.309-2.545-8.616-1.355-2.307 1.195-3.538 3.611-6.154 3.611s-3.406-0.674-6.872-2.633c-0.078 3.235-0.01 17.924-0.01 17.924z"/>
  </g>
  <g fill="#fff">
    <path d="m306.05 555.59c0 1.072-0.083 2.104-0.248 3.088-0.165 0.98-0.433 1.896-0.799 2.74-0.367 0.848-0.839 1.619-1.424 2.311-0.583 0.691-1.297 1.281-2.142 1.773-0.848 0.49-1.831 0.873-2.95 1.141-1.122 0.27-2.395 0.402-3.826 0.402h-4.8v-22.416h5.78c3.498 0 6.107 0.902 7.828 2.703s2.581 4.555 2.581 8.258zm-3.208 0.223c0-1.588-0.149-2.934-0.443-4.031-0.301-1.094-0.749-1.986-1.358-2.654-0.604-0.678-1.364-1.168-2.279-1.467-0.916-0.305-1.991-0.455-3.224-0.455h-2.623v17.201h2.279c5.099-1e-3 7.648-2.868 7.648-8.594z"/>
    <path d="m325.67 555.69c0 2.012-0.237 3.75-0.711 5.213-0.474 1.467-1.113 2.674-1.921 3.629-0.805 0.955-1.749 1.662-2.83 2.127-1.081 0.463-2.222 0.693-3.42 0.693-1.442 0-2.698-0.26-3.764-0.779-1.069-0.521-1.955-1.271-2.66-2.256-0.705-0.98-1.224-2.182-1.566-3.596-0.344-1.41-0.515-3-0.515-4.771 0-1.992 0.233-3.715 0.704-5.182 0.468-1.463 1.105-2.674 1.914-3.625 0.803-0.959 1.745-1.666 2.819-2.129s2.21-0.691 3.414-0.691c1.439 0 2.692 0.264 3.763 0.785 1.068 0.527 1.959 1.279 2.666 2.258 0.711 0.977 1.242 2.17 1.587 3.574 0.343 1.409 0.52 2.991 0.52 4.75zm-3.172 0.223c0-1.313-0.1-2.516-0.3-3.609-0.2-1.092-0.521-2.031-0.969-2.82-0.443-0.791-1.021-1.4-1.722-1.836-0.704-0.434-1.553-0.65-2.546-0.65-0.963 0-1.79 0.229-2.48 0.695-0.691 0.463-1.261 1.09-1.705 1.889-0.448 0.789-0.778 1.721-0.996 2.793-0.219 1.068-0.325 2.203-0.325 3.404 0 1.326 0.103 2.533 0.31 3.627 0.205 1.092 0.53 2.027 0.966 2.814 0.442 0.777 1.012 1.387 1.708 1.824 0.695 0.436 1.538 0.65 2.523 0.65 0.959 0 1.786-0.23 2.483-0.697 0.698-0.461 1.273-1.086 1.725-1.883 0.453-0.795 0.784-1.727 1.004-2.787 0.217-1.064 0.324-2.199 0.324-3.414z"/>
    <path d="m344.45 547.24h-6.637v19.807h-3.087v-19.807h-6.635v-2.609h16.36v2.609z"/>
    <path d="m305.44 599.52h-3.977l-6.536-13.977-1.886-4.494v18.471h-2.849v-22.416h3.928l6.225 13.24 2.245 5.127v-18.367h2.849v22.416z"/>
    <path d="m323.65 599.52h-12.741v-22.416h12.741v2.572h-9.687v6.945h9.313v2.572h-9.313v7.721h9.687v2.606z"/>
    <path d="m344.6 579.72h-6.633v19.807h-3.088v-19.807h-6.637v-2.609h16.358v2.609z"/>
    <path d="m307.23 523.78c0 2.021-0.237 3.768-0.715 5.234-0.473 1.469-1.116 2.684-1.929 3.643-0.807 0.959-1.754 1.67-2.839 2.137-1.083 0.463-2.23 0.695-3.433 0.695-1.446 0-2.704-0.258-3.779-0.785-1.076-0.523-1.963-1.275-2.67-2.264-0.707-0.986-1.23-2.189-1.574-3.604-0.344-1.416-0.517-3.016-0.517-4.797 0-1.998 0.237-3.727 0.707-5.197 0.47-1.471 1.109-2.686 1.917-3.641 0.811-0.959 1.754-1.67 2.832-2.137 1.08-0.467 2.223-0.695 3.428-0.695 1.446 0 2.706 0.264 3.778 0.789 1.075 0.527 1.967 1.283 2.677 2.266 0.714 0.98 1.243 2.176 1.595 3.586 0.348 1.415 0.522 3.007 0.522 4.77zm-3.181 0.225c0-1.32-0.102-2.527-0.305-3.625-0.199-1.094-0.524-2.037-0.972-2.828-0.449-0.793-1.025-1.406-1.73-1.846-0.705-0.434-1.558-0.65-2.555-0.65-0.966 0-1.797 0.232-2.489 0.695-0.696 0.463-1.268 1.098-1.713 1.891-0.449 0.799-0.78 1.734-0.999 2.811-0.218 1.072-0.327 2.211-0.327 3.414 0 1.332 0.102 2.545 0.311 3.645 0.205 1.098 0.532 2.039 0.97 2.824 0.443 0.785 1.015 1.395 1.714 1.83 0.702 0.436 1.544 0.654 2.533 0.654 0.963 0 1.794-0.229 2.495-0.695 0.702-0.467 1.277-1.094 1.728-1.895 0.456-0.797 0.794-1.73 1.01-2.795 0.22-1.073 0.329-2.211 0.329-3.43z"/>
    <path d="m326.72 535.18h-2.997l-0.445-14.031-0.19-5.389-1.049 3.133-3.324 8.953h-2.12l-3.168-8.607-1.049-3.479-0.067 5.633-0.397 13.787h-2.892l1.102-22.5h3.633l3.029 8.469 0.981 2.857 0.948-2.857 3.185-8.469h3.734l1.086 22.5z"/>
    <path d="m344.73 529.08c0 1.068-0.216 2.006-0.653 2.807-0.435 0.803-1.045 1.475-1.825 2.008-0.781 0.529-1.717 0.928-2.815 1.195-1.094 0.268-2.305 0.395-3.623 0.395-0.6 0-1.19-0.021-1.785-0.068-0.588-0.043-1.158-0.105-1.702-0.172-0.547-0.07-1.059-0.15-1.54-0.24-0.483-0.094-0.918-0.191-1.311-0.293v-2.965c0.863 0.324 1.827 0.576 2.901 0.76 1.071 0.184 2.294 0.275 3.657 0.275 0.987 0 1.827-0.08 2.523-0.232 0.694-0.152 1.262-0.385 1.706-0.689 0.44-0.305 0.763-0.674 0.962-1.109 0.202-0.436 0.301-0.936 0.301-1.496 0-0.609-0.169-1.129-0.504-1.557-0.342-0.432-0.788-0.816-1.339-1.158-0.551-0.334-1.177-0.646-1.882-0.93-0.709-0.281-1.429-0.566-2.161-0.867-0.737-0.297-1.457-0.621-2.165-0.971-0.704-0.354-1.333-0.764-1.884-1.24-0.554-0.479-0.995-1.039-1.333-1.678-0.341-0.645-0.512-1.406-0.512-2.295 0-0.766 0.166-1.525 0.485-2.27 0.321-0.746 0.82-1.41 1.499-1.99 0.675-0.578 1.543-1.045 2.608-1.402 1.06-0.354 2.324-0.531 3.796-0.531 0.377 0 0.788 0.016 1.228 0.049 0.444 0.033 0.892 0.084 1.346 0.148 0.456 0.063 0.899 0.135 1.343 0.217 0.444 0.078 0.854 0.166 1.231 0.256v2.752c-0.885-0.252-1.77-0.443-2.653-0.574-0.884-0.133-1.738-0.197-2.564-0.197-1.756 0-3.048 0.291-3.874 0.877-0.823 0.586-1.241 1.369-1.241 2.357 0 0.609 0.169 1.133 0.508 1.568 0.342 0.438 0.785 0.824 1.334 1.17 0.553 0.346 1.181 0.658 1.886 0.936 0.705 0.287 1.427 0.572 2.16 0.873s1.456 0.625 2.163 0.979c0.705 0.355 1.331 0.781 1.884 1.268 0.551 0.488 0.995 1.057 1.335 1.713 0.341 0.653 0.51 1.426 0.51 2.321z"/>
  </g>
  <g fill="#fff">
    <path d="m434.14 288.19c0-1.659-0.152-3.057-0.463-4.204-0.313-1.144-0.782-2.068-1.414-2.771s-1.423-1.215-2.376-1.531c-0.955-0.316-2.076-0.474-3.362-0.474h-2.738v17.938h2.376c5.32 0 7.977-2.986 7.977-8.958zm3.346-0.237c0 1.125-0.089 2.196-0.262 3.223-0.171 1.023-0.45 1.978-0.829 2.861-0.384 0.884-0.876 1.681-1.485 2.403-0.605 0.722-1.353 1.339-2.237 1.851-0.88 0.515-1.904 0.91-3.072 1.191-1.17 0.278-2.5 0.417-3.99 0.417h-5.006v-23.371h6.025c3.649 0 6.371 0.94 8.164 2.817s2.692 4.746 2.692 8.608z"/>
    <path d="m454.63 288.3c0-1.369-0.103-2.625-0.312-3.764-0.208-1.14-0.546-2.117-1.012-2.941-0.463-0.823-1.061-1.458-1.798-1.914-0.733-0.455-1.617-0.681-2.655-0.681-1 0-1.86 0.241-2.583 0.722-0.722 0.485-1.316 1.143-1.78 1.971-0.464 0.831-0.812 1.797-1.034 2.914-0.229 1.117-0.341 2.297-0.341 3.549 0 1.385 0.107 2.644 0.321 3.784 0.217 1.135 0.551 2.113 1.011 2.933 0.458 0.816 1.052 1.452 1.778 1.903 0.729 0.455 1.605 0.681 2.628 0.681 1.005 0 1.866-0.245 2.595-0.722 0.726-0.485 1.326-1.14 1.798-1.971 0.47-0.827 0.82-1.797 1.045-2.906 0.227-1.109 0.339-2.294 0.339-3.558zm3.309-0.232c0 2.098-0.246 3.911-0.744 5.438-0.494 1.522-1.161 2.786-2.001 3.779-0.843 1-1.822 1.737-2.948 2.218-1.128 0.485-2.316 0.726-3.568 0.726-1.504 0-2.813-0.271-3.926-0.812-1.114-0.541-2.041-1.327-2.773-2.354-0.731-1.023-1.277-2.271-1.635-3.746-0.358-1.474-0.538-3.132-0.538-4.979 0-2.075 0.245-3.873 0.731-5.403 0.491-1.527 1.157-2.787 1.999-3.779 0.837-0.997 1.817-1.737 2.938-2.219s2.306-0.726 3.56-0.726c1.5 0 2.81 0.275 3.927 0.824 1.112 0.549 2.037 1.332 2.778 2.354 0.74 1.015 1.292 2.26 1.655 3.73 0.363 1.463 0.545 3.114 0.545 4.949z"/>
    <polygon points="477.52 279.25 470.6 279.25 470.6 299.9 467.38 299.9 467.38 279.25 460.46 279.25 460.46 276.53 477.52 276.53"/>
    <polygon points="436.84 333.77 432.69 333.77 425.88 319.2 423.91 314.51 423.91 333.77 420.94 333.77 420.94 310.4 425.04 310.4 431.53 324.2 433.87 329.55 433.87 310.4 436.84 310.4"/>
    <polygon points="455.83 333.77 442.54 333.77 442.54 310.4 455.83 310.4 455.83 313.08 445.73 313.08 445.73 320.32 455.44 320.32 455.44 323 445.73 323 445.73 331.06 455.83 331.06"/>
    <polygon points="477.68 313.12 470.76 313.12 470.76 333.77 467.54 333.77 467.54 313.12 460.62 313.12 460.62 310.4 477.68 310.4"/>
    <path d="m436.6 266.67h-4.166l-6.84-14.628-1.974-4.704v19.332h-2.982v-23.461h4.114l6.516 13.857 2.352 5.37v-19.227h2.981v23.461z"/>
    <path d="m456.62 260.32c0 1.116-0.229 2.09-0.685 2.929-0.455 0.835-1.09 1.535-1.902 2.091-0.813 0.556-1.79 0.974-2.936 1.249-1.146 0.274-2.404 0.41-3.779 0.41-0.623 0-1.242-0.022-1.855-0.072-0.619-0.045-1.211-0.104-1.778-0.176-0.568-0.076-1.104-0.158-1.608-0.252-0.502-0.098-0.957-0.196-1.362-0.305v-3.091c0.896 0.339 1.906 0.602 3.023 0.793 1.118 0.188 2.392 0.286 3.814 0.286 1.029 0 1.907-0.083 2.63-0.244 0.726-0.162 1.32-0.399 1.777-0.719 0.461-0.316 0.795-0.699 1.006-1.154s0.314-0.978 0.314-1.561c0-0.636-0.18-1.181-0.529-1.628-0.353-0.448-0.819-0.846-1.391-1.2-0.576-0.354-1.231-0.677-1.968-0.97-0.735-0.297-1.486-0.598-2.252-0.91-0.768-0.308-1.518-0.646-2.253-1.012-0.736-0.364-1.395-0.797-1.966-1.293-0.575-0.496-1.038-1.079-1.392-1.749-0.354-0.673-0.53-1.47-0.53-2.391 0-0.801 0.17-1.587 0.504-2.369 0.333-0.778 0.854-1.467 1.562-2.072 0.707-0.605 1.612-1.094 2.722-1.463 1.105-0.372 2.424-0.557 3.956-0.557 0.396 0 0.823 0.019 1.284 0.057 0.46 0.034 0.927 0.086 1.4 0.15s0.939 0.139 1.401 0.226c0.46 0.083 0.89 0.169 1.282 0.267v2.873c-0.924-0.263-1.843-0.462-2.766-0.601-0.921-0.14-1.813-0.207-2.674-0.207-1.831 0-3.178 0.305-4.039 0.917-0.861 0.609-1.293 1.429-1.293 2.459 0 0.636 0.177 1.177 0.529 1.632 0.354 0.455 0.816 0.861 1.392 1.222 0.575 0.357 1.229 0.685 1.967 0.978 0.735 0.293 1.485 0.595 2.253 0.906 0.767 0.313 1.518 0.651 2.252 1.027 0.735 0.368 1.392 0.809 1.967 1.316 0.571 0.512 1.037 1.106 1.388 1.787 0.358 0.68 0.535 1.488 0.535 2.421z"/>
    <path d="m477.73 266.67h-4.02l-8.781-11.507v11.507h-3.195v-23.461h3.195v10.897l8.602-10.897h3.786l-9.262 11.149 9.675 12.312z"/>
  </g>
  <g fill="#fff">
    <path d="m571.1 150.88c0 1.136-0.084 2.219-0.256 3.257-0.171 1.038-0.444 2-0.823 2.894-0.374 0.892-0.865 1.706-1.467 2.433-0.602 0.731-1.335 1.355-2.211 1.871-0.873 0.521-1.886 0.921-3.042 1.204-1.154 0.284-2.468 0.425-3.941 0.425h-4.951v-23.642h5.958c3.608 0 6.298 0.948 8.072 2.85 1.773 1.898 2.661 4.802 2.661 8.708zm-3.306 0.236c0-1.675-0.152-3.093-0.461-4.251-0.306-1.158-0.771-2.092-1.395-2.803-0.63-0.711-1.41-1.228-2.354-1.547-0.942-0.319-2.051-0.479-3.321-0.479h-2.706v18.144h2.348c5.261-2e-3 7.889-3.023 7.889-9.064z"/>
    <path d="m591.33 150.99c0 2.123-0.245 3.956-0.735 5.498-0.485 1.546-1.148 2.82-1.977 3.828-0.833 1.004-1.805 1.752-2.92 2.241-1.114 0.489-2.29 0.733-3.529 0.733-1.485 0-2.777-0.274-3.879-0.824-1.104-0.549-2.015-1.342-2.743-2.378-0.724-1.04-1.261-2.299-1.619-3.791-0.352-1.489-0.528-3.168-0.528-5.037 0-2.098 0.242-3.92 0.725-5.464 0.485-1.542 1.142-2.817 1.972-3.826 0.83-1.006 1.802-1.754 2.909-2.243 1.106-0.487 2.285-0.729 3.521-0.729 1.485 0 2.777 0.274 3.877 0.831 1.104 0.553 2.021 1.346 2.751 2.378 0.729 1.03 1.279 2.288 1.634 3.772 0.36 1.482 0.541 3.153 0.541 5.011zm-3.271 0.233c0-1.388-0.104-2.655-0.311-3.806-0.203-1.15-0.538-2.143-0.997-2.976-0.46-0.833-1.053-1.478-1.78-1.937-0.722-0.457-1.597-0.687-2.625-0.687-0.99 0-1.84 0.245-2.556 0.733-0.712 0.489-1.299 1.15-1.757 1.989-0.459 0.839-0.8 1.82-1.026 2.948-0.222 1.128-0.336 2.324-0.336 3.591 0 1.399 0.109 2.674 0.318 3.824 0.213 1.155 0.546 2.14 0.998 2.967 0.455 0.828 1.04 1.468 1.76 1.926 0.719 0.46 1.586 0.689 2.599 0.689 0.993 0 1.849-0.244 2.565-0.731 0.72-0.49 1.312-1.152 1.78-1.991 0.462-0.836 0.807-1.818 1.034-2.939 0.224-1.122 0.334-2.322 0.334-3.6z"/>
    <path d="m610.69 142.07h-6.841v20.893h-3.185v-20.893h-6.84v-2.749h16.865v2.749z"/>
    <path d="m570.47 197.22h-4.104l-6.734-14.743-1.945-4.738v19.481h-2.936v-23.64h4.047l6.422 13.962 2.316 5.408v-19.37h2.934v23.64z"/>
    <path d="m589.24 197.22h-13.138v-23.64h13.138v2.711h-9.988v7.325h9.6v2.715h-9.6v8.138h9.988v2.751z"/>
    <path d="m610.86 176.33h-6.845v20.891h-3.183v-20.891h-6.843v-2.749h16.87v2.749z"/>
    <path d="m569.39 122.92c0 1.125-0.224 2.11-0.674 2.959-0.449 0.846-1.078 1.552-1.881 2.115-0.807 0.564-1.774 0.984-2.901 1.262-1.133 0.278-2.379 0.417-3.738 0.417-0.614 0-1.228-0.022-1.837-0.073-0.608-0.047-1.198-0.107-1.757-0.179-0.563-0.073-1.093-0.16-1.588-0.255-0.501-0.096-0.949-0.2-1.353-0.309v-3.123c0.89 0.336 1.885 0.604 2.993 0.799 1.108 0.192 2.362 0.29 3.771 0.29 1.019 0 1.884-0.083 2.603-0.247 0.716-0.164 1.301-0.404 1.756-0.726 0.457-0.318 0.79-0.709 0.993-1.172 0.208-0.458 0.312-0.985 0.312-1.579 0-0.641-0.174-1.19-0.522-1.644-0.349-0.455-0.81-0.859-1.377-1.214-0.566-0.357-1.214-0.687-1.948-0.982-0.726-0.297-1.466-0.601-2.224-0.917s-1.5-0.658-2.226-1.027c-0.729-0.368-1.377-0.805-1.945-1.308-0.569-0.501-1.028-1.091-1.374-1.771-0.352-0.677-0.524-1.482-0.524-2.414 0-0.811 0.165-1.61 0.497-2.396 0.33-0.79 0.846-1.488 1.541-2.099 0.7-0.613 1.597-1.105 2.689-1.481 1.096-0.372 2.4-0.562 3.917-0.562 0.389 0 0.813 0.019 1.27 0.054 0.455 0.038 0.918 0.089 1.384 0.154 0.469 0.067 0.93 0.143 1.384 0.228 0.458 0.085 0.879 0.177 1.27 0.272v2.905c-0.911-0.265-1.822-0.468-2.732-0.607-0.911-0.139-1.796-0.21-2.646-0.21-1.809 0-3.142 0.309-3.995 0.929-0.854 0.617-1.276 1.444-1.276 2.486 0 0.641 0.172 1.191 0.524 1.652 0.346 0.46 0.809 0.873 1.375 1.235 0.565 0.363 1.217 0.692 1.943 0.991 0.728 0.295 1.469 0.602 2.226 0.916 0.76 0.316 1.503 0.66 2.229 1.036 0.729 0.375 1.375 0.82 1.942 1.335 0.57 0.514 1.03 1.115 1.377 1.807 0.349 0.69 0.522 1.51 0.522 2.453z"/>
    <path d="m591.48 129.35h-3.44l-1.614-5.177h-9.661l-1.634 5.177h-3.28l7.705-23.734h4.329l7.595 23.734zm-5.962-8.064-3.925-12.691-3.923 12.691h7.848z"/>
    <path d="m610.78 129.35h-3.089l-0.465-14.801-0.193-5.684-1.083 3.305-3.427 9.442h-2.183l-3.267-9.08-1.086-3.668-0.067 5.936-0.409 14.549h-2.981l1.136-23.734h3.746l3.125 8.933 1.012 3.014 0.975-3.014 3.284-8.933h3.856l1.116 23.735z"/>
  </g>
  <g fill="#7F1A7F">
    <path d="m499.42 490.19h132.08v132.08h-58.901c0.578-2.17 2.2-3.475 3.362-5.672 1.342-2.537 1.275-6.307-1.522-9.477-2.8-3.172-13.628-4.234-18.113-0.086-4.489 4.148-1.705 10.232-0.171 12.107 1.072 1.307 1.885 1.904 2.336 3.127h-59.073v-59.295c2.564 0.279 3.906 2.771 6.303 4.039 2.538 1.346 6.312 1.279 9.48-1.523 3.17-2.797 4.231-13.629 0.084-18.111-4.146-4.484-10.229-1.707-12.104-0.174-1.519 1.246-2.077 2.146-3.764 2.525v-59.542z"/>
    <path d="m624.64 565.81s2.802-3.889 6.034-3.703c2.617 0.15 2.987 1.041 4.694 2.406 1.702 1.361 7.228 3.836 10.998-0.154 3.768-3.982 2.806-13.605-0.075-16.096-2.884-2.484-6.31-2.545-8.616-1.354-2.307 1.195-3.538 3.611-6.154 3.611s-3.406-0.674-6.872-2.633c-0.078 3.235-9e-3 17.923-9e-3 17.923z"/>
    <path d="m574.93 496.54s-3.888-2.803-3.703-6.035c0.15-2.617 1.041-2.986 2.407-4.693 1.36-1.703 3.835-7.229-0.155-10.998-3.981-3.768-13.604-2.807-16.095 0.074-2.485 2.885-2.546 6.311-1.354 8.617 1.195 2.307 3.61 3.537 3.61 6.154 0 2.615-0.673 3.406-2.633 6.871 3.235 0.078 17.923 0.01 17.923 0.01z"/>
  </g>
  <g fill="#fff">
    <path d="m572.73 552.24c0 1.078-0.085 2.109-0.25 3.094-0.168 0.99-0.431 1.908-0.8 2.758-0.365 0.85-0.844 1.619-1.429 2.313-0.586 0.695-1.301 1.289-2.148 1.781-0.851 0.492-1.835 0.877-2.96 1.148-1.124 0.266-2.402 0.402-3.836 0.402h-4.816v-22.496h5.799c3.509 0 6.125 0.902 7.852 2.711 1.728 1.807 2.588 4.57 2.588 8.289zm-3.216 0.221c0-1.594-0.149-2.941-0.448-4.045-0.296-1.1-0.75-1.99-1.357-2.668-0.61-0.676-1.372-1.164-2.289-1.469s-1.994-0.455-3.233-0.455h-2.632v17.26h2.289c5.113 0 7.67-2.873 7.67-8.623z"/>
    <path d="m592.41 552.34c0 2.018-0.239 3.764-0.715 5.234-0.476 1.465-1.121 2.68-1.928 3.635-0.808 0.959-1.754 1.672-2.837 2.137-1.084 0.467-2.229 0.695-3.434 0.695-1.444 0-2.703-0.258-3.775-0.781-1.073-0.523-1.96-1.275-2.668-2.26-0.702-0.99-1.229-2.193-1.573-3.611-0.343-1.412-0.514-3.012-0.514-4.791 0-1.996 0.233-3.729 0.703-5.197 0.473-1.469 1.109-2.684 1.921-3.641 0.806-0.957 1.751-1.668 2.827-2.135 1.077-0.465 2.219-0.695 3.425-0.695 1.447 0 2.702 0.264 3.775 0.791 1.071 0.527 1.964 1.281 2.675 2.264 0.709 0.98 1.241 2.176 1.591 3.586 0.349 1.413 0.527 3.001 0.527 4.769zm-3.183 0.224c0-1.32-0.102-2.529-0.301-3.625-0.201-1.094-0.525-2.039-0.972-2.832-0.447-0.791-1.023-1.402-1.73-1.838-0.703-0.441-1.556-0.656-2.555-0.656-0.961 0-1.79 0.23-2.484 0.697-0.694 0.465-1.264 1.094-1.71 1.891-0.45 0.801-0.782 1.734-1.002 2.809-0.218 1.072-0.324 2.211-0.324 3.416 0 1.33 0.104 2.541 0.309 3.641 0.206 1.094 0.532 2.039 0.974 2.824s1.01 1.395 1.712 1.83c0.697 0.436 1.541 0.654 2.526 0.654 0.964 0 1.798-0.232 2.495-0.699 0.699-0.463 1.274-1.094 1.729-1.891 0.451-0.799 0.787-1.73 1.006-2.795 0.217-1.066 0.327-2.211 0.327-3.426z"/>
    <path d="m611.24 543.86h-6.657v19.881h-3.097v-19.881h-6.657v-2.615h16.411v2.615z"/>
    <path d="m572.11 596.34h-3.989l-6.553-14.029-1.893-4.51v18.539h-2.858v-22.494h3.941l6.243 13.285 2.254 5.145v-18.43h2.854v22.494z"/>
    <path d="m590.38 596.34h-12.781v-22.494h12.781v2.582h-9.717v6.971h9.339v2.578h-9.339v7.746h9.717v2.617z"/>
    <path d="m611.4 576.46h-6.655v19.881h-3.099v-19.881h-6.658v-2.613h16.412v2.613z"/>
    <path d="m571.82 531.75h-3.947l-8.617-11.303v11.303h-3.136v-23.043h3.136v10.703l8.44-10.703h3.719l-9.093 10.949 9.498 12.094z"/>
    <path d="m612.13 519.97c0 1.107-0.087 2.166-0.258 3.176-0.169 1.01-0.442 1.951-0.816 2.82-0.377 0.869-0.866 1.658-1.463 2.369-0.599 0.713-1.335 1.322-2.202 1.828-0.871 0.504-1.883 0.895-3.031 1.172-1.152 0.275-2.462 0.414-3.93 0.414h-4.937v-23.043h5.939c3.594 0 6.275 0.926 8.044 2.775 1.769 1.854 2.654 4.682 2.654 8.489zm-3.294 0.23c0-1.635-0.155-3.014-0.459-4.143-0.309-1.129-0.771-2.037-1.391-2.734-0.628-0.691-1.407-1.195-2.348-1.508-0.939-0.309-2.044-0.467-3.312-0.467h-2.697v17.686h2.345c5.241 0 7.862-2.943 7.862-8.834z"/>
    <path d="m590.59 531.75h-3.54l-3.436-7.369c-0.262-0.564-0.524-1.033-0.795-1.402s-0.56-0.662-0.871-0.881-0.652-0.371-1.023-0.465c-0.37-0.098-0.783-0.145-1.24-0.145h-1.481v10.262h-3.135v-23.043h6.164c1.34 0 2.491 0.146 3.455 0.439 0.965 0.295 1.757 0.705 2.372 1.234 0.616 0.529 1.069 1.168 1.354 1.914 0.29 0.748 0.435 1.57 0.435 2.477 0 0.719-0.107 1.396-0.319 2.035-0.209 0.643-0.526 1.223-0.942 1.744-0.417 0.525-0.935 0.979-1.551 1.357-0.616 0.385-1.323 0.67-2.125 0.859 0.649 0.221 1.2 0.613 1.651 1.17 0.452 0.559 0.909 1.305 1.382 2.232l3.645 7.582zm-5.022-16.715c0-1.232-0.385-2.154-1.154-2.768-0.769-0.609-1.854-0.918-3.25-0.918h-2.961v7.619h2.538c0.74 0 1.406-0.086 1.998-0.256 0.595-0.17 1.102-0.424 1.517-0.76 0.417-0.334 0.74-0.744 0.97-1.232 0.231-0.487 0.342-1.048 0.342-1.685z"/>
  </g>
  <g fill="#4F1D70">
    <path d="m233.01 624.07h132.08v132.08h-58.9c0.578-2.17 2.2-3.479 3.362-5.67 1.343-2.539 1.274-6.311-1.523-9.477-2.799-3.176-13.628-4.236-18.114-0.09-4.488 4.15-1.703 10.23-0.169 12.104 1.072 1.313 1.885 1.906 2.333 3.133h-59.073v-59.295c2.566 0.273 3.907 2.771 6.307 4.039 2.538 1.346 6.31 1.275 9.478-1.527 3.168-2.797 4.232-13.625 0.084-18.111s-10.23-1.703-12.104-0.17c-1.518 1.242-2.076 2.141-3.765 2.523v-59.543z"/>
    <path d="m308.51 629.91s-3.895-2.826-3.705-6.078c0.15-2.633 1.041-3.008 2.406-4.723 1.364-1.719 3.864-7.279-0.12-11.074-3.986-3.793-13.612-2.82-16.097 0.078-2.492 2.9-2.577 6.35-1.382 8.672 1.193 2.324 3.606 3.563 3.606 6.195 0 2.635-0.673 3.436-2.628 6.918 3.232 0.081 17.92 0.012 17.92 0.012z"/>
  </g>
  <g fill="#fff">
    <path d="m309.49 686.3c0 1.09-0.085 2.129-0.254 3.127-0.169 0.996-0.438 1.922-0.809 2.779-0.374 0.854-0.855 1.637-1.449 2.334-0.593 0.701-1.32 1.299-2.179 1.799-0.861 0.496-1.862 0.879-3 1.154-1.141 0.27-2.438 0.41-3.89 0.41h-4.884v-22.699h5.877c3.557 0 6.212 0.91 7.962 2.734 1.752 1.825 2.626 4.61 2.626 8.362zm-3.26 0.226c0-1.609-0.154-2.971-0.457-4.08-0.3-1.111-0.76-2.01-1.377-2.693-0.615-0.682-1.389-1.178-2.32-1.482-0.929-0.309-2.023-0.463-3.279-0.463h-2.67v17.418h2.322c5.186 0 7.781-2.899 7.781-8.7z"/>
    <path d="m329.44 686.41c0 2.037-0.239 3.797-0.724 5.279-0.481 1.482-1.134 2.707-1.953 3.67-0.818 0.971-1.779 1.686-2.877 2.158-1.1 0.467-2.26 0.703-3.48 0.703-1.465 0-2.741-0.266-3.83-0.793-1.087-0.527-1.987-1.285-2.702-2.283-0.714-0.996-1.249-2.207-1.597-3.639-0.35-1.426-0.521-3.039-0.521-4.832 0-2.018 0.237-3.764 0.714-5.246 0.476-1.482 1.125-2.705 1.942-3.674 0.821-0.967 1.777-1.684 2.87-2.154 1.092-0.467 2.25-0.703 3.47-0.703 1.467 0 2.741 0.268 3.829 0.801 1.086 0.531 1.993 1.293 2.713 2.283 0.722 0.988 1.258 2.197 1.613 3.619 0.356 1.426 0.533 3.028 0.533 4.811zm-3.229 0.227c0-1.332-0.1-2.551-0.303-3.654-0.203-1.107-0.534-2.059-0.987-2.857-0.451-0.799-1.036-1.416-1.75-1.857-0.717-0.441-1.582-0.66-2.593-0.66-0.976 0-1.816 0.234-2.52 0.701-0.701 0.471-1.282 1.107-1.735 1.912-0.452 0.805-0.79 1.748-1.012 2.832-0.222 1.082-0.331 2.229-0.331 3.445 0 1.34 0.105 2.566 0.314 3.672 0.21 1.105 0.538 2.055 0.985 2.852 0.449 0.789 1.026 1.406 1.735 1.846s1.564 0.662 2.563 0.662c0.978 0 1.822-0.238 2.529-0.707 0.708-0.467 1.293-1.102 1.756-1.91 0.459-0.801 0.799-1.746 1.017-2.82 0.223-1.078 0.332-2.229 0.332-3.457z"/>
    <path d="m348.54 677.85h-6.75v20.061h-3.14v-20.061h-6.748v-2.639h16.638v2.639z"/>
    <path d="m308.86 730.79h-4.046l-6.645-14.152-1.92-4.551v18.703h-2.894v-22.695h3.993l6.332 13.404 2.286 5.193v-18.597h2.894v22.695z"/>
    <path d="m327.39 730.79h-12.96v-22.695h12.96v2.605h-9.858v7.031h9.472v2.605h-9.472v7.814h9.858v2.64z"/>
    <path d="m348.7 710.74h-6.75v20.057h-3.14v-20.057h-6.75v-2.639h16.64v2.639z"/>
    <path d="m306.87 665.64h-13.007v-22.785h13.007v2.615h-9.892v7.061h9.508v2.615h-9.508v7.844h9.892v2.65z"/>
    <path d="m328.39 665.64h-3.924l-8.563-11.174v11.174h-3.115v-22.785h3.115v10.582l8.386-10.582h3.697l-9.035 10.828 9.439 11.957z"/>
    <path d="m347.56 658.82c0 1.092-0.213 2.059-0.64 2.9-0.426 0.844-1.032 1.557-1.82 2.137-0.788 0.582-1.739 1.021-2.854 1.324s-2.354 0.453-3.721 0.453h-5.989v-22.785h6.549c5.101 0 7.652 1.85 7.652 5.545 0 1.232-0.297 2.289-0.886 3.172-0.588 0.885-1.549 1.541-2.88 1.971 0.619 0.117 1.206 0.313 1.762 0.592 0.553 0.281 1.04 0.639 1.461 1.082 0.419 0.443 0.754 0.965 0.999 1.568 0.245 0.606 0.367 1.287 0.367 2.041zm-4.063-10.008c0-0.465-0.069-0.904-0.209-1.316-0.139-0.412-0.385-0.768-0.735-1.063-0.352-0.297-0.825-0.533-1.419-0.707s-1.348-0.262-2.258-0.262h-3.221v7.131h3.116c0.712 0 1.357-0.076 1.935-0.227 0.579-0.152 1.073-0.385 1.489-0.697 0.412-0.313 0.736-0.707 0.963-1.176 0.226-0.47 0.339-1.032 0.339-1.683zm0.752 10.112c0-0.58-0.121-1.104-0.367-1.57-0.245-0.463-0.6-0.855-1.066-1.176-0.468-0.32-1.038-0.566-1.709-0.74-0.669-0.174-1.427-0.262-2.266-0.262h-3.187v7.844h3.291c1.788 0 3.117-0.328 3.994-0.992s1.31-1.698 1.31-3.104z"/>
  </g>
</svg>
