<svg width="1889.8" height="1889.8" version="1.1" viewBox="0 0 1889.8 1889.8" xmlns="http://www.w3.org/2000/svg">
  <path d="m37.273 494.6 355.1-1.164s37.376 2.332 43.212-44.396c5.8493-46.727-69.041-71.209-71.252-165.87-1.1533-49.445 47.784-120.49 140.17-119.14 61.86 0.908 138.51 47.839 136.67 120.31-2.336 92.288-74.753 113.31-74.753 161.21 0 36.372 42.045 47.897 42.045 47.897l332.92 1.164v313.05s9.6773 74.684 51.337 74.751c80.341 0.14933 75.976-79.424 168.26-72.417 92.275 7.004 121.48 86.435 119.13 133.16-2.3334 46.733-24.563 147.48-127.31 143.67-94.611-3.5027-91.107-72.501-162.36-74.752-46.7-1.484-50.227 87.604-50.227 87.604l-1.168 293.23-900.61-2.3307z" fill="#4d3158"/>
  <path d="m953.01 494.6h898.31l1.168 899.43-316.56-1.1667s-49.157 9.3093-50.228 37.379c-2.608 68.861 72.115 100.5 74.764 164.7 2.308 56.095-38.473 131.08-139 130.82-65.389-0.1507-131.92-30.455-139-116.79-7.0187-85.271 73.201-103.49 72.417-176.39-0.4533-42.44-60.745-38.543-60.745-38.543h-344.59l1.168-300.19s5.9733-73.26 40.892-72.379c58.741 1.4693 61.9 77.087 167.03 74.755 91.216-2.0213 132-77.571 132-155.4 0-77.32-52.521-141.8-140.17-140.22-88.951 1.6067-88.237 67.116-153.06 68.971-45.971 1.304-43.225-81.771-43.225-81.771z" fill="#6e327e"/>
  <g fill="#fff">
    <path d="m597.08 751.19c0 7.772-1.5107 14.581-4.5587 20.431-3.048 5.8493-7.292 10.725-12.743 14.613-5.4373 3.884-11.988 6.78-19.649 8.704-7.648 1.9213-16.079 2.8853-25.293 2.8853-4.16 0-8.3067-0.16533-12.427-0.496-4.1333-0.34266-8.1013-0.75466-11.904-1.2613-3.804-0.496-7.388-1.0867-10.753-1.748-3.3627-0.67067-6.412-1.3853-9.1307-2.14v-21.559c6.0013 2.348 12.757 4.1893 20.24 5.5227 7.4973 1.328 16.011 2.0013 25.54 2.0013 6.8933 0 12.756-0.56 17.604-1.6907 4.8467-1.1227 8.8147-2.7973 11.891-5.0067 3.0893-2.228 5.328-4.9187 6.7427-8.0893 1.4-3.172 2.1-6.8133 2.1-10.903 0-4.4347-1.18-8.2133-3.5427-11.341-2.3747-3.1453-5.4773-5.948-9.3227-8.4053-3.8453-2.472-8.2253-4.7253-13.155-6.7707-4.9293-2.0453-9.9547-4.1573-15.077-6.328-5.1347-2.172-10.161-4.5333-15.076-7.0853-4.9293-2.54-9.324-5.5453-13.168-9.02-3.8453-3.476-6.9493-7.54-9.3107-12.224-2.3613-4.6813-3.5427-10.228-3.5427-16.667 0-5.604 1.1253-11.108 3.3653-16.547 2.236-5.44 5.7253-10.257 10.448-14.473 4.7227-4.232 10.793-7.6333 18.208-10.219 7.4147-2.5933 16.244-3.8827 26.501-3.8827 2.636 0 5.5053 0.12266 8.5827 0.36933 3.0893 0.24933 6.22 0.604 9.3773 1.072 3.1587 0.452 6.288 0.972 9.3787 1.564 3.076 0.576 5.9453 1.2093 8.5813 1.88v20.051c-6.164-1.8413-12.329-3.24-18.496-4.204-6.1787-0.94534-12.137-1.428-17.905-1.4413-12.263 0.0133-21.269 2.14-27.036 6.3973-5.768 4.2573-8.6507 9.984-8.6507 17.179 0 4.4213 1.1813 8.2253 3.5427 11.396 2.3613 3.1893 5.4653 6.016 9.3093 8.528 3.8453 2.5133 8.2253 4.7773 13.156 6.8373 4.928 2.0467 9.9533 4.1493 15.089 6.332 5.1213 2.1667 10.147 4.544 15.077 7.1387 4.9293 2.5987 9.3093 5.6587 13.153 9.216 3.8467 3.54 6.9493 7.7027 9.3107 12.465 2.3613 4.7667 3.5427 10.408 3.5427 16.919"/>
    <path d="m712.68 682.88c0-10.516-3.3093-18.589-9.9147-24.18-6.604-5.5987-15.845-8.4-27.696-8.4h-21.872v67.431h19.951c12.66 0 22.409-2.8813 29.26-8.652 6.8533-5.764 10.272-14.5 10.272-26.199m22.231-1c0 6.6893-1.2093 13.319-3.612 19.871-2.4027 6.5627-6.1227 12.427-11.163 17.615-5.0533 5.1773-11.507 9.3773-19.348 12.592-7.8533 3.212-17.231 4.8333-28.12 4.8333h-19.471v58.784h-21.38v-163.83h44.213c7.772 0 15.215 0.892 22.355 2.6933 7.1267 1.7987 13.389 4.7093 18.797 8.72 5.412 4.008 9.7213 9.1853 12.923 15.541 3.2 6.3453 4.8053 14.073 4.8053 23.18"/>
    <path d="m847.74 747.31c0-4.1733-0.83733-7.9347-2.5107-11.273-1.6907-3.3493-4.1347-6.1627-7.3333-8.4573-3.2133-2.3067-7.1133-4.0787-11.713-5.3253-4.6147-1.2653-9.8053-1.8853-15.572-1.8853h-21.86v56.411h22.587c12.251 0 21.381-2.388 27.396-7.1547 6.0147-4.7627 9.0067-12.195 9.0067-22.315m-5.1627-72.691c0-3.3373-0.48-6.496-1.4413-9.464-0.96133-2.9627-2.6373-5.5173-5.0533-7.644-2.4027-2.1307-5.644-3.8173-9.7213-5.0827-4.0933-1.2493-9.256-1.8813-15.504-1.8813h-22.107v51.272h21.379c4.8893 0 9.312-0.54933 13.279-1.6333 3.9693-1.084 7.3747-2.76 10.216-5.0133 2.844-2.252 5.0547-5.08 6.604-8.4573 1.568-3.3933 2.3493-7.4133 2.3493-12.096m27.875 71.952c0 7.8533-1.456 14.799-4.38 20.871-2.9253 6.056-7.0853 11.163-12.496 15.351-5.4107 4.176-11.945 7.3467-19.595 9.5293-7.648 2.168-16.16 3.2547-25.527 3.2547h-41.096v-163.83h44.941c35.001 0 52.509 13.296 52.509 39.863 0 8.8573-2.02 16.465-6.0707 22.811-4.0507 6.356-10.627 11.079-19.759 14.168 4.2427 0.83734 8.2667 2.2507 12.071 4.2587 3.8013 2.004 7.152 4.5973 10.037 7.7707 2.8827 3.172 5.1627 6.9333 6.8493 11.288 1.676 4.3387 2.5147 9.228 2.5147 14.665"/>
    <path d="m581.35 939.97c0-11.604-1.0427-21.436-3.132-29.453-2.072-8.0187-5.244-14.5-9.4867-19.431-4.2427-4.9307-9.5707-8.4987-15.983-10.709-6.3987-2.212-13.937-3.3213-22.589-3.3213h-18.385v125.72h15.984c35.728 0 53.592-20.94 53.592-62.809m22.464-1.62c0 7.856-0.576 15.38-1.7293 22.564-1.168 7.1787-3.0347 13.868-5.5893 20.047-2.5667 6.1907-5.8907 11.808-9.9827 16.863-4.0787 5.052-9.0893 9.376-15.021 12.976-5.9187 3.596-12.811 6.368-20.667 8.332-7.8533 1.9626-16.78 2.9533-26.788 2.9533h-33.656v-163.83h40.507c24.511 0 42.788 6.5773 54.844 19.732 12.055 13.167 18.083 33.285 18.083 60.363"/>
    <path d="m719.29 940.73c0-9.6107-0.69733-18.399-2.1-26.379-1.4-7.9787-3.6653-14.859-6.784-20.623-3.1307-5.768-7.1533-10.228-12.081-13.419-4.9307-3.1693-10.876-4.7627-17.837-4.7627-6.7293 0-12.523 1.7027-17.371 5.08-4.8467 3.392-8.8293 7.98-11.961 13.787-3.116 5.808-5.436 12.619-6.9613 20.435-1.5227 7.8107-2.2787 16.105-2.2787 24.881 0 9.6947 0.71466 18.535 2.156 26.515 1.4413 7.976 3.7067 14.829 6.7973 20.556 3.0747 5.724 7.0587 10.173 11.947 13.347 4.8867 3.1707 10.779 4.7654 17.672 4.7654 6.7267 0 12.536-1.692 17.424-5.0827 4.888-3.3787 8.9107-7.9773 12.071-13.787 3.1707-5.8067 5.5053-12.591 7.0293-20.363 1.5253-7.772 2.2787-16.092 2.2787-24.951m22.232-1.62c0 14.707-1.6627 27.409-4.984 38.105-3.324 10.697-7.8133 19.525-13.457 26.5-5.6427 6.976-12.261 12.167-19.828 15.543-7.5653 3.396-15.557 5.0827-23.975 5.0827-10.093 0-18.881-1.908-26.377-5.712-7.484-3.7894-13.691-9.296-18.619-16.477-4.9307-7.1826-8.5987-15.943-11-26.255-2.4027-10.325-3.5987-21.956-3.5987-34.919 0-14.531 1.6347-27.147 4.916-37.843 3.2973-10.697 7.7587-19.543 13.404-26.516 5.6427-6.976 12.233-12.152 19.772-15.543 7.524-3.38 15.503-5.084 23.905-5.084 10.093 0 18.896 1.924 26.379 5.7693 7.496 3.844 13.717 9.336 18.687 16.489 4.972 7.144 8.6653 15.847 11.111 26.132 2.444 10.284 3.6653 21.847 3.6653 34.727"/>
    <path d="m873.34 877.3h-46.493v144.78h-21.641v-144.78h-46.493v-19.045h114.63z"/>
    <path d="m598.41 1243h-27.888l-45.78-102.16-13.209-32.847v135.01h-19.952v-163.83h27.519l43.624 96.763 15.736 37.475v-134.24h19.951z"/>
    <path d="m726.26 1243h-89.28v-163.83h89.28v18.799h-67.887v50.764h65.239v18.797h-65.239v56.409h67.887z"/>
    <path d="m873.34 1098.2h-46.493v144.78h-21.641v-144.78h-46.493v-19.045h114.63z"/>
  </g>
  <g fill="#fff">
    <path d="m1516.4 795.5h-20.915l-3.128-102.16-1.3187-39.228-7.3333 22.82-23.193 65.168h-14.773l-22.107-62.669-7.332-25.319-0.4826 40.985-2.7587 100.4h-20.2l7.6893-163.83h25.363l21.145 61.667 6.852 20.819 6.604-20.819 22.232-61.667h26.075z"/>
    <path d="m1642.3 751.14c0 7.772-1.5266 14.584-4.5746 20.435-3.0334 5.848-7.2894 10.711-12.729 14.593-5.4506 3.8893-12.001 6.784-19.647 8.708-7.6494 1.9227-16.079 2.8827-25.295 2.8827-4.1733 0-8.3213-0.16534-12.441-0.496-4.1307-0.32667-8.0867-0.752-11.889-1.248-3.8186-0.51067-7.4013-1.0987-10.765-1.7587-3.3653-0.67067-6.3987-1.388-9.132-2.1293v-21.555c6.012 2.3347 12.756 4.1733 20.252 5.5053 7.484 1.3453 15.999 2.0027 25.527 2.0027 6.8946 0 12.771-0.56133 17.616-1.688 4.836-1.124 8.8026-2.8013 11.893-5.0107 3.076-2.212 5.3267-4.9147 6.7293-8.0893 1.4-3.1707 2.1014-6.8093 2.1014-10.901 0-4.4347-1.1814-8.212-3.5427-11.341-2.3627-3.1307-5.4667-5.9307-9.3107-8.4027-3.844-2.4613-8.2386-4.7253-13.168-6.7707-4.916-2.044-9.9426-4.1613-15.077-6.3307-5.1213-2.1693-10.147-4.5307-15.076-7.072-4.9307-2.552-9.312-5.56-13.156-9.0347-3.8427-3.4587-6.948-7.54-9.3227-12.221-2.3626-4.684-3.5426-10.228-3.5426-16.669 0-5.604 1.128-11.108 3.3626-16.547 2.2534-5.4227 5.7267-10.256 10.464-14.472 4.724-4.216 10.795-7.62 18.195-10.215 7.4133-2.5987 16.244-3.8893 26.501-3.8893 2.6494 0 5.5054 0.124 8.5974 0.37466 3.0733 0.25867 6.204 0.604 9.3626 1.0667 3.1707 0.45333 6.2894 0.97867 9.3774 1.5693 3.092 0.59067 5.9453 1.208 8.5973 1.8787v20.063c-6.1787-1.8387-12.344-3.24-18.511-4.2013-6.1653-0.96133-12.139-1.444-17.904-1.444-12.263 0-21.271 2.1293-27.039 6.3867-5.7667 4.272-8.6494 9.9973-8.6494 17.179 0 4.4173 1.1814 8.2227 3.5427 11.412 2.36 3.1693 5.4627 6.0133 9.3107 8.5133 3.844 2.508 8.2386 4.7893 13.167 6.836 4.9174 2.0453 9.956 4.1587 15.077 6.3307 5.1226 2.168 10.148 4.5453 15.076 7.14 4.9306 2.5933 9.3106 5.6573 13.156 9.2133 3.8426 3.5587 6.96 7.7013 9.324 12.468 2.36 4.7627 3.5426 10.408 3.5426 16.929"/>
    <path d="m1783.9 795.5h-26.927l-58.759-80.34v80.34h-21.393v-163.83h21.393v76.083l57.563-76.083h25.349l-61.999 77.841z"/>
    <path d="m1491 939.92c0-11.613-1.0453-21.431-3.1173-29.464-2.0853-8.0227-5.26-14.485-9.5013-19.419-4.2427-4.928-9.5707-8.512-15.985-10.725-6.396-2.2107-13.936-3.3213-22.585-3.3213h-18.388v125.72h15.983c35.731 0 53.595-20.923 53.595-62.795m22.477-1.6307c0 7.8547-0.5894 15.379-1.744 22.56-1.1667 7.1813-3.0347 13.869-5.5894 20.063-2.5666 6.1773-5.8893 11.792-9.9813 16.847-4.0787 5.068-9.0907 9.392-15.023 12.976-5.9173 3.5973-12.809 6.3733-20.667 8.3373-7.8374 1.9627-16.777 2.9507-26.789 2.9507h-33.655v-163.83h40.508c24.511 0 42.787 6.58 54.843 19.748 12.069 13.152 18.097 33.268 18.097 60.349"/>
    <path d="m1629 940.66c0-9.5973-0.7-18.399-2.1013-26.379-1.4-7.976-3.6653-14.855-6.7827-20.621-3.132-5.7667-7.1533-10.231-12.087-13.401-4.912-3.184-10.871-4.7667-17.833-4.7667-6.7293 0-12.524 1.692-17.371 5.0693-4.848 3.392-8.8307 7.9893-11.948 13.787-3.128 5.8053-5.4507 12.615-6.9747 20.429-1.5227 7.8147-2.2787 16.107-2.2787 24.881 0 9.696 0.7147 18.539 2.156 26.517 1.4414 7.9787 3.7054 14.829 6.7974 20.556 3.0746 5.7253 7.06 10.175 11.948 13.345 4.8866 3.1866 10.777 4.7653 17.671 4.7653 6.7267 0 12.536-1.688 17.424-5.08 4.888-3.376 8.9107-7.9787 12.071-13.787 3.1707-5.8067 5.5053-12.593 7.0293-20.363 1.5254-7.772 2.28-16.08 2.28-24.953m22.231-1.62c0 14.709-1.6613 27.411-4.984 38.105-3.324 10.697-7.8133 19.528-13.456 26.503-5.644 6.9894-12.263 12.165-19.828 15.544-7.5653 3.3907-15.557 5.0814-23.976 5.0814-10.092 0-18.881-1.8974-26.376-5.6987-7.484-3.8053-13.693-9.296-18.623-16.493-4.928-7.1774-8.5946-15.925-10.999-26.255-2.4027-10.324-3.5974-21.953-3.5974-34.903 0-14.543 1.6347-27.163 4.916-37.859 3.2974-10.697 7.7587-19.541 13.403-26.516 5.6587-6.9733 12.235-12.152 19.775-15.543 7.524-3.3773 15.5-5.068 23.904-5.068 10.093 0 18.896 1.9253 26.377 5.7667 7.4973 3.832 13.719 9.34 18.689 16.479 4.968 7.14 8.6787 15.861 11.109 26.133 2.444 10.283 3.6653 21.857 3.6653 34.723"/>
    <path d="m1783 877.23h-46.495v144.79h-21.641v-144.79h-46.492v-19.045h114.63z"/>
    <path d="m1508.1 1242.9h-27.888l-45.78-102.16-13.211-32.831v134.99h-19.949v-163.83h27.517l43.623 96.763 15.737 37.487v-134.25h19.951z"/>
    <path d="m1635.9 1242.9h-89.28v-163.83h89.28v18.797h-67.887v50.765h65.236v18.811h-65.236v56.393h67.887z"/>
    <path d="m1783 1098.1h-46.495v144.77h-21.641v-144.77h-46.492v-19.059h114.63z"/>
  </g>
</svg>
