<?xml version="1.0" encoding="utf-8"?>
<!-- Generator: Adobe Illustrator 15.0.0, SVG Export Plug-In . SVG Version: 6.00 Build 0)  -->
<!DOCTYPE svg PUBLIC "-//W3C//DTD SVG 1.1//EN" "http://www.w3.org/Graphics/SVG/1.1/DTD/svg11.dtd">
<svg version="1.1" id="Слой_1" xmlns="http://www.w3.org/2000/svg" xmlns:xlink="http://www.w3.org/1999/xlink" x="0px" y="0px"
	 width="354.33px" height="566.93px" viewBox="0 0 354.33 566.93" enable-background="new 0 0 354.33 566.93" xml:space="preserve">
<g>
	<path fill="#FFFFFF" d="M107.208,279.172c0,6.833-0.526,13.373-1.575,19.623c-1.049,6.252-2.732,12.065-5.045,17.443
		c-2.318,5.379-5.318,10.267-9.008,14.662c-3.689,4.398-8.213,8.16-13.565,11.284c-5.354,3.126-11.577,5.543-18.667,7.25
		c-7.092,1.708-15.159,2.562-24.201,2.562H4.76V209.51h36.572c22.14,0,38.652,5.723,49.542,17.17
		C101.763,238.128,107.208,255.625,107.208,279.172z M86.913,280.59c0-10.102-0.942-18.642-2.821-25.619
		c-1.883-6.977-4.74-12.608-8.574-16.898c-3.835-4.288-8.646-7.394-14.434-9.321c-5.789-1.925-12.588-2.889-20.403-2.889H24.077
		v109.344h14.434C70.778,335.207,86.913,317.001,86.913,280.59z"/>
	<path fill="#FFFFFF" d="M231.358,279.827c0,12.792-1.502,23.839-4.504,33.14c-3.004,9.306-7.055,16.991-12.154,23.058
		c-5.101,6.07-11.069,10.575-17.906,13.519c-6.837,2.944-14.054,4.415-21.651,4.415c-9.115,0-17.056-1.653-23.821-4.96
		c-6.766-3.307-12.371-8.085-16.821-14.336c-4.45-6.249-7.76-13.862-9.931-22.839c-2.17-8.976-3.256-19.095-3.256-30.361
		c0-12.646,1.482-23.619,4.45-32.923c2.967-9.303,7-16.989,12.101-23.058c5.101-6.067,11.051-10.574,17.852-13.518
		c6.8-2.943,13.999-4.416,21.598-4.416c9.114,0,17.054,1.673,23.82,5.015c6.765,3.344,12.389,8.122,16.876,14.336
		c4.484,6.213,7.83,13.791,10.038,22.73C230.256,258.568,231.358,268.636,231.358,279.827z M211.282,281.244
		c0-8.357-0.635-16.007-1.899-22.948c-1.266-6.939-3.31-12.918-6.132-17.933c-2.821-5.015-6.457-8.902-10.906-11.666
		c-4.449-2.761-9.821-4.143-16.116-4.143c-6.078,0-11.304,1.472-15.682,4.415c-4.378,2.944-7.976,6.941-10.797,11.993
		c-2.822,5.052-4.921,10.974-6.295,17.77c-1.375,6.796-2.063,14.009-2.063,21.64c0,8.431,0.651,16.117,1.955,23.056
		c1.301,6.942,3.344,12.902,6.13,17.88c2.785,4.979,6.385,8.85,10.798,11.609c4.414,2.764,9.73,4.144,15.954,4.144
		c6.078,0,11.322-1.472,15.736-4.415c4.411-2.944,8.047-6.939,10.907-11.992c2.857-5.051,4.973-10.956,6.348-17.715
		C210.594,296.179,211.282,288.948,211.282,281.244z"/>
	<path fill="#FFFFFF" d="M350.193,226.081h-41.999v125.915H288.66V226.081h-41.999V209.51h103.532V226.081z"/>
</g>
<g>
	<path fill="#FFFFFF" d="M101.767,558.479H76.475L34.939,469.63l-11.993-28.563v71.843v45.568H4.851V415.994h24.964l39.573,84.161
		l14.281,32.595v-76.312v-40.444h18.098V558.479z"/>
	<path fill="#FFFFFF" d="M217.542,558.479h-81V415.994h81v16.353h-61.595v44.151h59.196v16.353h-59.196v49.058h61.595V558.479z"/>
	<path fill="#FFFFFF" d="M350.762,432.563h-42.189v125.915h-19.623V432.563H246.76v-16.569h104.002V432.563z"/>
</g>
<g>
	<path fill="#FFFFFF" d="M98.844,149.437H74.248L33.855,60.242L22.192,31.568v72.122v45.747H4.594V6.397h24.279l38.484,84.489
		l13.888,32.723V47V6.397h17.6V149.437z"/>
	<path fill="#FFFFFF" d="M218.222,149.437h-24.597l-40.393-89.195l-11.663-28.674v72.122v45.747h-17.599V6.397h24.278l38.484,84.489
		l13.889,32.723V47V6.397h17.6V149.437z"/>
	<path fill="#FFFFFF" d="M349.684,6.397l-47.072,143.04h-25.443L231.155,6.397h21.31l29.897,96.418l8.481,28.236l8.693-28.236
		L329.54,6.397H349.684z"/>
</g>
</svg>
