<svg width="920" height="920" version="1.1" xmlns="http://www.w3.org/2000/svg">
  <rect id="br" x="8" y="8" width="904" height="904" stroke="#fff" stroke-width="16" fill-opacity="0"/>
  <g id="tx" fill="#fff">
    <path d="m538 281q0 9.3-3.8 16.3t-10.6 11.65-16.35 6.95-21.05 2.3q-5.2 0-10.35-0.4t-9.9-1-8.95-1.4-7.6-1.7v-17.2q7.5 2.8 16.85 4.4t21.25 1.6q8.6 0 14.65-1.35t9.9-4 5.6-6.45 1.75-8.7q0-5.3-2.95-9.05t-7.75-6.7-10.95-5.4-12.55-5.05-12.55-5.65-10.95-7.2-7.75-9.75-2.95-13.3q0-6.7 2.8-13.2t8.7-11.55 15.15-8.15 22.05-3.1q3.3 0 7.15 0.3t7.8 0.85 7.8 1.25 7.15 1.5v16q-7.7-2.2-15.4-3.35t-14.9-1.15q-15.3 0-22.5 5.1t-7.2 13.7q0 5.3 2.95 9.1t7.75 6.8 10.95 5.45 12.55 5.05 12.55 5.7 10.95 7.35 7.75 9.95 2.95 13.5z"/>
    <path d="m663 317h-19.4l-9.1-28.5h-54.4l-9.2 28.5h-18.5l43.4-130.7h24.4zm-33.6-44.4-22.1-69.9-22.1 69.9z"/>
    <path d="m772 317h-17.4l-2.6-81.5-1.1-31.3-6.1 18.2-19.3 52h-12.3l-18.4-50-6.1-20.2-0.4 32.7-2.3 80.1h-16.8l6.4-130.7h21.1l17.6 49.2 5.7 16.6 5.5-16.6 18.5-49.2h21.7z"/>
    <path d="m543 459q0 9.4-1.45 18t-4.65 16-8.3 13.45-12.5 10.35-17.2 6.65-22.3 2.35h-28v-130.7h33.7q30.6 0 45.65 15.75t15.05 48.15zm-18.7 1.3q0-13.9-2.6-23.5t-7.9-15.5-13.3-8.55-18.8-2.65h-15.3v100.3h13.3q44.6 0 44.6-50.1z"/>
    <path d="m658 460q0 17.6-4.15 30.4t-11.2 21.15-16.5 12.4-19.95 4.05q-12.6 0-21.95-4.55t-15.5-13.15-9.15-20.95-3-27.85q0-17.4 4.1-30.2t11.15-21.15 16.45-12.4 19.9-4.05q12.6 0 21.95 4.6t15.55 13.15 9.25 20.85 3.05 27.7zm-18.5 1.3q0-11.5-1.75-21.05t-5.65-16.45-10.05-10.7-14.85-3.8q-8.4 0-14.45 4.05t-9.95 11-5.8 16.3-1.9 19.85q0 11.6 1.8 21.15t5.65 16.4 9.95 10.65 14.7 3.8q8.4 0 14.5-4.05t10.05-11 5.85-16.25 1.9-19.9z"/>
    <path d="m768 410h-38.7v115.5h-18v-115.5h-38.7v-15.2h95.4z"/>
    <path d="m539 735h-23.2l-38.1-81.5-11-26.2v107.7h-16.6v-130.7h22.9l36.3 77.2 13.1 29.9v-107.1h16.6z"/>
    <path d="m645 735h-74.3v-130.7h74.3v15h-56.5v40.5h54.3v15h-54.3v45h56.5z"/>
    <path d="m768 619h-38.7v115.5h-18v-115.5h-38.7v-15.2h95.4z"/>
  </g>
</svg>
