<?xml version="1.0" encoding="utf-8"?>
<!-- Generator: Adobe Illustrator 15.0.0, SVG Export Plug-In . SVG Version: 6.00 Build 0)  -->
<!DOCTYPE svg PUBLIC "-//W3C//DTD SVG 1.1//EN" "http://www.w3.org/Graphics/SVG/1.1/DTD/svg11.dtd">
<svg version="1.1" id="Слой_1" xmlns="http://www.w3.org/2000/svg" xmlns:xlink="http://www.w3.org/1999/xlink" x="0px" y="0px"
	 width="354.33px" height="566.93px" viewBox="0 0 354.33 566.93" enable-background="new 0 0 354.33 566.93" xml:space="preserve">
<g>
	<path fill="#FFFFFF" d="M107.525,278.172c0,6.833-0.528,13.373-1.582,19.623c-1.054,6.252-2.744,12.065-5.068,17.443
		c-2.328,5.379-5.342,10.267-9.049,14.662c-3.706,4.398-8.25,8.16-13.627,11.284c-5.379,3.126-11.629,5.543-18.751,7.25
		c-7.124,1.708-15.228,2.562-24.311,2.562H4.612V208.51h36.738c22.24,0,38.827,5.723,49.768,17.17
		C102.056,237.128,107.525,254.625,107.525,278.172z M87.139,279.59c0-10.102-0.946-18.642-2.834-25.619
		c-1.892-6.977-4.762-12.608-8.613-16.898c-3.853-4.288-8.686-7.394-14.499-9.321c-5.815-1.925-12.646-2.889-20.496-2.889H24.018
		v109.344h14.499C70.931,334.207,87.139,316.001,87.139,279.59z"/>
	<path fill="#FFFFFF" d="M232.24,278.827c0,12.792-1.509,23.839-4.524,33.14c-3.018,9.306-7.087,16.991-12.21,23.058
		c-5.124,6.07-11.119,10.575-17.987,13.519c-6.868,2.944-14.118,4.415-21.75,4.415c-9.156,0-17.133-1.653-23.929-4.96
		c-6.797-3.307-12.427-8.085-16.897-14.336c-4.47-6.249-7.795-13.862-9.976-22.839c-2.18-8.976-3.271-19.095-3.271-30.361
		c0-12.646,1.489-23.619,4.47-32.923c2.98-9.303,7.031-16.989,12.156-23.058c5.124-6.067,11.101-10.574,17.933-13.518
		c6.831-2.943,14.063-4.416,21.695-4.416c9.156,0,17.132,1.673,23.929,5.015c6.795,3.344,12.445,8.122,16.952,14.336
		c4.505,6.213,7.866,13.791,10.084,22.73C231.132,257.568,232.24,267.636,232.24,278.827z M212.072,280.244
		c0-8.357-0.638-16.007-1.908-22.948c-1.271-6.939-3.324-12.918-6.159-17.933c-2.834-5.015-6.486-8.902-10.956-11.666
		c-4.47-2.761-9.866-4.143-16.189-4.143c-6.105,0-11.355,1.472-15.753,4.415c-4.398,2.944-8.013,6.941-10.847,11.993
		c-2.835,5.052-4.943,10.974-6.323,17.77c-1.382,6.796-2.072,14.009-2.072,21.64c0,8.431,0.654,16.117,1.964,23.056
		c1.307,6.942,3.359,12.902,6.158,17.88c2.798,4.979,6.414,8.85,10.847,11.609c4.434,2.764,9.774,4.144,16.026,4.144
		c6.105,0,11.374-1.472,15.808-4.415c4.432-2.944,8.084-6.939,10.957-11.992c2.87-5.051,4.995-10.956,6.377-17.715
		C211.381,295.179,212.072,287.948,212.072,280.244z"/>
	<path fill="#FFFFFF" d="M351.614,225.081h-42.189v125.915h-19.623V225.081h-42.189V208.51h104.002V225.081z"/>
</g>
<g>
	<path fill="#FFFFFF" d="M102.619,557.479H77.327L35.792,468.63l-11.993-28.563v71.843v45.568H5.703V414.994h24.964l39.573,84.161
		l14.281,32.595v-76.312v-40.444h18.098V557.479z"/>
	<path fill="#FFFFFF" d="M218.395,557.479h-81V414.994h81v16.353H156.8v44.151h59.196v16.353H156.8v49.058h61.595V557.479z"/>
	<path fill="#FFFFFF" d="M351.614,431.563h-42.189v125.915h-19.623V431.563h-42.189v-16.569h104.002V431.563z"/>
</g>
<g>
	<path fill="#FFFFFF" d="M100.662,109.695c0,6.785-1.359,12.733-4.078,17.839c-2.719,5.108-6.51,9.357-11.374,12.75
		c-4.866,3.393-10.713,5.929-17.543,7.606c-6.833,1.678-14.362,2.517-22.586,2.517c-3.721,0-7.422-0.147-11.105-0.438
		c-3.685-0.292-7.227-0.657-10.623-1.094c-3.399-0.438-6.599-0.948-9.603-1.532c-3.005-0.583-5.724-1.204-8.155-1.861v-18.824
		c5.365,2.043,11.39,3.649,18.08,4.815c6.688,1.168,14.288,1.751,22.8,1.751c6.152,0,11.391-0.493,15.719-1.478
		c4.328-0.985,7.869-2.443,10.623-4.377c2.752-1.933,4.757-4.286,6.009-7.059c1.25-2.772,1.878-5.946,1.878-9.521
		c0-3.866-1.056-7.168-3.166-9.904c-2.11-2.736-4.882-5.18-8.315-7.333c-3.434-2.151-7.35-4.121-11.75-5.91
		c-4.399-1.787-8.889-3.628-13.466-5.526c-4.579-1.896-9.067-3.957-13.466-6.184c-4.398-2.225-8.315-4.852-11.749-7.88
		c-3.433-3.027-6.207-6.583-8.315-10.67c-2.111-4.085-3.165-8.937-3.165-14.556c0-4.887,1-9.703,3.004-14.446
		c2.001-4.742,5.113-8.956,9.334-12.641c4.221-3.684,9.639-6.657,16.256-8.919c6.615-2.261,14.501-3.393,23.66-3.393
		c2.36,0,4.917,0.109,7.672,0.328c2.753,0.219,5.543,0.53,8.369,0.93c2.824,0.402,5.614,0.858,8.369,1.368
		c2.752,0.511,5.312,1.059,7.672,1.642v17.511c-5.509-1.604-11.017-2.827-16.523-3.667c-5.509-0.838-10.837-1.258-15.989-1.258
		c-10.943,0-18.992,1.86-24.142,5.582c-5.15,3.721-7.726,8.719-7.726,14.993c0,3.868,1.055,7.188,3.165,9.959
		c2.109,2.773,4.882,5.253,8.316,7.442c3.434,2.189,7.35,4.178,11.749,5.964c4.399,1.789,8.887,3.63,13.466,5.527
		c4.577,1.898,9.066,3.978,13.465,6.238c4.399,2.262,8.315,4.944,11.75,8.044c3.433,3.102,6.204,6.73,8.315,10.889
		C99.606,99.079,100.662,104.004,100.662,109.695z"/>
	<path fill="#FFFFFF" d="M234.25,148.437h-20.816l-9.764-31.191h-58.371l-9.872,31.191h-19.85l46.567-143.04h26.182L234.25,148.437z
		 M198.197,99.845l-23.713-76.5l-23.713,76.5H198.197z"/>
	<path fill="#FFFFFF" d="M350.883,148.437h-18.67l-2.789-89.195l-1.181-34.255l-6.545,19.918l-20.709,56.91h-13.198l-19.742-54.721
		l-6.545-22.107l-0.431,35.787l-2.467,87.663h-18.027l6.868-143.04h22.64l18.885,53.845l6.116,18.167l5.901-18.167l19.85-53.845
		h23.284L350.883,148.437z"/>
</g>
</svg>
