<svg viewBox="0 0 888 888" xmlns="http://www.w3.org/2000/svg">
  <rect id="bg" x="0" y="0" width="888" height="888" fill="#daa520"/>
  <g id="tx" fill="#fff">
    <path d="m301 301h-20.1l-19.5-41.8q-2.2-4.8-4.5-7.95t-4.95-5-5.8-2.65-7.05-0.8h-8.4v58.2h-17.8v-130.7h35q11.4 0 19.6 2.5t13.45 7 7.7 10.85 2.45 14.05q0 6.1-1.8 11.55t-5.35 9.9-8.8 7.7-12.05 4.85q5.5 1.9 9.35 6.65t7.85 12.65zm-28.5-94.8q0-10.5-6.55-15.7t-18.45-5.2h-16.8v43.2h14.4q6.3 0 11.35-1.45t8.6-4.3 5.5-7 1.95-9.55z"/>
    <path d="m421 301h-19.4l-9.1-28.5h-54.4l-9.2 28.5h-18.5l43.4-130.7h24.4zm-33.6-44.4-22.1-69.9-22.1 69.9z"/>
    <path d="m527 234q0 9.4-1.45 18t-4.65 16-8.3 13.45-12.5 10.35-17.2 6.65-22.3 2.35h-28v-130.7h33.7q30.6 0 45.65 15.75t15.05 48.15zm-18.7 1.3q0-13.9-2.6-23.5t-7.9-15.5-13.3-8.55-18.8-2.65h-15.3v100.3h13.3q44.6 0 44.6-50.1z"/>
    <path d="m582 185h-30.1v-15h78.2v15h-30.1v100.5h30.1v15.2h-78.2v-15.2h30.1z"/>
    <path d="m755 235q0 17.6-4.15 30.4t-11.2 21.15-16.5 12.4-19.95 4.05q-12.6 0-21.95-4.55t-15.5-13.15-9.15-20.95-3-27.85q0-17.4 4.1-30.2t11.15-21.15 16.45-12.4 19.9-4.05q12.6 0 21.95 4.6t15.55 13.15 9.25 20.85 3.05 27.7zm-18.5 1.3q0-11.5-1.75-21.05t-5.65-16.45-10.05-10.7-14.85-3.8q-8.4 0-14.45 4.05t-9.95 11-5.8 16.3-1.9 19.85q0 11.6 1.8 21.15t5.65 16.4 9.95 10.65 14.7 3.8q8.4 0 14.5-4.05t10.05-11 5.85-16.25 1.9-19.9z"/>
    <path d="m527 443q0 9.4-1.45 18t-4.65 16-8.3 13.45-12.5 10.35-17.2 6.65-22.3 2.35h-28v-130.7h33.7q30.6 0 45.65 15.75t15.05 48.15zm-18.7 1.3q0-13.9-2.6-23.5t-7.9-15.5-13.3-8.55-18.8-2.65h-15.3v100.3h13.3q44.6 0 44.6-50.1z"/>
    <path d="m642 444q0 17.6-4.15 30.4t-11.2 21.15-16.5 12.4-19.95 4.05q-12.6 0-21.95-4.55t-15.5-13.15-9.15-20.95-3-27.85q0-17.4 4.1-30.2t11.15-21.15 16.45-12.4 19.9-4.05q12.6 0 21.95 4.6t15.55 13.15 9.25 20.85 3.05 27.7zm-18.5 1.3q0-11.5-1.75-21.05t-5.65-16.45-10.05-10.7-14.85-3.8q-8.4 0-14.45 4.05t-9.95 11-5.8 16.3-1.9 19.85q0 11.6 1.8 21.15t5.65 16.4 9.95 10.65 14.7 3.8q8.4 0 14.5-4.05t10.05-11 5.85-16.25 1.9-19.9z"/>
    <path d="m752 394h-38.7v115.5h-18v-115.5h-38.7v-15.2h95.4z"/>
    <path d="m523 719h-23.2l-38.1-81.5-11-26.2v107.7h-16.6v-130.7h22.9l36.3 77.2 13.1 29.9v-107.1h16.6z"/>
    <path d="m629 719h-74.3v-130.7h74.3v15h-56.5v40.5h54.3v15h-54.3v45h56.5z"/>
    <path d="m752 603h-38.7v115.5h-18v-115.5h-38.7v-15.2h95.4z"/>
  </g>
  <g id="wl" fill="#fff">
    <path d="m291,378h-14.5 a14,14 0 1,0 0,29h14.5z"/>
    <path d="m291,417h-52.5 a14,14 0 1,0 0,29h52.5z"/>
    <path d="m291,456h-26.5 a14,14 0 1,0 0,29h26.5z"/>
    <path d="m291,494h-56.5 a14,14 0 1,0 0,29h56.5z"/>
    <path d="m291,533h-85.5 a14,14 0 1,0 0,29h85.5z"/>
    <path d="m291,572h-44.5 a14,14 0 1,0 0,29h44.5z"/>
    <path d="m291,611h-4.5 a14,14 0 1,0 0,29h4.5z"/>
    <path d="m291,649h-32.5 a14,14 0 1,0 0,29h32.5z"/>
    <path d="m291,688h-58.5 a14,14 0 1,0 0,29h58.5z"/>
  </g>
  <g id="wr" fill="#cf18fd">
    <path d="m301,378h14.5 a14,14 0 1,1 0,29h-14.5z"/>
    <path d="m301,417h52.5 a14,14 0 1,1 0,29h-52.5z"/>
    <path d="m301,456h26.5 a14,14 0 1,1 0,29h-26.5z"/>
    <path d="m301,494h56.5 a14,14 0 1,1 0,29h-56.5z"/>
    <path d="m301,533h85.5 a14,14 0 1,1 0,29h-85.5z"/>
    <path d="m301,572h44.5 a14,14 0 1,1 0,29h-44.5z"/>
    <path d="m301,611h4.5 a14,14 0 1,1 0,29h-4.5z"/>
    <path d="m301,649h32.5 a14,14 0 1,1 0,29h-32.5z"/>
    <path d="m301,688h58.5 a14,14 0 1,1 0,29h-58.5z"/>
  </g>
</svg>
