<svg width="800" height="800" xmlns="http://www.w3.org/2000/svg">
  <rect x="0" y="0" width="800" height="800" fill="#68217a"/>
  <g fill="#fff">
    <path d="m172.29 333.45c-7.987 0-14.464 6.474-14.464 14.464 0 7.989 6.477 14.464 14.464 14.464h27.858v-28.928z"/>
    <path d="m136.13 373.7c-7.988 0-14.464 6.476-14.464 14.463 0 7.99 6.476 14.465 14.464 14.465h64.019v-28.928z"/>
    <path d="m136.13 536.99c-7.988 0-14.464 6.476-14.464 14.465 0 7.988 6.476 14.465 14.464 14.465h64.019v-28.93z"/>
    <path d="m155.42 413.96c-7.989 0-14.464 6.476-14.464 14.464s6.475 14.465 14.464 14.465h44.732v-28.929z"/>
    <path d="m155.42 619.2c-7.989 0-14.464 6.476-14.464 14.465 0 7.985 6.475 14.463 14.464 14.463h44.732v-28.928z"/>
    <path d="m119.25 456.48c-7.989 0-14.465 6.477-14.465 14.465 0 7.987 6.476 14.465 14.465 14.465h80.893v-28.93z"/>
    <path d="m119.25 660.59c-7.989 0-14.465 6.476-14.465 14.464 0 7.987 6.476 14.464 14.465 14.464h80.893v-28.928z"/>
    <path d="m87.914 495.03c-7.988 0-14.464 6.476-14.464 14.464 0 7.987 6.476 14.464 14.464 14.464h112.23v-28.928z"/>
    <path d="m191.58 576.67c-7.989 0-14.464 6.476-14.464 14.465 0 7.987 6.476 14.464 14.464 14.464h8.572v-28.929z"/>
  </g>
  <g fill="#cf18fd">
    <path d="m324.17 495.03h-113.25v28.928h113.25c7.988 0 14.464-6.477 14.464-14.464 0-7.989-6.476-14.464-14.464-14.464z"/>
    <path d="m220.5 605.6c7.989 0 14.464-6.477 14.464-14.464 0-7.989-6.475-14.465-14.464-14.465h-9.585v28.929z"/>
    <path d="m292.83 689.52c7.989 0 14.464-6.477 14.464-14.464 0-7.988-6.475-14.464-14.464-14.464h-81.907v28.928z"/>
    <path d="m292.83 485.41c7.989 0 14.464-6.478 14.464-14.465 0-7.988-6.475-14.465-14.464-14.465h-81.907v28.93z"/>
    <path d="m256.66 648.12c7.989 0 14.465-6.478 14.465-14.463 0-7.989-6.476-14.465-14.465-14.465h-45.745v28.928z"/>
    <path d="m256.66 442.88c7.989 0 14.465-6.477 14.465-14.465s-6.476-14.464-14.465-14.464h-45.745v28.929z"/>
    <path d="m275.95 565.92c7.988 0 14.464-6.477 14.464-14.465 0-7.989-6.476-14.465-14.464-14.465h-65.032v28.93z"/>
    <path d="m275.95 402.63c7.988 0 14.464-6.475 14.464-14.465 0-7.987-6.476-14.463-14.464-14.463h-65.032v28.928z"/>
    <path d="m239.79 362.38c7.988 0 14.464-6.475 14.464-14.464 0-7.99-6.477-14.464-14.464-14.464h-28.872v28.928z"/>
  </g>
  <g fill="#fff">
    <path d="m252.7 255.18h-20.865l-20.242-43.391q-2.2838-4.9828-4.6713-8.2008-2.3876-3.3218-5.1904-5.1904-2.699-1.9723-6.0208-2.8028-3.218-0.83046-7.2665-0.83046h-8.7198v60.416h-18.478v-135.68h36.333q11.834 0 20.346 2.5952 8.5122 2.5952 13.91 7.2665 5.5018 4.6713 7.9932 11.315 2.5952 6.5399 2.5952 14.533 0 6.3322-1.8685 12.042-1.8685 5.6056-5.6056 10.277-3.6333 4.5675-9.135 7.9932-5.398 3.3218-12.457 4.9828 5.7094 1.9723 9.6541 6.9551 4.0485 4.879 8.2008 13.08zm-29.585-98.409q0-10.9-6.8513-16.298-6.7475-5.398-19.101-5.398h-17.44v44.845h14.948q6.5399 0 11.73-1.4533 5.2942-1.5571 8.9274-4.4637 3.7371-3.0104 5.7094-7.2665 2.0762-4.3599 2.0762-9.9655z"/>
    <path d="m376.54 255.18h-20.139l-9.4465-29.585h-56.471l-9.5503 29.585h-19.204l45.052-135.68h25.329zm-34.879-46.09-22.941-72.561-22.941 72.561z"/>
    <path d="m487.1 185.84q0 9.7579-1.5571 18.685-1.4533 8.9274-4.7751 16.609-3.3218 7.6818-8.616 14.014-5.2942 6.2284-12.976 10.692-7.6817 4.4637-17.855 6.9551-10.173 2.3876-23.149 2.3876h-29.066v-135.68h34.983q31.765 0 47.336 16.402 15.675 16.298 15.675 49.931zm-19.412 1.3495q0-14.429-2.699-24.395-2.699-9.9655-8.2008-16.09-5.5018-6.1246-13.806-8.8236-8.3046-2.8028-19.516-2.8028h-15.883v104.12h13.806q46.298 0 46.298-52.008z"/>
    <path d="m543.99 135.08h-31.246v-15.571h81.177v15.571h-31.246v104.33h31.246v15.779h-81.177v-15.779h31.246z"/>
    <path d="m723.16 186.46q0 18.27-4.3599 31.557-4.2561 13.287-11.626 22.007-7.2665 8.616-17.128 12.872-9.7579 4.1523-20.658 4.1523-13.08 0-22.838-4.6713-9.6541-4.7751-16.09-13.703-6.3322-8.9274-9.4465-21.696-3.1142-12.872-3.1142-28.962 0-18.062 4.2561-31.35 4.2561-13.287 11.523-21.903 7.3703-8.7198 17.128-12.872 9.7579-4.2561 20.658-4.2561 13.08 0 22.734 4.7751 9.7579 4.7751 16.194 13.703 6.4361 8.8236 9.5503 21.592 3.218 12.768 3.218 28.755zm-19.204 1.3495q0-11.938-1.8685-21.8-1.7647-9.9655-5.8132-17.128-4.0485-7.1627-10.485-11.107-6.3322-3.9447-15.363-3.9447-8.7198 0-15.052 4.2561-6.2284 4.1523-10.277 11.419-4.0485 7.1627-6.0208 16.921-1.9723 9.6541-1.9723 20.554 0 12.042 1.8685 22.007 1.8685 9.8617 5.8132 17.024 4.0485 7.0589 10.381 11.004t15.26 3.9447q8.7198 0 15.052-4.1523 6.3322-4.2561 10.381-11.419 4.1523-7.2665 6.1246-16.921 1.9723-9.6541 1.9723-20.658z"/>
    <path d="m490.32 402.12q0 9.7579-1.5571 18.685-1.4533 8.9274-4.7751 16.609-3.3218 7.6818-8.616 14.014-5.2942 6.2284-12.976 10.692-7.6817 4.4637-17.855 6.9551-10.173 2.3876-23.149 2.3876h-29.066v-135.68h34.983q31.765 0 47.336 16.402 15.675 16.298 15.675 49.931zm-19.412 1.3495q0-14.429-2.699-24.395-2.699-9.9655-8.2008-16.09-5.5018-6.1246-13.806-8.8236-8.3046-2.8028-19.516-2.8028h-15.883v104.12h13.806q46.298 0 46.298-52.007z"/>
    <path d="m609.28 402.75q0 18.27-4.3599 31.557-4.2561 13.287-11.626 22.007-7.2665 8.616-17.128 12.872-9.7579 4.1523-20.658 4.1523-13.08 0-22.838-4.6713-9.6541-4.7751-16.09-13.703-6.3322-8.9274-9.4465-21.696-3.1142-12.872-3.1142-28.962 0-18.062 4.2561-31.35 4.2561-13.287 11.523-21.903 7.3703-8.7198 17.128-12.872 9.7579-4.2561 20.658-4.2561 13.08 0 22.734 4.7751 9.7579 4.7751 16.194 13.703 6.4361 8.8236 9.5503 21.592 3.218 12.768 3.218 28.755zm-19.204 1.3495q0-11.938-1.8685-21.8-1.7647-9.9655-5.8132-17.128t-10.485-11.107q-6.3322-3.9447-15.363-3.9447-8.7198 0-15.052 4.2561-6.2284 4.1523-10.277 11.419-4.0485 7.1627-6.0208 16.921-1.9723 9.6541-1.9723 20.554 0 12.042 1.8685 22.007 1.8685 9.8617 5.8132 17.024 4.0485 7.0589 10.381 11.004t15.26 3.9447q8.7198 0 15.052-4.1523 6.3322-4.2561 10.381-11.419 4.1523-7.2665 6.1246-16.921 1.9723-9.6541 1.9723-20.658z"/>
    <path d="m723.16 351.57h-40.173v119.9h-18.685v-119.9h-40.173v-15.779h99.032z"/>
    <path d="m485.65 687.75h-24.083l-39.551-84.603-11.419-27.198v111.8h-17.232v-135.68h23.772l37.682 80.139 13.599 31.038v-111.18h17.232z"/>
    <path d="m596.1 687.75h-77.129v-135.68h77.129v15.571h-58.651v42.042h56.367v15.571h-56.367v46.713h58.651z"/>
    <path d="m723.16 567.86h-40.173v119.9h-18.685v-119.9h-40.173v-15.779h99.032z"/>
  </g>
</svg>
