<?xml version="1.0" encoding="utf-8"?>
<!-- Generator: Adobe Illustrator 15.0.0, SVG Export Plug-In . SVG Version: 6.00 Build 0)  -->
<!DOCTYPE svg PUBLIC "-//W3C//DTD SVG 1.1//EN" "http://www.w3.org/Graphics/SVG/1.1/DTD/svg11.dtd">
<svg version="1.1" xmlns="http://www.w3.org/2000/svg" xmlns:xlink="http://www.w3.org/1999/xlink" x="0px" y="0px"
	 width="850.39px" height="850.39px" viewBox="0 0 850.39 850.39" enable-background="new 0 0 850.39 850.39" xml:space="preserve">
<g id="Слой_1">
	<rect fill="#68217B" width="850.39" height="850.39"/>
</g>
<g id="Слой_3">
</g>
<g id="Слой_2">
	<g>
		<g>
			<path fill="#C4007B" d="M239.791,362.376c7.988,0,14.464-6.475,14.464-14.464c0-7.99-6.477-14.464-14.464-14.464h-28.872v28.928
				H239.791z"/>
			<path fill="#C4007B" d="M275.951,402.63c7.988,0,14.464-6.475,14.464-14.465c0-7.987-6.476-14.463-14.464-14.463h-65.032v28.928
				H275.951z"/>
			<path fill="#C4007B" d="M275.951,565.917c7.988,0,14.464-6.477,14.464-14.465c0-7.989-6.476-14.465-14.464-14.465h-65.032v28.93
				H275.951z"/>
			<path fill="#C4007B" d="M256.664,442.885c7.989,0,14.465-6.477,14.465-14.465s-6.476-14.464-14.465-14.464h-45.745v28.929
				H256.664z"/>
			<path fill="#C4007B" d="M256.664,648.125c7.989,0,14.465-6.478,14.465-14.463c0-7.989-6.476-14.465-14.465-14.465h-45.745v28.928
				H256.664z"/>
			<path fill="#C4007B" d="M292.826,485.408c7.989,0,14.464-6.478,14.464-14.465c0-7.988-6.475-14.465-14.464-14.465h-81.907v28.93
				H292.826z"/>
			<path fill="#C4007B" d="M292.826,689.515c7.989,0,14.464-6.477,14.464-14.464c0-7.988-6.475-14.464-14.464-14.464h-81.907v28.928
				H292.826z"/>
			<path fill="#C4007B" d="M324.166,495.032H210.919v28.928h113.247c7.988,0,14.464-6.477,14.464-14.464
				C338.63,501.507,332.154,495.032,324.166,495.032z"/>
		</g>
		<path fill="#C4007B" d="M220.504,605.603c7.989,0,14.464-6.477,14.464-14.464c0-7.989-6.475-14.465-14.464-14.465h-9.585v28.929
			H220.504z"/>
	</g>
	<g>
		<path fill="#FFFFFF" d="M172.289,333.448c-7.987,0-14.464,6.474-14.464,14.464c0,7.989,6.477,14.464,14.464,14.464h27.858v-28.928
			H172.289z"/>
		<path fill="#FFFFFF" d="M136.128,373.702c-7.988,0-14.464,6.476-14.464,14.463c0,7.99,6.476,14.465,14.464,14.465h64.019v-28.928
			H136.128z"/>
		<path fill="#FFFFFF" d="M136.128,536.987c-7.988,0-14.464,6.476-14.464,14.465c0,7.988,6.476,14.465,14.464,14.465h64.019v-28.93
			H136.128z"/>
		<path fill="#FFFFFF" d="M155.415,413.957c-7.989,0-14.464,6.476-14.464,14.464s6.475,14.465,14.464,14.465h44.732v-28.929H155.415
			z"/>
		<path fill="#FFFFFF" d="M155.415,619.198c-7.989,0-14.464,6.476-14.464,14.465c0,7.985,6.475,14.463,14.464,14.463h44.732v-28.928
			H155.415z"/>
		<path fill="#FFFFFF" d="M119.254,456.478c-7.989,0-14.465,6.477-14.465,14.465c0,7.987,6.476,14.465,14.465,14.465h80.893v-28.93
			H119.254z"/>
		<path fill="#FFFFFF" d="M119.254,660.587c-7.989,0-14.465,6.476-14.465,14.464c0,7.987,6.476,14.464,14.465,14.464h80.893v-28.928
			H119.254z"/>
		<path fill="#FFFFFF" d="M87.914,495.032c-7.988,0-14.464,6.476-14.464,14.464c0,7.987,6.476,14.464,14.464,14.464h112.234v-28.928
			H87.914z"/>
		<path fill="#FFFFFF" d="M191.576,576.674c-7.989,0-14.464,6.476-14.464,14.465c0,7.987,6.476,14.464,14.464,14.464h8.572v-28.929
			H191.576z"/>
	</g>
	<g>
		<path fill="#FFFFFF" d="M244.474,254.647h-20.916l-20.292-43.497c-1.527-3.33-3.087-6.087-4.683-8.272
			c-1.597-2.186-3.313-3.919-5.151-5.204c-1.839-1.283-3.85-2.201-6.035-2.757c-2.186-0.554-4.631-0.833-7.337-0.833h-8.74v60.563
			h-18.523V118.642h36.42c7.909,0,14.707,0.868,20.396,2.601c5.688,1.734,10.354,4.163,13.996,7.284
			c3.642,3.122,6.312,6.886,8.013,11.291c1.699,4.406,2.55,9.279,2.55,14.62c0,4.233-0.625,8.239-1.874,12.02
			c-1.249,3.782-3.105,7.216-5.567,10.301c-2.463,3.088-5.515,5.759-9.157,8.013c-3.643,2.255-7.823,3.938-12.54,5.047
			c3.814,1.318,7.058,3.626,9.73,6.92c2.669,3.295,5.393,7.684,8.168,13.164L244.474,254.647z M214.818,155.999
			c0-7.285-2.273-12.729-6.816-16.337c-4.544-3.606-10.943-5.411-19.199-5.411h-17.481v44.954h14.984
			c4.371,0,8.307-0.503,11.811-1.509c3.502-1.005,6.486-2.498,8.949-4.475c2.462-1.977,4.371-4.404,5.724-7.284
			C214.142,163.059,214.818,159.745,214.818,155.999z"/>
		<path fill="#FFFFFF" d="M370.54,254.647h-20.187l-9.469-29.657h-56.608l-9.573,29.657h-19.251l45.162-136.005h25.391
			L370.54,254.647z M335.577,208.444l-22.997-72.737l-22.997,72.737H335.577z"/>
		<path fill="#FFFFFF" d="M483.287,185.135c0,6.521-0.504,12.765-1.509,18.73c-1.007,5.967-2.62,11.517-4.839,16.649
			c-2.221,5.135-5.099,9.799-8.637,13.996c-3.538,4.198-7.875,7.788-13.007,10.771c-5.136,2.983-11.102,5.291-17.898,6.92
			c-6.8,1.631-14.535,2.445-23.207,2.445h-29.136V118.642h35.068c21.228,0,37.061,5.462,47.504,16.389
			C478.065,145.957,483.287,162.658,483.287,185.135z M463.827,186.488c0-9.642-0.902-17.794-2.705-24.454
			c-1.805-6.66-4.543-12.035-8.222-16.129c-3.677-4.093-8.289-7.058-13.839-8.897c-5.551-1.837-12.071-2.757-19.563-2.757h-15.921
			v104.371h13.84C448.357,238.621,463.827,221.244,463.827,186.488z"/>
		<path fill="#FFFFFF" d="M542.234,134.25h-31.322v-15.608h81.375v15.608h-31.322v104.58h31.322v15.817h-81.375V238.83h31.322
			V134.25z"/>
		<path fill="#FFFFFF" d="M723.764,185.759c0,12.211-1.44,22.755-4.318,31.634c-2.879,8.88-6.764,16.217-11.654,22.008
			c-4.891,5.793-10.614,10.094-17.17,12.904c-6.556,2.809-13.476,4.214-20.759,4.214c-8.742,0-16.355-1.579-22.841-4.734
			c-6.488-3.157-11.864-7.717-16.13-13.684c-4.267-5.966-7.44-13.232-9.522-21.801c-2.081-8.566-3.121-18.226-3.121-28.98
			c0-12.07,1.421-22.545,4.267-31.426c2.844-8.879,6.712-16.215,11.603-22.009c4.891-5.791,10.596-10.093,17.118-12.902
			c6.52-2.81,13.423-4.215,20.708-4.215c8.74,0,16.353,1.596,22.841,4.787c6.485,3.191,11.878,7.752,16.181,13.684
			c4.3,5.931,7.509,13.163,9.626,21.696C722.706,165.468,723.764,175.077,723.764,185.759z M704.513,187.112
			c0-7.977-0.608-15.279-1.82-21.905c-1.215-6.624-3.174-12.331-5.88-17.117c-2.705-4.788-6.191-8.498-10.458-11.135
			c-4.267-2.636-9.417-3.954-15.452-3.954c-5.828,0-10.841,1.404-15.037,4.214c-4.198,2.81-7.648,6.626-10.354,11.447
			c-2.705,4.823-4.718,10.476-6.035,16.962c-1.318,6.487-1.977,13.372-1.977,20.656c0,8.048,0.624,15.385,1.873,22.009
			c1.249,6.625,3.208,12.314,5.88,17.065c2.669,4.753,6.121,8.447,10.354,11.083c4.23,2.638,9.329,3.954,15.297,3.954
			c5.826,0,10.856-1.404,15.089-4.214c4.23-2.81,7.716-6.625,10.457-11.447c2.74-4.821,4.769-10.458,6.088-16.91
			C703.853,201.368,704.513,194.466,704.513,187.112z"/>
	</g>
	<g>
		<path fill="#FFFFFF" d="M487.419,404.472c0,6.642-0.513,13-1.537,19.074c-1.025,6.075-2.666,11.727-4.927,16.955
			c-2.263,5.229-5.193,9.979-8.795,14.252c-3.604,4.274-8.02,7.931-13.246,10.968c-5.229,3.037-11.304,5.387-18.226,7.047
			c-6.925,1.66-14.802,2.489-23.631,2.489h-29.671V336.76h35.711c21.617,0,37.74,5.563,48.374,16.69
			C482.102,364.576,487.419,381.583,487.419,404.472z M467.603,405.85c0-9.819-0.919-18.121-2.755-24.902
			c-1.838-6.782-4.628-12.255-8.371-16.424c-3.745-4.168-8.442-7.188-14.094-9.061c-5.652-1.871-12.293-2.808-19.921-2.808h-16.214
			v106.284h14.092C451.849,458.939,467.603,441.243,467.603,405.85z"/>
		<path fill="#FFFFFF" d="M608.644,405.108c0,12.434-1.466,23.172-4.396,32.213c-2.934,9.044-6.888,16.515-11.869,22.412
			c-4.98,5.899-10.808,10.278-17.483,13.139c-6.676,2.861-13.724,4.292-21.141,4.292c-8.9,0-16.655-1.607-23.26-4.821
			c-6.606-3.213-12.08-7.858-16.425-13.935c-4.345-6.075-7.577-13.474-9.696-22.2c-2.119-8.724-3.178-18.56-3.178-29.511
			c0-12.292,1.447-22.958,4.344-32.001c2.896-9.042,6.836-16.513,11.815-22.412c4.98-5.897,10.791-10.279,17.432-13.139
			c6.64-2.861,13.67-4.292,21.087-4.292c8.901,0,16.653,1.626,23.26,4.875c6.604,3.251,12.096,7.895,16.477,13.935
			s7.647,13.405,9.803,22.094C607.566,384.445,608.644,394.23,608.644,405.108z M589.041,406.485c0-8.123-0.619-15.559-1.854-22.306
			c-1.236-6.746-3.232-12.557-5.987-17.431c-2.756-4.875-6.305-8.653-10.65-11.338c-4.344-2.684-9.59-4.027-15.736-4.027
			c-5.934,0-11.038,1.431-15.312,4.292c-4.274,2.861-7.789,6.747-10.543,11.656c-2.756,4.911-4.805,10.668-6.146,17.272
			c-1.343,6.606-2.014,13.617-2.014,21.034c0,8.196,0.636,15.667,1.907,22.412c1.271,6.748,3.268,12.541,5.988,17.379
			c2.719,4.84,6.233,8.602,10.543,11.285c4.308,2.686,9.501,4.026,15.576,4.026c5.936,0,11.056-1.431,15.366-4.291
			c4.309-2.861,7.858-6.745,10.649-11.656c2.789-4.909,4.855-10.649,6.199-17.22C588.369,421.003,589.041,413.975,589.041,406.485z"
			/>
		<path fill="#FFFFFF" d="M724.677,352.867h-41.01v122.391h-19.073V352.867h-41.01V336.76h101.093V352.867z"/>
	</g>
	<g>
		<path fill="#FFFFFF" d="M482.074,688.587h-24.668l-40.51-86.656l-11.697-27.857v70.069v44.444h-17.65v-138.97h24.35l38.595,82.085
			l13.93,31.792v-74.43v-39.447h17.65V688.587z"/>
		<path fill="#FFFFFF" d="M594.994,688.587h-79.002v-138.97h79.002v15.949h-60.075v43.063h57.735v15.949h-57.735v47.848h60.075
			V688.587z"/>
		<path fill="#FFFFFF" d="M724.926,565.781h-41.149v122.807h-19.139V565.781h-41.148v-16.163h101.437V565.781z"/>
	</g>
</g>
</svg>
