<?xml version="1.0" encoding="utf-8"?>
<!-- Generator: Adobe Illustrator 15.0.0, SVG Export Plug-In . SVG Version: 6.00 Build 0)  -->
<!DOCTYPE svg PUBLIC "-//W3C//DTD SVG 1.1//EN" "http://www.w3.org/Graphics/SVG/1.1/DTD/svg11.dtd">
<svg version="1.1" id="Слой_1" xmlns="http://www.w3.org/2000/svg" xmlns:xlink="http://www.w3.org/1999/xlink" x="0px" y="0px"
	 width="850.39px" height="850.39px" viewBox="0 0 850.39 850.39" enable-background="new 0 0 850.39 850.39" xml:space="preserve">
<rect fill="#FFFFFF" width="850.39" height="850.39"/>
<rect x="14" y="14" fill="#69217A" width="822.39" height="822.39"/>
<g>
	<path fill="#FFFFFF" d="M471.673,421.172c0,6.833-0.528,13.373-1.582,19.623c-1.054,6.252-2.744,12.065-5.068,17.443
		c-2.328,5.379-5.342,10.267-9.049,14.662c-3.706,4.398-8.25,8.16-13.627,11.284c-5.379,3.126-11.629,5.543-18.751,7.25
		c-7.124,1.708-15.228,2.562-24.311,2.562H368.76V351.51h36.738c22.24,0,38.827,5.723,49.768,17.17
		C466.203,380.128,471.673,397.625,471.673,421.172z M451.286,422.59c0-10.102-0.946-18.642-2.834-25.619
		c-1.892-6.977-4.762-12.608-8.613-16.898c-3.853-4.288-8.686-7.394-14.499-9.321c-5.815-1.925-12.646-2.889-20.496-2.889h-16.679
		v109.344h14.499C435.078,477.207,451.286,459.001,451.286,422.59z"/>
	<path fill="#FFFFFF" d="M596.388,421.827c0,12.792-1.509,23.839-4.524,33.14c-3.018,9.306-7.087,16.991-12.21,23.058
		c-5.124,6.07-11.119,10.575-17.987,13.519c-6.868,2.944-14.118,4.415-21.75,4.415c-9.156,0-17.133-1.653-23.929-4.96
		c-6.797-3.307-12.427-8.085-16.897-14.336c-4.47-6.249-7.795-13.862-9.976-22.839c-2.18-8.976-3.271-19.095-3.271-30.361
		c0-12.646,1.489-23.619,4.47-32.923c2.98-9.303,7.031-16.989,12.156-23.058c5.124-6.067,11.101-10.574,17.933-13.518
		c6.831-2.943,14.063-4.416,21.695-4.416c9.156,0,17.132,1.673,23.929,5.015c6.795,3.344,12.445,8.122,16.952,14.336
		c4.505,6.213,7.866,13.791,10.084,22.73C595.279,400.568,596.388,410.636,596.388,421.827z M576.22,423.244
		c0-8.357-0.638-16.007-1.908-22.948c-1.271-6.939-3.324-12.918-6.159-17.933c-2.834-5.015-6.486-8.902-10.956-11.666
		c-4.47-2.761-9.866-4.143-16.189-4.143c-6.105,0-11.355,1.472-15.753,4.415c-4.398,2.944-8.013,6.941-10.847,11.993
		c-2.835,5.052-4.943,10.974-6.323,17.77c-1.382,6.796-2.072,14.009-2.072,21.64c0,8.431,0.654,16.117,1.964,23.056
		c1.307,6.942,3.359,12.902,6.158,17.88c2.798,4.979,6.414,8.85,10.847,11.609c4.434,2.764,9.774,4.144,16.026,4.144
		c6.105,0,11.374-1.472,15.808-4.415c4.432-2.944,8.084-6.939,10.957-11.992c2.87-5.051,4.995-10.956,6.377-17.715
		C575.528,438.179,576.22,430.948,576.22,423.244z"/>
	<path fill="#FFFFFF" d="M715.762,368.081h-42.189v125.915h-19.623V368.081H611.76V351.51h104.002V368.081z"/>
</g>
<g>
	<path fill="#FFFFFF" d="M466.767,699.479h-25.292l-41.535-88.849l-11.993-28.563v71.843v45.568h-18.096V556.994h24.964
		l39.573,84.161l14.281,32.595v-76.312v-40.444h18.098V699.479z"/>
	<path fill="#FFFFFF" d="M582.542,699.479h-81V556.994h81v16.353h-61.595v44.151h59.196v16.353h-59.196v49.058h61.595V699.479z"/>
	<path fill="#FFFFFF" d="M715.762,573.563h-42.189v125.915h-19.623V573.563H611.76v-16.569h104.002V573.563z"/>
</g>
<g>
	<path fill="#FFFFFF" d="M461.621,190.791c0,5.86-1.099,11.665-3.296,17.414c-2.197,5.75-5.603,10.895-10.218,15.436
		c-4.613,4.542-10.51,8.223-17.688,11.041c-7.179,2.821-15.748,4.23-25.708,4.23h-17.798v51.526h-19.556V146.846h40.43
		c7.104,0,13.915,0.788,20.435,2.362c6.518,1.576,12.25,4.12,17.193,7.636c4.944,3.516,8.881,8.058,11.811,13.623
		C460.155,176.033,461.621,182.809,461.621,190.791z M441.297,191.67c0-9.229-3.021-16.296-9.064-21.204
		c-6.042-4.906-14.484-7.361-25.323-7.361h-19.995v59.106h18.237c11.572,0,20.489-2.527,26.752-7.581
		C438.165,209.578,441.297,201.925,441.297,191.67z"/>
	<path fill="#FFFFFF" d="M589.172,290.437H567.09l-21.424-45.923c-1.611-3.516-3.26-6.427-4.943-8.734
		c-1.686-2.307-3.498-4.137-5.438-5.493c-1.941-1.354-4.064-2.324-6.372-2.911c-2.307-0.585-4.889-0.879-7.745-0.879h-9.229v63.94
		h-19.556V146.846h38.452c8.35,0,15.526,0.917,21.533,2.747c6.005,1.832,10.932,4.395,14.776,7.69
		c3.846,3.296,6.664,7.27,8.46,11.92c1.794,4.652,2.691,9.797,2.691,15.436c0,4.468-0.659,8.698-1.978,12.689
		c-1.318,3.993-3.279,7.619-5.878,10.877c-2.601,3.26-5.822,6.08-9.668,8.459c-3.845,2.381-8.259,4.158-13.238,5.329
		c4.027,1.392,7.452,3.828,10.272,7.306c2.818,3.479,5.693,8.112,8.624,13.897L589.172,290.437z M557.861,186.287
		c0-7.69-2.4-13.439-7.196-17.249c-4.798-3.808-11.554-5.713-20.27-5.713h-18.457v47.461h15.82c4.614,0,8.771-0.53,12.47-1.593
		c3.697-1.061,6.848-2.637,9.448-4.724c2.599-2.088,4.614-4.65,6.042-7.69C557.147,193.74,557.861,190.242,557.861,186.287z"/>
	<path fill="#FFFFFF" d="M715.734,290.437h-19.115l-2.857-89.539l-1.208-34.387l-6.702,19.995l-21.203,57.129h-13.514
		l-20.215-54.932l-6.701-22.192l-0.439,35.925l-2.527,88h-18.457l7.031-143.591h23.182l19.336,54.053l6.262,18.237l6.043-18.237
		l20.324-54.053h23.841L715.734,290.437z"/>
</g>
</svg>
